<svg width="32" height="27" viewBox="0 0 32 27" fill="none" xmlns="http://www.w3.org/2000/svg">
<g clip-path="url(#clip0_1143:1479)">
<path d="M24 15.71V16.5C24 16.6326 24.0527 16.7598 24.1464 16.8536C24.2402 16.9473 24.3674 17 24.5 17C24.6326 17 24.7598 16.9473 24.8536 16.8536C24.9473 16.7598 25 16.6326 25 16.5V7.5C25 6.83696 24.7366 6.20107 24.2678 5.73223C23.7989 5.26339 23.163 5 22.5 5H5.5C4.83696 5 4.20107 5.26339 3.73223 5.73223C3.26339 6.20107 3 6.83696 3 7.5V20.5C3 21.163 3.26339 21.7989 3.73223 22.2678C4.20107 22.7366 4.83696 23 5.5 23H18.5C18.6326 23 18.7598 22.9473 18.8536 22.8536C18.9473 22.7598 19 22.6326 19 22.5C19 22.3674 18.9473 22.2402 18.8536 22.1464C18.7598 22.0527 18.6326 22 18.5 22H5.5C5.10218 22 4.72064 21.842 4.43934 21.5607C4.15804 21.2794 4 20.8978 4 20.5V19.71L10.48 13.19L13.64 16.35L16.14 18.84C16.186 18.886 16.2405 18.9224 16.3006 18.9473C16.3606 18.9722 16.425 18.985 16.49 18.985C16.555 18.985 16.6194 18.9722 16.6794 18.9473C16.7395 18.9224 16.794 18.886 16.84 18.84C16.886 18.794 16.9224 18.7395 16.9473 18.6794C16.9722 18.6194 16.985 18.555 16.985 18.49C16.985 18.425 16.9722 18.3606 16.9473 18.3006C16.9224 18.2405 16.886 18.186 16.84 18.14L14.71 16L19.49 11.2L24 15.71ZM19.49 10C19.3549 10.0003 19.2254 10.0543 19.13 10.15L14 15.29L10.83 12.13C10.7854 12.082 10.7311 12.0438 10.6709 12.018C10.6106 11.9921 10.5456 11.9792 10.48 11.98V11.98C10.4144 11.9792 10.3494 11.9921 10.2891 12.018C10.2289 12.0438 10.1746 12.082 10.13 12.13L4 18.29V7.5C4 7.10218 4.15804 6.72064 4.43934 6.43934C4.72064 6.15804 5.10218 6 5.5 6H22.5C22.8978 6 23.2794 6.15804 23.5607 6.43934C23.842 6.72064 24 7.10218 24 7.5V14.29L19.84 10.14C19.7954 10.092 19.7412 10.0538 19.6809 10.028C19.6206 10.0021 19.5556 9.9892 19.49 9.99V10ZM16 10C16 10.1978 15.9414 10.3911 15.8315 10.5556C15.7216 10.72 15.5654 10.8482 15.3827 10.9239C15.2 10.9996 14.9989 11.0194 14.8049 10.9808C14.6109 10.9422 14.4327 10.847 14.2929 10.7071C14.153 10.5673 14.0578 10.3891 14.0192 10.1951C13.9806 10.0011 14.0004 9.80004 14.0761 9.61732C14.1518 9.43459 14.28 9.27841 14.4444 9.16853C14.6089 9.05865 14.8022 9 15 9C15.2652 9 15.5196 9.10536 15.7071 9.29289C15.8946 9.48043 16 9.73478 16 10ZM24.5 18C23.61 18 22.74 18.2639 21.9999 18.7584C21.2599 19.2529 20.6831 19.9557 20.3425 20.7779C20.0019 21.6002 19.9128 22.505 20.0865 23.3779C20.2601 24.2508 20.6887 25.0526 21.318 25.682C21.9474 26.3113 22.7492 26.7399 23.6221 26.9135C24.495 27.0872 25.3998 26.9981 26.2221 26.6575C27.0443 26.3169 27.7471 25.7401 28.2416 25.0001C28.7361 24.26 29 23.39 29 22.5C28.9974 21.3073 28.5224 20.1643 27.6791 19.3209C26.8357 18.4776 25.6927 18.0026 24.5 18V18ZM24.5 26C23.8078 26 23.1311 25.7947 22.5555 25.4101C21.9799 25.0256 21.5313 24.4789 21.2664 23.8394C21.0015 23.1999 20.9322 22.4961 21.0673 21.8172C21.2023 21.1383 21.5356 20.5146 22.0251 20.0251C22.5146 19.5356 23.1383 19.2023 23.8172 19.0673C24.4961 18.9322 25.1999 19.0015 25.8394 19.2664C26.4789 19.5313 27.0256 19.9799 27.4101 20.5555C27.7947 21.1311 28 21.8078 28 22.5C28 23.4283 27.6313 24.3185 26.9749 24.9749C26.3185 25.6313 25.4283 26 24.5 26V26ZM26 22.5C26 22.6326 25.9473 22.7598 25.8536 22.8536C25.7598 22.9473 25.6326 23 25.5 23H25V23.5C25 23.6326 24.9473 23.7598 24.8536 23.8536C24.7598 23.9473 24.6326 24 24.5 24C24.3674 24 24.2402 23.9473 24.1464 23.8536C24.0527 23.7598 24 23.6326 24 23.5V23H23.5C23.3674 23 23.2402 22.9473 23.1464 22.8536C23.0527 22.7598 23 22.6326 23 22.5C23 22.3674 23.0527 22.2402 23.1464 22.1464C23.2402 22.0527 23.3674 22 23.5 22H24V21.5C24 21.3674 24.0527 21.2402 24.1464 21.1464C24.2402 21.0527 24.3674 21 24.5 21C24.6326 21 24.7598 21.0527 24.8536 21.1464C24.9473 21.2402 25 21.3674 25 21.5V22H25.5C25.6326 22 25.7598 22.0527 25.8536 22.1464C25.9473 22.2402 26 22.3674 26 22.5Z" fill="#474D9B"/>
</g>
<defs>
<clipPath id="clip0_1143:1479">
<rect width="32" height="27" fill="white"/>
</clipPath>
</defs>
</svg>
