<svg width="26" height="22" viewBox="0 0 26 22" fill="none" xmlns="http://www.w3.org/2000/svg">
<path d="M21 10.71V11.5C21 11.6326 21.0527 11.7598 21.1464 11.8536C21.2402 11.9473 21.3674 12 21.5 12C21.6326 12 21.7598 11.9473 21.8536 11.8536C21.9473 11.7598 22 11.6326 22 11.5V2.5C22 1.83696 21.7366 1.20107 21.2678 0.73223C20.7989 0.26339 20.163 0 19.5 0H2.5C1.83696 0 1.20107 0.26339 0.73223 0.73223C0.26339 1.20107 0 1.83696 0 2.5V15.5C0 16.163 0.26339 16.7989 0.73223 17.2678C1.20107 17.7366 1.83696 18 2.5 18H15.5C15.6326 18 15.7598 17.9473 15.8536 17.8536C15.9473 17.7598 16 17.6326 16 17.5C16 17.3674 15.9473 17.2402 15.8536 17.1464C15.7598 17.0527 15.6326 17 15.5 17H2.5C2.10218 17 1.72064 16.842 1.43934 16.5607C1.15804 16.2794 1 15.8978 1 15.5V14.71L7.48 8.19L10.64 11.35L13.14 13.84C13.186 13.886 13.2405 13.9224 13.3006 13.9473C13.3606 13.9722 13.425 13.985 13.49 13.985C13.555 13.985 13.6194 13.9722 13.6794 13.9473C13.7395 13.9224 13.794 13.886 13.84 13.84C13.886 13.794 13.9224 13.7395 13.9473 13.6794C13.9722 13.6194 13.985 13.555 13.985 13.49C13.985 13.425 13.9722 13.3606 13.9473 13.3006C13.9224 13.2405 13.886 13.186 13.84 13.14L11.71 11L16.49 6.2L21 10.71ZM16.49 5C16.3549 5.0003 16.2254 5.0543 16.13 5.15L11 10.29L7.83 7.13C7.7854 7.082 7.7311 7.0438 7.6709 7.018C7.6106 6.9921 7.5456 6.9792 7.48 6.98C7.4144 6.9792 7.3494 6.9921 7.2891 7.018C7.2289 7.0438 7.1746 7.082 7.13 7.13L1 13.29V2.5C1 2.10218 1.15804 1.72064 1.43934 1.43934C1.72064 1.15804 2.10218 1 2.5 1H19.5C19.8978 1 20.2794 1.15804 20.5607 1.43934C20.842 1.72064 21 2.10218 21 2.5V9.29L16.84 5.14C16.7954 5.092 16.7412 5.0538 16.6809 5.028C16.6206 5.0021 16.5556 4.9892 16.49 4.99V5ZM13 5C13 5.1978 12.9414 5.3911 12.8315 5.5556C12.7216 5.72 12.5654 5.8482 12.3827 5.9239C12.2 5.9996 11.9989 6.0194 11.8049 5.9808C11.6109 5.9422 11.4327 5.847 11.2929 5.7071C11.153 5.5673 11.0578 5.3891 11.0192 5.1951C10.9806 5.0011 11.0004 4.80004 11.0761 4.61732C11.1518 4.43459 11.28 4.27841 11.4444 4.16853C11.6089 4.05865 11.8022 4 12 4C12.2652 4 12.5196 4.10536 12.7071 4.29289C12.8946 4.48043 13 4.73478 13 5ZM21.5 13C20.61 13 19.74 13.2639 18.9999 13.7584C18.2599 14.2529 17.6831 14.9557 17.3425 15.7779C17.0019 16.6002 16.9128 17.505 17.0865 18.3779C17.2601 19.2508 17.6887 20.0526 18.318 20.682C18.9474 21.3113 19.7492 21.7399 20.6221 21.9135C21.495 22.0872 22.3998 21.9981 23.2221 21.6575C24.0443 21.3169 24.7471 20.7401 25.2416 20.0001C25.7361 19.26 26 18.39 26 17.5C25.9974 16.3073 25.5224 15.1643 24.6791 14.3209C23.8357 13.4776 22.6927 13.0026 21.5 13ZM21.5 21C20.8078 21 20.1311 20.7947 19.5555 20.4101C18.9799 20.0256 18.5313 19.4789 18.2664 18.8394C18.0015 18.1999 17.9322 17.4961 18.0673 16.8172C18.2023 16.1383 18.5356 15.5146 19.0251 15.0251C19.5146 14.5356 20.1383 14.2023 20.8172 14.0673C21.4961 13.9322 22.1999 14.0015 22.8394 14.2664C23.4789 14.5313 24.0256 14.9799 24.4101 15.5555C24.7947 16.1311 25 16.8078 25 17.5C25 18.4283 24.6313 19.3185 23.9749 19.9749C23.3185 20.6313 22.4283 21 21.5 21ZM23 17.5C23 17.6326 22.9473 17.7598 22.8536 17.8536C22.7598 17.9473 22.6326 18 22.5 18H22V18.5C22 18.6326 21.9473 18.7598 21.8536 18.8536C21.7598 18.9473 21.6326 19 21.5 19C21.3674 19 21.2402 18.9473 21.1464 18.8536C21.0527 18.7598 21 18.6326 21 18.5V18H20.5C20.3674 18 20.2402 17.9473 20.1464 17.8536C20.0527 17.7598 20 17.6326 20 17.5C20 17.3674 20.0527 17.2402 20.1464 17.1464C20.2402 17.0527 20.3674 17 20.5 17H21V16.5C21 16.3674 21.0527 16.2402 21.1464 16.1464C21.2402 16.0527 21.3674 16 21.5 16C21.6326 16 21.7598 16.0527 21.8536 16.1464C21.9473 16.2402 22 16.3674 22 16.5V17H22.5C22.6326 17 22.7598 17.0527 22.8536 17.1464C22.9473 17.2402 23 17.3674 23 17.5Z" fill="#474D9B"/>
</svg>
