<svg width="60" height="60" viewBox="0 0 60 60" fill="none" xmlns="http://www.w3.org/2000/svg">
<path d="M27.7274 6L6 16.5246V22H51V16.4955L27.7274 6ZM48 18.9819H9V18.4211L27.7726 9.32785L48 18.4501V18.9819Z" fill="#878BC8" stroke="white" stroke-width="0.6"/>
<path d="M9 43H48V45H9V43Z" fill="#878BC8" stroke="white" stroke-width="0.6"/>
<path d="M6 48H51V51H6V48Z" fill="#878BC8" stroke="white" stroke-width="0.6"/>
<path d="M10 24H12V40H10V24Z" fill="#878BC8"/>
<path d="M45 24H47V40H45V24Z" fill="#878BC8"/>
<path d="M35 24H38V40H35V24Z" fill="#878BC8" stroke="white" stroke-width="0.6"/>
<path d="M19 24H22V40H19V24Z" fill="#878BC8" stroke="white" stroke-width="0.6"/>
<path d="M27 24H30V40H27V24Z" fill="#878BC8" stroke="white" stroke-width="0.6"/>
</svg>
