<svg width="60" height="60" viewBox="0 0 60 60" fill="none" xmlns="http://www.w3.org/2000/svg">
<path d="M29.0343 1.68256L1.875 14.7593V21.5625H58.125V14.7232L29.0343 1.68256ZM54.375 17.8125H5.625V17.1157L29.0907 5.8174L54.375 17.1518V17.8125Z" fill="#878BC8"/>
<path d="M5.625 47.8125H54.375V51.5625H5.625V47.8125Z" fill="#878BC8"/>
<path d="M1.875 54.375H58.125V58.125H1.875V54.375Z" fill="#878BC8"/>
<path d="M6.5625 25.3125H10.3125V44.0625H6.5625V25.3125Z" fill="#878BC8"/>
<path d="M49.6875 25.3125H53.4375V44.0625H49.6875V25.3125Z" fill="#878BC8"/>
<path d="M38.4375 25.3125H42.1875V44.0625H38.4375V25.3125Z" fill="#878BC8"/>
<path d="M17.8125 25.3125H21.5625V44.0625H17.8125V25.3125Z" fill="#878BC8"/>
<path d="M28.125 25.3125H31.875V44.0625H28.125V25.3125Z" fill="#878BC8"/>
</svg>
