<svg width="25" height="25" viewBox="0 0 25 25" fill="none" xmlns="http://www.w3.org/2000/svg">
<path d="M12.5 2.41724L5.54219 9.37505H1.5625V14.0625H2.53906L4.71172 21.3133L4.88281 21.875H20.1172L20.2883 21.3133L22.4609 14.0625H23.4375V9.37505H19.4578L12.5 2.41724ZM12.5 4.63911L17.2367 9.37505H7.76406L12.5 4.63911ZM3.125 10.9375H21.875V12.5H21.2891L21.118 13.0618L18.9453 20.3125H6.05469L3.88203 13.0618L3.71094 12.5H3.125V10.9375ZM8.59375 13.2813V18.75H10.1562V13.2813H8.59375ZM11.7188 13.2813V18.75H13.2812V13.2813H11.7188ZM14.8438 13.2813V18.75H16.4062V13.2813H14.8438Z" fill="#6D6D6D"/>
</svg>
