<svg width="15" height="19" viewBox="0 0 15 19" fill="none" xmlns="http://www.w3.org/2000/svg">
<path fill-rule="evenodd" clip-rule="evenodd" d="M5.86086 19H8.86193C9.27608 19 9.61219 18.6726 9.61219 18.2692C9.61219 17.8658 9.27608 17.5385 8.86193 17.5385H5.86086C5.4467 17.5385 5.11059 17.8658 5.11059 18.2692C5.11059 18.6726 5.4467 19 5.86086 19ZM5.12182 2.31956C3.02257 2.99976 1.35925 4.67695 1.35925 7.31847V12.9922L0.480711 14.7036C0.248093 15.1568 0.272878 15.6946 0.546696 16.1257C0.81984 16.5562 1.30301 16.8185 1.82301 16.8185H12.9C13.42 16.8185 13.9031 16.5562 14.1763 16.1257C14.4501 15.6946 14.4749 15.1568 14.2423 14.7036L13.3637 12.9922V7.31847C13.3637 4.67674 11.7004 2.99939 9.60114 2.31956C9.60868 2.27861 9.61236 2.23539 9.61236 2.19232C9.61236 0.98216 8.604 0 7.36156 0C6.11912 0 5.11076 0.98216 5.11076 2.19232C5.11076 2.23538 5.11444 2.27861 5.12198 2.31956H5.12182ZM12.8997 15.357H1.82279L2.78004 13.4914C2.83263 13.3898 2.85959 13.278 2.85959 13.1647V7.31846C2.85959 4.703 5.12849 3.43442 7.3612 3.43442C9.59391 3.43442 11.8628 4.703 11.8628 7.31846V13.1647C11.8628 13.278 11.8898 13.3898 11.9424 13.4914L12.8997 15.357ZM8.08774 2.00804C8.00367 1.69387 7.71026 1.46142 7.36144 1.46142C7.01261 1.46142 6.71921 1.69386 6.63513 2.00804C6.87596 1.98471 7.11831 1.97297 7.36144 1.97297C7.60457 1.97297 7.84692 1.98471 8.08774 2.00804Z" fill="#5E6C7C"/>
</svg>
