<svg width="36" height="36" viewBox="0 0 36 36" fill="none" xmlns="http://www.w3.org/2000/svg">
<path d="M32.8359 3.17813C32.5444 2.88327 32.1972 2.64935 31.8144 2.49001C31.4316 2.33067 31.0209 2.24908 30.6063 2.25001H21.9628C21.3958 2.25106 20.8521 2.47567 20.4497 2.87509L3.17036 20.1509C2.58075 20.7417 2.24962 21.5423 2.24962 22.377C2.24962 23.2116 2.58075 24.0122 3.17036 24.6031L11.3969 32.8296C11.9879 33.4195 12.7887 33.7508 13.6237 33.7508C14.4587 33.7508 15.2595 33.4195 15.8505 32.8296L33.1228 15.5609C33.523 15.1591 33.7484 14.6155 33.75 14.0484V5.40001C33.7525 4.98755 33.673 4.57871 33.5161 4.19726C33.3592 3.81581 33.128 3.46939 32.8359 3.17813ZM27 11.25C26.555 11.25 26.1199 11.118 25.7499 10.8708C25.3799 10.6236 25.0915 10.2722 24.9212 9.86104C24.7509 9.44991 24.7064 8.99751 24.7932 8.56105C24.88 8.1246 25.0943 7.72369 25.409 7.40902C25.7236 7.09435 26.1246 6.88006 26.561 6.79324C26.9975 6.70642 27.4499 6.75098 27.861 6.92128C28.2721 7.09158 28.6235 7.37996 28.8708 7.74997C29.118 8.11999 29.25 8.555 29.25 9.00001C29.25 9.59674 29.0129 10.169 28.591 10.591C28.169 11.013 27.5967 11.25 27 11.25Z" fill="#FF3541"/>
</svg>
