<svg width="125" height="125" viewBox="0 0 125 125" fill="none" xmlns="http://www.w3.org/2000/svg">
<path d="M14.3446 30.0962C13.3219 30.1003 12.4961 30.9326 12.5 31.9553V67.126H19.9038C22.3754 67.126 22.3754 70.8333 19.9038 70.8333H12.5V81.9444C12.4945 82.9685 13.3205 83.803 14.3446 83.8071H20.8804C20.8594 83.4986 20.8334 83.1911 20.8334 82.8776C20.8334 75.2455 27.0759 68.9815 34.7114 68.9815C42.3469 68.9815 48.6075 75.2421 48.6075 82.8776C48.6075 83.1912 48.5816 83.4985 48.5605 83.8071H73.6075C74.6387 83.8131 75.4762 82.9756 75.4702 81.9444V31.9553C75.4739 30.9255 74.6373 30.0903 73.6075 30.0962H14.3446ZM79.1667 37.5036C78.1496 37.5077 77.3261 38.3312 77.322 39.3482V81.9444C77.3161 82.9685 78.1425 83.803 79.1667 83.8071H81.0655C81.0445 83.4978 81.0185 83.1919 81.0185 82.8776C81.0185 75.2455 87.2719 68.9887 94.9074 68.9887C102.543 68.9887 108.796 75.2421 108.796 82.8776C108.796 83.1921 108.77 83.4977 108.749 83.8071H110.655C111.679 83.8031 112.506 82.9685 112.5 81.9444V60.6481C112.5 60.3944 112.449 60.1432 112.348 59.9103L109.849 54.1667H94.401C91.8765 54.2227 91.8765 50.407 94.401 50.463H108.239L103.082 38.6104C102.786 37.9376 102.12 37.5033 101.385 37.5036H79.1667ZM29.1631 39.3482H42.126C44.5976 39.3482 44.5976 43.0556 42.126 43.0556H29.1631C26.6915 43.0556 26.6915 39.3482 29.1631 39.3482ZM56.9517 41.645C65.8938 41.645 73.1771 48.9319 73.1771 57.874C73.1771 66.8161 65.8938 74.0994 56.9517 74.0994C48.0096 74.0994 40.7082 66.8161 40.7082 57.874C40.7082 48.9319 48.0096 41.645 56.9517 41.645ZM56.9517 45.3523C53.0114 45.3523 49.5068 47.1531 47.2114 49.9783C48.5357 50.7706 49.859 51.5647 51.1827 52.3582C51.5482 51.6662 52.0668 51.062 52.6729 50.6004C53.3737 50.0667 54.2006 49.7021 55.0926 49.4792V46.7701H58.7963V49.4792C59.6863 49.7019 60.514 50.0657 61.216 50.6004C62.3839 51.4899 63.2523 52.8868 63.2523 54.4813H59.5486C59.5486 54.2009 59.419 53.8911 58.9735 53.5518C58.528 53.2125 57.8015 52.9369 56.9517 52.9369C56.1018 52.9369 55.3572 53.2125 54.9118 53.5518C54.4663 53.8911 54.3403 54.2009 54.3403 54.4813C54.3403 54.7134 54.3329 54.7328 54.8575 55.0709C55.3817 55.409 56.3569 55.7825 57.4544 56.0945C58.6619 56.4377 59.9118 56.8213 61.0496 57.5448C61.6686 57.9385 62.2605 58.5398 62.6808 59.2629C64.6869 60.4624 66.7679 61.7166 68.4932 62.7496C69.1229 61.2523 69.4734 59.6063 69.4734 57.874C69.4734 50.9335 63.8922 45.3523 56.9517 45.3523ZM16.0229 48.6183C16.0816 48.6156 16.141 48.6156 16.2001 48.6183H34.7186C37.1336 48.6719 37.1336 52.2685 34.7186 52.322H16.2001C13.7832 52.3834 13.6111 48.7881 16.0229 48.6183ZM45.327 53.172C44.7412 54.6227 44.4155 56.2084 44.4155 57.874C44.4155 64.8145 50.0112 70.3957 56.9517 70.3957C60.826 70.3957 64.2726 68.6547 66.5654 65.9107C65.252 65.1203 63.935 64.3357 62.6194 63.5489C61.8466 64.8968 60.4316 65.8407 58.7963 66.2579V68.9851H55.0926V66.2688C54.2006 66.0459 53.3737 65.6777 52.6729 65.1439C51.505 64.2545 50.633 62.8576 50.633 61.263H54.3403C54.3403 61.5435 54.4662 61.8533 54.9118 62.1926C55.3572 62.5319 56.1018 62.8074 56.9517 62.8074C58.6512 62.8074 59.5325 61.8424 59.5486 61.2232C59.5542 60.9889 59.5921 60.9962 59.0676 60.6626C58.543 60.329 57.5529 59.9647 56.4453 59.6499C55.2278 59.3038 53.976 58.9148 52.8501 58.1887C52.3458 57.8634 51.8634 57.4003 51.4685 56.8576C49.354 55.5963 47.1471 54.2647 45.327 53.172ZM21.7557 57.874H31.0149C33.4299 57.9275 33.4299 61.5241 31.0149 61.5777H21.7557C19.3407 61.5241 19.3407 57.9276 21.7557 57.874ZM34.715 70.8333C28.0891 70.8333 22.6888 76.2517 22.6888 82.8776C22.6888 89.5035 28.0891 94.9038 34.715 94.9038C41.3409 94.9038 46.7593 89.5035 46.7593 82.8776C46.7593 76.2517 41.3409 70.8333 34.715 70.8333ZM94.9002 70.8333C88.2742 70.8333 82.874 76.2517 82.874 82.8776C82.874 89.5035 88.2742 94.9038 94.9002 94.9038C101.526 94.9038 106.944 89.5035 106.944 82.8776C106.944 76.2517 101.526 70.8333 94.9002 70.8333ZM34.715 78.2407C37.2499 78.2407 39.3519 80.3426 39.3519 82.8776C39.3519 85.4125 37.2499 87.5108 34.715 87.5108C32.1801 87.5108 30.0962 85.4125 30.0962 82.8776C30.0962 80.3426 32.1801 78.2407 34.715 78.2407ZM94.9002 78.2407C97.4351 78.2407 99.537 80.3426 99.537 82.8776C99.537 85.4125 97.4351 87.5108 94.9002 87.5108C92.3652 87.5108 90.2814 85.4125 90.2814 82.8776C90.2814 80.3426 92.3652 78.2407 94.9002 78.2407ZM34.7222 80.0926C33.1881 80.0926 31.9445 81.3362 31.9445 82.8704C31.9445 84.4045 33.1881 85.6481 34.7222 85.6481C36.2564 85.6481 37.5 84.4045 37.5 82.8704C37.5 81.3362 36.2564 80.0926 34.7222 80.0926ZM94.9074 80.0926C93.3733 80.0926 92.1296 81.3362 92.1296 82.8704C92.1296 84.4045 93.3733 85.6481 94.9074 85.6481C96.4415 85.6481 97.6852 84.4045 97.6852 82.8704C97.6852 81.3362 96.4415 80.0926 94.9074 80.0926Z" fill="#878BC8"/>
</svg>
