<svg width="125" height="125" viewBox="0 0 125 125" fill="none" xmlns="http://www.w3.org/2000/svg">
<path d="M61.411 12.5001C53.1623 12.5001 45.9129 14.6367 40.5534 18.9681C36.2258 22.4656 33.2307 27.3715 31.9052 33.394C30.8406 33.3939 29.7177 33.394 28.6712 33.394C27.4558 33.4508 26.3976 34.6107 26.4546 35.8286C26.5116 37.0464 27.6738 38.1025 28.8892 38.0451L31.2148 38.0814C31.2279 62.7347 31.2217 88.0965 31.2148 110.174C31.2148 111.392 32.3251 112.5 33.5403 112.5H42.8063C44.0216 112.5 45.1319 111.392 45.1319 110.174V103.198H79.943V110.174C79.943 111.392 81.0533 112.5 82.2685 112.5H91.5345C92.7498 112.5 93.8601 111.392 93.8601 110.174C93.8087 85.4112 93.9106 60.0186 93.8601 38.0814L96.1857 38.0451C97.4119 38.0625 98.5476 36.9483 98.5476 35.7195C98.5476 34.4908 97.4119 33.3766 96.1857 33.394H93.097C91.5849 27.2937 88.0626 22.3554 83.286 18.8954C76.4682 14.8108 69.4979 12.4852 61.411 12.5001ZM61.411 17.1512C68.8644 17.1512 75.6294 19.0661 80.5607 22.6382C84.2591 25.3172 86.9906 28.8743 88.3369 33.394H36.629C37.8313 28.7925 40.2165 25.2165 43.4967 22.5655C47.849 19.0481 53.963 17.1512 61.411 17.1512ZM35.8296 38.0815H89.2453C89.3675 58.7473 89.2476 79.919 89.2453 98.5465H35.9023C36.0073 77.8317 35.7664 56.5667 35.8296 38.0815ZM48.3296 42.6963C46.9372 42.8212 45.8888 44.4225 46.331 45.7486L48.6566 52.7254C48.961 53.6504 49.8994 54.3272 50.8732 54.3242H74.129C75.1028 54.3242 76.0412 53.6504 76.3456 52.7254L78.6712 45.7486C79.1292 44.3555 77.921 42.6918 76.4546 42.6963C67.0856 42.6963 57.6826 42.6963 48.3296 42.6963ZM51.7816 47.3475H73.2206L72.4575 49.673H52.5447L51.7816 47.3475ZM35.8296 103.198H40.4808V107.849H35.8296V103.198ZM84.5941 103.198H89.2453V107.849H84.5941V103.198Z" fill="#878BC8"/>
</svg>
