<svg width="125" height="125" viewBox="0 0 125 125" fill="none" xmlns="http://www.w3.org/2000/svg">
<path d="M112.496 66.595C112.496 65.08 112.041 63.7165 111.284 62.5045L101.133 45.6878C99.6179 43.2638 97.0424 41.9003 94.3154 41.9003H79.3167V31.4467C79.3167 30.5376 78.7107 29.9316 77.8017 29.9316C76.8927 29.9316 76.2867 30.5376 76.2867 31.4467V70.9886H15.5345V31.4467C15.5345 30.5376 14.9285 29.9316 14.0195 29.9316C13.1105 29.9316 12.5045 30.5376 12.5045 31.4467C12.5045 69.928 12.5045 94.6228 12.5045 98.2588C12.5045 99.1678 13.1105 99.7738 14.0195 99.7738H29.9272C29.3212 106.591 34.6237 112.5 41.4413 112.5C48.2589 112.5 53.7129 106.591 52.9554 99.7738H78.7107C78.2562 106.591 83.7102 112.5 90.5278 112.5C97.3454 112.5 102.799 106.591 102.042 99.7738H110.981C111.89 99.7738 112.496 99.1678 112.496 98.2588C112.496 68.5645 112.496 95.8348 112.496 66.595ZM94.3154 44.7788C95.9819 44.7788 97.6484 45.6878 98.5574 47.2028L108.708 64.0195C109.163 64.777 109.466 65.686 109.466 66.595V80.5332H79.3167V44.7788H94.3154ZM76.2867 73.8671V80.3817H15.5345V73.8671H76.2867ZM41.5928 109.47C36.8963 109.47 32.9572 105.682 32.9572 100.834C32.9572 96.1378 36.7448 92.1988 41.5928 92.1988C46.2894 92.1988 50.2284 95.9863 50.2284 100.834C50.0769 105.682 46.2894 109.47 41.5928 109.47ZM90.5278 109.47C85.8313 109.47 81.8922 105.682 81.8922 100.834C81.8922 96.1378 85.6798 92.1988 90.5278 92.1988C95.2244 92.1988 99.1634 95.9863 99.1634 100.834C99.1634 105.682 95.2244 109.47 90.5278 109.47ZM109.466 96.7438H101.436C99.7694 92.3503 95.5274 89.3202 90.5278 89.3202C85.5283 89.3202 81.2862 92.3503 79.6197 96.7438H52.3494C50.6829 92.3503 46.4409 89.3202 41.4413 89.3202C36.4418 89.3202 32.1997 92.3503 30.5332 96.7438H15.5345V83.5632H109.466V96.7438Z" fill="#878BC8"/>
<path d="M86.4371 66.7466H101.587C102.496 66.7466 103.102 66.1406 103.102 65.2316C103.102 64.7771 102.951 64.4741 102.648 64.1711L95.2242 52.2024C94.4667 50.9904 93.1032 50.2329 91.7397 50.2329H86.2856C85.3766 50.2329 84.7706 50.8389 84.7706 51.7479V65.0801C84.9221 65.9891 85.5281 66.7466 86.4371 66.7466ZM87.9522 53.2629H91.8912C92.1942 53.2629 92.6487 53.4144 92.8002 53.7174L98.8603 63.565H87.9522V53.2629Z" fill="#878BC8"/>
<path d="M19.7768 33.4162H20.6858V64.9285C20.6858 65.8375 21.4433 66.7465 22.5038 66.7465H69.9238C70.8328 66.7465 71.7418 65.989 71.7418 64.9285V33.4162H72.6508C73.5598 33.4162 74.4688 32.6587 74.4688 31.5982V23.2656C74.4688 22.3566 73.7113 21.4476 72.6508 21.4476H62.8032C63.1062 20.6901 63.2577 19.9326 63.2577 19.0235C62.6517 12.0545 52.8041 10.085 49.1681 15.9935L46.2895 20.5386L43.411 15.9935C39.6235 10.085 29.9274 12.0545 29.3214 19.0235C29.1699 19.9326 29.4729 20.6901 29.7759 21.4476H19.7768C18.8677 21.4476 17.9587 22.2051 17.9587 23.2656V31.7497C17.9587 32.6587 18.7162 33.4162 19.7768 33.4162ZM68.7118 63.7165H23.7158V33.4162H68.5603V63.7165H68.7118ZM51.5921 17.66C53.8646 14.1755 59.7732 15.3875 60.2277 19.3265C60.3792 20.3871 59.4702 21.4476 58.1067 21.4476H49.1681L51.5921 17.66ZM32.1999 19.3265C32.5029 15.236 38.563 14.024 40.8355 17.66L43.2595 21.4476H34.4724C33.1089 21.4476 32.0484 20.5386 32.1999 19.3265ZM20.9888 24.4776C27.2003 24.4776 66.1362 24.4776 71.4388 24.4776V30.3862C53.5616 30.3862 38.563 30.3862 20.9888 30.3862V24.4776Z" fill="#878BC8"/>
<path d="M31.2907 49.6268H35.5327V47.6573H31.2907V45.6878H35.6842V43.8698H29.1697V53.2628H31.2907V49.6268Z" fill="#878BC8"/>
<path d="M39.6233 50.2328H41.1384L43.2594 53.2628H45.8349L43.4109 49.9298C44.6229 49.4753 45.2289 48.5663 45.2289 47.0513C45.2289 44.4758 43.7139 43.8698 41.1384 43.8698H37.5023V53.4143H39.6233V50.2328ZM39.6233 45.6878H41.1384C42.3504 45.6878 42.9564 45.8393 42.9564 47.0513C42.9564 48.2633 42.3504 48.5663 41.1384 48.5663H39.6233V45.6878Z" fill="#878BC8"/>
<path d="M54.3189 51.4448H49.4709V49.4753H53.7129V47.6573H49.4709V45.6878H54.1674V43.8698H47.3499V53.2628H54.3189V51.4448Z" fill="#878BC8"/>
<path d="M63.2574 51.4448H58.4094V49.4753H62.6514V47.6573H58.4094V45.6878H63.1059V43.8698H56.2883V53.2628H63.2574V51.4448Z" fill="#878BC8"/>
</svg>
