<svg width="125" height="125" viewBox="0 0 125 125" fill="none" xmlns="http://www.w3.org/2000/svg">
<path d="M110.183 21.0366H57.6286C56.3647 21.0366 55.3115 22.0898 55.3115 23.3537V43.891C55.7328 43.891 56.0488 43.891 56.1541 43.891H56.3647C56.47 43.891 56.5754 43.891 56.6807 43.891C57.8392 43.891 58.9977 44.2069 59.9456 44.8388V38.309H85.8542C85.9595 38.5197 86.1702 38.7303 86.3808 38.7303C86.6968 38.7303 86.8021 38.5197 86.9074 38.309H88.9085C88.8031 38.7303 88.3819 39.0463 87.9606 39.0463C87.5393 39.0463 87.3287 39.3622 87.3287 39.6782V41.0473C86.9074 41.1527 86.4861 41.258 86.1702 41.4686L84.0638 42.7325C83.8531 42.4165 83.4318 42.3112 83.1159 42.5218C82.3787 42.8378 82.0627 43.0484 81.9574 43.0484C81.9574 43.0484 81.7467 43.1537 81.6414 43.2591C80.4829 43.7856 77.4286 45.1548 76.5861 46.524C75.7435 47.9984 73.5318 51.8953 72.5839 53.5804C72.3733 54.0016 72.4786 54.6336 72.7946 54.9495C73.6371 55.6868 75.4276 57.0559 77.0074 57.2666C77.4286 57.3719 77.8499 57.1612 78.0606 56.8453C78.4818 56.3187 78.9031 55.7921 79.2191 55.5814C79.3244 57.5825 79.7457 65.3762 79.535 70.6421C79.535 71.3794 80.0616 72.1166 80.9042 72.1166C82.9053 72.3273 86.0648 72.5379 89.5404 72.5379C91.6468 72.5379 93.8585 72.4326 96.0702 72.1166C96.8074 72.0113 97.334 71.3794 97.334 70.6421C97.1234 64.7442 97.0181 58.0038 97.334 55.5814L98.2819 56.74C98.5979 57.1612 99.2298 57.2666 99.6511 56.9506C100.599 56.424 102.389 55.2655 103.443 54.5282C103.864 54.2123 103.969 53.5804 103.653 53.0538C102.495 51.2633 99.5457 46.4186 98.0713 45.2601C97.0181 44.4176 94.5957 43.1537 93.2266 42.5218C92.9106 42.3112 92.4893 42.4165 92.2787 42.7325C92.2787 42.7325 92.2787 42.7325 92.1734 42.8378L90.067 41.4686C89.6457 41.258 89.3297 41.0473 88.9085 41.0473V40.2048C89.751 39.8888 90.3829 39.1516 90.4883 38.2037H107.971V78.7518H85.4329V102.975H110.183C111.447 102.975 112.5 101.922 112.5 100.658V23.3537C112.5 22.0898 111.447 21.0366 110.183 21.0366ZM89.2244 42.8378L91.0149 43.9963C90.1723 44.5229 89.1191 44.8388 88.0659 44.8388C86.9074 44.8388 85.9595 44.5229 85.117 43.9963L86.9074 42.8378C87.2234 42.6271 87.6446 42.5218 88.0659 42.5218H88.1712C88.5925 42.5218 88.9085 42.6271 89.2244 42.8378ZM100.178 87.2826H94.8064C93.9638 87.2826 93.2266 86.6507 93.2266 85.7028C93.2266 84.8603 93.9638 84.123 94.8064 84.123H100.178C101.02 84.123 101.757 84.8603 101.757 85.7028C101.757 86.5454 101.126 87.2826 100.178 87.2826ZM89.5404 36.308C89.1191 35.992 88.5925 35.7814 88.0659 35.7814C87.5393 35.7814 87.0127 35.992 86.5914 36.308H59.9456V29.7781H107.971V36.308H89.5404Z" fill="#878BC8"/>
<path d="M71.0041 86.5454C71.1095 88.8624 69.4243 90.8635 67.1073 91.1794C65.0009 91.3901 62.6839 91.6007 60.2615 91.6007C58.4711 91.6007 56.786 91.4954 55.3115 91.4954V100.974C55.3115 102.238 56.3647 103.291 57.6286 103.291H82.3787V79.0677H70.8988C70.8988 81.1741 71.0041 83.7018 71.0041 86.5454Z" fill="#878BC8"/>
<path d="M66.686 88.1252C67.4232 88.0199 67.9498 87.388 67.9498 86.6507C67.7392 80.7528 67.6339 74.0124 67.9498 71.59L68.8977 72.7485C69.2137 73.1698 69.8456 73.2751 70.2668 72.9592C71.2147 72.4326 73.0052 71.2741 74.0584 70.5368C74.4796 70.2209 74.585 69.589 74.269 69.0624C73.1105 67.2719 70.1615 62.4272 68.6871 61.2687C67.6339 60.4261 65.2115 59.1623 63.8424 58.5304C63.5264 58.3198 63.1051 58.4251 62.8945 58.741C62.8945 58.741 62.8945 58.741 62.7892 58.8464L60.6828 57.4772C60.2615 57.2666 59.9455 57.0559 59.5243 57.0559V56.2134C60.4721 55.8974 61.2094 54.9495 61.2094 54.0017C61.2094 53.0538 60.5774 52.2112 59.8402 51.8953C60.0508 51.3687 60.1562 50.8421 60.1562 50.3155C60.0508 48.4197 58.4711 47.0506 56.5753 47.1559C56.5753 47.1559 51.8359 47.4718 47.0965 46.4186C44.7795 45.8921 42.5678 44.9442 40.672 44.1016C38.5657 43.1537 36.7752 42.4165 35.0901 42.4165H25.9273C19.9241 42.4165 17.5017 48.841 16.2379 52.3165C16.0273 52.7378 15.922 53.2644 15.7113 53.5804C14.3422 56.424 12.657 64.6389 12.5517 65.5868C12.2358 67.4826 13.3943 69.273 15.29 69.589C15.5007 69.589 15.7113 69.6943 15.922 69.6943C17.5017 69.6943 18.9762 68.5358 19.2922 66.956C19.9241 63.6911 21.1879 57.8985 22.0305 56.0027C22.2411 55.5814 22.3464 55.0549 22.5571 54.5283L22.873 67.7985L19.0815 99.4997C18.8709 101.711 20.3454 103.712 22.5571 103.923C22.6624 103.923 22.873 103.923 22.9784 103.923C24.9794 103.923 26.6645 102.449 26.9805 100.342L30.3507 71.59L33.721 100.448C33.9316 102.659 35.9327 104.239 38.1444 103.923C40.3561 103.712 41.9359 101.711 41.6199 99.4997L37.9337 67.7985L38.2497 50.4208C40.2508 51.2633 42.6731 52.3165 45.4114 52.9485C50.3615 54.0017 55.1008 53.8963 56.47 53.8963C56.47 53.8963 56.47 53.8963 56.47 54.0017C56.47 54.4229 56.7859 54.6336 57.1019 54.6336C57.5232 54.6336 57.7338 54.3176 57.7338 54.0017C57.7338 53.8963 57.7338 53.791 57.8391 53.6857C58.1551 53.5804 58.4711 53.3697 58.787 53.0538C59.3136 53.0538 59.7349 53.4751 59.7349 54.0017C59.7349 54.5283 59.3136 54.9495 58.787 54.9495C58.3657 54.9495 58.1551 55.2655 58.1551 55.5815V56.9506C57.7338 57.0559 57.3125 57.1612 56.9966 57.3719L54.8902 58.6357C54.6796 58.3198 54.2583 58.2144 53.9423 58.4251C53.2051 58.741 52.8891 58.9517 52.7838 58.9517C52.7838 58.9517 52.5732 59.057 52.4678 59.1623C51.3093 59.6889 48.2551 61.0581 47.4125 62.4272C46.5699 63.9017 44.3582 67.7985 43.4104 69.4836C43.1997 69.9049 43.305 70.5368 43.621 70.8528C44.4636 71.59 46.254 72.9592 47.8338 73.1698C48.2551 73.2751 48.6763 73.0645 48.887 72.7485C49.3083 72.2219 49.7295 71.6953 50.0455 71.4847C50.1508 73.4858 50.5721 81.2794 50.3615 86.5454C50.3615 87.2826 50.888 88.0199 51.7306 88.0199C53.7317 88.2305 56.8913 88.4412 60.3668 88.4412C62.3679 88.4412 64.5796 88.4412 66.686 88.1252ZM55.8381 59.7942L57.6285 58.6357C57.9445 58.4251 58.3657 58.3198 58.787 58.3198H58.8923C59.3136 58.3198 59.6296 58.4251 59.9455 58.6357L61.736 59.7942C60.8934 60.3208 59.8402 60.6368 58.787 60.6368C57.7338 60.6368 56.6806 60.3208 55.8381 59.7942Z" fill="#878BC8"/>
<path d="M30.3507 39.9941C34.7714 39.9941 38.355 36.4105 38.355 31.9898C38.355 27.5692 34.7714 23.9855 30.3507 23.9855C25.9301 23.9855 22.3464 27.5692 22.3464 31.9898C22.3464 36.4105 25.9301 39.9941 30.3507 39.9941Z" fill="#878BC8"/>
</svg>
