<svg width="125" height="125" viewBox="0 0 125 125" fill="none" xmlns="http://www.w3.org/2000/svg">
<path d="M110.028 52.2917C110.282 52.4316 110.568 52.503 110.857 52.4988C111.147 52.4946 111.431 52.415 111.68 52.2677C111.93 52.1205 112.137 51.9108 112.28 51.6593C112.424 51.4077 112.5 51.123 112.5 50.8333V40.8333C112.5 40.5354 112.42 40.243 112.268 39.9865C112.117 39.7301 111.899 39.5189 111.638 39.375L92.5 28.8183V14.1667C92.5 13.7246 92.3244 13.3007 92.0118 12.9882C91.6993 12.6756 91.2754 12.5 90.8333 12.5H82.5C82.058 12.5 81.634 12.6756 81.3215 12.9882C81.0089 13.3007 80.8333 13.7246 80.8333 14.1667V22.3833L63.2917 12.7167C63.0449 12.5804 62.7677 12.5089 62.4858 12.5089C62.204 12.5089 61.9267 12.5804 61.68 12.7167L13.3617 39.3833C13.102 39.5265 12.8853 39.7364 12.7339 39.9913C12.5824 40.2462 12.5017 40.5368 12.5 40.8333V50.8333C12.5002 51.123 12.5759 51.4077 12.7196 51.6593C12.8634 51.9108 13.0702 52.1205 13.3197 52.2677C13.5693 52.415 13.8528 52.4946 14.1425 52.4988C14.4322 52.503 14.718 52.4316 14.9717 52.2917L22.5 48.1383V99.1667H14.1667C13.7246 99.1667 13.3007 99.3423 12.9882 99.6548C12.6756 99.9674 12.5 100.391 12.5 100.833C12.5 101.275 12.6756 101.699 12.9882 102.012C13.3007 102.324 13.7246 102.5 14.1667 102.5H35.8333V107.5C35.8333 108.826 36.3601 110.098 37.2978 111.036C38.2355 111.973 39.5072 112.5 40.8333 112.5H84.1667C85.4927 112.5 86.7645 111.973 87.7022 111.036C88.6399 110.098 89.1667 108.826 89.1667 107.5V102.5H110.833C111.275 102.5 111.699 102.324 112.012 102.012C112.324 101.699 112.5 101.275 112.5 100.833C112.5 100.391 112.324 99.9674 112.012 99.6548C111.699 99.3423 111.275 99.1667 110.833 99.1667H102.5V48.14L110.028 52.2917ZM84.1667 15.8333H89.1667V26.98L84.1667 24.2217V15.8333ZM15.8333 41.8167L62.4867 16.07L109.167 41.8167V48.0117L63.2917 22.7083C63.0449 22.5721 62.7677 22.5006 62.4858 22.5006C62.204 22.5006 61.9267 22.5721 61.68 22.7083L15.8333 48.01V41.8167ZM85.8333 107.5C85.8333 107.942 85.6577 108.366 85.3452 108.679C85.0326 108.991 84.6087 109.167 84.1667 109.167H40.8333C40.3913 109.167 39.9674 108.991 39.6548 108.679C39.3423 108.366 39.1667 107.942 39.1667 107.5V64.1667C39.1667 63.7246 39.3423 63.3007 39.6548 62.9882C39.9674 62.6756 40.3913 62.5 40.8333 62.5H54.1667V80.8333C54.1655 81.1175 54.2371 81.3972 54.3745 81.6459C54.5119 81.8946 54.7106 82.1041 54.9517 82.2544C55.1929 82.4047 55.4685 82.4908 55.7523 82.5047C56.0361 82.5185 56.3187 82.4595 56.5733 82.3333L62.5567 79.37L68.415 82.3283C68.6697 82.457 68.9531 82.5182 69.2382 82.5059C69.5232 82.4937 69.8004 82.4085 70.0431 82.2585C70.2858 82.1084 70.4859 81.8986 70.6242 81.6491C70.7626 81.3995 70.8346 81.1187 70.8333 80.8333V62.5H84.1667C84.6087 62.5 85.0326 62.6756 85.3452 62.9882C85.6577 63.3007 85.8333 63.7246 85.8333 64.1667V107.5ZM57.5 62.5H67.5V78.125L63.315 76.0117C63.0839 75.8953 62.8287 75.8347 62.57 75.8347C62.3113 75.8347 62.0561 75.8953 61.825 76.0117L57.5 78.1483V62.5ZM99.1667 99.1667H89.1667V64.1667C89.1667 62.8406 88.6399 61.5688 87.7022 60.6311C86.7645 59.6935 85.4927 59.1667 84.1667 59.1667H40.8333C39.5072 59.1667 38.2355 59.6935 37.2978 60.6311C36.3601 61.5688 35.8333 62.8406 35.8333 64.1667V99.1667H25.8333V46.2983L62.4867 26.07L99.1667 46.3017V99.1667Z" fill="#878BC8"/>
<path d="M54.1667 42.5C54.1667 44.1481 54.6555 45.7593 55.5712 47.1297C56.4868 48.5001 57.7883 49.5682 59.3111 50.199C60.8338 50.8297 62.5093 50.9947 64.1258 50.6732C65.7423 50.3516 67.2272 49.558 68.3926 48.3925C69.5581 47.2271 70.3517 45.7422 70.6733 44.1257C70.9948 42.5092 70.8298 40.8336 70.1991 39.3109C69.5683 37.7882 68.5002 36.4867 67.1298 35.571C65.7594 34.6554 64.1483 34.1666 62.5001 34.1666C60.2908 34.1693 58.1727 35.0481 56.6104 36.6103C55.0482 38.1726 54.1694 40.2906 54.1667 42.5ZM62.5001 37.5C63.489 37.5 64.4557 37.7932 65.2779 38.3426C66.1002 38.892 66.741 39.6729 67.1195 40.5865C67.4979 41.5002 67.5969 42.5055 67.404 43.4754C67.2111 44.4453 66.7349 45.3362 66.0356 46.0355C65.3363 46.7348 64.4454 47.211 63.4755 47.4039C62.5056 47.5968 61.5003 47.4978 60.5867 47.1194C59.673 46.7409 58.8921 46.1001 58.3427 45.2778C57.7933 44.4556 57.5001 43.4889 57.5001 42.5C57.5001 41.1739 58.0269 39.9021 58.9645 38.9644C59.9022 38.0267 61.174 37.5 62.5001 37.5Z" fill="#878BC8"/>
</svg>
