<svg width="125" height="125" viewBox="0 0 125 125" fill="none" xmlns="http://www.w3.org/2000/svg">
<path d="M50 25H12.5V35.7143H14.2857H50V25Z" fill="#878BC8"/>
<path d="M75 25V35.7143H110.714H112.5V25H75Z" fill="#878BC8"/>
<path d="M71.4286 25H53.5714V35.7143H71.4286V25Z" fill="#878BC8"/>
<path d="M57.1428 50C57.4956 49.9999 57.8404 50.1043 58.1339 50.3L62.5 53.2143L66.8643 50.3036C67.1577 50.1078 67.5026 50.0033 67.8553 50.0033C68.2081 50.0033 68.553 50.1078 68.8464 50.3036L71.4286 52.0214V39.2857H53.5714V52.0214L56.1518 50.3C56.4452 50.1043 56.7901 49.9999 57.1428 50Z" fill="#878BC8"/>
<path d="M75 55.3571C75 55.6804 74.9123 55.9977 74.7462 56.275C74.5801 56.5524 74.3418 56.7794 74.0567 56.9319C73.7716 57.0844 73.4505 57.1567 73.1276 57.141C72.8047 57.1253 72.4921 57.0223 72.2232 56.8428L67.8571 53.9286L63.4928 56.8393C63.1994 57.0351 62.8545 57.1395 62.5018 57.1395C62.149 57.1395 61.8041 57.0351 61.5107 56.8393L57.1428 53.9286L52.7768 56.8393C52.5081 57.0185 52.1958 57.1216 51.8732 57.1374C51.5506 57.1532 51.2298 57.0813 50.9448 56.9292C50.6599 56.7771 50.4215 56.5506 50.2551 56.2737C50.0888 55.9969 50.0006 55.6801 50 55.3571V39.2857H16.0714V100H108.929V39.2857H75V55.3571ZM19.6428 42.8571H26.7857V46.4286H19.6428V42.8571ZM19.6428 50H39.2857V53.5714H19.6428V50ZM98.2143 42.8571H105.357V46.4286H98.2143V42.8571ZM85.7143 50H105.357V53.5714H85.7143V50ZM91.0714 80.3571C91.0672 84.1446 89.5607 87.7758 86.8825 90.454C84.2044 93.1321 80.5732 94.6386 76.7857 94.6428H35.7143C35.2407 94.6428 34.7865 94.4547 34.4516 94.1198C34.1167 93.7849 33.9286 93.3307 33.9286 92.8571C33.9286 92.3835 34.1167 91.9293 34.4516 91.5944C34.7865 91.2596 35.2407 91.0714 35.7143 91.0714H76.7857C79.6273 91.0714 82.3525 89.9426 84.3618 87.9333C86.3712 85.924 87.5 83.1987 87.5 80.3571C87.5 77.5155 86.3712 74.7903 84.3618 72.781C82.3525 70.7717 79.6273 69.6428 76.7857 69.6428H39.2857L42.1428 71.7857C42.3304 71.9264 42.4885 72.1027 42.608 72.3045C42.7274 72.5062 42.806 72.7296 42.8392 72.9617C42.8723 73.1939 42.8595 73.4303 42.8013 73.6575C42.7431 73.8846 42.6407 74.0981 42.5 74.2857C42.3593 74.4733 42.183 74.6314 41.9812 74.7508C41.7794 74.8703 41.5561 74.9489 41.3239 74.982C41.0918 75.0152 40.8554 75.0023 40.6282 74.9441C40.4011 74.8859 40.1876 74.7836 40 74.6428L32.8571 69.2857C32.6353 69.1194 32.4553 68.9037 32.3314 68.6557C32.2074 68.4078 32.1428 68.1344 32.1428 67.8571C32.1428 67.5799 32.2074 67.3065 32.3314 67.0585C32.4553 66.8106 32.6353 66.5949 32.8571 66.4286L40 61.0714C40.1876 60.9307 40.4011 60.8283 40.6282 60.7701C40.8554 60.7119 41.0918 60.6991 41.3239 60.7322C41.5561 60.7654 41.7794 60.844 41.9812 60.9634C42.183 61.0829 42.3593 61.241 42.5 61.4286C42.6407 61.6162 42.7431 61.8296 42.8013 62.0568C42.8595 62.284 42.8723 62.5204 42.8392 62.7525C42.806 62.9847 42.7274 63.208 42.608 63.4098C42.4885 63.6116 42.3304 63.7879 42.1428 63.9286L39.2857 66.0714H76.7857C80.5732 66.0757 84.2044 67.5821 86.8825 70.2603C89.5607 72.9385 91.0672 76.5696 91.0714 80.3571Z" fill="#878BC8"/>
</svg>
