<svg width="125" height="125" viewBox="0 0 125 125" fill="none" xmlns="http://www.w3.org/2000/svg">
<path d="M37.4809 90.5802C35.9369 90.5802 34.4276 91.038 33.1438 91.8958C31.86 92.7536 30.8594 93.9729 30.2686 95.3993C29.6777 96.8258 29.5231 98.3954 29.8243 99.9097C30.1255 101.424 30.869 102.815 31.9608 103.907C33.0526 104.999 34.4436 105.742 35.9579 106.043C37.4722 106.345 39.0419 106.19 40.4683 105.599C41.8948 105.008 43.114 104.008 43.9718 102.724C44.8296 101.44 45.2874 99.9308 45.2874 98.3868C45.2874 96.3163 44.465 94.3307 43.001 92.8667C41.5369 91.4027 39.5513 90.5802 37.4809 90.5802ZM37.4809 103.071C36.5545 103.071 35.6489 102.796 34.8786 102.281C34.1084 101.767 33.508 101.035 33.1535 100.179C32.799 99.3233 32.7062 98.3816 32.8869 97.473C33.0677 96.5644 33.5138 95.7298 34.1688 95.0747C34.8239 94.4197 35.6585 93.9736 36.5671 93.7928C37.4757 93.6121 38.4175 93.7049 39.2733 94.0594C40.1292 94.4139 40.8608 95.0142 41.3754 95.7845C41.8901 96.5548 42.1648 97.4604 42.1648 98.3868C42.1648 99.629 41.6713 100.82 40.7929 101.699C39.9145 102.577 38.7231 103.071 37.4809 103.071Z" fill="#878BC8"/>
<path d="M15.6226 23.4438H18.6203L32.6722 85.2249C30.1127 86.1515 27.8775 87.8016 26.2381 89.9746C24.5988 92.1476 23.6259 94.75 23.4376 97.4655C23.2493 100.181 23.8538 102.893 25.1776 105.271C26.5015 107.65 28.4876 109.592 30.8947 110.863C33.3018 112.134 36.0262 112.679 38.7369 112.431C41.4476 112.183 44.0278 111.152 46.1641 109.465C48.3004 107.779 49.9007 105.507 50.7707 102.928C51.6406 100.349 51.7426 97.5724 51.0644 94.9362L109.832 81.6339C110.265 81.5448 110.676 81.3708 111.041 81.122C111.406 80.8731 111.718 80.5543 111.959 80.1841C112.2 79.8138 112.365 79.3994 112.445 78.9649C112.525 78.5303 112.518 78.0843 112.424 77.6525L111.628 74.202C111.537 73.7744 111.361 73.3692 111.112 73.01C110.863 72.6508 110.544 72.3448 110.176 72.1099C109.42 71.6302 108.506 71.4675 107.631 71.6571L103.962 72.5002L90.9091 15.0751C90.8216 14.6524 90.6474 14.2523 90.3975 13.9003C90.1476 13.5482 89.8273 13.2518 89.4571 13.0298C89.0964 12.7948 88.692 12.635 88.2682 12.5598C87.8443 12.4847 87.4096 12.4959 86.9902 12.5927L66.7868 17.1985L62.1029 18.2602L29.5808 25.5828L28.7533 21.8825L27.5823 16.6833C27.4187 15.9439 27.0077 15.2824 26.4172 14.8083C25.8267 14.3342 25.092 14.0758 24.3347 14.0759H15.6226C14.7945 14.0759 14.0002 14.4049 13.4146 14.9905C12.829 15.5761 12.5 16.3704 12.5 17.1985V20.3211C12.5 21.1493 12.829 21.9436 13.4146 22.5292C14.0002 23.1148 14.7945 23.4438 15.6226 23.4438ZM37.481 109.316C34.7979 109.313 32.2097 108.324 30.2092 106.536C28.2087 104.748 26.9357 102.286 26.6329 99.6204C26.33 96.9545 27.0184 94.2703 28.5669 92.0792C30.1153 89.8881 32.4157 88.3431 35.0297 87.7386C35.4755 87.6138 35.9294 87.5199 36.3881 87.4576H36.4818C36.9501 87.4576 37.4185 87.4576 37.9025 87.4576H38.168C39.1584 87.5225 40.1354 87.7221 41.072 88.0509L41.5248 88.207L41.9151 88.3787L42.4928 88.6598L42.8207 88.8315L43.2735 89.1126C43.6794 89.378 44.0853 89.659 44.4601 89.9557L44.7099 90.1899C45.0429 90.4813 45.3552 90.7936 45.6467 91.1266L45.8496 91.3608C46.1672 91.7419 46.4593 92.1435 46.724 92.5631L46.9113 92.8909C47.1691 93.3207 47.3936 93.7696 47.5827 94.2337C48.2644 95.8931 48.5271 97.6948 48.3477 99.4798C48.1683 101.265 47.5523 102.978 46.5539 104.469C45.5556 105.959 44.2057 107.181 42.6234 108.026C41.0411 108.872 39.275 109.315 37.481 109.316ZM103.056 75.8726L108.208 74.7016H108.38L109.301 78.3395C109.311 78.3953 109.298 78.4524 109.266 78.499C109.234 78.5456 109.185 78.578 109.13 78.5893L49.9715 91.9854C49.9548 91.9386 49.9282 91.896 49.8934 91.8605C49.6094 91.3203 49.2913 90.7988 48.941 90.2991L48.6444 89.9088C48.3009 89.456 47.9418 89.0345 47.5671 88.6285L47.4265 88.4724L51.8451 87.4576L103.056 75.8882V75.8726ZM65.9437 20.5553L72.189 47.8627L65.1787 44.4434C64.8588 44.2887 64.4957 44.2476 64.1494 44.3271C63.8031 44.4066 63.4942 44.6018 63.2739 44.8806L58.4026 50.9853L52.1573 23.678L65.9437 20.5553ZM49.1128 24.3649L55.9982 54.8418C56.0639 55.1271 56.2085 55.3882 56.4156 55.5953C56.6227 55.8024 56.8838 55.947 57.1691 56.0127C57.2884 56.0279 57.409 56.0279 57.5282 56.0127C57.7628 56.0117 57.994 55.9578 58.2048 55.855C58.4157 55.7523 58.6007 55.6034 58.7461 55.4194L64.8664 47.7534L73.6722 52.047C73.9366 52.1745 74.2315 52.2249 74.5233 52.1924C74.815 52.1598 75.0916 52.0458 75.3214 51.8632C75.5513 51.6806 75.725 51.437 75.8227 51.1602C75.9203 50.8834 75.938 50.5847 75.8737 50.2983L68.9883 19.8684L87.6772 15.6372C87.7177 15.6349 87.7579 15.6459 87.7917 15.6684C87.8255 15.6909 87.8511 15.7238 87.8645 15.7621L100.839 73.1872L44.1478 86.0212C43.8199 85.8494 43.4764 85.6777 43.1486 85.5371L41.4936 78.2302L30.2833 28.6273L49.1128 24.3649ZM15.6226 17.1985H24.3347C24.382 17.2032 24.4267 17.2221 24.463 17.2528C24.4992 17.2835 24.5253 17.3244 24.5377 17.3703L26.8797 27.753L39.7137 84.4755H39.1672H38.7769C38.3397 84.4755 37.9025 84.4755 37.4654 84.4755C36.9121 84.4803 36.3595 84.5167 35.8104 84.5847H35.623L21.3839 21.539C21.3045 21.1868 21.1056 20.8729 20.821 20.6509C20.5363 20.4289 20.1835 20.3123 19.8226 20.3211H15.6226V17.1985Z" fill="#878BC8"/>
<path d="M76.514 75.1856C76.628 75.2008 76.7435 75.2008 76.8575 75.1856L94.0319 71.2979C94.2372 71.2583 94.4325 71.1778 94.6062 71.0612C94.7798 70.9447 94.9283 70.7944 95.0427 70.6194C95.1572 70.4443 95.2353 70.2481 95.2724 70.0423C95.3096 69.8365 95.305 69.6253 95.259 69.4213C95.2129 69.2173 95.1264 69.0246 95.0045 68.8547C94.8825 68.6847 94.7277 68.5411 94.5492 68.4321C94.3706 68.3232 94.1721 68.2512 93.9652 68.2205C93.7583 68.1898 93.5474 68.201 93.3449 68.2534L76.1705 72.141C75.9654 72.1636 75.7669 72.2263 75.5861 72.3256C75.4053 72.4249 75.2458 72.5589 75.1168 72.7198C74.8562 73.0448 74.7354 73.46 74.7809 73.8741C74.8035 74.0791 74.8662 74.2777 74.9655 74.4585C75.0648 74.6393 75.1987 74.7988 75.3596 74.9278C75.6847 75.1884 76.0999 75.3092 76.514 75.2637V75.1856Z" fill="#878BC8"/>
<path d="M87.4432 66.6609C87.5572 66.6761 87.6727 66.6761 87.7867 66.6609L92.4706 65.6148C92.8847 65.5237 93.2456 65.2718 93.474 64.9146C93.7024 64.5574 93.7795 64.1241 93.6884 63.71C93.5973 63.2959 93.3455 62.935 92.9882 62.7066C92.631 62.4782 92.1977 62.4011 91.7836 62.4922L87.0997 63.5539C86.8946 63.5764 86.6961 63.6391 86.5153 63.7384C86.3345 63.8377 86.175 63.9717 86.046 64.1326C85.7854 64.4576 85.6646 64.8728 85.7101 65.2869C85.7327 65.492 85.7954 65.6905 85.8947 65.8713C85.994 66.0521 86.1279 66.2116 86.2888 66.3406C86.6139 66.6012 87.0291 66.722 87.4432 66.6765V66.6609Z" fill="#878BC8"/>
</svg>
