<svg width="125" height="125" viewBox="0 0 125 125" fill="none" xmlns="http://www.w3.org/2000/svg">
<path d="M109.375 15.626C111.1 15.626 112.5 17.026 112.5 18.751C112.5 20.476 111.1 21.876 109.375 21.876H94.1501L75.2877 92.3491C76.4189 93.1303 77.4127 94.0866 78.1189 95.3116C79.3752 97.4803 79.7064 100.005 79.0564 102.43C77.9252 106.612 74.1315 109.374 69.9877 109.374C69.1877 109.374 68.3752 109.268 67.5627 109.049C63.6378 107.999 61.0003 104.58 60.6815 100.743L14.8146 88.4553C13.1521 88.0053 12.1583 86.2991 12.6083 84.6304C13.0583 82.9554 14.7896 82.0116 16.4333 82.4179L18.6974 83.0241L31.6207 37.8947C32.002 36.5494 33.2035 35.6572 34.5426 35.6275C34.852 35.6212 35.1676 35.6603 35.4832 35.7509L52.4706 40.615L49.1019 52.3821L56.4456 50.1946L61.1143 55.8196L64.4878 44.0556L80.5142 48.6446L88.7329 17.9463C89.1017 16.5776 90.3392 15.6276 91.7517 15.6276L109.375 15.626Z" fill="#878BC8"/>
</svg>
