<svg width="125" height="125" viewBox="0 0 125 125" fill="none" xmlns="http://www.w3.org/2000/svg">
<path d="M110.833 89.1667H100.833V82.5V79.1667V39.1667H90.8333H87.5H47.5V49.1667V52.5V89.1667H30.8333V24.1667C30.8333 23.25 30.0833 22.5 29.1667 22.5H25.6C24.85 19.6333 22.2667 17.5 19.1667 17.5C15.4833 17.5 12.5 20.4833 12.5 24.1667C12.5 27.85 15.4833 30.8333 19.1667 30.8333C22.2667 30.8333 24.85 28.7 25.6 25.8333H27.5V90.8333C27.5 91.75 28.25 92.5 29.1667 92.5H40.8833C38.85 94.0167 37.5 96.4333 37.5 99.1667C37.5 103.767 41.2333 107.5 45.8333 107.5C50.4333 107.5 54.1667 103.767 54.1667 99.1667C54.1667 96.4333 52.8167 94.0167 50.7833 92.5H57.5H60.8333H90.8833C88.85 94.0167 87.5 96.4333 87.5 99.1667C87.5 103.767 91.2333 107.5 95.8333 107.5C100.433 107.5 104.167 103.767 104.167 99.1667C104.167 96.4333 102.817 94.0167 100.783 92.5H100.833H110.833C111.75 92.5 112.5 91.75 112.5 90.8333C112.5 89.9167 111.75 89.1667 110.833 89.1667ZM95.8333 104.167C93.0833 104.167 90.8333 101.917 90.8333 99.1667C90.8333 96.4167 93.0833 94.1667 95.8333 94.1667C98.5833 94.1667 100.833 96.4167 100.833 99.1667C100.833 101.917 98.5833 104.167 95.8333 104.167ZM90.8333 42.5H97.5V79.1667H95.8333V77.5C95.8333 76.5833 95.0833 75.8333 94.1667 75.8333C93.25 75.8333 92.5 76.5833 92.5 77.5V79.1667H90.8333V52.5V42.5ZM67.5 79.1667H60.8333V52.5H67.5V79.1667ZM70.8333 52.5H77.5V79.1667H70.8333V52.5ZM80.8333 52.5H87.5V79.1667H80.8333V52.5ZM50.8333 42.5H87.5V44.1667H85.8333C84.9167 44.1667 84.1667 44.9167 84.1667 45.8333C84.1667 46.75 84.9167 47.5 85.8333 47.5H87.5V49.1667H80.8333H67.5H60.8333H50.8333V42.5ZM19.1667 27.5C17.3333 27.5 15.8333 26 15.8333 24.1667C15.8333 22.3333 17.3333 20.8333 19.1667 20.8333C20.4 20.8333 21.45 21.5167 22.0333 22.5H20.8333C19.9167 22.5 19.1667 23.25 19.1667 24.1667C19.1667 25.0833 19.9167 25.8333 20.8333 25.8333H22.0333C21.45 26.8167 20.4 27.5 19.1667 27.5ZM45.8333 104.167C43.0833 104.167 40.8333 101.917 40.8333 99.1667C40.8333 96.4167 43.0833 94.1667 45.8333 94.1667C48.5833 94.1667 50.8333 96.4167 50.8333 99.1667C50.8333 101.917 48.5833 104.167 45.8333 104.167ZM50.8333 89.1667V52.5H52.5V54.1667C52.5 55.0833 53.25 55.8333 54.1667 55.8333C55.0833 55.8333 55.8333 55.0833 55.8333 54.1667V52.5H57.5V79.1667V89.1667H50.8333ZM60.8333 87.5H62.5C63.4167 87.5 64.1667 86.75 64.1667 85.8333C64.1667 84.9167 63.4167 84.1667 62.5 84.1667H60.8333V82.5H67.5H80.8333H87.5H97.5V89.1667H60.8333V87.5Z" fill="#878BC8"/>
</svg>
