<svg width="22" height="20" viewBox="0 0 22 20" fill="none" xmlns="http://www.w3.org/2000/svg">
<path d="M4.11884 2.05942C4.11884 0.92203 5.04087 0 6.17826 0H15.7889C16.9262 0 17.8483 0.92203 17.8483 2.05942V2.74589H18.5348C20.4304 2.74589 21.9672 4.28262 21.9672 6.17826V13.043C21.9672 14.1804 21.0451 15.1024 19.9077 15.1024H17.8483V17.1618C17.8483 18.2992 16.9262 19.2213 15.7889 19.2213H6.17826C5.04087 19.2213 4.11884 18.2992 4.11884 17.1618V15.1024H2.05942C0.92203 15.1024 0 14.1804 0 13.043V6.17826C0 4.28262 1.53673 2.74589 3.43237 2.74589H4.11884V2.05942ZM5.49179 2.74589H16.4754V2.05942C16.4754 1.6803 16.168 1.37295 15.7889 1.37295H6.17826C5.79914 1.37295 5.49179 1.6803 5.49179 2.05942V2.74589ZM4.11884 13.7295V11.6701C4.11884 10.5327 5.04087 9.61063 6.17826 9.61063H15.7889C16.9262 9.61063 17.8483 10.5327 17.8483 11.6701V13.7295H19.9077C20.2868 13.7295 20.5942 13.4221 20.5942 13.043V6.17826C20.5942 5.04087 19.6721 4.11884 18.5348 4.11884H3.43237C2.29498 4.11884 1.37295 5.04087 1.37295 6.17826V13.043C1.37295 13.4221 1.6803 13.7295 2.05942 13.7295H4.11884ZM6.17826 10.9836C5.79914 10.9836 5.49179 11.291 5.49179 11.6701V17.1618C5.49179 17.5409 5.79914 17.8483 6.17826 17.8483H15.7889C16.168 17.8483 16.4754 17.5409 16.4754 17.1618V11.6701C16.4754 11.291 16.168 10.9836 15.7889 10.9836H6.17826Z" fill="#474D9B"/>
</svg>
