<svg width="25" height="26" viewBox="0 0 25 26" fill="none" xmlns="http://www.w3.org/2000/svg">
<path d="M12.4999 18.0948L13.5416 16.0115V10.6553C15.3343 10.1896 16.6666 8.57193 16.6666 6.63651C16.6666 4.3386 14.7978 2.46985 12.4999 2.46985C10.202 2.46985 8.33325 4.3386 8.33325 6.63651C8.33325 8.57193 9.66554 10.1896 11.4583 10.6553V16.0115L12.4999 18.0948ZM10.4166 6.63651C10.4166 5.48756 11.351 4.55318 12.4999 4.55318C13.6489 4.55318 14.5833 5.48756 14.5833 6.63651C14.5833 7.78547 13.6489 8.71985 12.4999 8.71985C11.351 8.71985 10.4166 7.78547 10.4166 6.63651Z" fill="#9798A8"/>
<path d="M16.9447 11.3896L16.3895 13.3979C19.0885 14.1438 20.8333 15.5781 20.8333 17.0531C20.8333 19.024 17.4114 21.2198 12.4999 21.2198C7.58846 21.2198 4.16659 19.024 4.16659 17.0531C4.16659 15.5781 5.91138 14.1438 8.61138 13.3969L8.05617 11.3885C4.37179 12.4073 2.08325 14.5771 2.08325 17.0531C2.08325 20.5573 6.65929 23.3031 12.4999 23.3031C18.3405 23.3031 22.9166 20.5573 22.9166 17.0531C22.9166 14.5771 20.628 12.4073 16.9447 11.3896V11.3896Z" fill="#9798A8"/>
</svg>
