<svg width="18" height="18" viewBox="0 0 18 18" fill="none" xmlns="http://www.w3.org/2000/svg">
<path d="M16.6497 1.34987H13.9498V0.449956C13.9498 0.20151 13.7481 0 13.4998 0C13.2514 0 13.0498 0.201675 13.0498 0.449956V1.34987H4.94992V0.449956C4.94992 0.20151 4.74824 0 4.49996 0C4.25151 0 4.05 0.201675 4.05 0.449956V1.34987H1.35007C0.605526 1.34987 0 1.95535 0 2.69994V16.6498C0 17.3944 0.605486 17.9999 1.35007 17.9999H16.6499C17.3945 17.9999 18 17.3944 18 16.6498L17.9998 2.69994C17.9998 1.95539 17.3944 1.35003 16.6498 1.35003L16.6497 1.34987ZM0.899831 2.69977C0.899831 2.45164 1.10166 2.24982 1.34979 2.24982H4.04972V3.14973C4.04972 3.39818 4.2514 3.59969 4.49968 3.59969C4.74812 3.59969 4.94963 3.39801 4.94963 3.14973V2.24982H13.0496V3.14973C13.0496 3.39818 13.2512 3.59969 13.4995 3.59969C13.748 3.59969 13.9495 3.39801 13.9495 3.14973V2.24982H16.6494C16.8975 2.24982 17.0994 2.45165 17.0994 2.69977V5.39971H0.89951L0.899831 2.69977ZM17.0997 16.6497C17.0997 16.8978 16.8979 17.0996 16.6497 17.0996L1.34987 17.0998C1.10173 17.0998 0.899911 16.8979 0.899911 16.6498L0.899754 6.2999H17.0996L17.0997 16.6497ZM7.64977 11.2497H10.3497C10.5982 11.2497 10.7997 11.048 10.7997 10.7997L10.7998 8.54976C10.7998 8.30132 10.5981 8.09981 10.3499 8.09981H7.64977C7.40132 8.09981 7.19981 8.30148 7.19981 8.54976V10.7997C7.19981 11.048 7.40149 11.2497 7.64977 11.2497H7.64977ZM8.09989 8.99972H9.89991V10.3498H8.09989V8.99972ZM7.64977 15.2997H10.3497C10.5982 15.2997 10.7997 15.098 10.7997 14.8497L10.7998 12.5997C10.7998 12.3513 10.5981 12.1498 10.3499 12.1498L7.64977 12.1496C7.40132 12.1496 7.19981 12.3513 7.19981 12.5996V14.8496C7.19981 15.098 7.40149 15.2997 7.64977 15.2997L7.64977 15.2997ZM8.09989 13.0497H9.89991V14.3998H8.09989V13.0497ZM12.1499 11.2497H14.8498C15.0982 11.2497 15.2997 11.048 15.2997 10.7997L15.2999 8.54972C15.2999 8.30128 15.0982 8.09977 14.8499 8.09977H12.1498C11.9014 8.09977 11.6999 8.30144 11.6999 8.54972V10.7997C11.6999 11.048 11.9016 11.2497 12.1498 11.2497H12.1499ZM12.6 8.99968H14.4V10.3497H12.6V8.99968ZM3.15005 11.2497H5.84999C6.09843 11.2497 6.29994 11.048 6.29994 10.7997L6.3001 8.54972C6.3001 8.30128 6.09843 8.09977 5.85015 8.09977H3.15005C2.9016 8.09977 2.70009 8.30144 2.70009 8.54972V10.7997C2.70009 11.048 2.90177 11.2497 3.15005 11.2497H3.15005ZM3.60017 8.99968H5.40019V10.3497H3.60017V8.99968ZM3.15005 15.2996H5.84999C6.09843 15.2996 6.29994 15.0979 6.29994 14.8497L6.3001 12.5997C6.3001 12.3512 6.09843 12.1497 5.85015 12.1497L3.15005 12.1496C2.9016 12.1496 2.70009 12.3512 2.70009 12.5995V14.8495C2.70009 15.098 2.90177 15.2996 3.15005 15.2996L3.15005 15.2996ZM3.60017 13.0496H5.40019V14.3997H3.60017V13.0496ZM11.8319 14.2677C11.6561 14.0919 11.6561 13.807 11.8319 13.6314C12.0077 13.4556 12.2925 13.4556 12.4681 13.6314L13.0501 14.2132L14.532 12.7313C14.7078 12.5555 14.9926 12.5555 15.1682 12.7313C15.344 12.9071 15.344 13.192 15.1682 13.3676L13.3682 15.1676C13.2802 15.2556 13.1653 15.2996 13.0501 15.2996C12.9349 15.2996 12.8198 15.2556 12.732 15.1678L11.8319 14.2677Z" fill="#3A4E66" fill-opacity="0.64"/>
</svg>
