<svg width="60" height="75" viewBox="0 0 60 75" fill="none" xmlns="http://www.w3.org/2000/svg">
<path d="M32 55H10C7.24316 55 5 52.7568 5 50V10C5 7.24316 7.24316 5 10 5H32C34.7568 5 37 7.24316 37 10V50C37 52.7568 34.7568 55 32 55ZM10 7C8.3457 7 7 8.3457 7 10V50C7 51.6543 8.3457 53 10 53H32C33.6543 53 35 51.6543 35 50V10C35 8.3457 33.6543 7 32 7H10Z" fill="#878BC8"/>
<path d="M21 50.4375C19.3457 50.4375 18 49.0918 18 47.4375C18 45.7832 19.3457 44.4375 21 44.4375C22.6543 44.4375 24 45.7832 24 47.4375C24 49.0918 22.6543 50.4375 21 50.4375ZM21 46.4375C20.4487 46.4375 20 46.8857 20 47.4375C20 47.9893 20.4487 48.4375 21 48.4375C21.5513 48.4375 22 47.9893 22 47.4375C22 46.8857 21.5513 46.4375 21 46.4375Z" fill="#878BC8"/>
<path d="M36 41.875H6C5.44775 41.875 5 41.4277 5 40.875C5 40.3223 5.44775 39.875 6 39.875H36C36.5522 39.875 37 40.3223 37 40.875C37 41.4277 36.5522 41.875 36 41.875Z" fill="#878BC8"/>
<path d="M54 37H36C35.4478 37 35 36.5527 35 36V17.667C35 17.1143 35.4478 16.667 36 16.667H54C54.5522 16.667 55 17.1143 55 17.667V36C55 36.5527 54.5522 37 54 37ZM37 35H53V18.667H37V35Z" fill="#878BC8"/>
<path d="M50 27.417H42.2915C41.7393 27.417 41.2915 26.9697 41.2915 26.417V21.667C41.2915 21.1143 41.7393 20.667 42.2915 20.667H50C50.5522 20.667 51 21.1143 51 21.667V26.417C51 26.9697 50.5522 27.417 50 27.417ZM43.2915 25.417H49V22.667H43.2915V25.417Z" fill="#878BC8"/>
<path d="M42.8774 33H41.5649C41.0127 33 40.5649 32.5527 40.5649 32C40.5649 31.4473 41.0127 31 41.5649 31H42.8774C43.4297 31 43.8774 31.4473 43.8774 32C43.8774 32.5527 43.4297 33 42.8774 33Z" fill="#878BC8"/>
<path d="M47.2681 33H45.9556C45.4033 33 44.9556 32.5527 44.9556 32C44.9556 31.4473 45.4033 31 45.9556 31H47.2681C47.8203 31 48.2681 31.4473 48.2681 32C48.2681 32.5527 47.8203 33 47.2681 33Z" fill="#878BC8"/>
<path d="M16.8228 33.333C16.5669 33.333 16.311 33.2354 16.1157 33.04L13.2617 30.1865C12.8711 29.7959 12.8711 29.1631 13.2617 28.7725C13.6523 28.3818 14.2852 28.3818 14.6758 28.7725L16.8228 30.9189L27.3242 20.418C27.7148 20.0273 28.3477 20.0273 28.7383 20.418C29.1289 20.8086 29.1289 21.4414 28.7383 21.832L17.5298 33.04C17.3345 33.2354 17.0786 33.333 16.8228 33.333Z" fill="#878BC8"/>
<path d="M36 13.583H6C5.44775 13.583 5 13.1357 5 12.583C5 12.0303 5.44775 11.583 6 11.583H36C36.5522 11.583 37 12.0303 37 12.583C37 13.1357 36.5522 13.583 36 13.583Z" fill="#878BC8"/>
</svg>
