<svg width="56" height="56" viewBox="0 0 56 56" fill="none" xmlns="http://www.w3.org/2000/svg">
<g clip-path="url(#clip0)">
<path fill-rule="evenodd" clip-rule="evenodd" d="M49 10.5H7C6.07174 10.5 5.1815 10.8687 4.52513 11.5251C3.86875 12.1815 3.5 13.0717 3.5 14V42C3.5 42.9283 3.86875 43.8185 4.52513 44.4749C5.1815 45.1312 6.07174 45.5 7 45.5H49C49.9283 45.5 50.8185 45.1312 51.4749 44.4749C52.1312 43.8185 52.5 42.9283 52.5 42V14C52.5 13.0717 52.1312 12.1815 51.4749 11.5251C50.8185 10.8687 49.9283 10.5 49 10.5ZM7 7C5.14348 7 3.36301 7.7375 2.05025 9.05025C0.737498 10.363 0 12.1435 0 14L0 42C0 43.8565 0.737498 45.637 2.05025 46.9497C3.36301 48.2625 5.14348 49 7 49H49C50.8565 49 52.637 48.2625 53.9497 46.9497C55.2625 45.637 56 43.8565 56 42V14C56 12.1435 55.2625 10.363 53.9497 9.05025C52.637 7.7375 50.8565 7 49 7H7Z" fill="#878BC8"/>
<path d="M38.5 19.25C38.5 18.7859 38.6844 18.3408 39.0126 18.0126C39.3408 17.6844 39.7859 17.5 40.25 17.5H47.25C47.7141 17.5 48.1592 17.6844 48.4874 18.0126C48.8156 18.3408 49 18.7859 49 19.25V22.75C49 23.2141 48.8156 23.6592 48.4874 23.9874C48.1592 24.3156 47.7141 24.5 47.25 24.5H40.25C39.7859 24.5 39.3408 24.3156 39.0126 23.9874C38.6844 23.6592 38.5 23.2141 38.5 22.75V19.25ZM3.5 31.5H52.5V38.5H3.5V31.5Z" fill="#878BC8"/>
</g>
<defs>
<clipPath id="clip0">
<rect width="56" height="56" fill="white"/>
</clipPath>
</defs>
</svg>
