<svg width="20" height="20" viewBox="0 0 20 20" fill="none" xmlns="http://www.w3.org/2000/svg">
<path d="M17.7838 2H2.21619V3.04389L8.09121 8.91892L4.37835 12.6318L3.26008 11.5135H2.21619V17.1351H7.54159L8.01338 18H14.5033L15.3076 17.1957L15.2696 17.1351H17.7838V2ZM9.13511 2.86486H10.8648V4.67286L9.13511 5.01881V2.86486ZM3.08105 16.2703V12.5574L4.37835 13.8547L5.24321 12.9898L5.32581 13.0724L7.07024 16.2703H3.08105ZM14.1453 17.1351H8.52711L6.05532 12.6037L5.84732 12.3853L8.70267 9.53038L8.92754 9.75524L11.5853 10.1981L15.1628 12.1859C14.8121 12.4022 13.8668 12.7559 12.4328 11.6082L12.1306 11.3665L11.1792 12.3178L14.2062 17.0746L14.1453 17.1351ZM16.9189 16.2703H14.7187L12.4246 12.6651C14.5569 14.0117 15.9122 12.6984 15.9273 12.6841L16.054 12.5574V11.6912L11.8746 9.36951L9.34311 8.94746L3.26008 2.86486H8.27024V5.89189H9.17792L11.7297 5.38119V2.86486H16.9189V16.2703Z" fill="#9798A8"/>
</svg>
