<svg width="15" height="15" viewBox="0 0 15 15" fill="none" xmlns="http://www.w3.org/2000/svg">
<path d="M13.4882 5.79189C13.3115 2.55236 10.6806 0 7.5 0C4.31937 0 1.68848 2.55236 1.51178 5.79189C1.43689 7.25256 1.88209 8.69251 2.76833 9.85602L6.08639 14.2932C6.25098 14.5127 6.46441 14.6908 6.70977 14.8135C6.95513 14.9361 7.22568 15 7.5 15C7.77432 15 8.04487 14.9361 8.29023 14.8135C8.53559 14.6908 8.74902 14.5127 8.91361 14.2932L12.2317 9.85602C13.1179 8.69251 13.5631 7.25256 13.4882 5.79189ZM11.6034 9.38482L8.28534 13.822C8.1939 13.9439 8.07533 14.0429 7.93902 14.111C7.80271 14.1792 7.6524 14.2147 7.5 14.2147C7.3476 14.2147 7.19729 14.1792 7.06098 14.111C6.92467 14.0429 6.8061 13.9439 6.71466 13.822L3.3966 9.38482C2.62518 8.37313 2.2358 7.12154 2.29712 5.85079C2.43456 3.35733 4.41754 0.78534 7.5 0.78534C10.5825 0.78534 12.5654 3.35733 12.7029 5.85079C12.7642 7.12154 12.3748 8.37313 11.6034 9.38482Z" fill="#9798A8"/>
<path d="M7.44104 2.90576C6.8461 2.90188 6.2634 3.07474 5.76683 3.40245C5.27027 3.73015 4.88219 4.19793 4.65182 4.74647C4.42144 5.29501 4.35915 5.89961 4.47283 6.4836C4.58651 7.06759 4.87104 7.60468 5.29036 8.02675C5.70967 8.44882 6.24488 8.73687 6.82811 8.85438C7.41135 8.97189 8.01634 8.91356 8.56638 8.68679C9.11642 8.46001 9.58674 8.07502 9.91769 7.58061C10.2486 7.0862 10.4253 6.50465 10.4253 5.90969C10.4254 5.11639 10.1116 4.35529 9.55246 3.79251C8.99335 3.22972 8.23433 2.91095 7.44104 2.90576V2.90576ZM7.44104 8.12828C7.00143 8.13217 6.57058 8.00536 6.20316 7.76396C5.83574 7.52256 5.54833 7.17744 5.37739 6.7724C5.20646 6.36736 5.15971 5.92068 5.24308 5.48903C5.32646 5.05738 5.5362 4.66023 5.84567 4.34799C6.15515 4.03575 6.55042 3.82249 6.98131 3.73528C7.4122 3.64807 7.85929 3.69085 8.26583 3.85817C8.67237 4.0255 9.02003 4.30984 9.26469 4.67509C9.50935 5.04035 9.63998 5.47006 9.64 5.90969C9.64002 6.49471 9.40897 7.05606 8.99714 7.47157C8.58531 7.88707 8.02604 8.1231 7.44104 8.12828V8.12828Z" fill="#9798A8"/>
</svg>
