<svg width="20" height="20" viewBox="0 0 20 20" fill="none" xmlns="http://www.w3.org/2000/svg">
<g clip-path="url(#clip0)">
<path d="M19.9696 5.28528C19.9599 5.2626 19.9483 5.24078 19.9348 5.22007C19.9281 5.20765 19.9201 5.19599 19.9109 5.18528C19.8967 5.16572 19.8807 5.14753 19.8631 5.13093L19.8283 5.1005L19.8044 5.08094L19.7631 5.0592L19.737 5.04398L13.2153 2.21789C13.1607 2.19426 13.1019 2.18207 13.0424 2.18207C12.983 2.18207 12.9242 2.19426 12.8696 2.21789L6.34788 5.04398L6.32397 5.0592L6.28266 5.08094C6.27417 5.08679 6.26618 5.09334 6.25875 5.1005C6.24618 5.10947 6.23452 5.11966 6.22397 5.13093C6.20635 5.14671 6.19033 5.16418 6.17614 5.18311C6.16673 5.19491 6.15802 5.20725 6.15006 5.22007C6.1366 5.24272 6.12567 5.26677 6.11745 5.2918C6.11745 5.30267 6.10658 5.31354 6.10223 5.32659C6.09084 5.36468 6.08499 5.40422 6.08484 5.44398V10.0309H4.16745C4.05214 10.0309 3.94155 10.0767 3.86001 10.1583C3.77847 10.2398 3.73267 10.3504 3.73267 10.4657C3.73267 10.581 3.77847 10.6916 3.86001 10.7732C3.94155 10.8547 4.05214 10.9005 4.16745 10.9005H6.06527V14.5679C6.06556 14.6062 6.07142 14.6443 6.08266 14.6809C6.08173 14.6896 6.08173 14.6983 6.08266 14.707C6.09311 14.7399 6.10772 14.7713 6.12614 14.8005C6.12614 14.8005 6.12614 14.8005 6.12614 14.8005C6.14593 14.8314 6.17009 14.8592 6.19788 14.8831L6.21962 14.9005C6.24731 14.924 6.27802 14.9438 6.31093 14.9592V14.9592L12.8327 17.7853C12.8837 17.8063 12.9383 17.8173 12.9935 17.8179H13.0435C13.1025 17.8177 13.1609 17.8059 13.2153 17.7831L19.737 14.957C19.7699 14.9416 19.8006 14.9219 19.8283 14.8983C19.8365 14.8938 19.8438 14.8879 19.85 14.8809C19.8785 14.8571 19.9034 14.8293 19.924 14.7983C19.924 14.7983 19.924 14.7983 19.924 14.7983C19.9426 14.769 19.9579 14.7376 19.9696 14.7048V14.6788C19.9851 14.6435 19.9954 14.6061 20 14.5679V5.43746C19.9996 5.39772 19.9938 5.35822 19.9827 5.32007L19.9696 5.28528ZM12.6087 16.7418L6.93484 14.2831V10.9005H7.90006C8.01537 10.9005 8.12596 10.8547 8.20749 10.7732C8.28903 10.6916 8.33484 10.581 8.33484 10.4657C8.33484 10.3504 8.28903 10.2398 8.20749 10.1583C8.12596 10.0767 8.01537 10.0309 7.90006 10.0309H6.93484V6.10267L12.6087 8.57876V16.7418ZM12.974 7.79833L7.59136 5.43746L13.0435 3.08528L18.4653 5.43746L12.974 7.79833ZM19.1305 14.2831L13.4783 16.7418V8.52006L19.1305 6.08963V14.2831Z" fill="#9798A8"/>
<path d="M0.43466 8.12878H3.23466C3.34997 8.12878 3.46056 8.08297 3.5421 8.00144C3.62363 7.9199 3.66944 7.80931 3.66944 7.694C3.66944 7.57869 3.62363 7.4681 3.5421 7.38656C3.46056 7.30502 3.34997 7.25922 3.23466 7.25922H0.43466C0.319349 7.25922 0.20876 7.30502 0.127223 7.38656C0.0456852 7.4681 -0.00012207 7.57869 -0.00012207 7.694C-0.00012207 7.80931 0.0456852 7.9199 0.127223 8.00144C0.20876 8.08297 0.319349 8.12878 0.43466 8.12878V8.12878Z" fill="#9798A8"/>
<path d="M3.66944 13.6982C3.66944 13.5829 3.62363 13.4723 3.5421 13.3908C3.46056 13.3092 3.34997 13.2634 3.23466 13.2634H0.43466C0.319349 13.2634 0.20876 13.3092 0.127223 13.3908C0.0456852 13.4723 -0.00012207 13.5829 -0.00012207 13.6982C-0.00012207 13.8135 0.0456852 13.9241 0.127223 14.0056C0.20876 14.0872 0.319349 14.133 0.43466 14.133H3.23466C3.34997 14.133 3.46056 14.0872 3.5421 14.0056C3.62363 13.9241 3.66944 13.8135 3.66944 13.6982Z" fill="#9798A8"/>
</g>
<defs>
<clipPath id="clip0">
<rect width="20" height="20" fill="white"/>
</clipPath>
</defs>
</svg>
