<svg width="21" height="17" viewBox="0 0 21 17" fill="none" xmlns="http://www.w3.org/2000/svg">
<path d="M14.3823 1.20582H17.9117C18.0366 1.20582 18.1562 1.15625 18.2445 1.06799C18.3328 0.97974 18.3823 0.860044 18.3823 0.735237C18.3823 0.610429 18.3328 0.490733 18.2445 0.402481C18.1562 0.314228 18.0366 0.264648 17.9117 0.264648H14.3823C14.2575 0.264648 14.1378 0.314228 14.0496 0.402481C13.9613 0.490733 13.9117 0.610429 13.9117 0.735237C13.9117 0.860044 13.9613 0.97974 14.0496 1.06799C14.1378 1.15625 14.2575 1.20582 14.3823 1.20582Z" fill="#9798A8"/>
<path d="M20.0294 2.14697H14.3823C14.2575 2.14697 14.1378 2.19655 14.0496 2.2848C13.9613 2.37306 13.9117 2.49275 13.9117 2.61756C13.9117 2.74237 13.9613 2.86206 14.0496 2.95032C14.1378 3.03857 14.2575 3.08815 14.3823 3.08815H20.0294C20.1542 3.08815 20.2739 3.03857 20.3621 2.95032C20.4504 2.86206 20.5 2.74237 20.5 2.61756C20.5 2.49275 20.4504 2.37306 20.3621 2.2848C20.2739 2.19655 20.1542 2.14697 20.0294 2.14697Z" fill="#9798A8"/>
<path d="M17.2059 4.97047C17.3307 4.97047 17.4504 4.92089 17.5386 4.83264C17.6269 4.74439 17.6764 4.62469 17.6764 4.49989C17.6764 4.37508 17.6269 4.25538 17.5386 4.16713C17.4504 4.07888 17.3307 4.0293 17.2059 4.0293H14.3823C14.2575 4.0293 14.1378 4.07888 14.0496 4.16713C13.9613 4.25538 13.9117 4.37508 13.9117 4.49989C13.9117 4.62469 13.9613 4.74439 14.0496 4.83264C14.1378 4.92089 14.2575 4.97047 14.3823 4.97047H17.2059Z" fill="#9798A8"/>
<path d="M18.7612 5.22701C18.6364 5.22701 18.5167 5.27659 18.4284 5.36484C18.3402 5.45309 18.2906 5.57279 18.2906 5.6976V13.1047H17.5847C17.3675 12.8105 17.0748 12.5804 16.7376 12.4388V10.0576C16.7376 9.93279 16.6881 9.81309 16.5998 9.72484C16.5116 9.63659 16.3919 9.58701 16.2671 9.58701H15.0882V6.52818C15.0882 6.40338 15.0387 6.28368 14.9504 6.19543C14.8622 6.10718 14.7425 6.0576 14.6176 6.0576H11.3235C11.1987 6.0576 11.079 6.10718 10.9908 6.19543C10.9025 6.28368 10.8529 6.40338 10.8529 6.52818V9.58701H9.67647C9.55166 9.58701 9.43197 9.63659 9.34371 9.72484C9.25546 9.81309 9.20588 9.93279 9.20588 10.0576V13.1047H7.64588V4.73524H12.6388C12.7636 4.73524 12.8833 4.68566 12.9716 4.59741C13.0598 4.50916 13.1094 4.38946 13.1094 4.26466C13.1094 4.13985 13.0598 4.02015 12.9716 3.9319C12.8833 3.84365 12.7636 3.79407 12.6388 3.79407H7.17529C7.05049 3.79407 6.93079 3.84365 6.84254 3.9319C6.75429 4.02015 6.70471 4.13985 6.70471 4.26466V5.8623H5.51412C4.18424 5.86479 2.90962 6.39451 1.96969 7.33532C1.02976 8.27613 0.501243 9.55125 0.5 10.8811V13.2341C0.500578 13.2967 0.508475 13.3591 0.523529 13.42C0.508683 13.4664 0.500755 13.5147 0.5 13.5635C0.5 13.6883 0.54958 13.808 0.637832 13.8962C0.726085 13.9845 0.84578 14.0341 0.970588 14.0341H1.96588C1.95359 14.1182 1.9473 14.2031 1.94706 14.2882C1.94645 14.5723 2.00588 14.8533 2.12144 15.1128C2.23701 15.3723 2.4061 15.6045 2.61765 15.7941H0.970588C0.84578 15.7941 0.726085 15.8436 0.637832 15.9319C0.54958 16.0202 0.5 16.1398 0.5 16.2647C0.5 16.3895 0.54958 16.5092 0.637832 16.5974C0.726085 16.6857 0.84578 16.7352 0.970588 16.7352H18.7612C18.886 16.7352 19.0057 16.6857 19.0939 16.5974C19.1822 16.5092 19.2318 16.3895 19.2318 16.2647C19.2318 16.1398 19.1822 16.0202 19.0939 15.9319C19.0057 15.8436 18.886 15.7941 18.7612 15.7941H17.3259C17.5348 15.6052 17.7018 15.3747 17.8161 15.1174C17.9303 14.86 17.9894 14.5815 17.9894 14.3C17.9888 14.215 17.9833 14.1302 17.9729 14.0458H18.7612C18.886 14.0458 19.0057 13.9963 19.0939 13.908C19.1822 13.8197 19.2318 13.7001 19.2318 13.5752V5.6976C19.2318 5.57279 19.1822 5.45309 19.0939 5.36484C19.0057 5.27659 18.886 5.22701 18.7612 5.22701ZM15.8082 10.5282V12.2858C15.3171 12.3241 14.8573 12.5419 14.5165 12.8976H13.4412V10.5282H15.8082ZM11.7941 7.01054H14.1471V9.37995H11.7941V7.01054ZM10.1471 10.5399H12.5V12.8976H10.1282L10.1471 10.5399ZM2.34 13.1047H1.44118V10.8811C1.4418 9.80067 1.87096 8.76458 2.63452 8.00014C3.39807 7.23571 4.43367 6.80535 5.51412 6.80348H6.70471V13.1047H5.59647C5.40959 12.848 5.16467 12.6391 4.8817 12.4951C4.59873 12.3511 4.28573 12.2761 3.96824 12.2761C3.65074 12.2761 3.33774 12.3511 3.05477 12.4951C2.7718 12.6391 2.52689 12.848 2.34 13.1047ZM3.96824 15.3799C3.68158 15.3799 3.40664 15.2662 3.20373 15.0638C3.00081 14.8613 2.88651 14.5866 2.88588 14.3C2.88713 14.2143 2.89818 14.129 2.91882 14.0458C2.97505 13.8101 3.10909 13.6002 3.29928 13.4501C3.48948 13.2999 3.72473 13.2182 3.96706 13.2182C4.20939 13.2182 4.44464 13.2999 4.63484 13.4501C4.82503 13.6002 4.95907 13.8101 5.01529 14.0458C5.0371 14.1288 5.04817 14.2142 5.04824 14.3C5.04761 14.5862 4.93363 14.8605 4.73122 15.0629C4.52882 15.2653 4.25448 15.3793 3.96824 15.3799V15.3799ZM5.32588 15.7941C5.53478 15.6052 5.70177 15.3747 5.81606 15.1174C5.93035 14.86 5.9894 14.5815 5.98941 14.3C5.98877 14.215 5.98327 14.1302 5.97294 14.0458H13.9729C13.9606 14.13 13.9544 14.2149 13.9541 14.3C13.9543 14.5815 14.0134 14.8599 14.1277 15.1173C14.242 15.3746 14.4089 15.6052 14.6176 15.7941H5.32588ZM15.9682 15.3799C15.6816 15.3799 15.4066 15.2662 15.2037 15.0638C15.0008 14.8613 14.8865 14.5866 14.8859 14.3C14.8871 14.2143 14.8982 14.129 14.9188 14.0458C14.9373 13.9743 14.9633 13.9048 14.9965 13.8388C15.0684 13.6828 15.1769 13.5466 15.3128 13.4415C15.4486 13.3364 15.6078 13.2656 15.7768 13.2352C15.9458 13.2047 16.1197 13.2154 16.2837 13.2664C16.4477 13.3174 16.5969 13.4072 16.7188 13.5282C16.8639 13.6698 16.9666 13.8491 17.0153 14.0458C17.0371 14.1288 17.0482 14.2142 17.0482 14.3C17.0476 14.5862 16.9336 14.8605 16.7312 15.0629C16.5288 15.2653 16.2545 15.3793 15.9682 15.3799Z" fill="#9798A8"/>
<path d="M5.88586 10.6788V7.98939C5.88586 7.86458 5.83628 7.74488 5.74803 7.65663C5.65977 7.56838 5.54008 7.5188 5.41527 7.5188C4.60402 7.5188 3.82599 7.84107 3.25235 8.41471C2.67871 8.98835 2.35645 9.76637 2.35645 10.5776C2.35645 10.5941 2.35645 10.6129 2.35645 10.6294C2.35645 10.6459 2.35645 10.6623 2.35645 10.6812C2.35645 10.806 2.40602 10.9257 2.49428 11.0139C2.58253 11.1022 2.70223 11.1517 2.82703 11.1517H5.41527C5.47727 11.1517 5.53865 11.1395 5.5959 11.1157C5.65315 11.0919 5.70513 11.057 5.74886 11.0131C5.79259 10.9691 5.8272 10.917 5.85071 10.8596C5.87422 10.8022 5.88617 10.7408 5.88586 10.6788ZM4.94468 10.2082H3.3235C3.39573 9.79835 3.58712 9.41885 3.87378 9.11713C4.16043 8.81541 4.52964 8.60485 4.93527 8.51174L4.94468 10.2082Z" fill="#9798A8"/>
</svg>
