<svg width="25" height="25" viewBox="0 0 25 25" fill="none" xmlns="http://www.w3.org/2000/svg">
<g clip-path="url(#clip0)">
<path d="M7.30735 6C7.24254 5.99976 7.17833 6.0123 7.11841 6.03699C7.0585 6.06167 7.00406 6.09798 6.95823 6.14381C6.91241 6.18963 6.87611 6.24406 6.85142 6.30398C6.82673 6.36389 6.81415 6.42811 6.8144 6.49292V17.2948C6.81415 17.3596 6.82673 17.4238 6.85141 17.4837C6.8761 17.5436 6.9124 17.5981 6.95823 17.644C7.00405 17.6898 7.05849 17.726 7.11841 17.7507C7.17833 17.7754 7.24254 17.788 7.30735 17.7878H23.9988C24.0636 17.788 24.1278 17.7754 24.1877 17.7507C24.2477 17.726 24.3021 17.6898 24.3479 17.644C24.3938 17.5981 24.4301 17.5436 24.4547 17.4837C24.4794 17.4238 24.492 17.3596 24.4918 17.2948V6.49292C24.492 6.42811 24.4794 6.36389 24.4547 6.30398C24.4301 6.24406 24.3938 6.18963 24.3479 6.14381C24.3021 6.09798 24.2477 6.06167 24.1877 6.03699C24.1278 6.0123 24.0636 5.99976 23.9988 6H7.30735ZM7.79647 6.983H23.5097V8.17607L15.7451 12.6549L7.79647 8.17125V6.983ZM7.79647 9.29913L15.5063 13.6485C15.5803 13.6905 15.6639 13.7126 15.749 13.7126C15.8341 13.7126 15.9177 13.6905 15.9916 13.6485L23.5097 9.30683V16.8057H7.79647V9.29913Z" fill="#9798A8"/>
<path d="M-2.50885 6.00012C-2.63911 6.00012 -2.76404 6.05187 -2.85614 6.14398C-2.94825 6.23609 -3 6.36102 -3 6.49128C-3 6.62154 -2.94825 6.74647 -2.85614 6.83858C-2.76404 6.93069 -2.63911 6.98244 -2.50885 6.98244H5.33519C5.46546 6.98244 5.59038 6.93069 5.68249 6.83858C5.7746 6.74647 5.82635 6.62154 5.82635 6.49128C5.82635 6.36102 5.7746 6.23609 5.68249 6.14398C5.59038 6.05187 5.46546 6.00012 5.33519 6.00012H-2.50885Z" fill="#9798A8"/>
<path d="M-0.544177 9.92944C-0.674442 9.92944 -0.799371 9.98119 -0.891481 10.0733C-0.983592 10.1654 -1.03534 10.2903 -1.03534 10.4206C-1.03534 10.5509 -0.983592 10.6758 -0.891481 10.7679C-0.799371 10.86 -0.674442 10.9118 -0.544177 10.9118H5.33523C5.4655 10.9118 5.59043 10.86 5.68254 10.7679C5.77465 10.6758 5.8264 10.5509 5.8264 10.4206C5.8264 10.2903 5.77465 10.1654 5.68254 10.0733C5.59043 9.98119 5.4655 9.92944 5.33523 9.92944H-0.544177Z" fill="#9798A8"/>
<path d="M1.36969 13.8587C1.23951 13.8655 1.11737 13.9238 1.03011 14.0206C0.942855 14.1175 0.897617 14.245 0.904342 14.3752C0.911067 14.5054 0.969203 14.6276 1.06598 14.7149C1.16275 14.8023 1.29024 14.8476 1.42043 14.841H5.33521C5.46547 14.841 5.5904 14.7893 5.68251 14.6971C5.77462 14.605 5.82637 14.4801 5.82637 14.3498C5.82637 14.2196 5.77462 14.0947 5.68251 14.0025C5.5904 13.9104 5.46547 13.8587 5.33521 13.8587H1.42043C1.40353 13.8578 1.3866 13.8578 1.36969 13.8587V13.8587Z" fill="#9798A8"/>
</g>
<defs>
<clipPath id="clip0">
<rect width="25" height="25" fill="white"/>
</clipPath>
</defs>
</svg>
