<svg width="16" height="16" viewBox="0 0 16 16" fill="none" xmlns="http://www.w3.org/2000/svg">
<path fill-rule="evenodd" clip-rule="evenodd" d="M10.97 4.97001C11.11 4.83128 11.2989 4.7532 11.4959 4.75266C11.693 4.75211 11.8823 4.82915 12.0231 4.9671C12.1638 5.10505 12.2445 5.29285 12.2479 5.48987C12.2513 5.6869 12.1769 5.87734 12.041 6.02001L8.04901 11.01C7.9804 11.0839 7.89759 11.1432 7.80554 11.1844C7.71348 11.2255 7.61408 11.2477 7.51326 11.2496C7.41244 11.2514 7.31228 11.233 7.21876 11.1952C7.12525 11.1575 7.0403 11.1013 6.96901 11.03L4.32401 8.38401C4.25032 8.31534 4.19122 8.23254 4.15022 8.14054C4.10923 8.04854 4.08719 7.94923 4.08541 7.84853C4.08364 7.74783 4.10216 7.6478 4.13988 7.55441C4.1776 7.46102 4.23375 7.37619 4.30497 7.30497C4.37619 7.23375 4.46102 7.1776 4.55441 7.13988C4.6478 7.10216 4.74782 7.08364 4.84853 7.08541C4.94923 7.08719 5.04854 7.10923 5.14054 7.15022C5.23254 7.19122 5.31534 7.25032 5.384 7.32401L7.47801 9.41701L10.951 4.99201C10.9572 4.98426 10.9639 4.97691 10.971 4.97001H10.97Z" fill="#17C929"/>
</svg>
