<svg width="32" height="32" viewBox="0 0 32 32" fill="none" xmlns="http://www.w3.org/2000/svg">
<path d="M26.0411 15.6615C26.3578 15.4867 26.5542 15.1531 26.5542 14.7913V5.69168C26.5542 4.43944 25.5359 3.42111 24.2836 3.42111H18.785V2.27058C18.785 1.01834 17.7669 0 16.5144 0H7.71638C6.46414 0 5.4458 1.01834 5.4458 2.27058V11.3702C5.4458 11.7328 5.64273 12.0663 5.96018 12.2412C6.10998 12.3238 6.27566 12.365 6.44009 12.365C6.62461 12.365 6.80888 12.3139 6.96985 12.2117L9.00532 10.9285H13.2146V12.0787C13.2146 13.331 14.2329 14.3493 15.4852 14.3493H22.9937C23.3191 14.3493 24.0827 15.0217 24.4148 15.1948C24.8315 15.412 25.5825 15.9155 26.041 15.6615L26.0411 15.6615ZM13.2152 5.69213V9.33622H8.88513C8.66266 9.33622 8.44614 9.39872 8.25939 9.51652L7.03845 10.2858V2.27133C7.03845 1.89757 7.34276 1.59324 7.71654 1.59324H16.5145C16.8883 1.59324 17.1926 1.89755 17.1926 2.27133V3.42185H15.4855C14.2333 3.42185 13.2152 4.44019 13.2152 5.69243L13.2152 5.69213ZM24.9611 13.7066L23.7394 12.9368C23.5516 12.8188 23.3351 12.7565 23.1144 12.7565H15.4853C15.1115 12.7565 14.8072 12.4522 14.8072 12.0784V5.69182C14.8072 5.31807 15.1115 5.01374 15.4853 5.01374H24.2833C24.657 5.01374 24.9613 5.31805 24.9613 5.69182V13.7063L24.9611 13.7066Z" fill="white"/>
<path d="M12.1593 27.4894V30.56L1.50733 30.5597V27.4891C1.50733 26.5466 1.88555 25.6922 2.49716 25.066C2.71765 24.8403 2.76105 24.4862 2.59662 24.2166C2.59414 24.2124 2.59166 24.2084 2.58918 24.2042C2.3496 23.8083 1.80544 23.7141 1.48132 24.0442C0.608056 24.9321 0.0678711 26.1484 0.0678711 27.4896L0.0681191 31.9995H13.5988V27.4894C13.5988 26.1486 13.0591 24.9319 12.1858 24.044C11.8612 23.7141 11.3175 23.8083 11.078 24.2039C11.0755 24.2081 11.073 24.2121 11.0705 24.2163C10.9063 24.4859 10.9492 24.8401 11.17 25.0658C11.7808 25.6927 12.159 26.5466 12.159 27.4894L12.1593 27.4894Z" fill="white"/>
<path d="M7.03872 16.6247H6.62727C4.46983 16.6247 2.71436 18.3801 2.71436 20.5379V21.8645C2.71436 24.0219 4.46976 25.7774 6.62727 25.7774H7.03823C9.19566 25.7774 10.9511 24.022 10.9511 21.8645V20.5379C10.9511 18.3799 9.19592 16.6247 7.03873 16.6247H7.03872ZM9.5119 21.8642C9.5119 23.228 8.40252 24.3374 7.03872 24.3374H6.62727C5.26347 24.3374 4.15409 23.228 4.15409 21.8642V20.5375C4.15409 19.1737 5.26347 18.0639 6.62727 18.0639H7.03823C8.40202 18.0639 9.51141 19.1735 9.51141 20.5375L9.51165 21.8642H9.5119Z" fill="white"/>
<path d="M29.4112 24.205C29.4087 24.2092 29.4062 24.2131 29.4037 24.2174C29.2396 24.487 29.2825 24.8411 29.5029 25.0668C30.1145 25.6933 30.4928 26.5474 30.4928 27.4899V30.5605L19.8408 30.5603V27.4897C19.8408 26.5472 20.2195 25.693 20.8307 25.0666C21.0511 24.8404 21.0945 24.4867 20.9301 24.2171C20.9276 24.2129 20.9252 24.2089 20.9227 24.2047C20.6831 23.8089 20.1389 23.7146 19.8148 24.0447C18.9416 24.9326 18.4014 26.1489 18.4014 27.4902L18.4016 32H31.9323V27.4899C31.9323 26.1492 31.3926 24.9324 30.5193 24.045C30.1947 23.7149 29.6505 23.8091 29.411 24.205L29.4112 24.205Z" fill="white"/>
<path d="M24.9608 25.7776H25.3717C27.5297 25.7776 29.2849 24.0222 29.2849 21.8647V20.538C29.2849 18.3801 27.5295 16.6249 25.3717 16.6249H24.9608C22.8033 16.6249 21.0479 18.3803 21.0479 20.538V21.8647C21.0483 24.0221 22.8035 25.7776 24.9608 25.7776ZM22.4876 20.5381C22.4876 19.1743 23.597 18.0644 24.9608 18.0644H25.3717C26.7355 18.0644 27.8454 19.1741 27.8454 20.5381V21.8648C27.8454 23.2286 26.7358 24.3379 25.3717 24.3379H24.9608C23.597 24.3379 22.4876 23.2286 22.4876 21.8648V20.5381Z" fill="white"/>
</svg>
