<svg width="48" height="49" viewBox="0 0 48 49" fill="none" xmlns="http://www.w3.org/2000/svg">
<path d="M24.0493 0.67622C11.0913 0.67622 0.549316 11.3026 0.549316 24.3642C0.549316 37.4259 11.0913 48.0517 24.0493 48.0517C37.0073 48.0517 47.5493 37.4259 47.5493 24.3642C47.5493 11.3026 37.0068 0.67622 24.0493 0.67622ZM21.5863 45.8885C21.8233 41.1898 22.8423 33.0643 22.9808 32.3748C22.6008 31.772 22.3508 30.9767 22.2203 30.4858C21.6728 31.0654 21.0088 31.9086 20.2338 33.1399C20.2243 33.1545 20.2158 33.1696 20.2063 33.1842C20.2063 33.1842 19.0343 27.8766 18.7623 25.2256C18.7268 25.2785 18.6898 25.3324 18.6488 25.3853C18.4308 25.6666 18.1443 25.9392 17.7653 26.1811L12.0493 28.6875C10.2618 29.3805 9.50532 30.4203 9.50532 30.4203C7.72682 33.0743 7.00532 35.7214 6.72232 37.1764C4.10182 33.5849 2.54932 29.1547 2.54932 24.3642C2.54932 12.4144 12.1943 2.69222 24.0493 2.69222C35.9043 2.69222 45.5493 12.4144 45.5493 24.3642C45.5493 29.1542 43.9968 33.5839 41.3758 37.1754C41.0933 35.7198 40.3723 33.0733 38.5943 30.4203C38.5943 30.4203 37.8373 29.3805 36.0493 28.6875C36.0493 28.6875 32.5198 27.6065 30.6423 26.3888C30.4938 26.2925 30.3553 26.1958 30.2303 26.0985C30.1748 26.0355 30.0028 25.914 29.9473 25.8485C29.7608 25.7144 29.6668 25.5884 29.4883 25.3536C29.2108 28.048 28.1378 33.2059 28.1378 33.2059C27.3958 31.9741 26.7343 31.1244 26.1698 30.5352C25.9118 31.4449 25.6338 32.0512 25.3673 32.4509C26.0923 35.044 26.4958 42.8147 26.6368 45.8729C25.7883 45.9762 24.9258 46.0352 24.0503 46.0352C23.2158 46.0352 22.3948 45.9823 21.5863 45.8885Z" fill="#999DC9"/>
<path d="M28.9188 23.969C28.8943 23.8027 28.8798 23.6253 28.8768 23.4353C28.9803 23.3118 29.0808 23.1858 29.1788 23.0573L29.2413 22.9746C29.9113 22.079 30.4573 21.069 30.8253 20.0414C31.4873 19.3751 31.8273 17.7522 31.8273 17.7522C32.2668 16.5113 32.1368 15.8763 31.9348 15.5573C31.9973 15.3688 33.0518 12.0782 31.5618 9.54052C31.5618 9.54052 31.0323 7.14098 28.2298 6.07451C25.6378 4.47583 21.7763 5.43494 21.7763 5.43494C17.0678 6.23478 16.0598 11.8176 16.0598 11.8176C15.7788 14.3658 16.4563 15.961 16.4848 16.026C16.2438 16.6298 16.6813 18.2073 16.6813 18.2073C16.8313 19.1704 17.2993 19.4648 17.4348 19.5308C17.8003 20.8669 18.4653 22.1642 19.2968 23.2528C19.3073 23.4408 19.3048 23.7125 19.2473 24.0285C19.6683 25.4266 20.7693 27.9773 23.3613 28.9944C23.5803 29.0806 23.8093 29.1577 24.0508 29.2197C24.3278 29.1416 24.5908 29.0468 24.8398 28.937C27.2863 27.8665 28.4353 25.417 28.9188 23.969Z" fill="#999DC9"/>
</svg>
