<svg width="12" height="13" viewBox="0 0 12 13" fill="none" xmlns="http://www.w3.org/2000/svg">
<path d="M3.49989 9.50016C3.40102 9.50014 3.30437 9.4708 3.22216 9.41586C3.13996 9.36092 3.07589 9.28284 3.03805 9.19149C3.00022 9.10014 2.99032 8.99962 3.0096 8.90264C3.02889 8.80567 3.07649 8.71659 3.14639 8.64666L8.14639 3.64666C8.24044 3.55431 8.36715 3.50283 8.49896 3.50342C8.63076 3.50402 8.757 3.55665 8.85021 3.64985C8.94341 3.74305 8.99604 3.86929 8.99663 4.0011C8.99723 4.13291 8.94575 4.25962 8.85339 4.35366L3.85339 9.35366C3.80703 9.40017 3.75193 9.43705 3.69126 9.46219C3.6306 9.48733 3.56556 9.50023 3.49989 9.50016Z" fill="#FF3541"/>
<path d="M8.50065 9.50016C8.43498 9.50023 8.36995 9.48733 8.30928 9.46219C8.24861 9.43705 8.19351 9.40017 8.14715 9.35366L3.14715 4.35366C3.05479 4.25962 3.00331 4.13291 3.00391 4.0011C3.00451 3.86929 3.05713 3.74305 3.15034 3.64985C3.24354 3.55665 3.36978 3.50402 3.50159 3.50342C3.63339 3.50283 3.76011 3.55431 3.85415 3.64666L8.85415 8.64666C8.92405 8.71659 8.97166 8.80567 8.99094 8.90264C9.01022 8.99962 9.00032 9.10014 8.96249 9.19149C8.92465 9.28284 8.86058 9.36092 8.77838 9.41586C8.69617 9.4708 8.59952 9.50014 8.50065 9.50016Z" fill="#FF3541"/>
</svg>
