<svg width="22" height="26" viewBox="0 0 22 26" fill="none" xmlns="http://www.w3.org/2000/svg">
<path d="M11.0966 0.801294C11.0585 0.80319 11.0208 0.808683 10.9837 0.817698L6.16843 2.01758C5.90028 2.08432 5.71218 2.32447 5.71229 2.59995V6.19959C5.71229 8.14552 6.75627 9.85066 8.31158 10.8011C4.03602 12.0243 0.896972 15.9476 0.896973 20.5982C0.897006 20.9295 1.16647 21.1981 1.49889 21.1981H5.71229V25.3977C5.71103 25.729 5.97944 25.9987 6.31186 26H15.9448C16.2773 25.9987 16.5457 25.729 16.5444 25.3977V21.1981H20.7602C21.0926 21.1981 21.362 20.9295 21.3621 20.5982C21.3621 15.9476 18.223 12.0243 13.9475 10.8011C15.5028 9.85066 16.5468 8.14552 16.5468 6.19959V2.59995C16.5469 2.32447 16.3588 2.08432 16.0906 2.01758L11.2753 0.817698C11.2169 0.803362 11.1567 0.797833 11.0966 0.801294V0.801294ZM11.1295 2.01875L15.3429 3.06865V3.79866H6.91612V3.06865L11.1295 2.01875ZM7.51569 4.99854H14.7457L13.8393 6.19842H8.42326L7.51569 4.99854ZM15.3429 6.19959C15.3429 8.52607 13.4637 10.3992 11.1295 10.3992C8.79579 10.3992 6.91676 8.52669 6.91612 6.20077L7.63677 7.15927C7.751 7.31121 7.93064 7.4003 8.12113 7.39948H14.1415C14.3303 7.39882 14.5079 7.30989 14.6211 7.15927L15.3429 6.19959ZM11.1295 11.5991C15.9169 11.5991 19.7827 15.3072 20.0971 19.9982H16.5444V15.7998C16.5457 15.4685 16.2773 15.1989 15.9448 15.1975H6.31186C5.97944 15.1989 5.71102 15.4685 5.71229 15.7998V19.9982H2.16193C2.4764 15.3072 6.34217 11.5991 11.1295 11.5991ZM6.91612 16.3986H9.32496V18.2008C9.32628 18.5303 9.59394 18.797 9.92452 18.7984H12.3322C12.6651 18.8003 12.9363 18.5325 12.9376 18.2008V16.3986H15.3406V24.7989H6.91612V16.3986ZM10.5288 16.3986H11.7326V17.5985H10.5288V16.3986Z" fill="#9798A8"/>
<path d="M12.2749 22.3989C11.4721 22.4372 11.5299 23.6375 12.3327 23.5991H13.5368C14.3395 23.5991 14.3395 22.3989 13.5368 22.3989H12.2749Z" fill="#9798A8"/>
</svg>
