<svg width="22" height="26" viewBox="0 0 22 26" fill="none" xmlns="http://www.w3.org/2000/svg">
<path fill-rule="evenodd" clip-rule="evenodd" d="M20.7614 10.607V18.0731C20.7569 18.4133 20.6112 18.7381 20.3563 18.9775C20.1014 19.2167 19.7576 19.3513 19.3992 19.352H8.48567C8.12508 19.352 7.77957 19.2156 7.52504 18.9733C7.27012 18.7317 7.12661 18.4038 7.12623 18.0618V10.6068C6.80902 10.5794 6.51204 10.4474 6.28697 10.234C6.03186 9.99221 5.88835 9.66429 5.88797 9.32225V7.71524C5.88873 7.37247 6.03243 7.04402 6.28792 6.80172C6.54323 6.55942 6.8893 6.42304 7.25027 6.42231H20.6406C21.001 6.42231 21.3467 6.55851 21.601 6.80081C21.8563 7.04238 21.9998 7.37029 22 7.71251V9.31953C21.9992 9.64235 21.8714 9.95318 21.6419 10.1911C21.4124 10.4292 21.0975 10.5776 20.7588 10.6068L20.7614 10.607ZM4.52256 18.4436V0H1.86294V0.992958H3.46755V18.4439C2.47693 18.5699 1.57192 19.0435 0.930825 19.7713C0.289733 20.4991 -0.0408662 21.4283 0.00404206 22.376C0.0491401 23.3238 0.466485 24.2209 1.17391 24.8911C1.88133 25.5612 2.82764 25.9557 3.82628 25.9965C4.82493 26.0373 5.80352 25.7217 6.56901 25.1118C7.33451 24.5019 7.83173 23.6421 7.96244 22.7015H17.0796L18.6192 24.1544L19.3611 23.4504L17.514 21.7088H7.96239C7.84716 20.8812 7.44776 20.113 6.82579 19.5226C6.20397 18.9325 5.3945 18.5535 4.52256 18.4439V18.4436ZM5.93819 20.3647V20.3649C6.53995 20.9367 6.82716 21.7418 6.71538 22.5428C6.60378 23.3441 6.10579 24.0505 5.36818 24.4542C4.63057 24.8581 3.737 24.9132 2.95028 24.6036C2.16375 24.294 1.57343 23.6549 1.3533 22.8744C1.13297 22.0936 1.30782 21.2601 1.82644 20.619C2.34489 19.9779 3.14806 19.6021 3.99955 19.6019C4.72704 19.601 5.42492 19.8756 5.93819 20.3649L5.93819 20.3647ZM20.6405 7.41545H7.24435C7.07198 7.41708 6.93268 7.54929 6.93115 7.71288V9.31989C6.93115 9.39878 6.96402 9.47441 7.02268 9.53027C7.08154 9.58594 7.16122 9.61732 7.24435 9.61714H20.6405C20.8129 9.61569 20.9522 9.48348 20.9537 9.31989V7.71557C20.9535 7.63668 20.9206 7.56123 20.8622 7.50519C20.8031 7.4497 20.7234 7.4185 20.6405 7.41832V7.41545ZM11.9876 11.8861V12.8791H15.3682V11.8861H11.9876ZM19.7125 10.6128H8.17235V18.0733C8.17235 18.1522 8.20522 18.2279 8.26408 18.2837C8.32274 18.3394 8.40262 18.3708 8.48574 18.3706H19.3992C19.5714 18.3691 19.7109 18.2369 19.7124 18.0733L19.7125 10.6128Z" fill="#A6A6A7"/>
</svg>
