<svg width="30" height="30" viewBox="0 0 30 30" fill="none" xmlns="http://www.w3.org/2000/svg">
<path d="M28.9712 12.2659H0.301997C0.221902 12.2659 0.145088 12.2345 0.0884529 12.1786C0.0318174 12.1227 0 12.047 0 11.9679C0 11.8889 0.0318174 11.8131 0.0884529 11.7572C0.145088 11.7013 0.221902 11.6699 0.301997 11.6699H28.9712C29.0513 11.6699 29.1281 11.7013 29.1847 11.7572C29.2414 11.8131 29.2732 11.8889 29.2732 11.9679C29.2732 12.047 29.2414 12.1227 29.1847 12.1786C29.1281 12.2345 29.0513 12.2659 28.9712 12.2659Z" fill="#474D9B"/>
<path d="M20.4427 12.2854C20.3949 12.2854 20.3479 12.2742 20.3053 12.2527C20.2628 12.2313 20.2261 12.2002 20.1981 12.162L14.4245 4.28778C14.3797 4.22367 14.3621 4.14481 14.3755 4.06806C14.3888 3.99131 14.4321 3.92278 14.4961 3.87713C14.56 3.83149 14.6395 3.81235 14.7176 3.82383C14.7956 3.8353 14.8661 3.87647 14.9137 3.93853L20.3038 11.2853L22.0348 4.04461C22.0433 4.00589 22.0595 3.96923 22.0825 3.93676C22.1056 3.9043 22.1349 3.87669 22.1688 3.85555C22.2028 3.83441 22.2407 3.82016 22.2803 3.81364C22.3199 3.80711 22.3604 3.80845 22.3995 3.81756C22.4386 3.82668 22.4754 3.84339 22.5078 3.86671C22.5403 3.89004 22.5677 3.91952 22.5885 3.95342C22.6092 3.98733 22.6229 4.02498 22.6288 4.06417C22.6346 4.10337 22.6325 4.14332 22.6225 4.18169L20.7368 12.0559C20.7235 12.1115 20.6942 12.1621 20.6526 12.2017C20.6109 12.2413 20.5586 12.2683 20.5019 12.2794C20.4824 12.2831 20.4626 12.2851 20.4427 12.2854Z" fill="#474D9B"/>
<path d="M8.91958 12.2852C8.89929 12.2855 8.87902 12.2835 8.85918 12.2793C8.8024 12.2683 8.75002 12.2414 8.70826 12.2019C8.6665 12.1624 8.63712 12.1119 8.62362 12.0564L6.71077 4.18273C6.69885 4.10871 6.71564 4.03298 6.75777 3.97063C6.79991 3.90828 6.86431 3.86388 6.93814 3.84629C7.01197 3.8287 7.0898 3.8392 7.15613 3.87571C7.22246 3.91221 7.27242 3.97204 7.29605 4.04327L9.05971 11.2851L14.4196 3.93897C14.4663 3.87479 14.537 3.83158 14.6161 3.81884C14.6951 3.8061 14.7761 3.82487 14.8411 3.87103C14.9062 3.91718 14.95 3.98694 14.9629 4.06495C14.9758 4.14297 14.9568 4.22285 14.91 4.28703L9.1648 12.1589C9.13709 12.1977 9.10037 12.2294 9.05772 12.2514C9.01506 12.2734 8.9677 12.285 8.91958 12.2852Z" fill="#474D9B"/>
<path d="M18.0942 18.7095C18.0594 18.7096 18.0248 18.7036 17.9921 18.6916C17.9169 18.6647 17.8555 18.6094 17.8215 18.5379C17.7875 18.4664 17.7837 18.3845 17.8109 18.3102L20.1593 11.886C20.1716 11.8478 20.1916 11.8124 20.2181 11.782C20.2445 11.7516 20.277 11.7267 20.3134 11.709C20.3499 11.6913 20.3895 11.6809 20.4301 11.6787C20.4707 11.6764 20.5113 11.6823 20.5495 11.6959C20.5878 11.7095 20.6228 11.7306 20.6526 11.7579C20.6824 11.7851 20.7063 11.8181 20.7228 11.8547C20.7394 11.8913 20.7483 11.9308 20.749 11.9709C20.7497 12.011 20.7423 12.0509 20.727 12.088L18.3793 18.5128C18.3581 18.5706 18.3194 18.6205 18.2683 18.6557C18.2173 18.6909 18.1565 18.7097 18.0942 18.7095Z" fill="#474D9B"/>
<path d="M20.3292 21.8091C20.2709 21.8091 20.2138 21.7924 20.1649 21.7611C20.1159 21.7297 20.0773 21.6851 20.0535 21.6325C20.0297 21.5799 20.0219 21.5217 20.031 21.4648C20.04 21.4079 20.0656 21.3549 20.1046 21.312L28.6009 11.9663L22.1859 4.41093H7.14648L0.731458 11.9663L9.22905 21.2775C9.25562 21.3065 9.27613 21.3405 9.2894 21.3774C9.30267 21.4143 9.30845 21.4534 9.3064 21.4925C9.30436 21.5316 9.29452 21.5699 9.27747 21.6053C9.26041 21.6406 9.23647 21.6723 9.207 21.6985C9.17754 21.7248 9.14313 21.745 9.10573 21.7581C9.06834 21.7712 9.0287 21.7769 8.98908 21.7749C8.94945 21.7728 8.91062 21.7631 8.87479 21.7463C8.83897 21.7295 8.80685 21.7059 8.78028 21.6768L0.10874 12.1725C0.0601274 12.1192 0.0326321 12.0504 0.0313007 11.9787C0.0299693 11.907 0.0548913 11.8372 0.101493 11.7821L6.77321 3.92162C6.80153 3.88825 6.83692 3.8614 6.87689 3.84297C6.91685 3.82454 6.96042 3.81497 7.00454 3.81494H22.3267C22.3709 3.81489 22.4146 3.82441 22.4546 3.84284C22.4947 3.86128 22.5302 3.88817 22.5586 3.92162L29.2321 11.7821C29.2788 11.8371 29.3038 11.9068 29.3026 11.9786C29.3014 12.0503 29.274 12.1191 29.2255 12.1725L20.5539 21.7084C20.5258 21.7398 20.4912 21.7651 20.4525 21.7824C20.4138 21.7998 20.3718 21.8089 20.3292 21.8091Z" fill="#474D9B"/>
<path d="M11.2828 18.7093C11.2208 18.7093 11.1602 18.6904 11.1094 18.6552C11.0586 18.62 11.0201 18.5702 10.999 18.5126L8.63614 12.0885C8.60983 12.0144 8.6142 11.9331 8.64827 11.8622C8.68235 11.7913 8.74339 11.7365 8.81815 11.7098C8.89291 11.683 8.97534 11.6864 9.04756 11.7193C9.11978 11.7521 9.17596 11.8117 9.20389 11.8852L11.5643 18.31C11.5915 18.3843 11.5877 18.4662 11.5537 18.5377C11.5197 18.6092 11.4584 18.6645 11.3831 18.6914C11.3509 18.7028 11.317 18.7088 11.2828 18.7093Z" fill="#474D9B"/>
<path d="M18.348 27.8564C18.2891 27.8566 18.2314 27.8398 18.182 27.808C18.1326 27.7763 18.0938 27.7309 18.0702 27.6776C17.6514 26.6945 17.0008 25.8243 16.1724 25.1393C16.1347 25.1083 16.1051 25.0687 16.0864 25.0238C16.0677 24.979 16.0603 24.9304 16.065 24.8821C16.0696 24.8338 16.0861 24.7874 16.113 24.7469C16.14 24.7063 16.1765 24.6729 16.2196 24.6494C16.7884 24.3398 17.2382 23.8541 17.4996 23.2672C17.7609 22.6803 17.8193 22.0249 17.6658 21.402C17.5122 20.7791 17.1552 20.2234 16.6498 19.8206C16.1445 19.4177 15.5188 19.1902 14.8694 19.173C14.22 19.1558 13.5829 19.35 13.0563 19.7255C12.5298 20.101 12.1432 20.637 11.956 21.2509C11.7688 21.8648 11.7915 22.5223 12.0206 23.1222C12.2498 23.7221 12.6725 24.2309 13.2237 24.5701C13.2648 24.5954 13.2992 24.63 13.3239 24.671C13.3486 24.7121 13.3629 24.7584 13.3657 24.806C13.3685 24.8537 13.3596 24.9013 13.3399 24.9449C13.3201 24.9885 13.29 25.0268 13.2521 25.0565C12.3893 25.736 11.7084 26.6139 11.2692 27.6133C11.2345 27.6815 11.1747 27.734 11.1019 27.7599C11.0292 27.7859 10.9492 27.7833 10.8783 27.7527C10.8074 27.7222 10.7512 27.6659 10.7211 27.5956C10.691 27.5253 10.6894 27.4463 10.7166 27.3749C11.1412 26.4095 11.7725 25.5462 12.5672 24.8443C11.983 24.3853 11.5598 23.7569 11.3571 23.0477C11.1545 22.3385 11.1828 21.5844 11.4379 20.8919C11.6931 20.1994 12.1623 19.6035 12.7792 19.1884C13.3961 18.7733 14.1296 18.5598 14.8761 18.5782C15.6226 18.5967 16.3444 18.846 16.9395 19.2911C17.5346 19.7362 17.973 20.3545 18.1928 21.0587C18.4125 21.7629 18.4025 22.5174 18.1642 23.2157C17.9259 23.914 17.4713 24.5208 16.8646 24.9504C17.6204 25.6512 18.2192 26.5004 18.6222 27.4434C18.6379 27.4794 18.6463 27.518 18.6468 27.5572C18.6473 27.5963 18.64 27.6352 18.6253 27.6715C18.6106 27.7079 18.5888 27.7411 18.5611 27.7691C18.5335 27.7971 18.5005 27.8195 18.464 27.835C18.4271 27.8494 18.3877 27.8567 18.348 27.8564Z" fill="#474D9B"/>
<path d="M14.6603 29.2256C13.4408 29.2256 12.2486 28.8687 11.2346 28.2002C10.2206 27.5316 9.43022 26.5813 8.96352 25.4695C8.49681 24.3577 8.3747 23.1344 8.61262 21.9541C8.85055 20.7738 9.43782 19.6897 10.3002 18.8387C11.1625 17.9878 12.2612 17.4083 13.4574 17.1736C14.6535 16.9388 15.8933 17.0593 17.02 17.5198C18.1467 17.9803 19.1098 18.7602 19.7873 19.7608C20.4649 20.7613 20.8265 21.9377 20.8265 23.1411C20.8246 24.7542 20.1743 26.3007 19.0183 27.4414C17.8624 28.582 16.2951 29.2237 14.6603 29.2256ZM14.6603 17.6526C13.5602 17.6526 12.4848 17.9745 11.5701 18.5776C10.6554 19.1807 9.94252 20.0379 9.52153 21.0408C9.10055 22.0437 8.99039 23.1472 9.20501 24.2119C9.41963 25.2765 9.94938 26.2545 10.7273 27.022C11.5051 27.7896 12.4962 28.3124 13.5752 28.5241C14.6541 28.7359 15.7725 28.6272 16.7889 28.2118C17.8052 27.7964 18.6739 27.0929 19.2851 26.1903C19.8963 25.2878 20.2225 24.2266 20.2225 23.1411C20.2209 21.686 19.6344 20.2909 18.5916 19.2619C17.5488 18.233 16.135 17.6542 14.6603 17.6526Z" fill="#474D9B"/>
<path d="M26.3183 6.7355C26.2496 6.7355 26.183 6.71242 26.1294 6.67006C26.0758 6.6277 26.0385 6.56858 26.0235 6.50247C26.0187 6.47922 25.4588 4.14055 23.3533 3.67509C23.2855 3.66013 23.225 3.62259 23.182 3.56879C23.139 3.51499 23.1162 3.44822 23.1172 3.37971C23.1183 3.31121 23.1432 3.24515 23.1879 3.19268C23.2325 3.1402 23.2941 3.10451 23.3623 3.09161C23.4596 3.07314 25.7324 2.61124 26.0199 0.263038C26.0284 0.191695 26.0628 0.125797 26.1167 0.0774773C26.1706 0.0291578 26.2403 0.00166966 26.3131 7.36131e-05C26.3859 -0.00152243 26.4568 0.0228811 26.5128 0.0687913C26.5688 0.114702 26.6061 0.179028 26.6178 0.249927C26.7142 0.711997 26.8848 1.15587 27.1234 1.56468C27.6314 2.43245 28.3525 2.94559 29.2664 3.08982C29.3364 3.10056 29.4003 3.13524 29.447 3.1878C29.4937 3.24035 29.5202 3.30743 29.5219 3.37732C29.5235 3.4472 29.5002 3.51543 29.4561 3.57008C29.4119 3.62473 29.3497 3.66232 29.2803 3.67628C29.1872 3.69535 26.9736 4.18585 26.6185 6.4822C26.6079 6.55106 26.5733 6.61409 26.5205 6.66036C26.4678 6.70663 26.4003 6.73322 26.3297 6.7355H26.3183ZM24.3317 3.38722C25.364 3.89143 25.9583 4.78005 26.2802 5.45769C26.5805 4.7433 27.0917 4.13462 27.7473 3.71085C27.9151 3.6003 28.09 3.50075 28.271 3.41285C27.583 3.10413 27.0111 2.5731 26.5889 1.8442C26.4997 1.69152 26.419 1.53414 26.3473 1.37277C26.054 2.067 25.5545 2.6573 24.9146 3.06598C24.7285 3.18702 24.5337 3.29439 24.3317 3.38722Z" fill="#474D9B"/>
<path d="M4.09171 28.4293C4.02305 28.4293 3.95644 28.4063 3.90286 28.3639C3.84928 28.3215 3.81193 28.2624 3.79696 28.1963C3.79213 28.1731 3.23222 25.8344 1.1267 25.3689C1.05894 25.354 0.998474 25.3164 0.955481 25.2626C0.912489 25.2088 0.889597 25.1421 0.89066 25.0736C0.891724 25.0051 0.916679 24.939 0.961322 24.8865C1.00596 24.8341 1.06757 24.7984 1.13576 24.7855C1.233 24.767 3.50583 24.3051 3.79333 21.9569C3.80188 21.8855 3.83625 21.8196 3.89012 21.7713C3.944 21.723 4.01375 21.6955 4.08654 21.6939C4.15932 21.6923 4.23024 21.7167 4.28624 21.7626C4.34224 21.8086 4.37954 21.8729 4.39129 21.9438C4.4876 22.4058 4.65827 22.8497 4.89683 23.2585C5.40479 24.1263 6.12596 24.6394 7.0398 24.7837C7.1098 24.7944 7.17375 24.8291 7.22046 24.8816C7.26717 24.9342 7.29367 25.0013 7.29532 25.0712C7.29698 25.141 7.27368 25.2093 7.22951 25.2639C7.18534 25.3186 7.12311 25.3562 7.05369 25.3701C6.96068 25.3892 4.74704 25.8797 4.39189 28.1761C4.38131 28.2451 4.34648 28.3083 4.29349 28.3546C4.2405 28.4009 4.17272 28.4273 4.10198 28.4293H4.09171ZM2.10517 25.0811C3.1374 25.5853 3.73173 26.4739 4.05366 27.1515C4.35391 26.4371 4.86511 25.8285 5.52076 25.4047C5.68851 25.2941 5.86344 25.1946 6.04442 25.1067C5.35647 24.798 4.78449 24.2669 4.3623 23.538C4.27313 23.3854 4.19247 23.228 4.1207 23.0666C3.8274 23.7608 3.32792 24.3512 2.68803 24.7598C2.50198 24.8809 2.30717 24.9882 2.10517 25.0811Z" fill="#474D9B"/>
</svg>
