<svg width="11" height="13" viewBox="0 0 11 13" fill="none" xmlns="http://www.w3.org/2000/svg">
<path fill-rule="evenodd" clip-rule="evenodd" d="M3.14286 0.811652V1.62585C3.14286 1.62496 3.14289 1.625 3.14052 1.625H7.85948C7.85751 1.625 7.85714 1.62538 7.85714 1.62585V0.811652C7.85714 0.812535 7.85711 0.8125 7.85948 0.8125H3.14052C3.14249 0.8125 3.14286 0.812124 3.14286 0.811652ZM0.785033 2.4375H0V1.625H2.35714V0.811652C2.35714 0.363389 2.70856 0 3.14052 0H7.85948C8.29213 0 8.64286 0.364918 8.64286 0.811652V1.625H11V2.4375H10.215L10.2136 2.47132L9.83713 11.8148C9.8106 12.4731 9.2835 13 8.64545 13H2.35455C1.71642 13 1.18941 12.4733 1.16287 11.8148L0.786395 2.47132L0.785033 2.4375ZM1.57143 2.4375L1.94791 11.781C1.95696 12.0057 2.13901 12.1875 2.35455 12.1875H8.64545C8.86091 12.1875 9.04305 12.0055 9.05209 11.781L9.42857 2.4375H1.57143ZM6.6814 4.0625V10.5625H7.46711V4.0625H6.6814ZM5.10714 4.0625V10.5625H5.89286V4.0625H5.10714ZM3.53288 4.06895V10.5689H4.3186V4.06895H3.53288Z" fill="#9EA4D5"/>
</svg>
