<svg width="30" height="37" viewBox="0 0 30 37" fill="none" xmlns="http://www.w3.org/2000/svg">
<g clip-path="url(#clip0)">
<path d="M26.875 15.4167H23.3563L22.5 12.1731C22.4569 12.0144 22.3517 11.8792 22.2075 11.7971C22.0634 11.7149 21.8921 11.6927 21.7313 11.7352C21.5705 11.7778 21.4334 11.8816 21.3502 12.0238C21.267 12.166 21.2444 12.3351 21.2875 12.4937L22.2875 16.1937C22.3241 16.3283 22.4059 16.4466 22.5193 16.5295C22.6328 16.6123 22.7714 16.6548 22.9125 16.6501H26.875C27.0408 16.6501 27.1997 16.5851 27.317 16.4694C27.4342 16.3538 27.5 16.1969 27.5 16.0334C27.5 15.8698 27.4342 15.713 27.317 15.5973C27.1997 15.4817 27.0408 15.4167 26.875 15.4167V15.4167Z" fill="#6D6D6D"/>
<path d="M29.75 15.503L26.1938 9.98387C26.0447 9.75815 25.8409 9.57278 25.6007 9.44461C25.3606 9.31645 25.0918 9.24956 24.8188 9.25004H20V4.71137C20.0008 4.49839 19.9591 4.28733 19.8773 4.09025C19.7954 3.89317 19.675 3.71393 19.523 3.56276C19.3709 3.41158 19.1902 3.29144 18.9911 3.20919C18.792 3.12693 18.5784 3.08418 18.3625 3.08337H4.13751C3.92165 3.08418 3.70807 3.12693 3.50895 3.20919C3.30983 3.29144 3.12909 3.41158 2.97703 3.56276C2.82498 3.71393 2.70459 3.89317 2.62274 4.09025C2.54089 4.28733 2.49919 4.49839 2.50001 4.71137V7.23971C2.50001 7.40326 2.56586 7.56011 2.68307 7.67576C2.80028 7.7914 2.95925 7.85637 3.12501 7.85637C3.29077 7.85637 3.44974 7.7914 3.56695 7.67576C3.68416 7.56011 3.75001 7.40326 3.75001 7.23971V4.71137C3.74996 4.6088 3.79038 4.51024 3.86272 4.43657C3.93505 4.3629 4.03361 4.31991 4.13751 4.31671H18.3625C18.4664 4.31991 18.565 4.3629 18.6373 4.43657C18.7096 4.51024 18.7501 4.6088 18.75 4.71137V16.8535C18.7501 16.9561 18.7096 17.0547 18.6373 17.1283C18.565 17.202 18.4664 17.245 18.3625 17.2482H3.63126C3.33066 17.2498 3.04294 17.3688 2.83097 17.5791C2.61899 17.7894 2.50001 18.0739 2.50001 18.3705V21.9164C2.49919 22.1958 2.55415 22.4726 2.66175 22.731C2.76936 22.9894 2.92749 23.2244 3.12714 23.4226C3.32679 23.6207 3.56403 23.7781 3.82533 23.8857C4.08662 23.9934 4.36685 24.0492 4.65001 24.05H6.93751C7.08096 24.7471 7.46422 25.3737 8.02235 25.8238C8.58048 26.2739 9.27917 26.5198 10 26.5198C10.7209 26.5198 11.4195 26.2739 11.9777 25.8238C12.5358 25.3737 12.9191 24.7471 13.0625 24.05H20.6875C20.831 24.7471 21.2142 25.3737 21.7724 25.8238C22.3305 26.2739 23.0292 26.5198 23.75 26.5198C24.4709 26.5198 25.1695 26.2739 25.7277 25.8238C26.2858 25.3737 26.6691 24.7471 26.8125 24.05H27.875C28.4348 24.0517 28.9725 23.8347 29.3706 23.4465C29.7688 23.0582 29.9951 22.5303 30 21.978V16.3417C29.999 16.0444 29.9123 15.7535 29.75 15.503V15.503ZM10 25.2834C9.62917 25.2834 9.26666 25.1749 8.95832 24.9716C8.64998 24.7683 8.40965 24.4794 8.26774 24.1413C8.12582 23.8033 8.08869 23.4313 8.16104 23.0725C8.23339 22.7136 8.41196 22.384 8.67419 22.1252C8.93641 21.8665 9.2705 21.6903 9.63422 21.6189C9.99793 21.5475 10.3749 21.5842 10.7175 21.7242C11.0602 21.8642 11.353 22.1013 11.559 22.4056C11.765 22.7098 11.875 23.0675 11.875 23.4334C11.875 23.924 11.6775 24.3946 11.3258 24.7415C10.9742 25.0885 10.4973 25.2834 10 25.2834ZM23.75 25.2834C23.3792 25.2834 23.0167 25.1749 22.7083 24.9716C22.4 24.7683 22.1597 24.4794 22.0177 24.1413C21.8758 23.8033 21.8387 23.4313 21.911 23.0725C21.9834 22.7136 22.162 22.384 22.4242 22.1252C22.6864 21.8665 23.0205 21.6903 23.3842 21.6189C23.7479 21.5475 24.1249 21.5842 24.4675 21.7242C24.8102 21.8642 25.103 22.1013 25.309 22.4056C25.515 22.7098 25.625 23.0675 25.625 23.4334C25.625 23.924 25.4275 24.3946 25.0758 24.7415C24.7242 25.0885 24.2473 25.2834 23.75 25.2834ZM28.75 21.978C28.7484 22.0898 28.7245 22.2001 28.6796 22.3028C28.6347 22.4054 28.5698 22.4983 28.4886 22.5762C28.4073 22.6541 28.3113 22.7154 28.206 22.7567C28.1008 22.7979 27.9883 22.8183 27.875 22.8167H26.8125C26.6691 22.1197 26.2858 21.493 25.7277 21.0429C25.1695 20.5928 24.4709 20.3469 23.75 20.3469C23.0292 20.3469 22.3305 20.5928 21.7724 21.0429C21.2142 21.493 20.831 22.1197 20.6875 22.8167H13.0625C12.9191 22.1197 12.5358 21.493 11.9777 21.0429C11.4195 20.5928 10.7209 20.3469 10 20.3469C9.27917 20.3469 8.58048 20.5928 8.02235 21.0429C7.46422 21.493 7.08096 22.1197 6.93751 22.8167H4.65001C4.41017 22.8135 4.18128 22.7172 4.01284 22.5487C3.84441 22.3802 3.74999 22.153 3.75001 21.9164V18.5H18.3625C18.58 18.4992 18.7951 18.4559 18.9955 18.3725C19.1958 18.2891 19.3774 18.1673 19.5297 18.0141C19.682 17.861 19.802 17.6796 19.8827 17.4803C19.9635 17.2811 20.0033 17.0681 20 16.8535V10.4834H24.8188C24.8831 10.4838 24.9464 10.4997 25.003 10.5298C25.0597 10.5599 25.108 10.6032 25.1438 10.656L28.6938 16.1567C28.7303 16.2117 28.7498 16.276 28.75 16.3417V21.978Z" fill="#6D6D6D"/>
<path d="M5 15.4167C5 15.5803 5.06585 15.7371 5.18306 15.8528C5.30027 15.9684 5.45924 16.0334 5.625 16.0334H14.375C14.5408 16.0334 14.6997 15.9684 14.8169 15.8528C14.9342 15.7371 15 15.5803 15 15.4167C15 15.2532 14.9342 15.0963 14.8169 14.9807C14.6997 14.865 14.5408 14.8 14.375 14.8H5.625C5.45924 14.8 5.30027 14.865 5.18306 14.9807C5.06585 15.0963 5 15.2532 5 15.4167Z" fill="#6D6D6D"/>
<path d="M1.875 9.86663H10.625C10.7908 9.86663 10.9497 9.80166 11.0669 9.68602C11.1842 9.57037 11.25 9.41352 11.25 9.24997C11.25 9.08642 11.1842 8.92957 11.0669 8.81392C10.9497 8.69827 10.7908 8.6333 10.625 8.6333H1.875C1.70924 8.6333 1.55027 8.69827 1.43306 8.81392C1.31585 8.92957 1.25 9.08642 1.25 9.24997C1.25 9.41352 1.31585 9.57037 1.43306 9.68602C1.55027 9.80166 1.70924 9.86663 1.875 9.86663V9.86663Z" fill="#6D6D6D"/>
<path d="M8.125 12.95C8.29076 12.95 8.44973 12.885 8.56694 12.7694C8.68415 12.6537 8.75 12.4969 8.75 12.3333C8.75 12.1698 8.68415 12.0129 8.56694 11.8973C8.44973 11.7816 8.29076 11.7167 8.125 11.7167H0.625C0.45924 11.7167 0.300269 11.7816 0.183058 11.8973C0.065848 12.0129 0 12.1698 0 12.3333C0 12.4969 0.065848 12.6537 0.183058 12.7694C0.300269 12.885 0.45924 12.95 0.625 12.95H8.125Z" fill="#6D6D6D"/>
<path d="M3.4375 15.4167C3.4375 15.2532 3.37165 15.0963 3.25444 14.9807C3.13723 14.865 2.97826 14.8 2.8125 14.8H0.9375C0.77174 14.8 0.612769 14.865 0.495558 14.9807C0.378348 15.0963 0.3125 15.2532 0.3125 15.4167C0.3125 15.5803 0.378348 15.7371 0.495558 15.8528C0.612769 15.9684 0.77174 16.0334 0.9375 16.0334H2.8125C2.97826 16.0334 3.13723 15.9684 3.25444 15.8528C3.37165 15.7371 3.4375 15.5803 3.4375 15.4167Z" fill="#6D6D6D"/>
<path d="M11.875 11.7167H10.625C10.4592 11.7167 10.3003 11.7816 10.1831 11.8973C10.0658 12.0129 10 12.1698 10 12.3333C10 12.4969 10.0658 12.6537 10.1831 12.7694C10.3003 12.885 10.4592 12.95 10.625 12.95H11.875C12.0408 12.95 12.1997 12.885 12.3169 12.7694C12.4342 12.6537 12.5 12.4969 12.5 12.3333C12.5 12.1698 12.4342 12.0129 12.3169 11.8973C12.1997 11.7816 12.0408 11.7167 11.875 11.7167Z" fill="#6D6D6D"/>
</g>
<defs>
<clipPath id="clip0">
<rect width="30" height="37" fill="white"/>
</clipPath>
</defs>
</svg>
