<svg width="61" height="76" viewBox="0 0 61 76" fill="none" xmlns="http://www.w3.org/2000/svg">
<g clip-path="url(#clip0)">
<path d="M30.4306 3.80247C30.3503 3.80647 30.2705 3.81807 30.1923 3.8371L20.0257 6.37044C19.4595 6.51134 19.0624 7.01838 19.0626 7.59999V15.2C19.0626 19.3085 21.2668 22.9085 24.5505 24.9152C15.5235 27.4977 8.89593 35.7812 8.89594 45.6C8.89601 46.2995 9.46494 46.8666 10.1668 46.8667H19.0626V55.7333C19.0599 56.4329 19.6266 57.0021 20.3285 57.0049H40.6668C41.3686 57.0021 41.9353 56.4329 41.9326 55.7333V46.8667H50.8334C51.5353 46.8666 52.1042 46.2995 52.1043 45.6C52.1043 35.7812 45.4767 27.4977 36.4497 24.9152C39.7334 22.9085 41.9376 19.3085 41.9376 15.2V7.59999C41.9378 7.01838 41.5407 6.51134 40.9746 6.37044L30.8079 3.8371C30.6846 3.80683 30.5574 3.79516 30.4306 3.80247V3.80247ZM30.5001 6.37291L39.3959 8.58958V10.1309H21.6043V8.58958L30.5001 6.37291ZM22.8701 12.6642H38.135L36.2213 15.1975H24.7863L22.8701 12.6642ZM39.3959 15.2C39.3959 20.1119 35.4282 24.0667 30.5001 24.0667C25.5729 24.0667 21.6056 20.1132 21.6043 15.2025L23.1258 17.2262C23.367 17.547 23.7462 17.7351 24.1484 17.7333H36.8592C37.2579 17.7319 37.6329 17.5442 37.8719 17.2262L39.3959 15.2ZM30.5001 26.6C40.6077 26.6 48.7696 34.4291 49.4335 44.3333H41.9326V35.4691C41.9353 34.7696 41.3686 34.2003 40.6668 34.1975H20.3285C19.6266 34.2003 19.0599 34.7696 19.0626 35.4691V44.3333H11.5667C12.2306 34.4291 20.3925 26.6 30.5001 26.6ZM21.6043 36.7333H26.6901V40.5383C26.6929 41.2339 27.258 41.7972 27.956 41.8H33.0393C33.7421 41.804 34.3148 41.2388 34.3176 40.5383V36.7333H39.391V54.4691H21.6043V36.7333ZM29.2318 36.7333H31.7734V39.2667H29.2318V36.7333Z" fill="#878BC8"/>
<path d="M32.9186 49.4019C31.2237 49.4828 31.3457 52.0169 33.0406 51.9359H35.5829C37.2777 51.9359 37.2777 49.4019 35.5829 49.4019H32.9186Z" fill="#878BC8"/>
</g>
<defs>
<clipPath id="clip0">
<rect width="61" height="76" fill="white"/>
</clipPath>
</defs>
</svg>
