<svg width="60" height="65" viewBox="0 0 60 42" fill="none" xmlns="http://www.w3.org/2000/svg">
	<path
		d="M59.3375 22.056C59.338 21.771 59.2434 21.494 59.0687 21.2688L55.3567 16.52L51.2351 7.88C50.6075 6.57299 49.6245 5.46915 48.3987 4.69494C47.1729 3.92072 45.7537 3.50743 44.3039 3.5024H36.7967V1.5184C36.7967 1.17893 36.6618 0.853353 36.4218 0.613307C36.1817 0.37326 35.8562 0.238403 35.5167 0.238403H8.15029C7.81081 0.238403 7.48524 0.37326 7.24519 0.613307C7.00514 0.853353 6.87029 1.17893 6.87029 1.5184C6.87029 1.85788 7.00514 2.18345 7.24519 2.4235C7.48524 2.66355 7.81081 2.7984 8.15029 2.7984H34.2367V17.1216C34.2367 17.4611 34.3715 17.7867 34.6116 18.0267C34.8516 18.2667 35.1772 18.4016 35.5167 18.4016H53.5967L56.7967 22.4912V33.416H51.8687C51.5775 31.7707 50.7162 30.2804 49.4359 29.2068C48.1555 28.1332 46.538 27.5447 44.8671 27.5447C43.1962 27.5447 41.5786 28.1332 40.2983 29.2068C39.018 30.2804 38.1567 31.7707 37.8655 33.416H25.1679C24.8767 31.7707 24.0154 30.2804 22.7351 29.2068C21.4547 28.1332 19.8372 27.5447 18.1663 27.5447C16.4954 27.5447 14.8778 28.1332 13.5975 29.2068C12.3172 30.2804 11.4559 31.7707 11.1647 33.416H7.51029C7.17081 33.416 6.84524 33.5509 6.60519 33.7909C6.36514 34.031 6.23029 34.3565 6.23029 34.696C6.23029 35.0355 6.36514 35.3611 6.60519 35.6011C6.84524 35.8411 7.17081 35.976 7.51029 35.976H11.1775C11.4831 37.6079 12.3496 39.0815 13.627 40.142C14.9045 41.2024 16.5125 41.7828 18.1727 41.7828C19.8329 41.7828 21.4409 41.2024 22.7183 40.142C23.9958 39.0815 24.8623 37.6079 25.1679 35.976H37.8527C38.1583 37.6079 39.0248 39.0815 40.3022 40.142C41.5797 41.2024 43.1877 41.7828 44.8479 41.7828C46.5081 41.7828 48.1161 41.2024 49.3935 40.142C50.671 39.0815 51.5375 37.6079 51.8431 35.976H56.7775C57.4564 35.976 58.1076 35.7063 58.5877 35.2262C59.0678 34.7461 59.3375 34.095 59.3375 33.416V22.056ZM36.7967 6.056H44.3231C45.2903 6.05632 46.2377 6.33061 47.0554 6.8471C47.8732 7.36359 48.528 8.10116 48.9439 8.9744L52.2271 15.8608H36.7967V6.056ZM18.1663 39.2272C17.2632 39.2285 16.3801 38.9618 15.6287 38.4608C14.8773 37.9599 14.2914 37.2473 13.9453 36.4132C13.5991 35.5791 13.5082 34.6611 13.6841 33.7753C13.8599 32.8896 14.2947 32.0759 14.9332 31.4373C15.5718 30.7988 16.3855 30.364 17.2712 30.1882C18.157 30.0123 19.075 30.1032 19.9091 30.4494C20.7432 30.7956 21.4558 31.3814 21.9567 32.1328C22.4576 32.8842 22.7244 33.7673 22.7231 34.6704C22.7214 35.8784 22.2408 37.0365 21.3866 37.8907C20.5324 38.7449 19.3743 39.2255 18.1663 39.2272ZM44.8479 39.2272C43.9451 39.2272 43.0626 38.9594 42.312 38.4577C41.5615 37.956 40.9766 37.243 40.6314 36.4088C40.2862 35.5746 40.1962 34.6568 40.3728 33.7714C40.5494 32.8861 40.9847 32.073 41.6235 31.4351C42.2623 30.7972 43.076 30.3631 43.9616 30.1877C44.8472 30.0124 45.7649 30.1036 46.5986 30.45C47.4323 30.7964 48.1445 31.3822 48.6452 32.1335C49.1458 32.8847 49.4124 33.7676 49.4111 34.6704C49.4094 35.8795 48.9279 37.0386 48.0723 37.8929C47.2167 38.7473 46.057 39.2272 44.8479 39.2272Z"
		fill="#474D9B" />
	<path
		d="M13.4623 24.84C13.4623 24.5005 13.3274 24.1749 13.0874 23.9349C12.8474 23.6949 12.5218 23.56 12.1823 23.56H5.1423C4.80283 23.56 4.47725 23.6949 4.23721 23.9349C3.99716 24.1749 3.8623 24.5005 3.8623 24.84C3.8623 25.1795 3.99716 25.505 4.23721 25.7451C4.47725 25.9851 4.80283 26.12 5.1423 26.12H12.1823C12.5218 26.12 12.8474 25.9851 13.0874 25.7451C13.3274 25.505 13.4623 25.1795 13.4623 24.84Z"
		fill="#474D9B" />
	<path
		d="M1.94235 18.44H16.6624C17.0018 18.44 17.3274 18.3051 17.5675 18.0651C17.8075 17.8251 17.9424 17.4995 17.9424 17.16C17.9424 16.8205 17.8075 16.495 17.5675 16.2549C17.3274 16.0149 17.0018 15.88 16.6624 15.88H1.94235C1.60288 15.88 1.2773 16.0149 1.03726 16.2549C0.797211 16.495 0.662354 16.8205 0.662354 17.16C0.662354 17.4995 0.797211 17.8251 1.03726 18.0651C1.2773 18.3051 1.60288 18.44 1.94235 18.44Z"
		fill="#474D9B" />
	<path
		d="M3.8623 9.48001C3.8623 9.81949 3.99716 10.1451 4.23721 10.3851C4.47725 10.6252 4.80283 10.76 5.1423 10.76H19.8623C20.2018 10.76 20.5274 10.6252 20.7674 10.3851C21.0074 10.1451 21.1423 9.81949 21.1423 9.48001C21.1423 9.14054 21.0074 8.81496 20.7674 8.57492C20.5274 8.33487 20.2018 8.20001 19.8623 8.20001H5.1423C4.80283 8.20001 4.47725 8.33487 4.23721 8.57492C3.99716 8.81496 3.8623 9.14054 3.8623 9.48001Z"
		fill="#474D9B" />
</svg>