<svg width="65" height="65" viewBox="0 0 65 65" fill="none" xmlns="http://www.w3.org/2000/svg">
<path d="M14.8806 5.4245C14.7187 5.44125 14.5693 5.51948 14.4634 5.64306L5.16385 16.2803C5.06962 16.3847 5.01266 16.5174 5.00187 16.6576C4.99109 16.7978 5.02709 16.9377 5.10425 17.0553V23.6118V23.6317C5.04671 24.8331 5.75336 25.8707 6.81301 26.5326C7.52634 26.9782 8.40339 27.275 9.39603 27.4267C9.39344 27.4598 9.39344 27.493 9.39603 27.5261L9.75368 54.6081H7.7071C7.68725 54.6072 7.66735 54.6072 7.6475 54.6081C7.48941 54.623 7.34261 54.6966 7.23598 54.8142C7.12935 54.9319 7.0706 55.0852 7.07128 55.244V58.9397C7.0713 59.1083 7.13829 59.2701 7.25753 59.3893C7.37677 59.5085 7.53848 59.5755 7.7071 59.5755H57.4003C57.5689 59.5755 57.7306 59.5085 57.8499 59.3893C57.9691 59.2701 58.0361 59.1083 58.0361 58.9397V55.244C58.0361 55.0753 57.9691 54.9137 57.8499 54.7944C57.7306 54.6752 57.5689 54.6082 57.4003 54.6081H55.3537L55.5127 27.7645C55.5159 27.638 55.4813 27.5135 55.4133 27.4068C56.3168 27.2406 57.1504 26.9285 57.8573 26.5128C58.9882 25.8475 59.8349 24.8355 59.9039 23.5919C59.904 23.5853 59.904 23.5787 59.9039 23.5721V17.0352C59.9784 16.9155 60.0111 16.7744 59.9967 16.6341C59.9823 16.4939 59.9217 16.3623 59.8244 16.2603L49.7504 5.62998C49.6916 5.5678 49.6208 5.51813 49.5422 5.48399C49.4637 5.44985 49.3791 5.43193 49.2935 5.43129H14.9394C14.9196 5.43036 14.8997 5.43036 14.8798 5.43129L14.8806 5.4245ZM15.2184 6.69614H21.7159L16.0133 16.0548H7.03234L15.2185 6.69614H15.2184ZM23.2259 6.69614H29.306L26.6634 16.0548H17.5037L23.2261 6.69614H23.2259ZM30.637 6.69614H34.3527L37.0351 16.0548H27.9549L30.6373 6.69614H30.637ZM35.7038 6.69614H41.7838L47.5062 16.0548H38.3466L35.704 6.69614H35.7038ZM43.2739 6.69614H48.9962L57.878 16.0548H48.9765L43.274 6.69614H43.2739ZM6.37655 17.3264H15.636C15.6323 17.3661 15.6323 17.406 15.636 17.4456V23.6846C15.636 23.843 15.6505 24.0094 15.6757 24.1615C15.4801 24.6024 15.102 25.0141 14.5233 25.3735C13.6489 25.9166 12.3811 26.2676 10.9468 26.2676C9.50187 26.2676 8.26437 25.9493 7.46966 25.453C6.67501 24.9566 6.3185 24.3645 6.35697 23.6647C6.36406 23.6517 6.37068 23.6384 6.37684 23.625V17.3264H6.37655ZM17.106 17.3264H26.2459V23.2078C26.2459 23.4759 26.2991 23.7326 26.3652 23.9827C26.26 24.5548 25.8348 25.0966 25.1134 25.5524C24.2713 26.0843 23.039 26.4465 21.6561 26.4465C20.2732 26.4465 19.0298 26.0853 18.1789 25.5524C17.5515 25.1593 17.1701 24.7067 17.0066 24.2211C17.0715 23.9805 17.1059 23.7237 17.1059 23.4661V17.3265L17.106 17.3264ZM27.6568 17.3264H36.9754V23.2078C36.9754 23.9283 36.5452 24.6224 35.7038 25.1748C34.8623 25.7273 33.6451 26.0888 32.2664 26.0888C30.8877 26.0888 29.6394 25.7284 28.7892 25.1748C28.1998 24.7911 27.8165 24.3439 27.6368 23.8634C27.6405 23.805 27.6567 23.7439 27.6567 23.6846V17.3264H27.6568ZM38.406 17.3264H47.8638V23.168C47.8638 23.8885 47.4336 24.5628 46.5922 25.1152C45.7508 25.6677 44.5335 26.0491 43.1548 26.0491C41.7761 26.0491 40.5279 25.6688 39.6777 25.1152C38.8275 24.5617 38.406 23.885 38.406 23.168V17.3264V17.3264ZM49.1552 17.3264H58.6327V23.5257C58.5934 24.2355 58.1123 24.8895 57.222 25.4133C56.3317 25.937 55.0618 26.2677 53.725 26.2677C52.3999 26.2677 51.224 25.9042 50.4067 25.3537C49.5895 24.8032 49.1549 24.1124 49.1549 23.3866V17.3265L49.1552 17.3264ZM37.7104 24.9563C38.0361 25.4333 38.4814 25.8492 39.0019 26.1882C40.1014 26.904 41.5539 27.3207 43.1546 27.3207C44.7553 27.3207 46.1954 26.9051 47.2874 26.1882C47.7314 25.8967 48.1153 25.5501 48.4199 25.155C48.7361 25.6421 49.1783 26.061 49.6916 26.4067C50.7588 27.1256 52.1703 27.5393 53.7251 27.5393C53.9113 27.5393 54.0981 27.5499 54.2814 27.5393C54.2555 27.6092 54.242 27.6832 54.2417 27.7578L54.0827 54.5221H51.2812V33.2818C51.2838 33.132 51.2334 32.986 51.1389 32.8696C51.0444 32.7533 50.9118 32.6741 50.7646 32.646C50.7249 32.6423 50.685 32.6423 50.6454 32.646H41.426H13.9267C13.8871 32.6423 13.8472 32.6423 13.8075 32.646C13.6603 32.6741 13.5277 32.7533 13.4332 32.8696C13.3387 32.986 13.2883 33.132 13.2909 33.2818V49.9721C13.2909 50.1408 13.3579 50.3024 13.4772 50.4217C13.5964 50.5409 13.7581 50.6079 13.9267 50.608H40.7902V54.5221H11.0261L10.6685 27.5392C10.7624 27.5418 10.8514 27.5392 10.9466 27.5392C12.5909 27.5392 14.0755 27.144 15.1987 26.4464C15.6199 26.1848 15.9891 25.8847 16.2915 25.5324C16.6092 25.9531 17.0229 26.3241 17.5035 26.6253C18.6024 27.3136 20.0597 27.7181 21.6562 27.7181C23.2528 27.7181 24.6977 27.3147 25.789 26.6253C26.3216 26.2888 26.7914 25.8762 27.1203 25.3934C27.396 25.7074 27.7233 25.9865 28.0939 26.2279C29.1934 26.9437 30.6657 27.3604 32.2665 27.3604C33.8672 27.3604 35.3073 26.9448 36.3993 26.2279C36.9321 25.878 37.3867 25.4518 37.7107 24.9562L37.7104 24.9563ZM14.5627 33.9175H40.7903V49.3362H14.5627V33.9175ZM42.062 33.9175H50.0097V54.5219H42.062V50.091C42.0657 50.0514 42.0657 50.0115 42.062 49.9718V33.9174V33.9175ZM24.418 36.282L24.2391 36.4012L20.6428 39.9976L20.464 40.5341L20.7819 41.0109L21.3581 41.0306L21.5369 40.9114L25.1333 37.315L25.3121 36.7587L24.9942 36.3016L24.418 36.2819V36.282ZM27.9945 37.196L27.7958 37.335L26.1069 39.024L25.9281 39.5605L26.246 40.0373L26.8222 40.057L27.001 39.918L28.7098 38.2291L28.8886 37.6925L28.5508 37.2157L27.9945 37.196H27.9945ZM24.4974 40.693L24.2987 40.8321L23.4047 41.7262L23.2258 42.2627L23.5437 42.7396L24.12 42.7593L24.2988 42.6202L25.2128 41.7261L25.3916 41.1896L25.0538 40.7128L24.4975 40.6931L24.4974 40.693ZM19.0333 41.6666L18.8545 41.8057L17.9405 42.6998L17.7617 43.2363L18.0995 43.7132L18.6558 43.7328L18.8545 43.5938L19.7486 42.6996L19.9274 42.1632L19.6095 41.6863L19.0333 41.6666L19.0333 41.6666ZM21.7952 43.3953L21.6164 43.5145L18.02 47.1109L17.8214 47.6672L18.1591 48.1241L18.7353 48.1438L18.9142 48.0246L22.5105 44.4283L22.6893 43.8719L22.3515 43.4149L21.7952 43.3953V43.3953ZM44.625 43.8125C44.092 43.8125 43.6514 44.2332 43.6514 44.7662C43.6514 45.2992 44.092 45.7398 44.625 45.7398C45.158 45.7398 45.5787 45.2992 45.5787 44.7662C45.5787 44.2332 45.158 43.8125 44.625 43.8125ZM8.34378 55.8734H56.7653V58.2975H8.34378V55.8734Z" fill="#8288D7"/>
</svg>
