<svg width="65" height="65" viewBox="0 0 65 65" fill="none" xmlns="http://www.w3.org/2000/svg">
<path d="M32.4281 5.00218C32.345 5.00632 32.2626 5.01831 32.1818 5.03799L21.672 7.65681C21.0868 7.80247 20.6763 8.32662 20.6765 8.92786V16.7843C20.6765 21.0314 22.9551 24.753 26.3496 26.8274C17.0179 29.497 10.1667 38.0601 10.1667 48.2102C10.1668 48.9333 10.7549 49.5195 11.4805 49.5196H20.6765V58.6855C20.6737 59.4086 21.2596 59.9971 21.9851 60H43.0097C43.7352 59.9971 44.3211 59.4086 44.3183 58.6855V49.5196H53.5195C54.245 49.5195 54.8331 48.9333 54.8332 48.2102C54.8332 38.0601 47.982 29.497 38.6503 26.8274C42.0449 24.753 44.3234 21.0314 44.3234 16.7843V8.92786C44.3237 8.32662 43.9131 7.80247 43.3279 7.65681L32.8181 5.03799C32.6906 5.0067 32.5592 4.99463 32.4281 5.00218V5.00218ZM32.5 7.65937L41.696 9.95084V11.5441H23.3039V9.95084L32.5 7.65937ZM24.6125 14.1629H40.3925L38.4143 16.7818H26.5934L24.6125 14.1629ZM41.696 16.7843C41.696 21.862 37.5943 25.9502 32.5 25.9502C27.4064 25.9502 23.3053 21.8634 23.3039 16.7869L24.8768 18.8789C25.1261 19.2105 25.5182 19.4049 25.9339 19.4031H39.0737C39.4858 19.4017 39.8734 19.2076 40.1206 18.8789L41.696 16.7843ZM32.5 28.569C42.9487 28.569 51.386 36.6623 52.0723 46.9008H44.3183V37.7375C44.3211 37.0143 43.7352 36.4258 43.0097 36.4229H21.9851C21.2596 36.4258 20.6737 37.0143 20.6765 37.7375V46.9008H12.9276C13.614 36.6623 22.0513 28.569 32.5 28.569ZM23.3039 39.0443H28.5614V42.9777C28.5643 43.6968 29.1484 44.2791 29.87 44.282H35.1248C35.8513 44.2861 36.4433 43.7018 36.4462 42.9777V39.0443H41.6909V57.3786H23.3039V39.0443ZM31.1888 39.0443H33.8162V41.6631H31.1888V39.0443Z" fill="#8288D7" stroke="white"/>
<path d="M34.9998 52.1404C33.2477 52.2241 33.3738 54.8437 35.1259 54.7599H37.7539C39.506 54.7599 39.506 52.1404 37.7539 52.1404H34.9998Z" fill="#8288D7" stroke="white"/>
</svg>
