<svg width="65" height="65" viewBox="0 0 65 65" fill="none" xmlns="http://www.w3.org/2000/svg">
<path d="M43.5878 29.984H21.4123C21.0337 29.984 20.7268 30.2918 20.7268 30.6715V45.7737C20.7268 46.1533 21.0337 46.4612 21.4123 46.4612H43.5878C43.9663 46.4612 44.2732 46.1533 44.2732 45.7737V30.6715C44.2732 30.2918 43.9663 29.984 43.5878 29.984ZM22.0977 32.3041L28.4845 38.5424L22.0977 44.3117V32.3041ZM33.1088 39.9507C32.7788 40.273 32.2212 40.273 31.8912 39.9507L23.0951 31.359H41.905L33.1088 39.9507ZM29.4689 39.504L30.9346 40.9356C31.3664 41.3573 31.933 41.5681 32.5 41.5681C33.067 41.5681 33.6336 41.3573 34.0654 40.9356L35.4479 39.5853L41.7551 45.0862H23.2894L29.4689 39.504ZM36.4333 38.6228L42.9023 32.3041V44.2648L36.4333 38.6228Z" fill="#8288D7"/>
<path d="M43.5878 17.9413H21.4123C21.0337 17.9413 20.7268 18.2491 20.7268 18.6288V25.1916C20.7268 25.5713 21.0337 25.8791 21.4123 25.8791H43.5878C43.9663 25.8791 44.2732 25.5713 44.2732 25.1916V18.6288C44.2732 18.2491 43.9663 17.9413 43.5878 17.9413ZM42.9023 24.5041H22.0977V19.3163H42.9023V24.5041V24.5041Z" fill="#8288D7"/>
<path d="M50.4189 60C50.7975 60 51.1044 59.6922 51.1044 59.3125V23.6599C51.1044 13.3708 42.7584 5 32.5001 5C22.2417 5 13.8958 13.3708 13.8958 23.6599V59.3125C13.8958 59.6922 14.2027 60 14.5812 60C14.9597 60 15.2667 59.6922 15.2667 59.3125V53.9797H49.7335V59.3125C49.7335 59.6922 50.0404 60 50.4189 60ZM15.2667 52.6047V23.6599C15.2667 14.1288 22.9974 6.375 32.5001 6.375C42.0027 6.375 49.7335 14.1288 49.7335 23.6599V52.6047H15.2667Z" fill="#8288D7"/>
</svg>
