<svg width="65" height="65" viewBox="0 0 65 65" fill="none" xmlns="http://www.w3.org/2000/svg">
<path d="M58.5847 57.7075H52.9132V18.3108L58.0743 20.9243C58.6301 21.2109 59.3107 20.9816 59.5943 20.4085C59.8778 19.8468 59.651 19.1591 59.0838 18.8725L52.2893 15.4452L33.04 5.12895C32.7111 4.95702 32.3141 4.95702 31.9738 5.12895L12.7132 15.4452L5.91866 18.8725C5.36285 19.1591 5.13599 19.8468 5.40822 20.4085C5.6918 20.9701 6.37239 21.1994 6.9282 20.9243L12.0893 18.3108V57.7075H6.41776C5.79389 57.7075 5.28345 58.2233 5.28345 58.8537C5.28345 59.4842 5.79389 60 6.41776 60C21.4247 60 43.5891 60 58.5734 60C59.1972 60 59.7077 59.4842 59.7077 58.8537C59.719 58.2233 59.2086 57.7075 58.5847 57.7075ZM14.3693 57.7075V17.1531L32.5069 7.44438L50.6445 17.1531V57.719H14.3693V57.7075Z" fill="#8288D7" stroke="white"/>
<path d="M44.145 25.1998C32.6091 18.6891 33.0401 18.7464 32.507 18.7464C31.9852 18.7464 32.473 18.6547 20.869 25.1998C20.5173 25.4062 20.2905 25.7844 20.2905 26.1971C20.2905 39.6541 20.2224 38.9892 20.4379 39.3675C20.4379 39.3675 20.4379 39.3675 20.4379 39.379C20.54 39.5624 20.7102 39.7228 20.8576 39.8031C20.9257 39.8375 31.8831 46.0731 31.9512 46.1074C32.2915 46.3023 32.7225 46.3023 33.0628 46.1074L44.145 39.8031C44.4967 39.5967 44.7235 39.2185 44.7235 38.8058V26.1971C44.7235 25.7844 44.508 25.4062 44.145 25.1998ZM31.3727 21.8528V31.8252L22.5477 36.8343V26.8619L31.3727 21.8528ZM42.4549 38.1295L32.507 43.792L23.7388 38.8058L32.541 33.7967L37.5433 36.3299C38.0992 36.6165 38.7797 36.3872 39.0633 35.8141C39.3469 35.2524 39.12 34.5647 38.5529 34.2781L33.6413 31.7908V21.8528L42.4663 26.8619L42.4549 38.1295Z" fill="#8288D7" stroke="white"/>
<path d="M41.5814 48.5489H23.4324C22.8085 48.5489 22.2981 49.0647 22.2981 49.6952C22.2981 50.3256 22.8085 50.8414 23.4324 50.8414H41.5814C42.2053 50.8414 42.7157 50.3256 42.7157 49.6952C42.7157 49.0533 42.2053 48.5489 41.5814 48.5489Z" fill="#8288D7" stroke="white"/>
<path d="M41.5814 53.1225H23.4324C22.8085 53.1225 22.2981 53.6383 22.2981 54.2687C22.2981 54.8992 22.8085 55.415 23.4324 55.415H41.5814C42.2053 55.415 42.7157 54.8992 42.7157 54.2687C42.7157 53.6383 42.2053 53.1225 41.5814 53.1225Z" fill="#8288D7" stroke="white"/>
</svg>
