<svg width="65" height="65" viewBox="0 0 65 65" fill="none" xmlns="http://www.w3.org/2000/svg">
<path d="M38.6482 30.3981L39.8335 29.2129V35.25C39.8335 35.4931 39.93 35.7263 40.1019 35.8982C40.2739 36.0701 40.507 36.1667 40.7501 36.1667C40.9932 36.1667 41.2264 36.0701 41.3983 35.8982C41.5702 35.7263 41.6668 35.4931 41.6668 35.25V29.2129L42.852 30.3981C43.0249 30.5651 43.2565 30.6575 43.4968 30.6554C43.7372 30.6533 43.9671 30.5569 44.137 30.3869C44.307 30.217 44.4034 29.9871 44.4055 29.7467C44.4076 29.5064 44.3152 29.2748 44.1482 29.1019L41.3982 26.3519C41.2263 26.1801 40.9932 26.0836 40.7501 26.0836C40.5071 26.0836 40.2739 26.1801 40.102 26.3519L37.352 29.1019C37.1851 29.2748 37.0927 29.5064 37.0948 29.7467C37.0968 29.9871 37.1933 30.217 37.3632 30.3869C37.5332 30.5569 37.7631 30.6533 38.0034 30.6554C38.2438 30.6575 38.4753 30.5651 38.6482 30.3981V30.3981Z" fill="#8288D7"/>
<path d="M57.9193 28.2467C57.9379 28.0854 57.9471 27.9232 57.9468 27.7609C57.9424 26.9206 57.6509 26.1071 57.1207 25.4553C56.5906 24.8034 55.8535 24.3523 55.0318 24.1767C54.1025 24.0016 53.1414 24.1851 52.342 24.6902C51.5426 25.1954 50.9642 25.9847 50.7235 26.8992L49.9168 29.2092C49.9168 29.2092 49.9077 13.2226 49.9077 13.2134C49.9072 13.119 49.8885 13.0257 49.8527 12.9384C49.8435 12.9109 46.1493 5.50423 46.1493 5.50423C46.0751 5.35149 45.959 5.223 45.8146 5.13374C45.6701 5.04447 45.5033 4.99811 45.3335 5.00006H19.6669C19.4971 4.99811 19.3302 5.04447 19.1858 5.13374C19.0413 5.223 18.9252 5.35149 18.851 5.50423C18.851 5.50423 15.1569 12.9109 15.1477 12.9384C15.1119 13.0257 15.0932 13.119 15.0927 13.2134C15.0927 13.2226 15.0835 29.2184 15.0835 29.2184L14.3044 26.9634C14.0705 26.0333 13.491 25.2273 12.6837 24.7096C11.8765 24.1919 10.9022 24.0013 9.95938 24.1767C9.13944 24.3542 8.4046 24.8062 7.87626 25.4579C7.34793 26.1095 7.0577 26.9219 7.05355 27.7609C7.05331 27.9232 7.06249 28.0854 7.08105 28.2467C6.51891 28.5668 6.05099 29.0294 5.72434 29.5877C5.39768 30.1461 5.22381 30.7806 5.22021 31.4275C5.222 31.7489 5.262 32.0689 5.33938 32.3809L9.32688 47.2492C9.55474 48.1235 10.0402 48.9092 10.7202 49.5042L16.9077 55.0133C17.1977 55.2713 17.43 55.5875 17.5895 55.9413C17.7491 56.2951 17.8322 56.6786 17.8335 57.0667V59.0833C17.8335 59.3264 17.9301 59.5596 18.102 59.7315C18.2739 59.9034 18.5071 60 18.7502 60C18.9933 60 19.2265 59.9034 19.3984 59.7315C19.5703 59.5596 19.6669 59.3264 19.6669 59.0833V57.0667C19.6653 56.4191 19.5274 55.7792 19.262 55.1885C18.9967 54.5978 18.6099 54.0696 18.1269 53.6383L11.9302 48.1292C11.5278 47.7716 11.2407 47.3026 11.1052 46.7817L7.11771 31.9042C7.0721 31.7495 7.05046 31.5888 7.05355 31.4275C7.05468 31.009 7.19896 30.6035 7.46243 30.2783C7.7259 29.9532 8.0927 29.7279 8.50188 29.64C8.99284 29.5681 9.49289 29.6838 9.90233 29.9641C10.3118 30.2444 10.6005 30.6688 10.711 31.1525L13.5252 39.8425C13.5101 39.872 13.4917 39.8997 13.4702 39.925C12.9858 40.7661 12.854 41.7646 13.1035 42.7025C13.2263 43.1694 13.4412 43.6069 13.7355 43.9895C14.0299 44.372 14.3979 44.6918 14.8177 44.93L20.0702 47.9642C20.2797 48.0738 20.5234 48.0982 20.7505 48.0323C20.9776 47.9664 21.1704 47.8154 21.2887 47.6107C21.407 47.406 21.4417 47.1635 21.3854 46.9339C21.3292 46.7042 21.1864 46.5052 20.9869 46.3783L15.7344 43.3442C15.5249 43.225 15.341 43.0657 15.1931 42.8754C15.0453 42.6851 14.9364 42.4675 14.8727 42.235C14.7523 41.7643 14.8179 41.2652 15.056 40.8417C15.301 40.4232 15.7005 40.1176 16.1686 39.9907C16.6366 39.8638 17.1357 39.9258 17.5585 40.1634L25.6619 44.9117C26.6243 45.4813 27.4225 46.291 27.9784 47.2614C28.5343 48.2319 28.829 49.33 28.8335 50.4483V59.0833C28.8335 59.3264 28.9301 59.5596 29.102 59.7315C29.2739 59.9034 29.5071 60 29.7502 60C29.9933 60 30.2265 59.9034 30.3984 59.7315C30.5703 59.5596 30.6669 59.3264 30.6669 59.0833V50.4483C30.6645 49.0103 30.2869 47.5977 29.5716 46.3502C28.8562 45.1027 27.8277 44.0634 26.5877 43.335L20.6202 39.8334H44.3802L38.4127 43.335C37.1727 44.0634 36.1442 45.1027 35.4288 46.3502C34.7134 47.5977 34.3359 49.0103 34.3335 50.4483V59.0833C34.3335 59.3264 34.4301 59.5596 34.602 59.7315C34.7739 59.9034 35.0071 60 35.2502 60C35.4933 60 35.7265 59.9034 35.8984 59.7315C36.0703 59.5596 36.1668 59.3264 36.1668 59.0833V50.4483C36.1714 49.33 36.466 48.2319 37.0219 47.2614C37.5779 46.291 38.3761 45.4813 39.3385 44.9117L47.4327 40.1725C47.8549 39.9299 48.3559 39.8641 48.8264 39.9895C49.2969 40.1148 49.6988 40.4212 49.9443 40.8417C50.1824 41.2652 50.2481 41.7643 50.1277 42.235C50.064 42.4675 49.9551 42.6851 49.8073 42.8754C49.6594 43.0657 49.4755 43.225 49.266 43.3442L44.0135 46.3783C43.814 46.5052 43.6712 46.7042 43.6149 46.9339C43.5587 47.1635 43.5933 47.406 43.7117 47.6107C43.83 47.8154 44.0228 47.9664 44.2499 48.0323C44.4769 48.0982 44.7207 48.0738 44.9302 47.9642L50.1827 44.93C50.6025 44.6918 50.9704 44.372 51.2648 43.9895C51.5592 43.6069 51.7741 43.1694 51.8968 42.7025C52.1464 41.7646 52.0145 40.7661 51.5302 39.925C51.5087 39.8997 51.4903 39.872 51.4752 39.8425L54.3077 31.1067C54.4202 30.6326 54.7072 30.2184 55.1116 29.9466C55.5159 29.6748 56.0079 29.5653 56.4893 29.64C56.9002 29.7261 57.2691 29.9505 57.5344 30.2759C57.7996 30.6012 57.9452 31.0077 57.9468 31.4275C57.9499 31.5888 57.9283 31.7495 57.8827 31.9042L53.8952 46.7817C53.7597 47.3026 53.4725 47.7716 53.0702 48.1292L46.8643 53.6383C46.3841 54.0714 45.9999 54.6001 45.7362 55.1905C45.4726 55.781 45.3354 56.42 45.3335 57.0667V59.0833C45.3335 59.3264 45.4301 59.5596 45.602 59.7315C45.7739 59.9034 46.0071 60 46.2502 60C46.4933 60 46.7264 59.9034 46.8984 59.7315C47.0703 59.5596 47.1668 59.3264 47.1668 59.0833V57.0667C47.1686 56.6795 47.251 56.2969 47.4088 55.9434C47.5666 55.5899 47.7964 55.2731 48.0835 55.0133L54.2802 49.5042C54.958 48.9111 55.4432 48.1291 55.6735 47.2583L59.661 32.3809C59.7384 32.0689 59.7784 31.7489 59.7802 31.4275C59.7766 30.7806 59.6027 30.1461 59.276 29.5877C58.9494 29.0294 58.4815 28.5668 57.9193 28.2467V28.2467ZM15.6977 38.2109C15.4602 38.2762 15.2299 38.3653 15.0102 38.4767L12.471 30.63C12.2644 29.83 11.8028 29.119 11.1562 28.6047C10.5095 28.0903 9.71289 27.8005 8.88688 27.7792V27.7609C8.88801 27.3424 9.0323 26.9368 9.29577 26.6117C9.55924 26.2865 9.92603 26.0613 10.3352 25.9734C10.83 25.9007 11.334 26.0182 11.7456 26.3023C12.1572 26.5863 12.4459 27.0158 12.5535 27.5042L16.2385 38.1284C16.0564 38.1417 15.8756 38.1693 15.6977 38.2109V38.2109ZM44.7652 6.83339L47.5152 12.3334H36.9735L36.286 6.83339H44.7652ZM30.5569 6.83339H34.4435L35.131 12.3334H29.8694L30.5569 6.83339ZM29.7502 14.1667H35.2502V20.015L32.9402 18.8509C32.8149 18.784 32.6754 18.7482 32.5334 18.7466C32.3914 18.745 32.2511 18.7776 32.1244 18.8417L29.7502 20.0242V14.1667ZM20.2352 6.83339H28.7144L28.0269 12.3334H17.4852L20.2352 6.83339ZM48.0835 34.4892L46.8643 38H18.136L16.9169 34.4984V14.1667H27.9169V21.5C27.9165 21.6558 27.9559 21.8091 28.0313 21.9454C28.1067 22.0818 28.2156 22.1966 28.3477 22.2792C28.4938 22.369 28.662 22.4166 28.8335 22.4167C28.9733 22.4181 29.1114 22.3867 29.2369 22.325L32.5277 20.6934L35.7543 22.3159C35.8939 22.3862 36.0491 22.4197 36.2052 22.4131C36.3613 22.4066 36.5132 22.3602 36.6464 22.2785C36.7795 22.1968 36.8896 22.0823 36.9661 21.9461C37.0426 21.8098 37.083 21.6563 37.0835 21.5V14.1667H48.0835V34.4892ZM56.1135 27.77C55.2942 27.7883 54.5031 28.0728 53.8598 28.5805C53.2164 29.0882 52.7559 29.7916 52.5477 30.5842L49.9902 38.4767C49.7705 38.3653 49.5402 38.2762 49.3027 38.2109C49.1248 38.1693 48.944 38.1417 48.7618 38.1284L52.4743 27.44C52.5869 26.966 52.8739 26.5517 53.2782 26.2799C53.6826 26.0081 54.1745 25.8986 54.656 25.9734C55.0669 26.0594 55.4358 26.2839 55.701 26.6092C55.9663 26.9346 56.1119 27.3411 56.1135 27.7609V27.77Z" fill="#8288D7"/>
<path d="M19.6672 36.1667H32.5005C32.7436 36.1667 32.9767 36.0701 33.1487 35.8982C33.3206 35.7263 33.4171 35.4931 33.4171 35.25V27C33.4171 26.7569 33.3206 26.5238 33.1487 26.3519C32.9767 26.18 32.7436 26.0834 32.5005 26.0834H19.6672C19.424 26.0834 19.1909 26.18 19.019 26.3519C18.8471 26.5238 18.7505 26.7569 18.7505 27V35.25C18.7505 35.4931 18.8471 35.7263 19.019 35.8982C19.1909 36.0701 19.424 36.1667 19.6672 36.1667ZM20.5838 27.9167H31.5838V34.3334H20.5838V27.9167Z" fill="#8288D7"/>
<path d="M23.3338 28.8334H22.4172C22.174 28.8334 21.9409 28.93 21.769 29.1019C21.5971 29.2738 21.5005 29.5069 21.5005 29.75C21.5005 29.9932 21.5971 30.2263 21.769 30.3982C21.9409 30.5701 22.174 30.6667 22.4172 30.6667H23.3338C23.5769 30.6667 23.8101 30.5701 23.982 30.3982C24.1539 30.2263 24.2505 29.9932 24.2505 29.75C24.2505 29.5069 24.1539 29.2738 23.982 29.1019C23.8101 28.93 23.5769 28.8334 23.3338 28.8334Z" fill="#8288D7"/>
<path d="M29.7503 28.8334H26.0837C25.8405 28.8334 25.6074 28.93 25.4355 29.1019C25.2636 29.2738 25.167 29.5069 25.167 29.75C25.167 29.9932 25.2636 30.2263 25.4355 30.3982C25.6074 30.5701 25.8405 30.6667 26.0837 30.6667H29.7503C29.9934 30.6667 30.2266 30.5701 30.3985 30.3982C30.5704 30.2263 30.667 29.9932 30.667 29.75C30.667 29.5069 30.5704 29.2738 30.3985 29.1019C30.2266 28.93 29.9934 28.8334 29.7503 28.8334Z" fill="#8288D7"/>
<path d="M23.3338 31.5834H22.4172C22.174 31.5834 21.9409 31.68 21.769 31.8519C21.5971 32.0238 21.5005 32.2569 21.5005 32.5C21.5005 32.7432 21.5971 32.9763 21.769 33.1482C21.9409 33.3201 22.174 33.4167 22.4172 33.4167H23.3338C23.5769 33.4167 23.8101 33.3201 23.982 33.1482C24.1539 32.9763 24.2505 32.7432 24.2505 32.5C24.2505 32.2569 24.1539 32.0238 23.982 31.8519C23.8101 31.68 23.5769 31.5834 23.3338 31.5834Z" fill="#8288D7"/>
<path d="M29.7503 31.5834H26.0837C25.8405 31.5834 25.6074 31.68 25.4355 31.8519C25.2636 32.0238 25.167 32.2569 25.167 32.5C25.167 32.7432 25.2636 32.9763 25.4355 33.1482C25.6074 33.3201 25.8405 33.4167 26.0837 33.4167H29.7503C29.9934 33.4167 30.2266 33.3201 30.3985 33.1482C30.5704 32.9763 30.667 32.7432 30.667 32.5C30.667 32.2569 30.5704 32.0238 30.3985 31.8519C30.2266 31.68 29.9934 31.5834 29.7503 31.5834Z" fill="#8288D7"/>
</svg>
