<svg width="39" height="39" viewBox="0 0 39 39" fill="none" xmlns="http://www.w3.org/2000/svg">
<path d="M9.19995 18.8999C10.98 18.8999 12.72 18.3721 14.2001 17.3831C15.6801 16.3942 16.8337 14.9886 17.5149 13.3441C18.1961 11.6995 18.3743 9.88992 18.027 8.14409C17.6798 6.39826 16.8226 4.79462 15.5639 3.53594C14.3052 2.27727 12.7016 1.42011 10.9558 1.07284C9.20993 0.725572 7.40034 0.903802 5.7558 1.58499C4.11127 2.26618 2.70566 3.41973 1.71673 4.89978C0.727794 6.37982 0.199951 8.11987 0.199951 9.89991C0.199951 12.2869 1.14816 14.576 2.83599 16.2639C4.52382 17.9517 6.813 18.8999 9.19995 18.8999V18.8999ZM9.19995 3.79991C10.4064 3.79991 11.5858 4.15766 12.5889 4.82794C13.5921 5.49822 14.3739 6.45091 14.8356 7.56554C15.2973 8.68016 15.4181 9.90667 15.1827 11.09C14.9474 12.2732 14.3664 13.3602 13.5133 14.2133C12.6602 15.0664 11.5733 15.6473 10.39 15.8827C9.20672 16.1181 7.98021 15.9973 6.86558 15.5356C5.75095 15.0739 4.79827 14.292 4.12799 13.2889C3.45771 12.2857 3.09995 11.1064 3.09995 9.89991C3.1026 8.2829 3.74612 6.73288 4.88952 5.58948C6.03292 4.44608 7.58294 3.80255 9.19995 3.79991V3.79991Z" fill="#FF3541"/>
<path d="M29.4 19.98C27.62 19.98 25.8799 20.5078 24.3999 21.4968C22.9199 22.4857 21.7663 23.8913 21.0851 25.5358C20.4039 27.1804 20.2257 28.99 20.573 30.7358C20.9202 32.4816 21.7774 34.0853 23.0361 35.3439C24.2947 36.6026 25.8984 37.4598 27.6442 37.807C29.39 38.1543 31.1996 37.9761 32.8442 37.2949C34.4887 36.6137 35.8943 35.4602 36.8833 33.9801C37.8722 32.5001 38.4 30.76 38.4 28.98C38.4 26.593 37.4518 24.3038 35.764 22.616C34.0762 20.9282 31.787 19.98 29.4 19.98V19.98ZM29.4 35.08C28.1936 35.08 27.0142 34.7222 26.011 34.0519C25.0079 33.3817 24.2261 32.429 23.7644 31.3144C23.3027 30.1997 23.1819 28.9732 23.4172 27.7899C23.6526 26.6066 24.2336 25.5197 25.0867 24.6666C25.9398 23.8135 27.0267 23.2326 28.21 22.9972C29.3933 22.7618 30.6198 22.8826 31.7344 23.3443C32.849 23.806 33.8017 24.5879 34.472 25.591C35.1423 26.5941 35.5 27.7735 35.5 28.98C35.5 30.5978 34.8574 32.1494 33.7134 33.2933C32.5694 34.4373 31.0178 35.08 29.4 35.08V35.08Z" fill="#FF3541"/>
<path d="M36.18 0.499999L0.36 36.32C0.116661 36.5988 -0.0117128 36.9597 0.000841028 37.3295C0.0133948 37.6994 0.16594 38.0507 0.427626 38.3124C0.689311 38.5741 1.04061 38.7266 1.41047 38.7392C1.78034 38.7517 2.14117 38.6233 2.42 38.38L38.24 2.56C38.3907 2.42845 38.5128 2.26732 38.5987 2.08661C38.6846 1.9059 38.7324 1.70948 38.7392 1.50953C38.7459 1.30957 38.7116 1.11036 38.6381 0.924243C38.5647 0.738131 38.4538 0.569093 38.3124 0.427623C38.1709 0.286152 38.0019 0.175268 37.8158 0.101852C37.6296 0.0284349 37.4304 -0.00594642 37.2305 0.000840317C37.0305 0.00762705 36.8341 0.055438 36.6534 0.141305C36.4727 0.227172 36.3115 0.349262 36.18 0.499999V0.499999Z" fill="#FF3541"/>
</svg>
