<svg width="31" height="31" viewBox="0 0 31 31" fill="none" xmlns="http://www.w3.org/2000/svg">
<path d="M6.29586 27.125L3.86914 24.7031H6.29586V27.125Z" fill="#1D80B2"/>
<path d="M24.7031 27.125L27.1298 24.7031H24.7031V27.125Z" fill="#1D80B2"/>
<path d="M24.7041 6.29691H20.834V2.42676L24.7041 6.29691Z" fill="#B2B2B2"/>
<path d="M20.8281 2.42188H7.06703C6.86277 2.42188 6.66688 2.50302 6.52245 2.64745C6.37802 2.79188 6.29688 2.98777 6.29688 3.19203V27.8952C6.29687 28.0999 6.37786 28.2963 6.52215 28.4415C6.66645 28.5867 6.86233 28.6689 7.06703 28.6702H23.933C24.0364 28.6696 24.1387 28.6483 24.2338 28.6075C24.3288 28.5668 24.4148 28.5074 24.4866 28.4329C24.5583 28.3585 24.6145 28.2704 24.6517 28.1738C24.6889 28.0773 24.7064 27.9743 24.7031 27.8709V6.29688H20.8281V2.42188Z" fill="#F1F1F1"/>
<path d="M4.35938 15.9844H26.6406C26.7691 15.9844 26.8923 16.0354 26.9831 16.1262C27.074 16.2171 27.125 16.3403 27.125 16.4688V24.7031H3.875V16.4688C3.875 16.3403 3.92603 16.2171 4.01687 16.1262C4.10771 16.0354 4.23091 15.9844 4.35938 15.9844Z" fill="#2598DE"/>
<path d="M12.7643 21.3126C12.5973 21.6103 12.3486 21.8541 12.0474 22.0149C11.7061 22.1898 11.3264 22.2764 10.943 22.2668H9.45117V18.3191H10.943C11.3259 18.3093 11.7053 18.3941 12.0474 18.5662C12.3494 18.7237 12.5986 18.9662 12.7643 19.2637C12.9343 19.5805 13.0194 19.9359 13.0113 20.2954C13.0156 20.6498 12.9307 20.9996 12.7643 21.3126ZM11.7326 21.114C11.933 20.8818 12.0433 20.5852 12.0433 20.2784C12.0433 19.9717 11.933 19.6751 11.7326 19.4429C11.4922 19.2335 11.1789 19.1273 10.8607 19.1474H10.4054V21.4094H10.8607C11.1769 21.4336 11.4899 21.3327 11.7326 21.1285V21.114ZM16.4698 18.5226C16.771 18.6921 17.0192 18.9419 17.1866 19.2443C17.3606 19.5633 17.4475 19.9225 17.4385 20.2857C17.4429 20.6533 17.3511 21.0157 17.1721 21.3368C17.0057 21.6351 16.7634 21.8841 16.4698 22.0585C16.1607 22.2298 15.8132 22.3197 15.4598 22.3197C15.1065 22.3197 14.759 22.2298 14.4499 22.0585C14.1474 21.8891 13.8976 21.6393 13.7282 21.3368C13.5468 21.0166 13.4548 20.6536 13.4618 20.2857C13.4549 19.9209 13.547 19.561 13.7282 19.2443C13.8961 18.9407 14.1463 18.6905 14.4499 18.5226C14.7606 18.3508 15.1097 18.2607 15.4647 18.2607C15.8196 18.2607 16.1688 18.3508 16.4795 18.5226H16.4698ZM14.7018 19.4574C14.5226 19.6964 14.4257 19.987 14.4257 20.2857C14.4257 20.5844 14.5226 20.875 14.7018 21.114C14.797 21.2169 14.9135 21.2979 15.0431 21.3515C15.1728 21.405 15.3125 21.4297 15.4526 21.424C15.5913 21.4303 15.7298 21.4058 15.8579 21.3522C15.9861 21.2986 16.1007 21.2172 16.1937 21.114C16.3894 20.884 16.4883 20.5871 16.4698 20.2857C16.4844 19.9848 16.3859 19.6893 16.1937 19.4574C15.9937 19.2619 15.725 19.1524 15.4453 19.1524C15.1656 19.1524 14.897 19.2619 14.697 19.4574H14.7018ZM21.0326 18.6824C21.3704 18.951 21.5993 19.3331 21.6768 19.7577H20.6645C20.5951 19.5783 20.4715 19.4249 20.3109 19.319C20.1503 19.2131 19.9606 19.1599 19.7684 19.1668C19.639 19.1619 19.5102 19.1873 19.3924 19.2412C19.2747 19.295 19.1712 19.3757 19.0902 19.4768C18.906 19.7104 18.813 20.0031 18.8287 20.3002C18.8128 20.5959 18.9059 20.8871 19.0902 21.1188C19.1722 21.2184 19.276 21.2978 19.3936 21.3507C19.5112 21.4037 19.6395 21.4287 19.7684 21.424C19.9609 21.4291 20.1503 21.3746 20.3107 21.2679C20.4711 21.1613 20.5947 21.0077 20.6645 20.8282H21.6768C21.5954 21.25 21.3671 21.6292 21.0326 21.8987C20.6755 22.174 20.2335 22.3162 19.7829 22.3007C19.4285 22.3075 19.0789 22.2188 18.7705 22.044C18.4811 21.8764 18.2457 21.6293 18.0924 21.3319C17.9313 21.007 17.8499 20.6484 17.8551 20.2857C17.8504 19.9215 17.9317 19.5614 18.0924 19.2346C18.2457 18.9373 18.4811 18.6902 18.7705 18.5226C19.0789 18.3478 19.4285 18.2591 19.7829 18.2659C20.2353 18.2545 20.6775 18.4019 21.0326 18.6824Z" fill="white"/>
<path d="M8.71289 6.29688H17.9645" stroke="#2598DE" stroke-linecap="round" stroke-linejoin="round"/>
<path d="M16.8945 9.49854H22.4939" stroke="#2598DE" stroke-linecap="round" stroke-linejoin="round"/>
<path d="M8.71289 9.49854H15.1357" stroke="#2598DE" stroke-linecap="round" stroke-linejoin="round"/>
<path d="M20.6875 12.7002H22.4942" stroke="#2598DE" stroke-linecap="round" stroke-linejoin="round"/>
<path d="M8.71289 12.7002H18.3762" stroke="#2598DE" stroke-linecap="round" stroke-linejoin="round"/>
</svg>
