<svg width="16" height="23" viewBox="0 0 16 23" fill="none" xmlns="http://www.w3.org/2000/svg">
<path d="M7.90925 19.4442L14.0219 13.0543H10.6831C10.3858 13.0543 10.1441 12.8127 10.1441 12.5153V1.07774H5.67485V12.5153C5.67485 12.8133 5.43318 13.0543 5.13578 13.0543H1.79705L7.90967 19.4442H7.90925ZM2.23328 23C1.9359 23 1.6942 22.7583 1.6942 22.4609C1.6942 22.1635 1.93588 21.9219 2.23328 21.9219H13.5856C13.883 21.9219 14.1247 22.1635 14.1247 22.4609C14.1247 22.7583 13.883 23 13.5856 23H2.23328ZM15.6665 12.8858L8.28005 20.6079C8.0659 20.813 7.72688 20.8052 7.52177 20.591L0.190228 12.9264C0.0738979 12.8278 0 12.6805 0 12.5157C0 12.2183 0.241673 11.9766 0.539075 11.9766H4.59594V0.539075C4.59594 0.241694 4.83761 0 5.13501 0H10.6822C10.9796 0 11.2213 0.241673 11.2213 0.539075V11.9766H15.2782V11.9794C15.4114 11.9794 15.5446 12.0287 15.6488 12.128C15.8629 12.3331 15.87 12.672 15.6657 12.8863L15.6665 12.8858Z" fill="#474D9B"/>
</svg>
