<svg width="38" height="48" viewBox="0 0 38 48" fill="none" xmlns="http://www.w3.org/2000/svg">
<path d="M7.64751 11.358L16.8803 20.694L13.5256 24.084C12.2958 25.2952 10.6434 25.9683 8.92614 25.9574C7.20888 25.9465 5.56494 25.2526 4.35023 24.0259C3.13553 22.7992 2.4478 21.1384 2.43595 19.4031C2.42409 17.6678 3.08905 15.9975 4.28688 14.754L7.64751 11.358ZM21.0841 7.11598C20.4775 6.50279 19.7574 6.01636 18.9648 5.68448C18.1722 5.35261 17.3226 5.18179 16.4647 5.18179C15.6067 5.18179 14.7572 5.35261 13.9646 5.68448C13.172 6.01636 12.4518 6.50279 11.8453 7.11598L8.48469 10.506L17.7234 19.842L21.0841 16.446C22.3078 15.2084 22.9951 13.5305 22.9951 11.781C22.9951 10.0315 22.3078 8.35357 21.0841 7.11598ZM32.9888 17.916C32.8475 17.7741 32.6988 17.6399 32.5434 17.514L21.6719 28.47C21.8025 28.62 21.9272 28.77 22.0697 28.914C22.2122 29.058 22.3606 29.19 22.5091 29.316L33.3866 18.33C33.25 18.18 33.1313 18.03 32.9888 17.886V17.916ZM22.0697 17.916C20.8446 19.1578 20.0692 20.7805 19.8689 22.5223C19.6685 24.2641 20.0548 26.0233 20.9653 27.516L31.5756 16.764C30.0973 15.8431 28.3548 15.4529 26.6298 15.6565C24.9049 15.8601 23.2982 16.6456 22.0697 17.886V17.916ZM34.0931 19.344L23.4828 30.036C24.9608 30.948 26.6992 31.3312 28.4187 31.1242C30.1383 30.9171 31.7389 30.1318 32.9634 28.8944C34.1879 27.657 34.9651 26.0395 35.17 24.3019C35.3749 22.5642 34.9956 20.8075 34.0931 19.314V19.344Z" fill="white"/>
</svg>
