<svg width="14" height="14" viewBox="0 0 14 14" fill="none" xmlns="http://www.w3.org/2000/svg">
<path d="M11.8064 6.34637V13.6753C11.8064 13.8545 11.6607 14 11.4813 14H0.325083C0.145637 14 0 13.8545 0 13.6753V2.47733C0 2.29807 0.145637 2.15258 0.325083 2.15258H7.60825C7.7877 2.15258 7.93333 2.29807 7.93333 2.47733C7.93333 2.65659 7.7877 2.80208 7.60825 2.80208H0.650167V13.3505H11.1564V6.34637C11.1564 6.16711 11.302 6.02162 11.4815 6.02162C11.6609 6.02162 11.8064 6.16694 11.8064 6.34637ZM13.4099 3.44232L7.69489 9.15137C7.66368 9.18238 3.59087 10.8214 3.59087 10.8214C3.55186 10.8371 3.51074 10.8448 3.4701 10.8448C3.38542 10.8448 3.30236 10.8118 3.24027 10.7496C3.14827 10.6579 3.11999 10.5198 3.16843 10.3994C3.16843 10.3994 4.80928 6.33078 4.84033 6.29976L10.0647 1.08092C10.0651 1.0806 10.0652 1.08027 10.0656 1.08011L10.5555 0.590715C10.9366 0.209787 11.4436 0 11.9826 0C12.5217 0 13.0289 0.209787 13.4099 0.590715C14.1967 1.37693 14.1967 2.6561 13.4099 3.44232ZM4.05428 9.93644L5.13924 9.50242L4.48891 8.85276L4.05428 9.93644ZM6.88673 8.80324L5.18882 7.10692L4.62041 8.52477L5.46758 9.37106L6.88673 8.80324ZM11.6658 4.26604L9.73072 2.33298L5.52983 6.52936L7.46505 8.46242L11.6658 4.26604ZM12.2304 3.70195L10.2954 1.7689L9.96055 2.10339L11.8956 4.03644L12.2304 3.70195ZM12.9502 1.04991C12.6917 0.791733 12.3481 0.649494 11.9826 0.649494C11.6172 0.649494 11.2736 0.791733 11.0151 1.04991L10.7551 1.3097L12.6901 3.24276L12.9502 2.98296C13.4836 2.45022 13.4836 1.58298 12.9502 1.04991Z" fill="#9EA4D5"/>
</svg>
