<svg width="39" height="39" viewBox="0 0 39 39" fill="none" xmlns="http://www.w3.org/2000/svg">
<g clip-path="url(#clip0)">
<path d="M34.3202 35.88C36.0433 35.88 37.4402 34.4831 37.4402 32.76C37.4402 31.0369 36.0433 29.64 34.3202 29.64C32.5971 29.64 31.2002 31.0369 31.2002 32.76C31.2002 34.4831 32.5971 35.88 34.3202 35.88Z" fill="#1EBE41"/>
<path d="M11.7001 35.88C13.4232 35.88 14.8201 34.4831 14.8201 32.76C14.8201 31.0369 13.4232 29.64 11.7001 29.64C9.97695 29.64 8.58008 31.0369 8.58008 32.76C8.58008 34.4831 9.97695 35.88 11.7001 35.88Z" fill="#1EBE41"/>
<path d="M36.66 25.74H12.3014L12.8216 24.896C13.0447 24.5341 13.1102 24.0965 13.0034 23.6847L12.4956 21.73L35.1023 20.5553C35.9596 20.5117 36.66 19.773 36.66 18.915V8.57999C36.66 7.72199 35.958 7.01999 35.1 7.01999H8.67282L8.36784 5.84765C8.28095 5.51329 8.08554 5.21722 7.81224 5.0059C7.53894 4.79457 7.20323 4.67994 6.85776 4.67999H1.56C1.14626 4.67999 0.74947 4.84435 0.456913 5.13691C0.164357 5.42946 0 5.82625 0 6.23999C0 6.65373 0.164357 7.05052 0.456913 7.34308C0.74947 7.63564 1.14626 7.79999 1.56 7.79999H5.65188L9.81708 23.8251L8.17908 26.481C8.03338 26.7173 7.95345 26.9882 7.94756 27.2658C7.94166 27.5433 8.01001 27.8174 8.14554 28.0597C8.28052 28.3023 8.47787 28.5044 8.71718 28.6451C8.95648 28.7858 9.22904 28.86 9.50664 28.86H36.66C37.0737 28.86 37.4705 28.6956 37.7631 28.4031C38.0556 28.1105 38.22 27.7137 38.22 27.3C38.22 26.8863 38.0556 26.4895 37.7631 26.1969C37.4705 25.9043 37.0737 25.74 36.66 25.74Z" fill="#1EBE41"/>
</g>
<defs>
<clipPath id="clip0">
<rect width="39" height="39" fill="white"/>
</clipPath>
</defs>
</svg>
