<svg width="512" height="398" viewBox="0 0 512 398" fill="none" xmlns="http://www.w3.org/2000/svg">
<path d="M313.997 44.0811C228.574 44.0811 159.078 113.577 159.078 199C159.078 284.423 228.575 353.919 313.997 353.919C399.419 353.919 468.916 284.423 468.916 199C468.916 113.577 399.419 44.0811 313.997 44.0811V44.0811ZM313.997 333.919C239.602 333.919 179.078 273.395 179.078 199C179.078 124.605 239.602 64.0811 313.997 64.0811C388.392 64.0811 448.916 124.605 448.916 199C448.916 273.395 388.392 333.919 313.997 333.919V333.919Z" fill="#FF3843"/>
<path d="M408.944 189H331.302C327.842 183.026 321.396 178.997 313.996 178.997C312.207 178.997 310.483 179.254 308.833 179.695L290.473 161.335C286.568 157.431 280.236 157.431 276.331 161.335C272.426 165.24 272.426 171.572 276.331 175.478L294.691 193.837C294.251 195.487 293.994 197.212 293.994 199C293.994 210.047 302.95 219.003 313.997 219.003C321.397 219.003 327.843 214.974 331.303 209H408.945C414.468 209 418.945 204.522 418.945 199C418.945 193.478 414.467 189 408.944 189V189Z" fill="#FF3843"/>
<path d="M313.997 0.99707C248.997 0.99707 191.217 32.4831 155.094 81.0001H64C58.477 81.0001 54 85.4781 54 91.0001C54 96.5221 58.477 101 64 101H141.996C135.844 111.755 130.672 123.139 126.602 135.031C126.4 135.019 126.199 135 125.994 135H10C4.477 135 0 139.478 0 145C0 150.522 4.477 155 10 155H120.928C118.419 166.016 116.826 177.377 116.245 189H78.002C72.479 189 68.002 193.478 68.002 199C68.002 204.522 72.479 209 78.002 209H116.245C117.839 240.886 127.014 270.808 141.996 297H10C4.477 297 0 301.478 0 307C0 312.522 4.477 317 10 317H155.094C191.216 365.518 248.997 397.003 313.997 397.003C423.176 397.003 512 308.18 512 199C512 89.8201 423.176 0.99707 313.997 0.99707V0.99707ZM313.997 377.003C215.846 377.003 135.994 297.151 135.994 199C135.994 100.849 215.845 20.9971 313.997 20.9971C412.149 20.9971 492 100.849 492 199C492 297.151 412.148 377.003 313.997 377.003Z" fill="#FF3843"/>
<path d="M314 283.95C311.36 283.95 308.79 285.019 306.92 286.88C305.06 288.74 304 291.319 304 293.95C304 296.58 305.06 299.16 306.92 301.019C308.79 302.879 311.37 303.95 314 303.95C316.63 303.95 319.2 302.88 321.07 301.019C322.93 299.16 324 296.58 324 293.95C324 291.319 322.93 288.74 321.07 286.88C319.21 285.02 316.63 283.95 314 283.95Z" fill="#FF3843"/>
<path d="M314 114.05C316.63 114.05 319.21 112.98 321.07 111.12C322.93 109.26 324 106.68 324 104.05C324 101.42 322.93 98.8403 321.07 96.9803C319.21 95.1213 316.63 94.0503 314 94.0503C311.36 94.0503 308.79 95.1203 306.93 96.9803C305.06 98.8403 304 101.42 304 104.05C304 106.68 305.06 109.26 306.93 111.12C308.79 112.979 311.37 114.05 314 114.05Z" fill="#FF3843"/>
<path d="M219.05 189C216.42 189 213.84 190.069 211.98 191.93C210.12 193.79 209.05 196.37 209.05 199C209.05 201.63 210.12 204.21 211.98 206.069C213.84 207.929 216.42 209 219.05 209C221.68 209 224.26 207.93 226.12 206.069C227.98 204.21 229.05 201.63 229.05 199C229.05 196.37 227.98 193.79 226.12 191.93C224.26 190.069 221.68 189 219.05 189Z" fill="#FF3843"/>
<path d="M10 263H64C69.523 263 74 258.522 74 253C74 247.478 69.523 243 64 243H10C4.477 243 0 247.478 0 253C0 258.522 4.477 263 10 263Z" fill="#FF3843"/>
</svg>
