<svg width="32" height="31" viewBox="0 0 32 31" fill="none" xmlns="http://www.w3.org/2000/svg">
<path d="M25.23 8.184L30.707 2.707C31.098 2.316 31.098 1.684 30.707 1.293C30.316 0.901998 29.684 0.901998 29.293 1.293L23.55 7.037C21.516 5.835 19.019 5 16 5C5.44403 5 1.24503 15.195 1.07103 15.628C0.976029 15.867 0.976029 16.132 1.07103 16.371C1.18003 16.644 2.88703 20.785 6.76903 23.816L1.29203 29.293C0.901029 29.684 0.901029 30.316 1.29203 30.707C1.48803 30.902 1.74403 31 2.00003 31C2.25603 31 2.51203 30.902 2.70703 30.707L8.45003 24.963C10.484 26.165 12.981 27 16 27C26.556 27 30.755 16.805 30.929 16.372C31.024 16.133 31.024 15.868 30.929 15.629C30.819 15.355 29.112 11.215 25.23 8.184ZM3.09403 16.004C3.91403 14.27 7.84203 7 16 7C18.383 7 20.387 7.615 22.068 8.517L20.184 10.402C19.016 9.526 17.569 9 16 9C12.141 9 9.00003 12.14 9.00003 16C9.00003 17.57 9.52503 19.016 10.401 20.184L8.20403 22.382C5.20003 20.127 3.58903 17.075 3.09403 16.004ZM21 16C21 18.757 18.757 21 16 21C14.982 21 14.037 20.691 13.247 20.167L20.167 13.247C20.691 14.038 21 14.982 21 16ZM11 16C11 13.243 13.243 11 16 11C17.018 11 17.963 11.309 18.753 11.833L11.833 18.753C11.309 17.962 11 17.018 11 16ZM16 25C13.617 25 11.613 24.385 9.93203 23.483L11.816 21.598C12.984 22.474 14.431 23 16 23C19.859 23 23 19.86 23 16C23 14.43 22.475 12.984 21.599 11.816L23.796 9.618C26.8 11.873 28.411 14.925 28.906 15.996C28.086 17.73 24.158 25 16 25Z" fill="black" fill-opacity="0.33"/>
</svg>
