<svg width="31" height="30" viewBox="0 0 31 30" fill="none" xmlns="http://www.w3.org/2000/svg">
<g clip-path="url(#clip0)">
<path d="M15.8 0C7.52908 0 0.800049 6.67751 0.800049 14.8851C0.800049 23.0922 7.52908 29.7703 15.8 29.7703C24.0704 29.7703 30.8 23.0922 30.8 14.8851C30.8 6.67751 24.0716 0 15.8 0ZM19.5304 15.4092H17.09C17.09 19.2782 17.09 24.0407 17.09 24.0407H13.4739C13.4739 24.0407 13.4739 19.3244 13.4739 15.4092H11.7549V12.3585H13.4739V10.3853C13.4739 8.97209 14.1506 6.76384 17.1233 6.76384L19.8029 6.77404V9.73536C19.8029 9.73536 18.1746 9.73536 17.858 9.73536C17.5414 9.73536 17.0912 9.89245 17.0912 10.5664V12.3591H19.8464L19.5304 15.4092Z" fill="white"/>
</g>
<defs>
<clipPath id="clip0">
<rect width="30" height="29.7703" fill="white" transform="translate(0.800049)"/>
</clipPath>
</defs>
</svg>
