<svg width="120" height="120" viewBox="0 0 120 120" fill="none" xmlns="http://www.w3.org/2000/svg">
<path d="M24.4281 27.3879C24.4281 24.2822 24.5426 18.0994 24.5282 16.0384C24.5282 10.514 24.5282 10.3136 30.3962 10.242C36.9798 10.242 80.789 10.1276 89.8915 10.3422C95.6164 10.471 95.6164 10.3422 95.6164 16.1816C95.6164 21.4198 95.6164 21.5057 95.6164 27.1303C98.7078 27.1303 99.4377 27.4022 102.257 27.3736C108.096 27.3736 110.043 29.2199 109.914 33.9142C109.699 43.031 109.914 99.5781 110 102.226C110 107.951 108.096 109.911 103.846 109.783C98.121 109.611 19.2471 109.568 16.8283 109.682C12.0481 109.911 9.7868 107.936 10.0158 102.025C10.116 99.2918 10.0158 35.2882 10.0158 34.959C10.2305 29.2342 12.0052 27.3879 17.7014 27.3879C19.6335 27.3879 21.1649 27.3879 24.4281 27.3879ZM18.1307 106.276C45.0804 106.276 74.9068 106.276 101.885 106.276C102.435 106.288 102.983 106.189 103.494 105.986C104.006 105.784 104.472 105.481 104.865 105.095C105.259 104.71 105.571 104.25 105.784 103.743C105.997 103.235 106.107 102.69 106.107 102.14C106.107 89.9174 106.307 75.3907 106.307 63.941C93.3121 63.941 78.0697 63.941 66.5485 63.941C66.5485 65.6584 66.6487 66.7032 66.6344 67.8768C66.6344 70.5245 66.1764 73.2438 63.5859 73.3583C61.4534 73.4442 57.0739 73.3583 55.0989 73.3583C52.2364 73.3583 51.392 71.2831 51.1058 68.392C50.9484 66.9187 50.8911 65.4364 50.934 63.9553C39.0121 63.7692 26.0024 63.3828 13.8944 63.9553C13.5652 75.405 13.7369 89.717 13.8944 101.968C13.8905 103.1 14.3333 104.187 15.1266 104.993C15.9199 105.8 16.9995 106.261 18.1307 106.276V106.276ZM13.8228 60.3057C26.0453 60.3057 38.3394 60.3057 50.6192 60.3057C50.7194 58.531 50.705 54.5809 50.6907 53.3214C50.6907 50.7309 52.8089 50.2443 55.0845 50.1012C57.8584 49.9297 60.6403 49.9297 63.4142 50.1012C66.1764 50.3016 66.5628 51.5324 66.6487 54.3948C66.6487 55.3394 66.6487 59.0606 66.6487 60.2771C79.2147 60.0195 93.6699 60.3916 106.207 60.2771C106.207 53.3071 106.207 42.9452 106.064 34.6728C106.053 33.6806 105.652 32.7327 104.948 32.0338C104.243 31.3349 103.292 30.941 102.3 30.9373C86.9575 30.9373 30.9114 30.8658 17.0573 30.9373C16.2419 30.9444 15.461 31.2676 14.8791 31.8389C14.2971 32.4102 13.9595 33.1849 13.9373 34.0001C13.7799 42.0435 13.8228 53.0352 13.8228 60.3057ZM89.2618 13.863C78.7567 13.863 41.4737 13.863 30.5823 13.863C29.918 13.863 29.2809 14.1269 28.8112 14.5966C28.3415 15.0663 28.0776 15.7034 28.0776 16.3676C28.0776 20.3607 28.0776 24.411 28.0776 27.4881H38.8403C38.9119 26.0569 38.8403 22.9941 38.8403 20.6469C38.8403 18.9581 40.615 18.8007 42.447 18.8007C46.2397 18.8007 65.79 18.8007 77.5545 18.8865C79.4151 18.8865 81.2756 18.8865 81.247 20.6183C81.247 23.1229 81.247 26.1428 81.247 27.4452C83.1076 27.4452 90.3209 27.3736 91.9954 27.4452C91.9954 24.9835 91.9954 21.1479 91.9954 16.5966C91.9954 16.2376 91.9247 15.8822 91.7873 15.5505C91.6499 15.2188 91.4486 14.9175 91.1947 14.6637C90.9409 14.4098 90.6395 14.2085 90.3079 14.0711C89.9762 13.9337 89.6208 13.863 89.2618 13.863ZM42.4183 23.4378C42.4183 24.869 42.4183 26.1141 42.4183 27.3021C53.9825 27.4452 65.0457 27.4881 77.6404 27.4022C77.6404 26.5006 77.6404 25.1123 77.6404 23.538C77.6329 23.2355 77.5075 22.9479 77.2909 22.7367C77.0743 22.5254 76.7837 22.4072 76.4811 22.4073H43.4345C43.2987 22.4033 43.1636 22.4272 43.0375 22.4778C42.9114 22.5283 42.7971 22.6043 42.7018 22.701C42.6064 22.7977 42.532 22.9131 42.4832 23.0399C42.4345 23.1666 42.4124 23.3021 42.4183 23.4378V23.4378ZM55.0273 57.5721C56.9022 57.5721 60.3084 57.5721 62.1833 57.5005C62.1833 57.0712 62.1833 55.2822 62.3408 53.9368C60.7092 53.9368 54.9844 54.0656 54.9844 54.0656L55.0273 57.5721ZM55.0273 66.1594C55.0273 66.8034 55.1275 68.163 55.1275 69.3223C56.5587 69.3939 62.8274 69.3223 62.8274 69.3223C62.8274 69.3223 62.8274 67.0467 62.8274 66.1594H55.0273Z" fill="#665BA0"/>
</svg>
