<svg width="97" height="97" viewBox="0 0 97 97" fill="none" xmlns="http://www.w3.org/2000/svg">
<path d="M45.3269 24.7821H80.5833C83.0833 24.7821 85.0705 26.7692 85.0705 29.2692V32.4744H54.8141C53.6603 32.4744 53.0833 33.8846 53.9167 34.6539L60.8397 41.5769C61.5449 42.2821 62.5705 42.7308 63.532 42.7308H85.0705V61.3205C85.0705 62.4103 85.9038 63.2436 86.9936 63.2436C88.0833 63.2436 88.9167 62.4103 88.9167 61.3205V29.2692C88.9167 24.6539 85.1987 20.9359 80.5833 20.9359H45.3269C44.2372 20.9359 43.4038 21.7692 43.4038 22.859C43.4038 23.9487 44.2372 24.7821 45.3269 24.7821Z" fill="#B8B8C6"/>
<path d="M15.391 76.0641H73.3397L77.891 80.6154C78.2757 81 78.7885 81.1923 79.2372 81.1923C79.6859 81.1923 80.1987 81 80.5833 80.6154C81.3526 79.8461 81.3526 78.6282 80.5833 77.923L24.1731 21.5128L11.3526 8.69228C10.5833 7.92305 9.36539 7.92305 8.66027 8.69228C7.89104 9.46151 7.89104 10.6795 8.66027 11.3846L18.2757 20.9359H16.4808C11.8654 20.9359 8.14745 24.6538 8.14745 29.2692V68.8205C8.14745 72.7948 11.4167 76.0641 15.391 76.0641ZM15.391 72.2179C13.5321 72.2179 11.9936 70.6795 11.9936 68.8205V42.7307H40.0705L69.5577 72.2179H15.391ZM16.4808 24.782H22.1218L29.8141 32.4743H11.9936V29.2692C11.9936 26.7692 13.9808 24.782 16.4808 24.782Z" fill="#B8B8C6"/>
<path d="M86.9936 88.8846C88.0557 88.8846 88.9166 88.0236 88.9166 86.9615C88.9166 85.8994 88.0557 85.0385 86.9936 85.0385C85.9315 85.0385 85.0705 85.8994 85.0705 86.9615C85.0705 88.0236 85.9315 88.8846 86.9936 88.8846Z" fill="#B8B8C6"/>
</svg>
