<svg width="120" height="120" viewBox="0 0 120 120" fill="none" xmlns="http://www.w3.org/2000/svg">
<path d="M56.0745 30.6583H99.6907C102.783 30.6583 105.242 33.1166 105.242 36.2094V40.1745H67.8112C66.3838 40.1745 65.6701 41.9192 66.701 42.8708L75.2656 51.4354C76.1379 52.3078 77.4068 52.8629 78.5963 52.8629H105.242V75.8605C105.242 77.2086 106.273 78.2396 107.621 78.2396C108.969 78.2396 110 77.2086 110 75.8605V36.2094C110 30.4997 105.4 25.9001 99.6907 25.9001H56.0745C54.7264 25.9001 53.6954 26.9311 53.6954 28.2792C53.6954 29.6273 54.7264 30.6583 56.0745 30.6583Z" fill="#665BA0"/>
<path d="M19.0404 94.0999H90.7296L96.36 99.7304C96.8358 100.206 97.4703 100.444 98.0254 100.444C98.5805 100.444 99.2149 100.206 99.6907 99.7304C100.642 98.7788 100.642 97.272 99.6907 96.3997L29.9048 26.6138L14.0444 10.7534C13.0928 9.80177 11.586 9.80177 10.7137 10.7534C9.76209 11.705 9.76209 13.2118 10.7137 14.0841L22.609 25.9001H20.3886C14.6788 25.9001 10.0793 30.4996 10.0793 36.2094V85.1388C10.0793 90.0555 14.1237 94.0999 19.0404 94.0999ZM19.0404 89.3418C16.7407 89.3418 14.8374 87.4386 14.8374 85.1388V52.8628H49.5718L86.0508 89.3418H19.0404ZM20.3886 30.6582H27.3672L36.8834 40.1745H14.8374V36.2094C14.8374 33.1166 17.2958 30.6582 20.3886 30.6582Z" fill="#665BA0"/>
<path d="M107.621 109.96C108.935 109.96 110 108.895 110 107.581C110 106.267 108.935 105.202 107.621 105.202C106.307 105.202 105.242 106.267 105.242 107.581C105.242 108.895 106.307 109.96 107.621 109.96Z" fill="#665BA0"/>
</svg>
