<svg width="120" height="120" viewBox="0 0 120 120" fill="none" xmlns="http://www.w3.org/2000/svg">
<path d="M104.483 51.3339H16.5167C16.1144 51.3339 15.7286 51.1741 15.4442 50.8897C15.1598 50.6052 15 50.2195 15 49.8172V37.684C15.0001 37.3684 15.0987 37.0608 15.2819 36.8039C15.4651 36.547 15.7239 36.3536 16.0222 36.2507L60.0052 21.0842C60.3253 20.9719 60.674 20.9719 60.9941 21.0842L104.977 36.2507C105.275 36.3536 105.534 36.547 105.717 36.8039C105.901 37.0608 105.999 37.3684 105.999 37.684V49.8172C105.999 50.2195 105.84 50.6052 105.555 50.8897C105.271 51.1741 104.885 51.3339 104.483 51.3339ZM18.0333 48.3006H102.966V38.7654L60.4997 24.1221L18.0333 38.7654V48.3006Z" fill="#7D7DB3"/>
<path d="M98.4158 45.2672H22.5831C22.1808 45.2672 21.7951 45.1074 21.5106 44.8229C21.2262 44.5385 21.0664 44.1527 21.0664 43.7505V42.0094C21.0665 41.6938 21.1651 41.3862 21.3483 41.1293C21.5315 40.8724 21.7903 40.679 22.0886 40.5761L60.005 27.5011C60.3251 27.3888 60.6738 27.3888 60.9939 27.5011L98.9102 40.5761C99.2086 40.679 99.4674 40.8724 99.6506 41.1293C99.8338 41.3862 99.9324 41.6938 99.9325 42.0094V43.7505C99.9325 44.1527 99.7727 44.5385 99.4883 44.8229C99.2038 45.1074 98.8181 45.2672 98.4158 45.2672ZM26.584 42.2339H94.4134L60.4994 30.5389L26.584 42.2339Z" fill="#7D7DB3"/>
<path d="M104.483 102.9H101.449V98.3501C101.449 97.9478 101.29 97.5621 101.005 97.2776C100.721 96.9932 100.335 96.8334 99.9327 96.8334H98.416V92.2834C98.416 91.8812 98.2562 91.4954 97.9718 91.211C97.6874 90.9266 97.3016 90.7668 96.8994 90.7668H95.3827V63.2516C96.6812 62.9164 97.832 62.1603 98.6552 61.1017C99.4784 60.043 99.9277 58.7414 99.9327 57.4004V55.8837C99.9327 55.4815 99.7729 55.0957 99.4885 54.8113C99.204 54.5269 98.8183 54.3671 98.416 54.3671H77.1829C76.7806 54.3671 76.3948 54.5269 76.1104 54.8113C75.826 55.0957 75.6662 55.4815 75.6662 55.8837V57.4004C75.6712 58.7414 76.1205 60.043 76.9437 61.1017C77.7669 62.1603 78.9177 62.9164 80.2162 63.2516V90.7668H68.0829V63.2516C69.3814 62.9164 70.5322 62.1603 71.3554 61.1017C72.1786 60.043 72.6279 58.7414 72.6329 57.4004V55.8837C72.6329 55.4815 72.4731 55.0957 72.1887 54.8113C71.9042 54.5269 71.5185 54.3671 71.1162 54.3671H49.8831C49.4808 54.3671 49.0951 54.5269 48.8106 54.8113C48.5262 55.0957 48.3664 55.4815 48.3664 55.8837V57.4004C48.3714 58.7414 48.8207 60.043 49.6439 61.1017C50.4671 62.1603 51.6179 62.9164 52.9164 63.2516V90.7668H40.7831V63.2516C42.0816 62.9164 43.2324 62.1603 44.0556 61.1017C44.8788 60.043 45.3281 58.7414 45.3331 57.4004V55.8837C45.3331 55.4815 45.1733 55.0957 44.8889 54.8113C44.6045 54.5269 44.2187 54.3671 43.8164 54.3671H22.5833C22.181 54.3671 21.7953 54.5269 21.5108 54.8113C21.2264 55.0957 21.0666 55.4815 21.0666 55.8837V57.4004C21.0716 58.7414 21.5209 60.043 22.3441 61.1017C23.1673 62.1603 24.3181 62.9164 25.6166 63.2516V90.7668H24.0999C23.6977 90.7668 23.3119 90.9266 23.0275 91.211C22.7431 91.4954 22.5833 91.8812 22.5833 92.2834V96.8334H21.0666C20.6644 96.8334 20.2786 96.9932 19.9942 97.2776C19.7098 97.5621 19.55 97.9478 19.55 98.3501V102.9H16.5167C16.1144 102.9 15.7286 103.06 15.4442 103.344C15.1598 103.629 15 104.014 15 104.417V110.483C15 110.886 15.1598 111.271 15.4442 111.556C15.7286 111.84 16.1144 112 16.5167 112H104.483C104.885 112 105.271 111.84 105.555 111.556C105.84 111.271 105.999 110.886 105.999 110.483V104.417C105.999 104.014 105.84 103.629 105.555 103.344C105.271 103.06 104.885 102.9 104.483 102.9ZM78.6995 57.4004H96.8994C96.8994 58.2049 96.5798 58.9764 96.0109 59.5452C95.4421 60.1141 94.6705 60.4337 93.8661 60.4337H81.7328C80.9283 60.4337 80.1568 60.1141 79.5879 59.5452C79.0191 58.9764 78.6995 58.2049 78.6995 57.4004ZM83.2495 63.467H92.3494V90.7668H83.2495V63.467ZM51.3997 57.4004H69.5996C69.5996 58.2049 69.28 58.9764 68.7111 59.5452C68.1423 60.1141 67.3708 60.4337 66.5663 60.4337H54.433C53.6285 60.4337 52.857 60.1141 52.2882 59.5452C51.7193 58.9764 51.3997 58.2049 51.3997 57.4004ZM55.9497 63.467H65.0496V90.7668H55.9497V63.467ZM24.0999 57.4004H42.2998C42.2998 58.2049 41.9802 58.9764 41.4114 59.5452C40.8425 60.1141 40.071 60.4337 39.2665 60.4337H27.1332C26.3288 60.4337 25.5572 60.1141 24.9884 59.5452C24.4195 58.9764 24.0999 58.2049 24.0999 57.4004ZM28.6499 63.467H37.7498V90.7668H28.6499V63.467ZM25.6166 93.8001H95.3827V96.8334H25.6166V93.8001ZM22.5833 99.8667H98.416V102.9H22.5833V99.8667ZM102.966 108.967H18.0333V105.933H102.966V108.967Z" fill="#7D7DB3"/>
</svg>
