<svg width="109" height="109" viewBox="0 0 109 109" fill="none" xmlns="http://www.w3.org/2000/svg">
<path d="M79.8947 19.2547C83.5189 13.3083 83.6246 12.7642 77.4921 9.49198C76.7905 9.08761 75.9571 8.978 75.1748 9.18718C74.3925 9.39637 73.7251 9.90727 73.3189 10.6078L71.2252 14.2233C48.4703 3.86947 21.0559 14.2227 10.1224 36.6176C10.0144 36.8138 9.9495 37.0308 9.93202 37.2541C9.91454 37.4774 9.94489 37.7018 10.021 37.9125C10.0972 38.1231 10.2174 38.315 10.3737 38.4755C10.5299 38.6359 10.7186 38.7612 10.9271 38.843C11.2257 39.0188 11.5752 39.0876 11.9181 39.0381C12.2611 38.9886 12.5769 38.8238 12.8136 38.5707C14.3215 36.9678 16.3265 35.921 18.5037 35.6C20.6809 35.2789 22.9027 35.7024 24.8092 36.8018C26.7156 37.9012 28.195 39.6121 29.0076 41.6573C29.8202 43.7026 29.9184 45.9622 29.2863 48.0703C29.1866 48.3986 29.2005 48.751 29.3257 49.0705C29.451 49.39 29.6803 49.658 29.9767 49.831C30.2987 50.1487 30.7305 50.3304 31.1827 50.3386C31.6349 50.3468 32.073 50.1807 32.4062 49.8748C33.8299 48.3603 35.7002 47.3403 37.7443 46.9634C39.7884 46.5866 41.8995 46.8727 43.7696 47.78C45.6397 48.6873 47.171 50.1684 48.1402 52.0072C49.1094 53.846 49.4657 55.9464 49.1573 58.002L40.0877 73.7026C39.1615 73.529 38.2042 73.6465 37.3475 74.0388C36.4907 74.4313 35.7765 75.0793 35.303 75.8941L28.8282 87.109C28.2759 88.0611 27.9178 89.1132 27.7745 90.2045C27.6313 91.2958 27.7057 92.4047 27.9935 93.467C29.7086 100.567 39.8532 101.886 43.3416 95.4879C43.9261 94.7459 44.27 93.8429 44.327 92.9C44.384 91.9571 44.1515 91.0192 43.6606 90.2122C43.1697 89.4051 42.4438 88.7674 41.5803 88.3844C40.7168 88.0014 39.7568 87.8915 38.8291 88.0694L43.2195 80.4653C43.6914 79.6485 43.8977 78.7052 43.8097 77.766C43.7217 76.8268 43.3439 75.9382 42.7286 75.2233L50.8072 61.2384C53.7803 60.0591 61.5339 57.0586 64.907 60.0313C65.2342 60.2678 65.6419 60.3649 66.0406 60.3015C66.4394 60.238 66.7968 60.0192 67.0345 59.6928C67.9598 58.3959 66.584 57.3174 65.4946 56.7768C61.7767 54.6381 55.775 56.1883 52.3084 57.4024C53.2444 47.2705 41.2376 40.0881 32.7515 45.6734C33.3422 37.0357 23.7889 30.0261 15.7089 33.1462C40.2417 -3.70229 97.078 14.2695 95.9971 58.5453C95.9828 58.949 96.1294 59.3418 96.4047 59.6374C96.6799 59.933 97.0614 60.1072 97.4651 60.1215C97.8687 60.1359 98.2616 59.9893 98.5572 59.714C98.8528 59.4387 99.0269 59.0573 99.0413 58.6536C99.3221 51.0204 97.7228 43.4352 94.3841 36.5651C91.0455 29.695 86.0698 23.7506 79.8947 19.2547ZM40.5802 78.9411L34.1054 90.1567C33.9547 90.4164 33.8571 90.7033 33.818 91.001C33.7789 91.2986 33.7992 91.601 33.8777 91.8908C34.0007 92.3225 34.2473 92.7087 34.5871 93.002C34.927 93.2953 35.3452 93.4827 35.7902 93.5412C36.2353 93.5998 36.6877 93.5268 37.0918 93.3313C37.4959 93.1358 37.8339 92.8264 38.0643 92.4412L38.4452 91.7807C38.6515 91.4393 38.9835 91.1924 39.3698 91.0931C39.7561 90.9938 40.166 91.05 40.5114 91.2496C40.8568 91.4491 41.1101 91.7762 41.217 92.1605C41.3238 92.5449 41.2757 92.9558 41.083 93.305C37.9652 100.094 27.9233 95.2937 31.4675 88.6324L37.9423 77.4176C38.1482 77.0757 38.4802 76.8282 38.8667 76.7284C39.2532 76.6287 39.6635 76.6847 40.0092 76.8843C40.3549 77.0839 40.6084 77.4113 40.7152 77.7959C40.8219 78.1806 40.7735 78.5918 40.5802 78.9411ZM73.9764 15.554L75.9642 12.1276L79.3489 14.0863L77.3686 17.5348C76.2745 16.8136 75.1421 16.1524 73.9764 15.554Z" fill="#3F68D1"/>
<path d="M97.7409 61.9461C92.7254 59.867 87.3492 58.7969 81.9197 58.797C76.4903 58.7971 71.1142 59.8675 66.0987 61.9468C65.8212 62.0626 65.5841 62.2578 65.4174 62.508C65.2506 62.7582 65.1615 63.0521 65.1614 63.3528V87.7287C65.1614 87.9737 65.2205 88.2151 65.3337 88.4324C65.4468 88.6497 65.6108 88.8365 65.8116 88.9769L81.0465 99.6414C81.3025 99.8206 81.6074 99.9167 81.9198 99.9167C82.2323 99.9167 82.5372 99.8206 82.7932 99.6414L98.0281 88.9769C98.2289 88.8365 98.3928 88.6497 98.506 88.4324C98.6192 88.2151 98.6783 87.9737 98.6783 87.7287V63.3528C98.6782 63.052 98.5891 62.758 98.4223 62.5077C98.2556 62.2574 98.0185 62.062 97.7409 61.9461ZM95.6313 86.9357L81.9199 96.5334L68.2084 86.9357V64.3823C77.0352 60.9927 86.8047 60.9929 95.6313 64.3831V86.9357Z" fill="#3F68D1"/>
<path d="M76.903 76.6796C76.6154 76.4032 76.2309 76.2506 75.832 76.2545C75.4332 76.2585 75.0518 76.4187 74.7698 76.7007C74.4877 76.9828 74.3276 77.3642 74.3236 77.763C74.3197 78.1619 74.4723 78.5464 74.7487 78.8339L79.7343 83.8202C80.021 84.1038 80.4081 84.2628 80.8114 84.2628C81.2147 84.2628 81.6018 84.1038 81.8886 83.8202L90.6144 75.0943C90.8971 74.808 91.0551 74.4215 91.0538 74.0192C91.0526 73.6168 90.8922 73.2313 90.6077 72.9468C90.3232 72.6623 89.9377 72.5019 89.5353 72.5006C89.133 72.4993 88.7465 72.6573 88.4602 72.94L80.8114 80.5887L76.903 76.6796Z" fill="#3F68D1"/>
</svg>
