<svg width="120" height="120" viewBox="0 0 120 120" fill="none" xmlns="http://www.w3.org/2000/svg">
<path d="M101.7 38.5916H87.6667V37.4805C87.6667 35.68 86.9514 33.9532 85.6782 32.68C84.4051 31.4069 82.6783 30.6916 80.8778 30.6916H75C74.7911 26.8546 73.1196 23.2435 70.3295 20.6012C67.5394 17.9588 63.8427 16.4862 60 16.4862C56.1573 16.4862 52.4606 17.9588 49.6705 20.6012C46.8804 23.2435 45.2089 26.8546 45 30.6916H39.1111C37.3106 30.6916 35.5838 31.4069 34.3106 32.68C33.0375 33.9532 32.3222 35.68 32.3222 37.4805V38.5916H18.3C16.0996 38.5946 13.9902 39.47 12.4343 41.0259C10.8783 42.5818 10.0029 44.6912 10 46.8916V95.2138C10.0029 97.4142 10.8783 99.5237 12.4343 101.08C13.9902 102.636 16.0996 103.511 18.3 103.514H101.7C103.9 103.511 106.01 102.636 107.566 101.08C109.122 99.5237 109.997 97.4142 110 95.2138V46.8916C109.997 44.6912 109.122 42.5818 107.566 41.0259C106.01 39.47 103.9 38.5946 101.7 38.5916V38.5916ZM60 24.025C61.4812 24.025 62.9291 24.4642 64.1606 25.2871C65.3921 26.11 66.352 27.2796 66.9188 28.648C67.4856 30.0164 67.634 31.5222 67.345 32.9749C67.056 34.4276 66.3428 35.762 65.2954 36.8093C64.2481 37.8566 62.9137 38.5699 61.461 38.8588C60.0083 39.1478 58.5025 38.9995 57.1341 38.4327C55.7657 37.8659 54.5961 36.906 53.7732 35.6745C52.9503 34.4429 52.5111 32.995 52.5111 31.5139C52.5111 29.5277 53.3001 27.6228 54.7046 26.2184C56.109 24.814 58.0138 24.025 60 24.025V24.025ZM107.222 95.3472C107.219 96.7519 106.66 98.0983 105.667 99.0916C104.673 100.085 103.327 100.644 101.922 100.647H18.0778C16.673 100.644 15.3267 100.085 14.3334 99.0916C13.34 98.0983 12.7807 96.7519 12.7778 95.3472V46.7694C12.7807 45.3647 13.34 44.0183 14.3334 43.025C15.3267 42.0317 16.673 41.4723 18.0778 41.4694H32.2222V43.325C32.2222 45.1343 32.941 46.8696 34.2204 48.149C35.4998 49.4284 37.2351 50.1472 39.0444 50.1472H81C82.8017 50.1354 84.5255 49.4115 85.7953 48.1334C87.0652 46.8552 87.7778 45.1267 87.7778 43.325V41.4694H101.922C103.327 41.4723 104.673 42.0317 105.667 43.025C106.66 44.0183 107.219 45.3647 107.222 46.7694V95.3472Z" fill="#665BA0"/>
<path d="M40.9333 76.3695C42.9314 73.5749 44.0881 70.2669 44.2667 66.8361C44.2667 64.514 43.3442 62.287 41.7022 60.645C40.0602 59.003 37.8332 58.0806 35.5111 58.0806C33.189 58.0806 30.962 59.003 29.32 60.645C27.678 62.287 26.7556 64.514 26.7556 66.8361C26.9348 70.2668 28.0914 73.5746 30.0889 76.3695C27.7575 77.0376 25.7056 78.4439 24.2411 80.3771C22.7766 82.3104 21.9786 84.6664 21.9667 87.0917V89.0139H49.0778V87.0917C49.0645 84.6635 48.2632 82.3053 46.7945 80.3717C45.3257 78.4381 43.2689 77.0336 40.9333 76.3695ZM35.5 61.925C36.8016 61.9279 38.0491 62.4463 38.9694 63.3667C39.8898 64.2871 40.4082 65.5345 40.4111 66.8361C40.4111 70.1695 37.6222 75.8695 35.5 75.8695C33.3778 75.8695 30.5889 70.1917 30.5889 66.8361C30.5845 66.1879 30.7082 65.5451 30.9529 64.9448C31.1976 64.3445 31.5585 63.7984 32.0148 63.338C32.4712 62.8775 33.014 62.5117 33.612 62.2616C34.2101 62.0115 34.8517 61.882 35.5 61.8806V61.925ZM26.0222 85.2583C26.4463 83.6965 27.3722 82.3175 28.6572 81.3337C29.9422 80.3499 31.515 79.8158 33.1333 79.8139H37.8778C39.4942 79.8183 41.0645 80.3534 42.3473 81.337C43.63 82.3207 44.5542 83.6984 44.9778 85.2583H26.0222Z" fill="#665BA0"/>
<path d="M87.6778 80.9917H55.8222C55.42 80.9917 55.0342 81.1515 54.7498 81.4359C54.4653 81.7203 54.3055 82.1061 54.3055 82.5084C54.3055 82.9106 54.4653 83.2964 54.7498 83.5808C55.0342 83.8652 55.42 84.025 55.8222 84.025H87.6778C88.08 84.025 88.4658 83.8652 88.7502 83.5808C89.0346 83.2964 89.1944 82.9106 89.1944 82.5084C89.1944 82.1061 89.0346 81.7203 88.7502 81.4359C88.4658 81.1515 88.08 80.9917 87.6778 80.9917Z" fill="#665BA0"/>
<path d="M96.3889 72.036H55.8222C55.42 72.036 55.0342 72.1958 54.7498 72.4802C54.4653 72.7647 54.3055 73.1504 54.3055 73.5527C54.3055 73.9549 54.4653 74.3407 54.7498 74.6251C55.0342 74.9096 55.42 75.0693 55.8222 75.0693H96.3889C96.7911 75.0693 97.1769 74.9096 97.4613 74.6251C97.7458 74.3407 97.9055 73.9549 97.9055 73.5527C97.9055 73.1504 97.7458 72.7647 97.4613 72.4802C97.1769 72.1958 96.7911 72.036 96.3889 72.036V72.036Z" fill="#665BA0"/>
<path d="M96.3889 63.0806H55.8222C55.42 63.0806 55.0342 63.2404 54.7498 63.5248C54.4653 63.8092 54.3055 64.195 54.3055 64.5972C54.3055 64.9995 54.4653 65.3852 54.7498 65.6697C55.0342 65.9541 55.42 66.1139 55.8222 66.1139H96.3889C96.7911 66.1139 97.1769 65.9541 97.4613 65.6697C97.7458 65.3852 97.9055 64.9995 97.9055 64.5972C97.9055 64.195 97.7458 63.8092 97.4613 63.5248C97.1769 63.2404 96.7911 63.0806 96.3889 63.0806V63.0806Z" fill="#665BA0"/>
</svg>
