<svg width="120" height="120" viewBox="0 0 120 120" fill="none" xmlns="http://www.w3.org/2000/svg">
<path d="M101.667 41.6666H96.6667V45H101.667C102.993 45 104.265 45.5267 105.202 46.4644C106.14 47.4021 106.667 48.6739 106.667 50V96.6666C106.667 97.9927 106.14 99.2645 105.202 100.202C104.265 101.14 102.993 101.667 101.667 101.667H18.3333C17.0073 101.667 15.7355 101.14 14.7978 100.202C13.8601 99.2645 13.3333 97.9927 13.3333 96.6666V50C13.3333 48.6739 13.8601 47.4021 14.7978 46.4644C15.7355 45.5267 17.0073 45 18.3333 45H40V41.6666H18.3333C16.124 41.6693 14.0059 42.5481 12.4437 44.1103C10.8815 45.6726 10.0026 47.7906 10 50V96.6666C10.0026 98.8759 10.8815 100.994 12.4437 102.556C14.0059 104.118 16.124 104.997 18.3333 105H101.667C103.876 104.997 105.994 104.118 107.556 102.556C109.119 100.994 109.997 98.8759 110 96.6666V50C109.997 47.7906 109.119 45.6726 107.556 44.1103C105.994 42.5481 103.876 41.6693 101.667 41.6666Z" fill="#5BA07F"/>
<path d="M38.3333 51.6666H21.6667C21.2246 51.6666 20.8007 51.8422 20.4882 52.1548C20.1756 52.4673 20 52.8913 20 53.3333V70C20 70.442 20.1756 70.8659 20.4882 71.1785C20.8007 71.491 21.2246 71.6666 21.6667 71.6666H38.3333C38.7754 71.6666 39.1993 71.491 39.5118 71.1785C39.8244 70.8659 40 70.442 40 70V53.3333C40 52.8913 39.8244 52.4673 39.5118 52.1548C39.1993 51.8422 38.7754 51.6666 38.3333 51.6666ZM36.6667 58.3333H30V55H36.6667V58.3333ZM26.6667 55V58.3333H23.3333V55H26.6667ZM23.3333 61.6666H26.6667V68.3333H23.3333V61.6666ZM30 68.3333V61.6666H36.6667V68.3333H30Z" fill="#5BA07F"/>
<path d="M84.1666 76.905C82.6743 75.8226 80.9118 75.1739 79.0739 75.0303C77.2359 74.8868 75.3941 75.2542 73.7518 76.0918C72.1096 76.9294 70.7309 78.2047 69.7679 79.7768C68.805 81.3488 68.2954 83.1565 68.2954 85C68.2954 86.8435 68.805 88.6512 69.7679 90.2232C70.7309 91.7953 72.1096 93.0706 73.7518 93.9082C75.3941 94.7458 77.2359 95.1132 79.0739 94.9697C80.9118 94.8261 82.6743 94.1774 84.1666 93.095C85.6589 94.1774 87.4214 94.8261 89.2594 94.9697C91.0973 95.1132 92.9391 94.7458 94.5814 93.9082C96.2236 93.0706 97.6024 91.7953 98.5653 90.2232C99.5282 88.6512 100.038 86.8435 100.038 85C100.038 83.1565 99.5282 81.3488 98.5653 79.7768C97.6024 78.2047 96.2236 76.9294 94.5814 76.0918C92.9391 75.2542 91.0973 74.8868 89.2594 75.0303C87.4214 75.1739 85.6589 75.8226 84.1666 76.905ZM71.6666 85C71.6689 83.6896 72.0566 82.4088 72.7816 81.3171C73.5065 80.2255 74.5366 79.3712 75.7435 78.8608C76.9504 78.3503 78.2809 78.2062 79.5691 78.4464C80.8573 78.6867 82.0464 79.3005 82.9883 80.2117C83.6243 80.8356 84.1295 81.58 84.4744 82.4015C84.8193 83.2229 84.997 84.1049 84.997 84.9958C84.997 85.8868 84.8193 86.7687 84.4744 87.5902C84.1295 88.4117 83.6243 89.1561 82.9883 89.78C82.0472 90.6914 80.8588 91.3059 79.5711 91.5468C78.2834 91.7877 76.9532 91.6445 75.7463 91.1349C74.5394 90.6254 73.5091 89.772 72.7837 88.6811C72.0582 87.5903 71.6698 86.3101 71.6666 85ZM96.6666 85C96.6637 86.1814 96.3476 87.341 95.7506 88.3605C95.1536 89.38 94.297 90.223 93.2682 90.8037C92.2393 91.3843 91.0749 91.6819 89.8935 91.666C88.7122 91.6502 87.5562 91.3214 86.5433 90.7133C86.5517 90.6967 86.5612 90.6805 86.5716 90.665C86.8208 90.297 87.0462 89.9134 87.2466 89.5167C87.2933 89.425 87.3349 89.3317 87.3799 89.2383C87.5563 88.8648 87.7094 88.4808 87.8383 88.0883C87.8516 88.0483 87.8683 88.0117 87.8799 87.9733C88.0106 87.5452 88.1119 87.1086 88.1833 86.6667C88.1999 86.5617 88.2149 86.4567 88.2299 86.3517C88.3677 85.4514 88.3677 84.5353 88.2299 83.635C88.2149 83.53 88.1999 83.4233 88.1816 83.3183C88.1111 82.8804 88.0108 82.4477 87.8816 82.0233C87.8683 81.98 87.8483 81.9367 87.8349 81.8933C87.7076 81.5107 87.5574 81.1362 87.3849 80.7717C87.3366 80.6683 87.2899 80.565 87.2383 80.4633C87.041 80.0741 86.8183 79.6983 86.5716 79.3383C86.5583 79.32 86.5499 79.2983 86.5383 79.28C87.5518 78.6703 88.7089 78.3406 89.8916 78.3243C91.0742 78.3081 92.24 78.606 93.2698 79.1876C94.2997 79.7692 95.1567 80.6137 95.7535 81.6349C96.3503 82.656 96.6654 83.8173 96.6666 85Z" fill="#5BA07F"/>
<path d="M26.6667 83.3334H20V86.6667H26.6667V83.3334Z" fill="#5BA07F"/>
<path d="M36.6667 83.3334H30V86.6667H36.6667V83.3334Z" fill="#5BA07F"/>
<path d="M46.6667 83.3334H40V86.6667H46.6667V83.3334Z" fill="#5BA07F"/>
<path d="M56.6667 83.3334H50V86.6667H56.6667V83.3334Z" fill="#5BA07F"/>
<path d="M33.3333 91.6666H20V95H33.3333V91.6666Z" fill="#5BA07F"/>
<path d="M56.6666 91.6666H36.6666V95H56.6666V91.6666Z" fill="#5BA07F"/>
<path d="M46.6667 61.6667H90C90.8841 61.6667 91.7319 61.3155 92.3571 60.6904C92.9822 60.0652 93.3334 59.2174 93.3334 58.3333V18.3333C93.3334 17.4493 92.9822 16.6014 92.3571 15.9763C91.7319 15.3512 90.8841 15 90 15H46.6667C45.7827 15 44.9348 15.3512 44.3097 15.9763C43.6846 16.6014 43.3334 17.4493 43.3334 18.3333V58.3333C43.3334 59.2174 43.6846 60.0652 44.3097 60.6904C44.9348 61.3155 45.7827 61.6667 46.6667 61.6667ZM46.6667 58.3333V31.6667H60V35C60 35.8841 60.3512 36.7319 60.9763 37.357C61.6015 37.9821 62.4493 38.3333 63.3334 38.3333H73.3334C74.2174 38.3333 75.0653 37.9821 75.6904 37.357C76.3155 36.7319 76.6667 35.8841 76.6667 35V31.6667H90V58.3333H46.6667ZM60 28.3333H46.6667V25H60V28.3333ZM76.6667 25H90V28.3333H76.6667V25ZM90 21.6667H76.6667V18.3333H90V21.6667ZM73.3334 18.3333V35H63.3334V18.3333H73.3334ZM60 18.3333V21.6667H46.6667V18.3333H60Z" fill="#5BA07F"/>
<path d="M86.6667 50H80V53.3333H86.6667V50Z" fill="#5BA07F"/>
<path d="M76.6667 50H73.3334V53.3333H76.6667V50Z" fill="#5BA07F"/>
</svg>
