<svg width="102" height="102" viewBox="0 0 102 102" fill="none" xmlns="http://www.w3.org/2000/svg">
<path d="M86.445 32.8029H74.5167V31.8585C74.5167 30.328 73.9087 28.8603 72.8265 27.7781C71.7443 26.6959 70.2766 26.0879 68.7461 26.0879H63.75C63.5724 22.8264 62.1517 19.757 59.7801 17.511C57.4085 15.265 54.2663 14.0133 51 14.0133C47.7337 14.0133 44.5915 15.265 42.2199 17.511C39.8483 19.757 38.4276 22.8264 38.25 26.0879H33.2444C31.714 26.0879 30.2462 26.6959 29.164 27.7781C28.0819 28.8603 27.4739 30.328 27.4739 31.8585V32.8029H15.555C13.6847 32.8054 11.8916 33.5495 10.5691 34.872C9.24659 36.1946 8.5025 37.9876 8.5 39.8579V80.9318C8.5025 82.8021 9.24659 84.5952 10.5691 85.9177C11.8916 87.2402 13.6847 87.9843 15.555 87.9868H86.445C88.3153 87.9843 90.1083 87.2402 91.4309 85.9177C92.7534 84.5952 93.4975 82.8021 93.5 80.9318V39.8579C93.4975 37.9876 92.7534 36.1946 91.4309 34.872C90.1083 33.5495 88.3153 32.8054 86.445 32.8029ZM51 20.4212C52.259 20.4212 53.4897 20.7946 54.5365 21.494C55.5833 22.1935 56.3992 23.1877 56.881 24.3508C57.3628 25.514 57.4889 26.7939 57.2432 28.0287C56.9976 29.2635 56.3914 30.3977 55.5011 31.2879C54.6109 32.1782 53.4767 32.7844 52.2419 33.03C51.0071 33.2757 49.7272 33.1496 48.564 32.6678C47.4009 32.186 46.4067 31.3701 45.7072 30.3233C45.0078 29.2765 44.6344 28.0458 44.6344 26.7868C44.6344 25.0986 45.3051 23.4794 46.4989 22.2857C47.6926 21.0919 49.3117 20.4212 51 20.4212ZM91.1389 81.0451C91.1364 82.2392 90.661 83.3836 89.8167 84.2279C88.9723 85.0722 87.8279 85.5476 86.6339 85.5501H15.3661C14.1721 85.5476 13.0277 85.0722 12.1834 84.2279C11.339 83.3836 10.8636 82.2392 10.8611 81.0451V39.754C10.8636 38.56 11.339 37.4156 12.1834 36.5713C13.0277 35.727 14.1721 35.2515 15.3661 35.249H27.3889V36.8262C27.3889 38.3642 27.9998 39.8392 29.0873 40.9267C30.1748 42.0142 31.6498 42.6251 33.1878 42.6251H68.85C70.3814 42.6152 71.8467 41.9998 72.926 40.9134C74.0054 39.827 74.6111 38.3577 74.6111 36.8262V35.249H86.6339C87.8279 35.2515 88.9723 35.727 89.8167 36.5713C90.661 37.4156 91.1364 38.56 91.1389 39.754V81.0451Z" fill="#37A88D"/>
<path d="M34.7933 64.9141C36.4917 62.5387 37.4748 59.7269 37.6266 56.8108C37.6266 54.837 36.8425 52.944 35.4469 51.5483C34.0512 50.1526 32.1582 49.3685 30.1844 49.3685C28.2106 49.3685 26.3177 50.1526 24.922 51.5483C23.5263 52.944 22.7422 54.837 22.7422 56.8108C22.8945 59.7268 23.8776 62.5385 25.5755 64.9141C23.5938 65.482 21.8497 66.6773 20.6049 68.3206C19.3601 69.9639 18.6817 71.9665 18.6716 74.028V75.6619H41.7161V74.028C41.7048 71.9641 41.0237 69.9596 39.7753 68.316C38.5268 66.6724 36.7785 65.4786 34.7933 64.9141ZM30.175 52.6363C31.2813 52.6388 32.3417 53.0794 33.124 53.8617C33.9063 54.6441 34.3469 55.7044 34.3494 56.8108C34.3494 59.6441 31.9789 64.4891 30.175 64.4891C28.3711 64.4891 26.0005 59.663 26.0005 56.8108C25.9968 56.2597 26.1019 55.7134 26.3099 55.2031C26.5179 54.6929 26.8247 54.2287 27.2126 53.8373C27.6004 53.4459 28.0618 53.135 28.5702 52.9224C29.0786 52.7098 29.6239 52.5998 30.175 52.5985V52.6363ZM22.1189 72.4696C22.4793 71.1421 23.2663 69.9699 24.3585 69.1337C25.4508 68.2974 26.7877 67.8435 28.1633 67.8419H32.1961C33.5701 67.8456 34.9048 68.3004 35.9951 69.1365C37.0855 69.9726 37.871 71.1437 38.2311 72.4696H22.1189Z" fill="#37A88D"/>
<path d="M74.5261 68.8429H47.4488C47.1069 68.8429 46.779 68.9787 46.5373 69.2205C46.2955 69.4622 46.1597 69.7902 46.1597 70.1321C46.1597 70.474 46.2955 70.8019 46.5373 71.0436C46.779 71.2854 47.1069 71.4212 47.4488 71.4212H74.5261C74.868 71.4212 75.1959 71.2854 75.4376 71.0436C75.6794 70.8019 75.8152 70.474 75.8152 70.1321C75.8152 69.7902 75.6794 69.4622 75.4376 69.2205C75.1959 68.9787 74.868 68.8429 74.5261 68.8429Z" fill="#37A88D"/>
<path d="M81.9305 61.2307H47.4488C47.1069 61.2307 46.779 61.3665 46.5373 61.6083C46.2955 61.8501 46.1597 62.178 46.1597 62.5199C46.1597 62.8618 46.2955 63.1897 46.5373 63.4315C46.779 63.6732 47.1069 63.809 47.4488 63.809H81.9305C82.2724 63.809 82.6003 63.6732 82.8421 63.4315C83.0839 63.1897 83.2197 62.8618 83.2197 62.5199C83.2197 62.178 83.0839 61.8501 82.8421 61.6083C82.6003 61.3665 82.2724 61.2307 81.9305 61.2307Z" fill="#37A88D"/>
<path d="M81.9305 53.6185H47.4488C47.1069 53.6185 46.779 53.7544 46.5373 53.9961C46.2955 54.2379 46.1597 54.5658 46.1597 54.9077C46.1597 55.2496 46.2955 55.5775 46.5373 55.8193C46.779 56.061 47.1069 56.1969 47.4488 56.1969H81.9305C82.2724 56.1969 82.6003 56.061 82.8421 55.8193C83.0839 55.5775 83.2197 55.2496 83.2197 54.9077C83.2197 54.5658 83.0839 54.2379 82.8421 53.9961C82.6003 53.7544 82.2724 53.6185 81.9305 53.6185Z" fill="#37A88D"/>
</svg>
