<svg width="120" height="120" viewBox="0 0 120 120" fill="none" xmlns="http://www.w3.org/2000/svg">
<path d="M87.9574 21.1978C91.9474 14.6513 92.0638 14.0523 85.3124 10.4498C84.54 10.0047 83.6225 9.88399 82.7613 10.1143C81.9 10.3446 81.1652 10.907 80.7181 11.6783L78.413 15.6586C53.3618 4.25992 23.1809 15.658 11.144 40.313C11.025 40.529 10.9536 40.7678 10.9343 41.0137C10.9151 41.2595 10.9485 41.5066 11.0324 41.7384C11.1162 41.9703 11.2485 42.1816 11.4206 42.3583C11.5926 42.5349 11.8003 42.6729 12.0298 42.7629C12.3585 42.9564 12.7434 43.0321 13.1209 42.9777C13.4984 42.9232 13.8461 42.7417 14.1067 42.4632C15.7668 40.6985 17.9741 39.546 20.3711 39.1926C22.768 38.8391 25.214 39.3053 27.3128 40.5157C29.4117 41.726 31.0404 43.6096 31.935 45.8612C32.8296 48.1129 32.9377 50.6006 32.2418 52.9213C32.132 53.2828 32.1473 53.6708 32.2852 54.0225C32.4231 54.3743 32.6756 54.6693 33.0018 54.8598C33.3563 55.2096 33.8317 55.4096 34.3296 55.4186C34.8275 55.4276 35.3097 55.2448 35.6766 54.908C37.2439 53.2407 39.3029 52.1177 41.5534 51.7028C43.8038 51.288 46.1279 51.6029 48.1867 52.6018C50.2456 53.6007 51.9314 55.2312 52.9984 57.2556C54.0654 59.28 54.4577 61.5923 54.1181 63.8553L44.1332 81.1405C43.1135 80.9493 42.0597 81.0786 41.1165 81.5106C40.1733 81.9426 39.387 82.6561 38.8657 83.553L31.7374 95.8997C31.1294 96.9479 30.7352 98.1062 30.5775 99.3076C30.4197 100.509 30.5017 101.73 30.8186 102.899C32.7067 110.716 43.8751 112.168 47.7155 105.124C48.3591 104.307 48.7376 103.313 48.8004 102.275C48.8631 101.237 48.6072 100.205 48.0667 99.3161C47.5262 98.4276 46.7271 97.7255 45.7765 97.3039C44.8258 96.8822 43.769 96.7612 42.7476 96.957L47.5811 88.5856C48.1007 87.6864 48.3277 86.6479 48.2309 85.6139C48.134 84.5799 47.7181 83.6016 47.0406 82.8145L55.9346 67.4184C59.2076 66.1201 67.7438 62.8168 71.4572 66.0894C71.8175 66.3498 72.2663 66.4568 72.7053 66.3869C73.1443 66.3171 73.5378 66.0761 73.7995 65.7168C74.8182 64.289 73.3035 63.1017 72.1041 62.5066C68.011 60.152 61.4036 61.8587 57.5872 63.1952C58.6177 52.0409 45.3991 44.1337 36.0567 50.2826C36.707 40.7732 26.1896 33.0562 17.2942 36.4912C44.3028 -4.07596 106.875 15.7095 105.685 64.4535C105.669 64.8979 105.831 65.3304 106.134 65.6558C106.437 65.9813 106.857 66.173 107.301 66.1888C107.745 66.2046 108.178 66.0432 108.503 65.7402C108.829 65.4371 109.02 65.0172 109.036 64.5727C109.345 56.1692 107.585 47.8185 103.909 40.2551C100.234 32.6917 94.7557 26.1474 87.9574 21.1978ZM44.6755 86.9075L37.5472 99.2551C37.3814 99.5409 37.2738 99.8568 37.2308 100.184C37.1878 100.512 37.2102 100.845 37.2966 101.164C37.432 101.639 37.7035 102.065 38.0776 102.387C38.4517 102.71 38.9121 102.917 39.4021 102.981C39.892 103.046 40.3901 102.965 40.835 102.75C41.2798 102.535 41.652 102.194 41.9056 101.77L42.325 101.043C42.5521 100.667 42.9176 100.395 43.3429 100.286C43.7682 100.177 44.2195 100.238 44.5997 100.458C44.98 100.678 45.2588 101.038 45.3765 101.461C45.4941 101.884 45.4412 102.337 45.2289 102.721C41.7966 110.195 30.7413 104.91 34.6432 97.5769L41.7713 85.2304C41.9981 84.8539 42.3635 84.5814 42.789 84.4716C43.2146 84.3618 43.6662 84.4234 44.0468 84.6432C44.4274 84.863 44.7065 85.2234 44.824 85.6469C44.9416 86.0703 44.8882 86.523 44.6755 86.9075ZM81.4419 17.1236L83.6303 13.3515L87.3566 15.5078L85.1764 19.3044C83.972 18.5104 82.7253 17.7824 81.4419 17.1236V17.1236Z" fill="#474D9B"/>
<path d="M107.605 68.1975C102.083 65.9085 96.1642 64.7304 90.1869 64.7306C84.2095 64.7307 78.2908 65.9091 72.7692 68.1983C72.4637 68.3257 72.2027 68.5407 72.0191 68.8161C71.8355 69.0915 71.7375 69.4151 71.7373 69.7461V96.582C71.7373 96.8517 71.8024 97.1175 71.927 97.3567C72.0516 97.596 72.2321 97.8016 72.4531 97.9562L89.2255 109.697C89.5073 109.894 89.843 110 90.187 110C90.531 110 90.8666 109.894 91.1484 109.697L107.921 97.9562C108.142 97.8016 108.322 97.596 108.447 97.3567C108.572 97.1175 108.637 96.8517 108.637 96.582V69.7461C108.636 69.415 108.538 69.0913 108.355 68.8158C108.171 68.5402 107.91 68.3251 107.605 68.1975ZM105.282 95.709L90.187 106.275L75.0918 95.709V70.8796C84.8094 67.1478 95.5648 67.1481 105.282 70.8804V95.709Z" fill="#474D9B"/>
<path d="M84.6638 84.4178C84.3472 84.1135 83.9239 83.9455 83.4848 83.9499C83.0457 83.9542 82.6258 84.1306 82.3153 84.4411C82.0049 84.7516 81.8285 85.1715 81.8242 85.6106C81.8199 86.0497 81.9879 86.473 82.2922 86.7896L87.7808 92.2791C88.0966 92.5913 88.5227 92.7664 88.9667 92.7664C89.4107 92.7664 89.8368 92.5913 90.1526 92.2791L99.759 82.6726C100.07 82.3574 100.244 81.9319 100.243 81.489C100.241 81.046 100.065 80.6216 99.7516 80.3084C99.4384 79.9951 99.014 79.8186 98.571 79.8171C98.1281 79.8157 97.7025 79.9896 97.3874 80.3009L88.9667 88.7215L84.6638 84.4178Z" fill="#474D9B"/>
</svg>
