<svg width="120" height="120" viewBox="0 0 120 120" fill="none" xmlns="http://www.w3.org/2000/svg">
<path d="M25.221 29.2554H70.7913V40.9265C70.7733 42.1162 71.7277 43.0897 72.9196 43.0897C74.1092 43.0897 75.0692 42.1162 75.0478 40.9265V29.2554H95.7745C98.5949 29.2554 100.745 31.378 100.745 34.033V75.2354C100.745 77.8904 98.5949 80.0187 95.7745 80.0187H75.0478V68.6424C75.0591 67.446 74.0856 66.4725 72.8892 66.4905C71.7176 66.5085 70.7789 67.4685 70.7924 68.6424V80.0198H25.2221C22.4084 80.0198 20.2565 77.8915 20.2565 75.2365V56.7597H40.8628C42.0524 56.7833 43.0259 55.8278 43.0259 54.637C43.0259 53.4474 42.0524 52.4863 40.8628 52.5088H20.2554V34.0342C20.2554 31.378 22.4073 29.2554 25.221 29.2554ZM25.221 25C20.1845 25 16 29.0326 16 34.033V75.2354C16 80.2347 20.1856 84.2673 25.221 84.2673H95.7745C100.815 84.2673 105 80.2347 105 75.2354V34.0342C105 29.0337 100.814 25.0011 95.7745 25.0011H25.221V25Z" fill="#D925BC"/>
<path d="M87.7485 44.2083C87.9421 44.2083 88.1311 44.2218 88.3112 44.2511C89.771 44.4604 91.2543 45.6759 92.1975 47.3743C93.1474 49.0749 93.4062 51.1142 92.9842 52.3511C92.5554 53.5813 91.8452 54.4152 89.1261 54.4017L77.285 54.3319C79.0745 52.0641 80.8505 49.8188 82.631 47.5566C84.7018 44.9298 86.3833 44.2027 87.7485 44.2083ZM58.0991 44.2083C59.4665 44.2027 61.1412 44.9309 63.2166 47.5577C64.9926 49.8199 66.7686 52.0652 68.5581 54.3331L56.7226 54.404C53.9967 54.4175 53.2866 53.5835 52.8645 52.3534C52.4357 51.1165 52.6957 49.0771 53.6445 47.3765C54.5944 45.6771 56.071 44.4616 57.5307 44.2533C57.713 44.2207 57.9055 44.2083 58.0991 44.2083ZM58.1238 39.9653C57.7254 39.9574 57.3214 39.9889 56.9275 40.0475C53.7615 40.5044 51.3598 42.7261 49.9214 45.2989C48.4864 47.8661 47.8775 50.933 48.8443 53.7399C49.8111 56.5424 52.7598 58.6763 56.7451 58.6583L66.3533 58.5997C63.5509 61.1253 61.3235 64.0256 59.7175 67.0644C58.3939 69.5731 62.1575 71.5607 63.4811 69.052C65.4923 65.2411 68.6819 61.6306 72.9204 58.9464C77.1634 61.6317 80.353 65.2423 82.3687 69.052C82.8786 70.1583 84.2156 70.6119 85.295 70.0368C86.3743 69.4662 86.7479 68.1077 86.1211 67.0644C84.5139 64.0268 82.2877 61.1264 79.4853 58.5997L89.1047 58.6583C93.0855 58.6763 96.0398 56.5424 97.0066 53.7399C97.9734 50.933 97.3589 47.8661 95.9228 45.2989C94.4923 42.7261 92.0827 40.5044 88.9167 40.0475C85.7575 39.5826 82.2517 41.1606 79.2906 44.9241C77.1691 47.6208 74.4083 51.1198 72.9249 53.0084C71.437 51.1198 68.6819 47.6208 66.5592 44.9241C63.9695 41.6355 60.9555 40.0126 58.125 39.9709V39.9653H58.1238Z" fill="#D925BC"/>
</svg>
