<svg width="110" height="110" viewBox="0 0 110 110" fill="none" xmlns="http://www.w3.org/2000/svg">
<path d="M98.8069 62.9689L87.7953 48.6731V48.5765C87.6021 48.2868 87.2157 47.997 86.8294 47.9004L69.9256 42.0082C73.0166 38.5309 74.8518 33.991 74.8518 28.9682C74.8518 18.0532 65.9653 9.16663 55.0503 9.16663C44.1353 9.16663 35.2487 18.0532 35.2487 28.9682C35.2487 33.991 37.084 38.5309 40.175 42.0082L23.2712 47.9004C22.8849 47.997 22.5951 48.2868 22.3053 48.5765L11.2937 62.9689C10.9073 63.4518 10.7141 64.2246 10.9073 64.8041C11.1005 65.4803 11.5835 65.9633 12.2596 66.1564L21.8223 69.5372V87.8898C21.8223 88.7592 22.4019 89.5319 23.1746 89.8217L54.2775 100.737C54.4707 100.833 54.7605 100.833 54.9537 100.833C55.1469 100.833 55.4367 100.833 55.6298 100.737L86.7328 89.8217C87.6021 89.5319 88.0851 88.7592 88.0851 87.8898V69.5372L97.6478 66.1564C98.3239 65.9633 98.8069 65.3837 99.0001 64.8041C99.2898 64.128 99.1933 63.4518 98.8069 62.9689ZM39.4022 28.9682C39.4022 20.3714 46.4535 13.3201 55.0503 13.3201C63.6471 13.3201 70.6983 20.3714 70.6983 28.9682C70.6983 37.5649 63.6471 44.6162 55.0503 44.6162C46.4535 44.6162 39.4022 37.6615 39.4022 28.9682ZM16.4131 63.1621L24.7201 52.3437L52.7321 62.1961L47.0331 73.9805L16.4131 63.1621ZM52.9252 95.9071L26.0724 86.441V70.9861L47.516 78.5203C47.7092 78.6169 47.999 78.6169 48.1922 78.6169C48.9649 78.6169 49.7377 78.134 50.0275 77.4578L52.9252 71.3725V95.9071ZM55.0503 58.6222L30.2259 49.9288L43.6523 45.1958C46.8399 47.514 50.8002 48.7697 55.0503 48.7697C59.3004 48.7697 63.1641 47.4174 66.4483 45.1958L79.8747 49.9288L55.0503 58.6222ZM84.0282 86.441L57.0787 95.9071V71.3725L59.9765 77.4578C60.3629 78.2306 61.0391 78.6169 61.8118 78.6169C62.005 78.6169 62.2948 78.6169 62.4879 78.5203L84.0282 70.9861V86.441ZM62.9709 73.9805L57.2719 62.1961L85.2839 52.3437L93.6875 63.1621L62.9709 73.9805Z" fill="#FF3541"/>
<path d="M51.9593 34.7637C52.3457 35.1501 52.9253 35.4399 53.5048 35.4399C54.0844 35.4399 54.6639 35.2467 55.0503 34.7637L63.2607 26.167C64.0335 25.2976 64.0335 24.0419 63.1641 23.2692C62.2948 22.4964 61.0391 22.4964 60.2663 23.3658L53.6014 30.4171L50.0275 26.7465C49.2547 25.8772 47.9024 25.8772 47.1297 26.6499C46.2604 27.4227 46.2604 28.775 47.0331 29.5477L51.9593 34.7637Z" fill="#FF3541"/>
</svg>
