<svg width="120" height="120" viewBox="0 0 120 120" fill="none" xmlns="http://www.w3.org/2000/svg">
<path d="M23.4136 25.6986V29.9234H68.5763V55.7155H100.526L105.807 62.4646V80.4937H97.6743C97.1938 77.7784 95.7723 75.3191 93.6594 73.5473C91.5465 71.7755 88.8771 70.8043 86.1196 70.8043C83.3621 70.8043 80.6927 71.7755 78.5798 73.5473C76.4669 75.3191 75.0454 77.7784 74.5649 80.4937H53.6629C53.1824 77.7784 51.7609 75.3191 49.648 73.5473C47.5351 71.7755 44.8657 70.8043 42.1082 70.8043C39.3507 70.8043 36.6813 71.7755 34.5684 73.5473C32.4555 75.3191 31.034 77.7784 30.5535 80.4937H23.4136V84.7185H30.5218C31.0261 87.4115 32.4561 89.8435 34.5643 91.5935C36.6724 93.3436 39.3261 94.3015 42.0659 94.3015C44.8058 94.3015 47.4595 93.3436 49.5676 91.5935C51.6758 89.8435 53.1058 87.4115 53.6101 84.7185H74.5438C75.0481 87.4115 76.4781 89.8435 78.5862 91.5935C80.6944 93.3436 83.348 94.3015 86.0879 94.3015C88.8278 94.3015 91.4814 93.3436 93.5896 91.5935C95.6978 89.8435 97.1277 87.4115 97.6321 84.7185H110V61.0598L103.431 52.6103L93.2172 31.0957H72.801V25.7092L23.4136 25.6986ZM42.0448 90.0839C40.5549 90.0839 39.0986 89.642 37.8599 88.814C36.6213 87.9861 35.6561 86.8093 35.0864 85.4327C34.5168 84.056 34.3682 82.5413 34.6597 81.0802C34.9511 79.6191 35.6694 78.2773 36.7236 77.2246C37.7778 76.1718 39.1207 75.4554 40.5821 75.1661C42.0436 74.8767 43.5581 75.0273 44.934 75.5989C46.3098 76.1705 47.4852 77.1374 48.3114 78.3772C49.1376 79.617 49.5775 81.074 49.5754 82.5638C49.5726 84.5593 48.778 86.472 47.366 87.882C45.9541 89.292 44.0402 90.0839 42.0448 90.0839ZM86.0773 90.0839C84.5875 90.0839 83.1311 89.642 81.8925 88.814C80.6538 87.9861 79.6886 86.8093 79.1189 85.4327C78.5493 84.056 78.4008 82.5413 78.6922 81.0802C78.9836 79.6191 79.7019 78.2773 80.7561 77.2246C81.8104 76.1718 83.1532 75.4554 84.6147 75.1661C86.0762 74.8767 87.5907 75.0273 88.9665 75.5989C90.3424 76.1705 91.5178 77.1374 92.344 78.3772C93.1702 79.617 93.6101 81.074 93.608 82.5638C93.6052 84.5574 92.812 86.4686 91.4023 87.8782C89.9926 89.2879 88.0815 90.0811 86.0879 90.0839H86.0773ZM90.545 35.3205L98.2552 51.5013H72.801V35.3205H90.545Z" fill="#23BCDE"/>
<path d="M32.18 64.2284H15.2809V68.4532H32.18V64.2284Z" fill="#23BCDE"/>
<path d="M39.5733 51.5541H10V55.7788H39.5733V51.5541Z" fill="#23BCDE"/>
<path d="M44.8542 38.8799H15.2809V43.1046H44.8542V38.8799Z" fill="#23BCDE"/>
</svg>
