<svg width="120" height="120" viewBox="0 0 120 120" fill="none" xmlns="http://www.w3.org/2000/svg">
<path d="M109.685 79.0256L96.5023 60.6926C96.3481 60.4779 96.145 60.303 95.9098 60.1825C95.6746 60.0619 95.4141 59.9991 95.1498 59.9992H79.4865L80.1497 55.2393C80.2603 54.588 80.2259 53.9203 80.0487 53.2838C79.8716 52.6474 79.5561 52.0578 79.1249 51.5573C78.6937 51.0568 78.1573 50.6577 77.554 50.3884C76.9507 50.1191 76.2955 49.9863 75.6349 49.9994H63.1921C67.4361 42.2329 71.6847 33.2363 71.6847 28.3331C71.6792 23.4726 69.7459 18.8127 66.309 15.3757C62.8721 11.9388 58.2122 10.0055 53.3516 10.0001C50.58 9.99255 47.8435 10.6197 45.3518 11.8334C44.9542 12.0268 44.6498 12.3701 44.5054 12.788C44.361 13.2059 44.3886 13.6639 44.5819 14.0615C44.7753 14.4591 45.1187 14.7635 45.5366 14.9079C45.9544 15.0522 46.4125 15.0247 46.8101 14.8313C48.8476 13.839 51.0853 13.3265 53.3516 13.3333C57.3285 13.3378 61.1411 14.9195 63.9532 17.7315C66.7652 20.5436 68.347 24.3563 68.3514 28.3331C68.3514 34.833 58.555 51.8784 53.3516 60.2197C48.1484 51.88 38.3519 34.8353 38.3519 28.3331C38.3455 26.066 38.8582 23.8276 39.8507 21.7894C39.951 21.592 40.0111 21.3766 40.0272 21.1558C40.0434 20.935 40.0154 20.7131 39.9449 20.5032C39.8744 20.2933 39.7628 20.0996 39.6165 19.9333C39.4703 19.7671 39.2924 19.6316 39.0933 19.5349C38.8941 19.4381 38.6776 19.382 38.4565 19.3699C38.2355 19.3577 38.0142 19.3897 37.8056 19.4641C37.597 19.5384 37.4054 19.6535 37.2418 19.8028C37.0782 19.952 36.946 20.1323 36.8529 20.3332C35.6387 22.8248 35.0112 25.5614 35.0186 28.3331C35.0186 33.2363 39.2674 42.2329 43.5113 49.9994H37.3184C35.9943 50.0267 34.7221 50.5199 33.7255 51.3922C32.729 52.2645 32.0717 53.4601 31.8693 54.769L26.2819 94.774C26.186 95.4297 26.2313 96.0984 26.4148 96.7352C26.5984 97.372 26.916 97.9622 27.3462 98.4663C27.777 98.9565 28.3091 99.3474 28.9057 99.6119C29.5022 99.8765 30.1491 100.008 30.8017 99.9986H33.8781C33.7062 101.247 33.8006 102.518 34.1552 103.727C34.5097 104.936 35.1162 106.057 35.9349 107.015C36.7811 107.974 37.8259 108.738 38.9967 109.253C40.1676 109.768 41.4365 110.023 42.7155 109.998C45.4192 109.92 48.0111 108.902 50.0451 107.119C52.0791 105.335 53.4279 102.899 53.8595 100.229C53.8703 100.151 53.8711 100.076 53.8803 99.9986H78.8612C78.6892 101.247 78.7836 102.518 79.1381 103.727C79.4926 104.936 80.0992 106.057 80.918 107.015C81.7642 107.974 82.8089 108.738 83.9797 109.253C85.1506 109.768 86.4195 110.023 87.6984 109.998C90.4022 109.92 92.9941 108.902 95.0281 107.119C97.0621 105.335 98.4109 102.899 98.8425 100.229C98.8532 100.151 98.8542 100.076 98.8632 99.9986H102.433C103.759 99.9777 105.035 99.487 106.033 98.6137C107.031 97.7404 107.686 96.5413 107.883 95.2298L109.983 80.2301C110.043 79.8052 109.936 79.3736 109.685 79.0256V79.0256ZM29.856 96.2738C29.7384 96.1295 29.6532 95.9616 29.6063 95.7814C29.5594 95.6013 29.5519 95.4131 29.5842 95.2298L31.2508 83.3322H36.6861C37.1281 83.3322 37.552 83.1566 37.8646 82.844C38.1771 82.5315 38.3527 82.1076 38.3527 81.6655C38.3527 81.2235 38.1771 80.7996 37.8646 80.487C37.552 80.1745 37.1281 79.9989 36.6861 79.9989H31.7175L35.1674 55.2393C35.2608 54.7266 35.5235 54.2601 35.9135 53.9144C36.3035 53.5687 36.7982 53.3639 37.3184 53.3327H45.3713C48.724 59.2204 51.6662 63.7945 51.952 64.2367C52.1031 64.4706 52.3104 64.6629 52.5549 64.7961C52.7995 64.9292 53.0735 64.999 53.352 64.999C53.6304 64.999 53.9045 64.9292 54.149 64.7961C54.3936 64.6629 54.6009 64.4706 54.7519 64.2367C55.0378 63.7945 57.9799 59.2201 61.3327 53.3327H75.6354C75.8146 53.3241 75.9935 53.355 76.1594 53.4232C76.3253 53.4914 76.4742 53.5952 76.5956 53.7273C76.711 53.872 76.7937 54.0399 76.8378 54.2196C76.882 54.3993 76.8866 54.5865 76.8512 54.7682L75.9258 61.4097L75.9169 61.4364L73.3258 79.9989H48.3517C47.9097 79.9989 47.4858 80.1745 47.1732 80.487C46.8607 80.7996 46.6851 81.2235 46.6851 81.6655C46.6851 82.1076 46.8607 82.5315 47.1732 82.844C47.4858 83.1566 47.9097 83.3322 48.3517 83.3322H72.8605L71.0415 96.3661L71.0002 96.6653H53.6983C53.382 95.3036 52.7385 94.0397 51.8235 92.9829C50.9774 92.0234 49.9326 91.2595 48.7618 90.7442C47.5909 90.2289 46.3219 89.9746 45.0429 89.9987C42.8936 90.0604 40.8032 90.7159 39.0035 91.8925C37.2037 93.0692 35.7649 94.7211 34.8463 96.6653H30.8017C30.625 96.6729 30.4489 96.6419 30.2855 96.5742C30.1222 96.5066 29.9756 96.4041 29.856 96.2738V96.2738ZM50.5588 99.7682C50.2573 101.65 49.3092 103.369 47.8777 104.627C46.4462 105.886 44.6208 106.607 42.7155 106.665C41.9136 106.686 41.1166 106.533 40.3799 106.215C39.6432 105.898 38.9843 105.424 38.4489 104.827C37.9199 104.197 37.5342 103.459 37.3184 102.665C37.1026 101.871 37.0618 101.04 37.1989 100.229C37.5005 98.3466 38.4486 96.6282 39.8803 95.3694C41.3119 94.1107 43.1375 93.3902 45.0429 93.332C45.8449 93.3108 46.6418 93.4643 47.3785 93.7817C48.1152 94.0991 48.7741 94.5729 49.3095 95.1703C49.8383 95.8005 50.2239 96.5381 50.4397 97.3319C50.6554 98.1258 50.696 98.9571 50.5588 99.7682ZM95.5414 99.7682C95.2399 101.65 94.2919 103.369 92.8605 104.627C91.429 105.886 89.6037 106.607 87.6984 106.665C86.8967 106.686 86.1001 106.533 85.3636 106.215C84.6272 105.898 83.9685 105.424 83.4333 104.827C82.9043 104.197 82.5185 103.459 82.3027 102.665C82.0869 101.871 82.0462 101.04 82.1833 100.229C82.4843 98.3466 83.4321 96.6281 84.8635 95.3692C86.295 94.1104 88.1205 93.39 90.0259 93.332C90.8278 93.3111 91.6247 93.4647 92.3614 93.7823C93.0982 94.0999 93.757 94.5737 94.2925 95.1711C94.8213 95.8011 95.207 96.5385 95.4227 97.3323C95.6384 98.1261 95.679 98.9572 95.5418 99.7682H95.5414ZM104.581 94.7732C104.489 95.2848 104.227 95.7503 103.837 96.0939C103.447 96.4374 102.952 96.6388 102.433 96.6653H98.6812C98.365 95.3036 97.7215 94.0396 96.8064 92.9829C95.9603 92.0234 94.9156 91.2595 93.7447 90.7442C92.5738 90.2289 91.3049 89.9745 90.0259 89.9987C87.8764 90.0602 85.7859 90.7156 83.9861 91.8923C82.1862 93.069 80.7473 94.721 79.8287 96.6653H74.3658L79.022 63.3325H94.295L106.59 80.4294L104.581 94.7732Z" fill="#800757"/>
<path d="M41.6849 83.3321H43.3516C43.7936 83.3321 44.2175 83.1565 44.5301 82.8439C44.8426 82.5314 45.0182 82.1074 45.0182 81.6654C45.0182 81.2234 44.8426 80.7995 44.5301 80.4869C44.2175 80.1744 43.7936 79.9988 43.3516 79.9988H41.6849C41.2429 79.9988 40.819 80.1744 40.5065 80.4869C40.1939 80.7995 40.0183 81.2234 40.0183 81.6654C40.0183 82.1074 40.1939 82.5314 40.5065 82.8439C40.819 83.1565 41.2429 83.3321 41.6849 83.3321Z" fill="#800757"/>
<path d="M91.6208 68.5625C91.6552 68.3439 91.6458 68.1206 91.593 67.9057C91.5402 67.6908 91.4451 67.4885 91.3133 67.3107C91.1814 67.133 91.0155 66.9832 90.8252 66.8702C90.6349 66.7572 90.424 66.6833 90.2048 66.6527C89.9856 66.6221 89.7625 66.6355 89.5486 66.6921C89.3346 66.7486 89.134 66.8472 88.9586 66.9821C88.7831 67.117 88.6363 67.2855 88.5267 67.4778C88.417 67.67 88.3468 67.8822 88.32 68.1019L86.6907 79.7684C86.6576 80.0044 86.6755 80.2448 86.7433 80.4734C86.8111 80.7019 86.9271 80.9132 87.0836 81.0931C87.24 81.2729 87.4333 81.417 87.6502 81.5158C87.8672 81.6145 88.1028 81.6655 88.3412 81.6653H100.003C100.445 81.6653 100.869 81.4897 101.181 81.1772C101.494 80.8646 101.669 80.4407 101.669 79.9987C101.669 79.5567 101.494 79.1328 101.181 78.8202C100.869 78.5076 100.445 78.3321 100.003 78.3321H90.2568L91.6208 68.5625Z" fill="#800757"/>
<path d="M23.5263 56.6659H26.858C27.3001 56.6659 27.724 56.4903 28.0365 56.1778C28.3491 55.8652 28.5247 55.4413 28.5247 54.9993C28.5247 54.5573 28.3491 54.1333 28.0365 53.8208C27.724 53.5082 27.3001 53.3326 26.858 53.3326H23.5263C23.0842 53.3326 22.6603 53.5082 22.3478 53.8208C22.0352 54.1333 21.8596 54.5573 21.8596 54.9993C21.8596 55.4413 22.0352 55.8652 22.3478 56.1778C22.6603 56.4903 23.0842 56.6659 23.5263 56.6659V56.6659Z" fill="#800757"/>
<path d="M17.5968 63.3324H25.9268C26.3689 63.3324 26.7928 63.1568 27.1053 62.8443C27.4179 62.5317 27.5935 62.1078 27.5935 61.6658C27.5935 61.2238 27.4179 60.7998 27.1053 60.4873C26.7928 60.1747 26.3689 59.9991 25.9268 59.9991H17.5968C17.1548 59.9991 16.7309 60.1747 16.4183 60.4873C16.1058 60.7998 15.9302 61.2238 15.9302 61.6658C15.9302 62.1078 16.1058 62.5317 16.4183 62.8443C16.7309 63.1568 17.1548 63.3324 17.5968 63.3324Z" fill="#800757"/>
<path d="M24.9959 66.6658H11.6676C11.2256 66.6658 10.8017 66.8414 10.4891 67.1539C10.1766 67.4665 10.001 67.8904 10.001 68.3324C10.001 68.7744 10.1766 69.1983 10.4891 69.5109C10.8017 69.8235 11.2256 69.999 11.6676 69.999H24.9959C25.4379 69.999 25.8618 69.8235 26.1744 69.5109C26.4869 69.1983 26.6625 68.7744 26.6625 68.3324C26.6625 67.8904 26.4869 67.4665 26.1744 67.1539C25.8618 66.8414 25.4379 66.6658 24.9959 66.6658Z" fill="#800757"/>
<path d="M41.4503 18.3331C41.6736 18.3335 41.8946 18.2888 42.1002 18.2016C42.3058 18.1145 42.4916 17.9868 42.6466 17.8261L42.8516 17.6217C43.008 17.4685 43.1326 17.286 43.2184 17.0846C43.3043 16.8833 43.3496 16.667 43.3518 16.4481C43.354 16.2292 43.3131 16.012 43.2314 15.8089C43.1497 15.6059 43.0288 15.4209 42.8755 15.2645C42.7223 15.1082 42.5398 14.9835 42.3385 14.8977C42.1371 14.8119 41.9208 14.7666 41.7019 14.7644C41.483 14.7621 41.2658 14.8031 41.0628 14.8848C40.8597 14.9665 40.6747 15.0874 40.5183 15.2406L40.2547 15.5073C40.0267 15.7422 39.8731 16.0391 39.8129 16.3608C39.7526 16.6826 39.7885 17.0149 39.9161 17.3164C40.0437 17.6178 40.2572 17.875 40.5301 18.0558C40.8029 18.2367 41.123 18.3331 41.4503 18.3331V18.3331Z" fill="#800757"/>
<path d="M61.6847 26.6665C61.6847 25.0183 61.196 23.4072 60.2803 22.0368C59.3646 20.6664 58.0632 19.5983 56.5405 18.9676C55.0178 18.3369 53.3423 18.1718 51.7258 18.4934C50.1093 18.8149 48.6245 19.6086 47.4591 20.774C46.2936 21.9394 45.5 23.4242 45.1784 25.0407C44.8569 26.6572 45.0219 28.3327 45.6526 29.8554C46.2834 31.3781 47.3514 32.6796 48.7218 33.5952C50.0922 34.5109 51.7034 34.9996 53.3515 34.9996C55.5608 34.997 57.6789 34.1182 59.2411 32.556C60.8033 30.9938 61.6821 28.8758 61.6847 26.6665V26.6665ZM48.3516 26.6665C48.3516 25.6776 48.6448 24.7109 49.1942 23.8886C49.7436 23.0664 50.5245 22.4256 51.4381 22.0471C52.3517 21.6687 53.3571 21.5697 54.3269 21.7626C55.2968 21.9555 56.1877 22.4317 56.887 23.131C57.5862 23.8302 58.0624 24.7211 58.2554 25.691C58.4483 26.6609 58.3493 27.6662 57.9708 28.5798C57.5924 29.4935 56.9515 30.2743 56.1293 30.8237C55.3071 31.3731 54.3404 31.6664 53.3515 31.6664C52.0259 31.6649 50.755 31.1377 49.8176 30.2003C48.8803 29.263 48.353 27.9921 48.3516 26.6665V26.6665Z" fill="#800757"/>
</svg>
