<svg width="120" height="120" viewBox="0 0 120 120" fill="none" xmlns="http://www.w3.org/2000/svg">
<path d="M62.9091 76.5431V81.049H54.722C55.8633 82.4203 56.7639 83.9976 57.3652 85.7156H81.3788C82.6674 85.7156 83.7121 84.671 83.7121 83.3823V52.3256C83.7121 51.037 82.6674 49.9923 81.3788 49.9923H50.4407C49.1521 49.9923 48.1074 51.037 48.1074 52.3256V76.4498C49.8247 77.0511 51.4027 77.9538 52.774 79.0984V54.6589H62.9091V59.1648H68.909V54.6589H79.0448V81.049H68.909V76.5431H62.9091Z" fill="#CAA31B"/>
<path d="M96.7859 90.7763C96.7859 92.065 97.8305 93.1096 99.1192 93.1096C100.408 93.1096 101.452 92.065 101.452 90.7763V39.2913L96.7859 37.776V90.7763Z" fill="#CAA31B"/>
<path d="M18.5481 89.6097C18.5481 91.035 19.8274 92.1623 21.3 91.9063C22.438 91.7083 23.2147 90.6323 23.2147 89.477V37.776L18.5481 39.2913V89.6097Z" fill="#CAA31B"/>
<path d="M107.695 31.8554L61.0293 16.703C60.36 16.4857 59.64 16.4857 58.9707 16.703L12.3049 31.8554C10.5536 32.4247 9.59564 34.3047 10.1636 36.0553C10.733 37.806 12.6129 38.7626 14.3635 38.1966L60 23.3789L105.636 38.1973C105.978 38.3079 106.325 38.3606 106.666 38.3606C108.072 38.3606 109.378 37.4646 109.836 36.056C110.404 34.3047 109.446 32.4247 107.695 31.8554Z" fill="#CAA31B"/>
<path d="M85.5234 88.3663H55.6566C54.7 83.2024 50.6367 79.1265 45.4875 78.1645V46.9338C45.4875 42.5679 41.9456 39.0166 37.5917 39.0166H29.1685C27.8799 39.0166 26.8352 40.0612 26.8352 41.3499C26.8352 42.6385 27.8799 43.6832 29.1685 43.6832H37.5917C39.3723 43.6832 40.8209 45.1418 40.8209 46.9338V78.1645C34.9164 79.2678 30.4285 84.4644 30.4285 90.6996C30.4285 97.7355 36.137 103.46 43.1542 103.46C49.3754 103.46 54.5593 98.9568 55.6566 93.0329H85.5241C86.8127 93.0329 87.8574 91.9882 87.8574 90.6996C87.8574 89.411 86.812 88.3663 85.5234 88.3663ZM43.1536 96.1268C40.1803 96.1268 37.761 93.6922 37.761 90.6996C37.761 87.707 40.1803 85.2724 43.1536 85.2724C46.1268 85.2724 48.5461 87.707 48.5461 90.6996C48.5461 93.6922 46.1268 96.1268 43.1536 96.1268Z" fill="#CAA31B"/>
</svg>
