<svg width="120" height="120" viewBox="0 0 120 120" fill="none" xmlns="http://www.w3.org/2000/svg">
<path d="M16.8953 88.7126C16.8953 91.0762 18.8182 93 21.1827 93H32.5685H88.0688C90.4324 93 92.3562 91.0772 92.3562 88.7126V14.2874C92.3543 11.9228 90.4315 10 88.0678 10H32.5676H21.1818C18.8182 10 16.8944 11.9228 16.8944 14.2874V23.7457H12.6817C11.7392 23.7457 10.9756 24.5093 10.9756 25.4518C10.9756 26.3943 11.7392 27.1579 12.6817 27.1579H16.8953V41.1112H12.6817C11.7392 41.1112 10.9756 41.8748 10.9756 42.8173C10.9756 43.7598 11.7392 44.5234 12.6817 44.5234H16.8953V58.4766H12.6817C11.7392 58.4766 10.9756 59.2402 10.9756 60.1827C10.9756 61.1252 11.7392 61.8888 12.6817 61.8888H16.8953V75.8421H12.6817C11.7392 75.8421 10.9756 76.6057 10.9756 77.5482C10.9756 78.4907 11.7392 79.2543 12.6817 79.2543H16.8953V88.7126V88.7126ZM34.2737 13.4122H88.0678C88.5502 13.4122 88.9421 13.8042 88.9421 14.2865V88.7126C88.9421 89.1949 88.5502 89.5869 88.0678 89.5869H34.2737V13.4122ZM20.3076 79.2543H24.5221C25.4646 79.2543 26.2282 78.4907 26.2282 77.5482C26.2282 76.6057 25.4646 75.8421 24.5221 75.8421H20.3076V61.8888H24.5221C25.4646 61.8888 26.2282 61.1252 26.2282 60.1827C26.2282 59.2402 25.4646 58.4766 24.5221 58.4766H20.3076V44.5234H24.5221C25.4646 44.5234 26.2282 43.7598 26.2282 42.8173C26.2282 41.8748 25.4646 41.1112 24.5221 41.1112H20.3076V27.1579H24.5221C25.4646 27.1579 26.2282 26.3943 26.2282 25.4518C26.2282 24.5093 25.4646 23.7457 24.5221 23.7457H20.3076V14.2874C20.3076 13.8051 20.6995 13.4131 21.1818 13.4131H30.8615V89.5887H21.1818C20.6995 89.5887 20.3076 89.1968 20.3076 88.7144V79.2543V79.2543Z" fill="#1A40C7"/>
<path d="M60.942 28.7966C48.4229 28.7966 38.2388 38.9807 38.2388 51.4999C38.2388 64.0191 48.4238 74.2032 60.942 74.2032C73.4603 74.2032 83.6453 64.0181 83.6453 51.4999C83.6453 38.9817 73.4612 28.7966 60.942 28.7966ZM60.942 70.7909C56.4812 70.7909 52.381 69.2545 49.1099 66.7037C50.5486 63.38 53.8658 61.138 57.54 61.138H64.2805C67.9721 61.138 71.3014 63.392 72.7382 66.7313C69.4726 69.2656 65.3862 70.7909 60.942 70.7909ZM54.8286 48.9905C54.8286 45.6198 57.5713 42.8771 60.942 42.8771C64.3128 42.8771 67.0545 45.6198 67.0545 48.9905C67.0545 52.3613 64.3118 55.103 60.942 55.103C57.5713 55.103 54.8286 52.3613 54.8286 48.9905ZM75.3388 64.2957C73.2196 60.4482 69.1775 57.8927 64.6955 57.7424C68.0865 56.2825 70.4667 52.9109 70.4667 48.9905C70.4667 43.7376 66.1941 39.4649 60.9411 39.4649C55.6881 39.4649 51.4155 43.7385 51.4155 48.9905C51.4155 52.9081 53.7939 56.2789 57.1821 57.7397C52.6983 57.8688 48.6442 60.4159 46.5129 64.2616C43.4973 60.8568 41.6491 56.3951 41.6491 51.4999C41.6491 40.863 50.3033 32.2089 60.9402 32.2089C71.5771 32.2089 80.2331 40.8621 80.2331 51.4999C80.2331 56.4117 78.373 60.8863 75.3388 64.2957Z" fill="#1A40C7"/>
</svg>
