<svg width="120" height="120" viewBox="0 0 120 120" fill="none" xmlns="http://www.w3.org/2000/svg">
<path d="M100.439 10H29.6715C29.419 9.99993 29.1689 10.0496 28.9355 10.1463C28.7022 10.2429 28.4902 10.3845 28.3116 10.5631C28.133 10.7417 27.9913 10.9537 27.8947 11.1871C27.7981 11.4204 27.7484 11.6705 27.7485 11.9231V83.6685C27.7601 87.9507 26.9224 92.1928 25.2837 96.1491C23.6449 100.105 21.2378 103.697 18.2016 106.717C17.9327 106.986 17.7495 107.329 17.6753 107.702C17.6011 108.075 17.6391 108.462 17.7847 108.813C17.9302 109.164 18.1767 109.465 18.4929 109.676C18.8092 109.887 19.181 110 19.5613 110H90.3292C90.8392 110 91.3283 109.797 91.6889 109.437C95.0833 106.061 97.7744 102.045 99.6064 97.6216C101.438 93.1985 102.375 88.4559 102.362 83.6685V11.9231C102.362 11.6705 102.312 11.4204 102.215 11.1871C102.119 10.9537 101.977 10.7417 101.799 10.5631C101.62 10.3845 101.408 10.2429 101.175 10.1462C100.941 10.0496 100.691 9.99993 100.439 10ZM98.5154 83.6685C98.5387 92.0451 95.3143 100.105 89.5198 106.154H23.8375C28.8846 99.7478 31.6182 91.8239 31.5947 83.6685V13.8462H98.5154V83.6685Z" fill="#DC893C"/>
<path d="M42.9979 38.0687H87.1122C87.6223 38.0687 88.1114 37.8661 88.4721 37.5054C88.8327 37.1448 89.0353 36.6556 89.0353 36.1456C89.0353 35.6356 88.8327 35.1464 88.4721 34.7858C88.1114 34.4251 87.6223 34.2225 87.1122 34.2225H42.9979C42.4879 34.2225 41.9987 34.4251 41.6381 34.7858C41.2774 35.1464 41.0748 35.6356 41.0748 36.1456C41.0748 36.6556 41.2774 37.1448 41.6381 37.5054C41.9987 37.8661 42.4879 38.0687 42.9979 38.0687Z" fill="#DC893C"/>
<path d="M42.9979 51.0982H87.1122C87.6223 51.0982 88.1114 50.8956 88.4721 50.535C88.8327 50.1743 89.0353 49.6852 89.0353 49.1752C89.0353 48.6651 88.8327 48.176 88.4721 47.8153C88.1114 47.4547 87.6223 47.2521 87.1122 47.2521H42.9979C42.4879 47.2521 41.9987 47.4547 41.6381 47.8153C41.2774 48.176 41.0748 48.6651 41.0748 49.1752C41.0748 49.6852 41.2774 50.1743 41.6381 50.535C41.9987 50.8956 42.4879 51.0982 42.9979 51.0982Z" fill="#DC893C"/>
<path d="M42.9979 64.1279H87.1122C87.6223 64.1279 88.1114 63.9253 88.4721 63.5646C88.8327 63.204 89.0353 62.7148 89.0353 62.2048C89.0353 61.6948 88.8327 61.2056 88.4721 60.845C88.1114 60.4843 87.6223 60.2817 87.1122 60.2817H42.9979C42.4879 60.2817 41.9987 60.4843 41.6381 60.845C41.2774 61.2056 41.0748 61.6948 41.0748 62.2048C41.0748 62.7148 41.2774 63.204 41.6381 63.5646C41.9987 63.9253 42.4879 64.1279 42.9979 64.1279Z" fill="#DC893C"/>
<path d="M42.9979 77.1574H87.1122C87.6223 77.1574 88.1114 76.9548 88.4721 76.5942C88.8327 76.2335 89.0353 75.7444 89.0353 75.2344C89.0353 74.7243 88.8327 74.2352 88.4721 73.8745C88.1114 73.5139 87.6223 73.3113 87.1122 73.3113H42.9979C42.4879 73.3113 41.9987 73.5139 41.6381 73.8745C41.2774 74.2352 41.0748 74.7243 41.0748 75.2344C41.0748 75.7444 41.2774 76.2335 41.6381 76.5942C41.9987 76.9548 42.4879 77.1574 42.9979 77.1574Z" fill="#DC893C"/>
</svg>
