<svg width="120" height="120" viewBox="0 0 120 120" fill="none" xmlns="http://www.w3.org/2000/svg">
<path d="M44.8405 15.3203C44.5199 15.3615 44.2129 15.4752 43.9428 15.6528L10.9641 36.9294C10.6661 37.1241 10.4217 37.3904 10.2532 37.7041C10.0848 38.0177 9.99774 38.3686 10 38.7246V81.2778C10.0001 81.842 10.2243 82.3832 10.6233 82.7822C11.0223 83.1812 11.5634 83.4054 12.1277 83.4054H49.3617C49.6437 83.4094 49.9236 83.3573 50.1852 83.2522C50.4469 83.147 50.685 82.991 50.8858 82.793C51.0866 82.595 51.246 82.3591 51.3548 82.099C51.4636 81.8389 51.5197 81.5597 51.5197 81.2778C51.5197 80.9958 51.4636 80.7166 51.3548 80.4565C51.246 80.1964 51.0866 79.9605 50.8858 79.7625C50.685 79.5646 50.4469 79.4085 50.1852 79.3033C49.9236 79.1982 49.6437 79.1461 49.3617 79.1501H14.2554V42.9799L43.9761 61.7964C44.3148 62.0088 44.7066 62.1214 45.1064 62.1214C45.5062 62.1214 45.898 62.0088 46.2367 61.7964L75.9575 42.9799V61.0982L59.4349 65.553C58.9842 65.6772 58.5869 65.9464 58.3045 66.319C58.0221 66.6915 57.8702 67.1467 57.8724 67.6142V84.2698C57.8702 84.7373 58.0221 85.1925 58.3045 85.565C58.5869 85.9376 58.9842 86.2067 59.4349 86.3309L65.3192 87.9267V102.554C65.3192 103.119 65.5434 103.66 65.9424 104.059C66.3414 104.458 66.8826 104.682 67.4468 104.682H74.8936C75.3745 104.679 75.84 104.512 76.2143 104.211C76.5886 103.909 76.8496 103.489 76.9548 103.02L79.5479 91.7498L95.6051 96.0716C95.919 96.1581 96.2486 96.1714 96.5685 96.1104C96.8884 96.0494 97.1901 95.9158 97.4502 95.7199C97.7103 95.524 97.9221 95.271 98.069 94.9804C98.216 94.6898 98.2943 94.3693 98.2979 94.0437V84.4692H101.423C106.131 84.4692 110 80.6509 110 75.9586C110 71.2663 106.131 67.448 101.423 67.448H98.2979V57.8735C98.3002 57.5703 98.2377 57.27 98.1145 56.9929C97.9914 56.7157 97.8104 56.4681 97.5837 56.2667C97.3571 56.0652 97.09 55.9145 96.8003 55.8247C96.5107 55.7348 96.2051 55.708 95.9043 55.7458C95.8031 55.7608 95.7031 55.783 95.6051 55.8123L80.2128 59.9679V38.7246C80.2151 38.3686 80.128 38.0177 79.9596 37.7041C79.7912 37.3904 79.5467 37.1241 79.2487 36.9294L46.27 15.6528C45.9035 15.4189 45.4743 15.3029 45.0399 15.3203C44.9735 15.3172 44.9069 15.3172 44.8405 15.3203ZM45.1064 20.0078L74.4282 38.924L45.1064 57.4746L15.7846 38.924L45.1064 20.0078ZM94.0426 60.6328V91.2512L79.016 87.1953C78.7679 87.066 78.4968 86.987 78.2181 86.9626H78.1516L62.1277 82.6408V69.2432L94.0426 60.6328ZM98.2979 71.7033H101.423C103.877 71.7033 105.745 73.5746 105.745 75.9586C105.745 78.3424 103.877 80.2139 101.423 80.2139H98.2979V71.7033ZM69.5745 89.057L75.4588 90.6527L73.1982 100.427H69.5745V89.057Z" fill="#8D1889"/>
</svg>
