<svg width="120" height="120" viewBox="0 0 120 120" fill="none" xmlns="http://www.w3.org/2000/svg">
<path d="M107.789 68.6934L95.7766 53.098V52.9926C95.5659 52.6765 95.1444 52.3604 94.7229 52.255L76.2824 45.8272C79.6544 42.0337 81.6565 37.0811 81.6565 31.6017C81.6565 19.6944 71.9621 10 60.0548 10C48.1475 10 38.4531 19.6944 38.4531 31.6017C38.4531 37.0811 40.4552 42.0337 43.8272 45.8272L25.3867 52.255C24.9652 52.3604 24.6491 52.6765 24.333 52.9926L12.3204 68.6934C11.8989 69.2202 11.6881 70.0632 11.8989 70.6955C12.1096 71.4331 12.6365 71.96 13.3741 72.1707L23.8061 75.8588V95.8799C23.8061 96.8282 24.4384 97.6712 25.2814 97.9874L59.2118 109.895C59.4226 110 59.7387 110 59.9494 110C60.1602 110 60.4763 110 60.6871 109.895L94.6175 97.9874C95.5659 97.6712 96.0927 96.8282 96.0927 95.8799V75.8588L106.525 72.1707C107.262 71.96 107.789 71.3277 108 70.6955C108.316 69.9578 108.211 69.2202 107.789 68.6934ZM42.9842 31.6017C42.9842 22.2234 50.6765 14.5311 60.0548 14.5311C69.4331 14.5311 77.1254 22.2234 77.1254 31.6017C77.1254 40.98 69.4331 48.6723 60.0548 48.6723C50.6765 48.6723 42.9842 41.0854 42.9842 31.6017ZM17.9052 68.9041L26.9673 57.1022L57.5258 67.8504L51.3088 80.706L17.9052 68.9041ZM57.7366 104.626L28.4426 94.2993V77.4394L51.8356 85.6586C52.0464 85.764 52.3625 85.764 52.5732 85.764C53.4162 85.764 54.2592 85.2371 54.5754 84.4995L57.7366 77.8609V104.626V104.626ZM60.0548 63.9515L32.9737 54.4679L47.6207 49.3045C51.098 51.8335 55.4183 53.2034 60.0548 53.2034C64.6913 53.2034 68.9062 51.7281 72.4889 49.3045L87.1359 54.4679L60.0548 63.9515ZM91.667 94.2993L62.2677 104.626V77.8609L65.4289 84.4995C65.8504 85.3425 66.588 85.764 67.431 85.764C67.6417 85.764 67.9579 85.764 68.1686 85.6586L91.667 77.4394V94.2993ZM68.6955 80.706L62.4784 67.8504L93.0369 57.1022L102.204 68.9041L68.6955 80.706Z" fill="#665BA0"/>
<path d="M56.6828 37.9242C57.1043 38.3457 57.7366 38.6618 58.3688 38.6618C59.0011 38.6618 59.6333 38.4511 60.0548 37.9242L69.0116 28.5459C69.8546 27.5975 69.8546 26.2277 68.9062 25.3847C67.9579 24.5417 66.588 24.5417 65.745 25.49L58.4742 33.1823L54.5754 29.1781C53.7324 28.2298 52.2571 28.2298 51.4141 29.0728C50.4658 29.9158 50.4658 31.391 51.3088 32.234L56.6828 37.9242Z" fill="#665BA0"/>
</svg>
