<svg width="37" height="34" viewBox="0 0 37 34" fill="none" xmlns="http://www.w3.org/2000/svg">
<path d="M10.681 33.5549C7.82935 33.5549 5.14748 32.4431 3.12751 30.4274C1.11179 28.4117 0 25.7298 0 22.8782C0 20.0265 1.11179 17.3446 3.12751 15.3247L14.7335 3.72251L15.9345 4.92346L4.32846 16.521C2.63105 18.2184 1.69749 20.4759 1.69749 22.8735C1.69749 25.2711 2.63105 27.5286 4.32846 29.2218C6.02587 30.9192 8.28345 31.8528 10.681 31.8528C13.0786 31.8528 15.3361 30.9192 17.0293 29.2218L33.3842 12.8669C35.9345 10.3165 35.9345 6.16632 33.3842 3.61589C30.8338 1.06555 26.6836 1.06555 24.1332 3.61589L7.7783 19.9708C7.00172 20.7474 6.57315 21.7785 6.57734 22.8733C6.57734 23.9681 7.00594 24.9951 7.7783 25.7717C8.55488 26.5483 9.58605 26.9769 10.6809 26.9769H10.6851C11.7799 26.9769 12.8069 26.5483 13.5835 25.7759L25.1895 14.1738L26.3904 15.3747L14.7805 26.9722C13.6899 28.067 12.2345 28.6696 10.6856 28.6739H10.6813C9.13242 28.6739 7.67688 28.0713 6.57781 26.9722C5.48301 25.8816 4.8804 24.4261 4.87613 22.8772C4.87613 21.3283 5.47871 19.8686 6.57781 18.7695L22.9327 2.41455C24.4901 0.857202 26.5567 0 28.7591 0C30.9615 0 33.0281 0.857202 34.5854 2.41455C36.1428 3.9719 37 6.03852 37 8.24092C37 10.4433 36.1428 12.5099 34.5854 14.0673L18.2306 30.4222C16.2148 32.4421 13.5372 33.5539 10.6813 33.5539L10.681 33.5549Z" fill="#C0CBD8"/>
<path d="M33.0574 8.2509H31.36C31.36 6.82507 30.1973 5.66238 28.7715 5.66238V3.96497C31.1351 3.96497 33.0574 5.88725 33.0574 8.2509Z" fill="#C0CBD8"/>
</svg>
