<svg width="45" height="44" viewBox="0 0 45 44" fill="none" xmlns="http://www.w3.org/2000/svg">
<path d="M1.59375 23.3329C1.45285 23.3329 1.31773 23.4032 1.2181 23.5282C1.11847 23.6531 1.0625 23.8227 1.0625 23.9994V39.9949C1.0625 41.0972 1.77756 41.9943 2.65625 41.9943H13.2812C13.4221 41.9943 13.5573 41.9241 13.6569 41.7991C13.7565 41.6741 13.8125 41.5046 13.8125 41.3278C13.8125 41.1511 13.7565 40.9816 13.6569 40.8566C13.5573 40.7316 13.4221 40.6614 13.2812 40.6614H2.65625C2.51535 40.6614 2.38023 40.5912 2.2806 40.4662C2.18097 40.3412 2.125 40.1717 2.125 39.9949V23.9994C2.125 23.8227 2.06903 23.6531 1.9694 23.5282C1.86977 23.4032 1.73465 23.3329 1.59375 23.3329Z" fill="#FF3541"/>
<path d="M43.0312 23.3329C42.8904 23.3329 42.7552 23.4032 42.6556 23.5282C42.556 23.6531 42.5 23.8227 42.5 23.9994V39.9949C42.5 40.1717 42.444 40.3412 42.3444 40.4662C42.2448 40.5912 42.1096 40.6614 41.9688 40.6614H19.6562C19.5154 40.6614 19.3802 40.7316 19.2806 40.8566C19.181 40.9816 19.125 41.1511 19.125 41.3278C19.125 41.5046 19.181 41.6741 19.2806 41.7991C19.3802 41.9241 19.5154 41.9943 19.6562 41.9943H41.9688C42.8474 41.9943 43.5625 41.0972 43.5625 39.9949V23.9994C43.5625 23.8227 43.5065 23.6531 43.4069 23.5282C43.3073 23.4032 43.1721 23.3329 43.0312 23.3329Z" fill="#FF3541"/>
<path d="M19.125 2.67215C19.125 2.84891 19.181 3.01843 19.2806 3.14342C19.3802 3.26841 19.5154 3.33863 19.6562 3.33863H41.9688C42.1096 3.33863 42.2448 3.40885 42.3444 3.53384C42.444 3.65883 42.5 3.82835 42.5 4.00511V15.9457C42.5 16.1225 42.556 16.292 42.6556 16.417C42.7552 16.542 42.8904 16.6122 43.0312 16.6122C43.1721 16.6122 43.3073 16.542 43.4069 16.417C43.5065 16.292 43.5625 16.1225 43.5625 15.9457V4.00511C43.5625 2.90275 42.8474 2.00568 41.9688 2.00568H19.6562C19.5154 2.00568 19.3802 2.07589 19.2806 2.20088C19.181 2.32587 19.125 2.49539 19.125 2.67215Z" fill="#FF3541"/>
<path d="M2.65625 2.00568C1.77756 2.00568 1.0625 2.90275 1.0625 4.00511V15.9457C1.0625 16.1225 1.11847 16.292 1.2181 16.417C1.31773 16.542 1.45285 16.6122 1.59375 16.6122C1.73465 16.6122 1.86977 16.542 1.9694 16.417C2.06903 16.292 2.125 16.1225 2.125 15.9457V4.00511C2.125 3.82835 2.18097 3.65883 2.2806 3.53384C2.38023 3.40885 2.51535 3.33863 2.65625 3.33863H13.2812C13.4221 3.33863 13.5573 3.26841 13.6569 3.14342C13.7565 3.01843 13.8125 2.84891 13.8125 2.67215C13.8125 2.49539 13.7565 2.32587 13.6569 2.20088C13.5573 2.07589 13.4221 2.00568 13.2812 2.00568H2.65625Z" fill="#FF3541"/>
<path d="M44.0938 19.2781H22.4188C22.8406 19.0435 23.205 18.7703 23.4642 18.445C24.2353 17.4757 24.6683 16.1622 24.6683 14.7927C24.6683 13.4233 24.2353 12.1098 23.4642 11.1404C21.9088 9.18898 19.1973 9.18898 17.6418 11.1404C17.3921 11.4537 17.1828 11.8909 17 12.3934V1.33921C17 1.16245 16.944 0.992925 16.8444 0.867936C16.7448 0.742947 16.6096 0.672729 16.4688 0.672729C16.3279 0.672729 16.1927 0.742947 16.0931 0.867936C15.9935 0.992925 15.9375 1.16245 15.9375 1.33921V18.9675C14.1281 18.0318 10.9427 16.1097 10.2893 14.4528C10.0792 13.9241 9.95481 13.3484 9.92326 12.7591C9.89171 12.1697 9.95363 11.5783 10.1054 11.0191C10.255 10.4592 10.4916 9.94205 10.8014 9.49751C11.1113 9.05297 11.4883 8.68987 11.9106 8.42919C12.037 8.35089 12.1334 8.2128 12.1787 8.04532C12.2239 7.87783 12.2142 7.69467 12.1518 7.53611C12.0894 7.37756 11.9793 7.2566 11.8458 7.19986C11.7123 7.14311 11.5663 7.15523 11.4399 7.23353C10.8921 7.57135 10.4031 8.0422 10.0013 8.61879C9.5995 9.19539 9.2929 9.86627 9.09925 10.5926C8.90233 11.3173 8.82197 12.0839 8.86282 12.8479C8.90367 13.6118 9.06493 14.3581 9.33725 15.0433C9.98006 16.6722 12.1316 18.2304 13.8794 19.2781H0.53125C0.390354 19.2781 0.255228 19.3483 0.1556 19.4733C0.0559708 19.5983 0 19.7678 0 19.9446C0 20.1213 0.0559708 20.2909 0.1556 20.4159C0.255228 20.5408 0.390354 20.6111 0.53125 20.6111H10.4614C10.0502 20.843 9.69425 21.1109 9.44031 21.4295C8.66926 22.3988 8.23621 23.7124 8.23621 25.0818C8.23621 26.4512 8.66926 27.7647 9.44031 28.7341C10.2181 29.7098 11.2519 30.247 12.3516 30.247C13.4513 30.247 14.4851 29.7098 15.2628 28.7341C15.5263 28.4035 15.7473 27.9356 15.9375 27.3945V42.6608C15.9375 42.8376 15.9935 43.0071 16.0931 43.1321C16.1927 43.2571 16.3279 43.3273 16.4688 43.3273C16.6096 43.3273 16.7448 43.2571 16.8444 43.1321C16.944 43.0071 17 42.8376 17 42.6608V20.927C18.8148 21.868 21.9651 23.7768 22.6153 25.4244C23.0403 26.5014 23.1051 27.7197 22.7991 28.8581C22.6495 29.418 22.413 29.9351 22.1031 30.3797C21.7933 30.8242 21.4163 31.1873 20.9939 31.448C20.9292 31.4851 20.8711 31.5381 20.8231 31.6039C20.775 31.6697 20.738 31.7469 20.7141 31.831C20.6903 31.915 20.6802 32.0043 20.6844 32.0934C20.6886 32.1824 20.707 32.2696 20.7385 32.3496C20.77 32.4296 20.814 32.5008 20.8679 32.5591C20.9218 32.6173 20.9845 32.6614 21.0522 32.6887C21.1199 32.716 21.1913 32.726 21.2622 32.718C21.333 32.71 21.4019 32.6843 21.4646 32.6423C22.0125 32.3045 22.5015 31.8336 22.9033 31.257C23.3051 30.6805 23.6117 30.0096 23.8053 29.2833C24.0022 28.5585 24.0826 27.792 24.0417 27.028C24.0009 26.264 23.8396 25.5178 23.5673 24.8325C22.9277 23.2117 20.7931 21.6601 19.0496 20.6111H44.0938C44.2346 20.6111 44.3698 20.5408 44.4694 20.4159C44.569 20.2909 44.625 20.1213 44.625 19.9446C44.625 19.7678 44.569 19.5983 44.4694 19.4733C44.3698 19.3483 44.2346 19.2781 44.0938 19.2781ZM18.3929 12.0842C18.9699 11.3604 19.737 10.9618 20.553 10.9618C21.369 10.9618 22.1361 11.3604 22.7131 12.0842C23.2852 12.8034 23.6065 13.778 23.6065 14.794C23.6065 15.8101 23.2852 16.7847 22.7131 17.5039C21.8057 18.6423 18.6862 19.1062 17.0106 19.2368C17.1296 16.7522 17.5653 13.1225 18.3929 12.0842ZM14.5116 27.7917C13.3577 29.2393 11.3454 29.2393 10.1915 27.7917C9.61937 27.0725 9.29805 26.0979 9.29805 25.0818C9.29805 24.0657 9.61937 23.0911 10.1915 22.3719C11.0989 21.2336 14.2184 20.7697 15.8939 20.6391C15.7749 23.1237 15.3393 26.7533 14.5116 27.7917Z" fill="#FF3541"/>
</svg>
