<svg width="25" height="25" viewBox="0 0 25 25" fill="none" xmlns="http://www.w3.org/2000/svg">
<path d="M23.6078 17.8692H22.9581L24.9808 9.29616C25.0645 8.9369 24.8725 8.56287 24.4444 8.45461L9.16357 5.29017V4.60118C9.16357 4.26161 8.9175 3.97125 8.58285 3.91711L6.36824 3.54801C5.98929 3.48403 5.63003 3.73994 5.57098 4.11889C5.507 4.49783 5.76291 4.85709 6.14185 4.91615L7.78067 5.19174V8.46445H4.38985C1.96854 8.46445 0 10.433 0 12.8543V18.5631C0 18.9469 0.310046 19.257 0.693911 19.257H1.77169C2.08173 20.5218 3.22349 21.4618 4.58178 21.4618C5.94008 21.4618 7.07691 20.5218 7.39188 19.257H13.9914C14.3015 20.5218 15.4432 21.4618 16.8015 21.4618C18.1598 21.4618 19.2966 20.5218 19.6116 19.257H23.6078C23.9916 19.257 24.3017 18.9469 24.3017 18.5631C24.3017 18.1841 23.9916 17.8692 23.6078 17.8692ZM4.58178 20.0739C3.75007 20.0739 3.07585 19.3997 3.07585 18.568C3.07585 17.7363 3.75007 17.0621 4.58178 17.0621C5.41349 17.0621 6.08772 17.7363 6.08772 18.568C6.09264 19.3948 5.41349 20.0739 4.58178 20.0739ZM7.77575 17.8692H7.39188C7.08183 16.6044 5.94008 15.6693 4.58178 15.6693C3.22349 15.6693 2.08666 16.6093 1.77169 17.8692H1.38782V12.8543C1.38782 11.2007 2.73135 9.85719 4.38985 9.85719H7.77575V17.8692ZM16.8015 20.0739C15.9698 20.0739 15.2956 19.3997 15.2956 18.568C15.2956 17.7363 15.9698 17.0621 16.8015 17.0621C17.6332 17.0621 18.3075 17.7363 18.3075 18.568C18.3124 19.3948 17.6332 20.0739 16.8015 20.0739ZM19.6116 17.8692C19.3016 16.6044 18.1598 15.6693 16.8015 15.6693C15.4432 15.6693 14.3064 16.6093 13.9914 17.8692H9.16357V14.2963H10.2069C10.5908 14.2963 10.9008 13.9862 10.9008 13.6023C10.9008 13.2185 10.5908 12.9084 10.2069 12.9084H9.16357V11.5157H11.9392C12.3231 11.5157 12.6331 11.2056 12.6331 10.8218C12.6331 10.4379 12.3231 10.1279 11.9392 10.1279H9.16357V9.15836V6.71244L23.465 9.67018L21.5309 17.8692H19.6116Z" fill="#9798A8"/>
</svg>
