<svg width="23" height="22" viewBox="0 0 23 22" fill="none" xmlns="http://www.w3.org/2000/svg">
<path d="M21.2778 9.45506V18.9444C21.2778 20.632 19.9098 22 18.2222 22H14.5556C14.2181 22 13.9445 21.7264 13.9445 21.3889V14.0556C13.9445 13.718 13.6709 13.4444 13.3334 13.4444H9.66668C9.32918 13.4444 9.05557 13.718 9.05557 14.0556V21.3889C9.05557 21.7264 8.78197 22 8.44446 22H4.77779C3.09026 22 1.72224 20.632 1.72224 18.9444V9.45506L1.49962 9.6384C1.23908 9.85296 0.853949 9.81569 0.639393 9.55515C0.424837 9.29462 0.462108 8.90949 0.722641 8.69493L11.1115 0.139376C11.3372 -0.0464587 11.6628 -0.0464587 11.8885 0.139376L22.2774 8.69493C22.5379 8.90949 22.5752 9.29462 22.3606 9.55515C22.1461 9.81569 21.7609 9.85296 21.5004 9.6384L21.2778 9.45506ZM20.0638 8.45527L11.5 1.40278L2.93627 8.45527C2.94166 8.4879 2.94446 8.5214 2.94446 8.55556V18.9444C2.94446 19.957 3.76527 20.7778 4.77779 20.7778H7.83335V14.0556C7.83335 13.043 8.65416 12.2222 9.66668 12.2222H13.3334C14.3459 12.2222 15.1667 13.043 15.1667 14.0556V20.7778H18.2222C19.2348 20.7778 20.0556 19.957 20.0556 18.9444V8.55556C20.0556 8.5214 20.0584 8.4879 20.0638 8.45527Z" fill="black" fill-opacity="0.3"/>
</svg>
