<svg width="16" height="16" viewBox="0 0 16 16" fill="none" xmlns="http://www.w3.org/2000/svg">
<path d="M6.33334 1.33331H3.66668C2.9303 1.33331 2.33334 1.93027 2.33334 2.66665V5.33331C2.33334 6.06969 2.9303 6.66665 3.66668 6.66665H6.33334C7.06972 6.66665 7.66668 6.06969 7.66668 5.33331V2.66665C7.66668 1.93027 7.06972 1.33331 6.33334 1.33331Z" stroke="#9196D2" stroke-width="2" stroke-linecap="round" stroke-linejoin="round"/>
<path d="M6.33334 9.33331H3.66668C2.9303 9.33331 2.33334 9.93027 2.33334 10.6666V13.3333C2.33334 14.0697 2.9303 14.6666 3.66668 14.6666H6.33334C7.06972 14.6666 7.66668 14.0697 7.66668 13.3333V10.6666C7.66668 9.93027 7.06972 9.33331 6.33334 9.33331Z" stroke="#9196D2" stroke-width="2" stroke-linecap="round" stroke-linejoin="round"/>
<path d="M13.6667 10.6666H9.66669" stroke="#9196D2" stroke-width="2" stroke-linecap="round" stroke-linejoin="round"/>
<path d="M12.3334 13.3333H9.66669" stroke="#9196D2" stroke-width="2" stroke-linecap="round" stroke-linejoin="round"/>
<path d="M12.3334 5.33331H9.66669" stroke="#9196D2" stroke-width="2" stroke-linecap="round" stroke-linejoin="round"/>
<path d="M13.6667 2.66663H9.66669" stroke="#9196D2" stroke-width="2" stroke-linecap="round" stroke-linejoin="round"/>
</svg>
