<svg width="55" height="55" viewBox="0 0 55 55" fill="none" xmlns="http://www.w3.org/2000/svg">
<path d="M18.0357 19.9286H21.8215M33.1786 35.0715H36.9644M36.9644 18.0357L18.0357 36.9644M24.8555 2.09539L20.5814 6.36955C19.88 7.0709 18.9288 7.46495 17.9369 7.46495H11.2048C9.13934 7.46495 7.46495 9.13934 7.46495 11.2048V17.9369C7.46495 18.9288 7.0709 19.88 6.36955 20.5814L2.09539 24.8555C0.634871 26.3161 0.634871 28.684 2.09539 30.1446L6.36955 34.4187C7.0709 35.1201 7.46495 36.0713 7.46495 37.0632V43.7953C7.46495 45.8608 9.13934 47.5352 11.2048 47.5352H17.9369C18.9288 47.5352 19.88 47.9293 20.5814 48.6304L24.8555 52.9049C26.3161 54.365 28.684 54.365 30.1446 52.9049L34.4187 48.6304C35.1201 47.9293 36.0713 47.5352 37.0632 47.5352H43.7953C45.8608 47.5352 47.5352 45.8608 47.5352 43.7953V37.0632C47.5352 36.0713 47.9293 35.1201 48.6304 34.4187L52.9049 30.1446C54.365 28.684 54.365 26.3161 52.9049 24.8555L48.6304 20.5814C47.9293 19.88 47.5352 18.9288 47.5352 17.9369V11.2048C47.5352 9.13934 45.8608 7.46495 43.7953 7.46495H37.0632C36.0713 7.46495 35.1201 7.0709 34.4187 6.36955L30.1446 2.09539C28.684 0.634871 26.3161 0.634871 24.8555 2.09539V2.09539Z" stroke="#474D9B" stroke-width="2"/>
</svg>
