<svg width="100" height="125" viewBox="0 0 100 125" fill="none" xmlns="http://www.w3.org/2000/svg">
<path d="M50.401 40.788C52.3373 40.788 53.907 39.2183 53.907 37.282C53.907 35.3457 52.3373 33.776 50.401 33.776C48.4647 33.776 46.895 35.3457 46.895 37.282C46.895 39.2183 48.4647 40.788 50.401 40.788Z" fill="#474D9B"/>
<path d="M50.401 19.842C68.03 19.842 82.373 34.185 82.373 51.814C82.373 69.443 68.03 83.786 50.401 83.786C32.772 83.786 18.428 69.444 18.428 51.814C18.428 34.184 32.771 19.842 50.401 19.842ZM50.401 16.29C30.781 16.29 14.876 32.195 14.876 51.815C14.876 71.435 30.781 87.34 50.401 87.34C70.021 87.34 85.926 71.435 85.926 51.815C85.926 32.195 70.02 16.29 50.401 16.29Z" fill="#474D9B"/>
<path d="M52.8869 45.569H47.9139V69.853H52.8869V45.569Z" fill="#474D9B"/>
</svg>
