<svg width="31" height="30" viewBox="0 0 31 30" fill="none" xmlns="http://www.w3.org/2000/svg">
<g clip-path="url(#clip0)">
<path d="M15.1994 17.8651C16.8543 17.8651 18.2035 16.5286 18.2035 14.8852C18.2035 14.2364 17.9896 13.6375 17.6355 13.1482C17.0899 12.3975 16.203 11.9053 15.2012 11.9053C14.1988 11.9053 13.3125 12.3969 12.7656 13.1476C12.4104 13.6369 12.1983 14.2358 12.1977 14.8846C12.1959 16.528 13.5439 17.8651 15.1994 17.8651Z" fill="#E8E8E8"/>
<path d="M21.7568 11.2397V8.74186V8.37012L21.3804 8.37132L18.8645 8.37911L18.8742 11.2493L21.7568 11.2397Z" fill="#E8E8E8"/>
<path d="M15.2 0C6.92899 0 0.199951 6.67751 0.199951 14.8851C0.199951 23.0922 6.92899 29.7703 15.2 29.7703C23.4703 29.7703 30.2 23.0922 30.2 14.8851C30.2 6.67751 23.4715 0 15.2 0ZM23.7307 13.1482V20.0793C23.7307 21.8846 22.2516 23.3518 20.4336 23.3518H9.96632C8.14767 23.3518 6.66918 21.8846 6.66918 20.0793V13.1482V9.69219C6.66918 7.88746 8.14767 6.42029 9.96632 6.42029H20.433C22.2516 6.42029 23.7307 7.88746 23.7307 9.69219V13.1482Z" fill="#E8E8E8"/>
<path d="M19.8662 14.8851C19.8662 17.4375 17.7733 19.5157 15.2 19.5157C12.6266 19.5157 10.5343 17.4375 10.5343 14.8851C10.5343 14.2711 10.6575 13.6842 10.8775 13.1481H8.33075V20.0793C8.33075 20.975 9.06365 21.7005 9.96573 21.7005H20.4324C21.3332 21.7005 22.0674 20.975 22.0674 20.0793V13.1481H19.5194C19.7412 13.6842 19.8662 14.2711 19.8662 14.8851Z" fill="#E8E8E8"/>
</g>
<defs>
<clipPath id="clip0">
<rect width="30" height="29.7703" fill="white" transform="translate(0.199951)"/>
</clipPath>
</defs>
</svg>
