<svg width="35" height="35" viewBox="0 0 35 35" fill="none" xmlns="http://www.w3.org/2000/svg">
<path d="M32.6655 29.2578L18.4468 4.64844C18.2349 4.28271 17.8691 4.10156 17.5 4.10156C17.1309 4.10156 16.7617 4.28271 16.5532 4.64844L2.33447 29.2578C1.91406 29.9893 2.44043 30.8984 3.28125 30.8984H31.7187C32.5596 30.8984 33.0859 29.9893 32.6655 29.2578ZM16.4062 14.2188C16.4062 14.0684 16.5293 13.9453 16.6797 13.9453H18.3203C18.4707 13.9453 18.5937 14.0684 18.5937 14.2188V20.5078C18.5937 20.6582 18.4707 20.7812 18.3203 20.7812H16.6797C16.5293 20.7812 16.4062 20.6582 16.4062 20.5078V14.2188ZM17.5 26.25C17.0707 26.2412 16.6619 26.0645 16.3614 25.7578C16.0608 25.4511 15.8925 25.0388 15.8925 24.6094C15.8925 24.18 16.0608 23.7677 16.3614 23.4609C16.6619 23.1542 17.0707 22.9775 17.5 22.9688C17.9293 22.9775 18.3381 23.1542 18.6386 23.4609C18.9391 23.7677 19.1075 24.18 19.1075 24.6094C19.1075 25.0388 18.9391 25.4511 18.6386 25.7578C18.3381 26.0645 17.9293 26.2412 17.5 26.25Z" fill="#878BC8"/>
</svg>
