<svg width="18" height="25" viewBox="0 0 18 25" fill="none" xmlns="http://www.w3.org/2000/svg">
<path d="M17.5714 7.71429H13.7143V0.428571C13.7143 0.171429 13.5429 0 13.2857 0H4.71429C4.45714 0 4.28571 0.171429 4.28571 0.428571V7.71429H0.428571C0.171429 7.71429 0 7.88571 0 8.14286V10.7143C0 10.9714 0.171429 11.1429 0.428571 11.1429H0.857143V24.4286C0.857143 24.6857 1.02857 24.8571 1.28571 24.8571H16.7143C16.9714 24.8571 17.1429 24.6857 17.1429 24.4286V11.1429H17.5714C17.8286 11.1429 18 10.9714 18 10.7143V8.14286C18 7.88571 17.8286 7.71429 17.5714 7.71429ZM5.14286 0.857143H12.8571V7.71429H12V3.42857C12 3.17143 11.8286 3 11.5714 3C11.1 3 10.7143 2.61429 10.7143 2.14286C10.7143 1.88571 10.5429 1.71429 10.2857 1.71429H7.71429C7.45714 1.71429 7.28571 1.88571 7.28571 2.14286C7.28571 2.61429 6.9 3 6.42857 3C6.17143 3 6 3.17143 6 3.42857V7.71429H5.14286V0.857143ZM10.6717 7.71429C10.5002 6.98571 9.81453 6.42857 9.00025 6.42857C8.18596 6.42857 7.5431 6.98571 7.32882 7.71429H6.85739V3.81429C7.45739 3.64286 7.92882 3.17143 8.10025 2.57143H9.9431C10.1145 3.17143 10.586 3.64286 11.186 3.81429V7.71429H10.6717ZM9.72882 7.71429H8.27167C8.40025 7.45714 8.70025 7.28571 9.00025 7.28571C9.30025 7.28571 9.60025 7.45714 9.72882 7.71429ZM16.2862 24H1.71478V11.1429H16.2862V24ZM17.1433 10.2857H0.857632V8.57143H17.1433V10.2857Z" fill="#474D9B"/>
<path d="M9.00014 23.1429C12.0859 23.1429 14.5716 20.6571 14.5716 17.5714C14.5716 14.4857 12.0859 12 9.00014 12C5.91443 12 3.42871 14.4857 3.42871 17.5714C3.42871 20.6571 5.91443 23.1429 9.00014 23.1429ZM9.00014 12.8571C11.6144 12.8571 13.7144 14.9571 13.7144 17.5714C13.7144 20.1857 11.6144 22.2857 9.00014 22.2857C6.38585 22.2857 4.28585 20.1857 4.28585 17.5714C4.28585 14.9571 6.38585 12.8571 9.00014 12.8571Z" fill="#474D9B"/>
<path d="M6.42857 20.5714C6.55714 20.5714 6.64286 20.5286 6.72857 20.4428L11.8714 15.3C12.0429 15.1286 12.0429 14.8714 11.8714 14.7C11.7 14.5286 11.4429 14.5286 11.2714 14.7L6.12857 19.8428C5.95714 20.0143 5.95714 20.2714 6.12857 20.4428C6.21429 20.5286 6.3 20.5714 6.42857 20.5714Z" fill="#474D9B"/>
<path d="M7.28571 17.1428C8.01429 17.1428 8.57143 16.5857 8.57143 15.8571C8.57143 15.1286 8.01429 14.5714 7.28571 14.5714C6.55714 14.5714 6 15.1286 6 15.8571C6 16.5857 6.55714 17.1428 7.28571 17.1428ZM7.28571 15.4286C7.54286 15.4286 7.71429 15.6 7.71429 15.8571C7.71429 16.1143 7.54286 16.2857 7.28571 16.2857C7.02857 16.2857 6.85714 16.1143 6.85714 15.8571C6.85714 15.6 7.02857 15.4286 7.28571 15.4286Z" fill="#474D9B"/>
<path d="M10.7142 18C9.98561 18 9.42847 18.5571 9.42847 19.2857C9.42847 20.0143 9.98561 20.5714 10.7142 20.5714C11.4428 20.5714 11.9999 20.0143 11.9999 19.2857C11.9999 18.5571 11.4428 18 10.7142 18ZM10.7142 19.7143C10.457 19.7143 10.2856 19.5429 10.2856 19.2857C10.2856 19.0286 10.457 18.8571 10.7142 18.8571C10.9713 18.8571 11.1428 19.0286 11.1428 19.2857C11.1428 19.5429 10.9713 19.7143 10.7142 19.7143Z" fill="#474D9B"/>
</svg>
