<svg width="27" height="27" viewBox="0 0 27 27" fill="none" xmlns="http://www.w3.org/2000/svg">
<path d="M24.0469 5.0625H8.64844C8.53242 5.0625 8.4375 5.15742 8.4375 5.27344V6.75C8.4375 6.86602 8.53242 6.96094 8.64844 6.96094H24.0469C24.1629 6.96094 24.2578 6.86602 24.2578 6.75V5.27344C24.2578 5.15742 24.1629 5.0625 24.0469 5.0625ZM24.0469 12.5508H8.64844C8.53242 12.5508 8.4375 12.6457 8.4375 12.7617V14.2383C8.4375 14.3543 8.53242 14.4492 8.64844 14.4492H24.0469C24.1629 14.4492 24.2578 14.3543 24.2578 14.2383V12.7617C24.2578 12.6457 24.1629 12.5508 24.0469 12.5508ZM24.0469 20.0391H8.64844C8.53242 20.0391 8.4375 20.134 8.4375 20.25V21.7266C8.4375 21.8426 8.53242 21.9375 8.64844 21.9375H24.0469C24.1629 21.9375 24.2578 21.8426 24.2578 21.7266V20.25C24.2578 20.134 24.1629 20.0391 24.0469 20.0391ZM2.74219 6.01172C2.74219 6.20562 2.78038 6.39763 2.85458 6.57677C2.92879 6.75592 3.03755 6.91869 3.17466 7.05581C3.31177 7.19292 3.47455 7.30168 3.65369 7.37588C3.83284 7.45009 4.02485 7.48828 4.21875 7.48828C4.41265 7.48828 4.60466 7.45009 4.78381 7.37588C4.96295 7.30168 5.12573 7.19292 5.26284 7.05581C5.39995 6.91869 5.50871 6.75592 5.58292 6.57677C5.65712 6.39763 5.69531 6.20562 5.69531 6.01172C5.69531 5.81781 5.65712 5.62581 5.58292 5.44666C5.50871 5.26752 5.39995 5.10474 5.26284 4.96763C5.12573 4.83052 4.96295 4.72176 4.78381 4.64755C4.60466 4.57335 4.41265 4.53516 4.21875 4.53516C4.02485 4.53516 3.83284 4.57335 3.65369 4.64755C3.47455 4.72176 3.31177 4.83052 3.17466 4.96763C3.03755 5.10474 2.92879 5.26752 2.85458 5.44666C2.78038 5.62581 2.74219 5.81781 2.74219 6.01172ZM2.74219 13.5C2.74219 13.6939 2.78038 13.8859 2.85458 14.0651C2.92879 14.2442 3.03755 14.407 3.17466 14.5441C3.31177 14.6812 3.47455 14.79 3.65369 14.8642C3.83284 14.9384 4.02485 14.9766 4.21875 14.9766C4.41265 14.9766 4.60466 14.9384 4.78381 14.8642C4.96295 14.79 5.12573 14.6812 5.26284 14.5441C5.39995 14.407 5.50871 14.2442 5.58292 14.0651C5.65712 13.8859 5.69531 13.6939 5.69531 13.5C5.69531 13.3061 5.65712 13.1141 5.58292 12.9349C5.50871 12.7558 5.39995 12.593 5.26284 12.4559C5.12573 12.3188 4.96295 12.21 4.78381 12.1358C4.60466 12.0616 4.41265 12.0234 4.21875 12.0234C4.02485 12.0234 3.83284 12.0616 3.65369 12.1358C3.47455 12.21 3.31177 12.3188 3.17466 12.4559C3.03755 12.593 2.92879 12.7558 2.85458 12.9349C2.78038 13.1141 2.74219 13.3061 2.74219 13.5ZM2.74219 20.9883C2.74219 21.1822 2.78038 21.3742 2.85458 21.5533C2.92879 21.7325 3.03755 21.8953 3.17466 22.0324C3.31177 22.1695 3.47455 22.2782 3.65369 22.3524C3.83284 22.4267 4.02485 22.4648 4.21875 22.4648C4.41265 22.4648 4.60466 22.4267 4.78381 22.3524C4.96295 22.2782 5.12573 22.1695 5.26284 22.0324C5.39995 21.8953 5.50871 21.7325 5.58292 21.5533C5.65712 21.3742 5.69531 21.1822 5.69531 20.9883C5.69531 20.7944 5.65712 20.6024 5.58292 20.4232C5.50871 20.2441 5.39995 20.0813 5.26284 19.9442C5.12573 19.8071 4.96295 19.6983 4.78381 19.6241C4.60466 19.5499 4.41265 19.5117 4.21875 19.5117C4.02485 19.5117 3.83284 19.5499 3.65369 19.6241C3.47455 19.6983 3.31177 19.8071 3.17466 19.9442C3.03755 20.0813 2.92879 20.2441 2.85458 20.4232C2.78038 20.6024 2.74219 20.7944 2.74219 20.9883Z" fill="#474D9B"/>
</svg>
