<svg width="35" height="31" viewBox="0 0 35 31" fill="none" xmlns="http://www.w3.org/2000/svg">
<path d="M33.6586 25.7857H33.0223V4.03688C33.0223 3.64789 32.8678 3.27487 32.5929 2.99976C32.3177 2.72487 31.9448 2.57038 31.5558 2.57038H23.8545C23.5429 2.57038 23.2903 2.82297 23.2903 3.13432C23.2903 3.44593 23.5429 3.69853 23.8545 3.69853H31.5565C31.7424 3.70037 31.893 3.85066 31.8948 4.0369V25.7838H31.1187V24.4754C31.1187 24.1641 30.8663 23.9115 30.5547 23.9115H4.89508C4.58347 23.9115 4.33114 24.1641 4.33114 24.4754V25.7835L3.55604 25.7837V4.03689C3.55814 3.85066 3.70843 3.70036 3.89441 3.69852H11.589C11.9006 3.69852 12.153 3.44593 12.153 3.13432C12.153 2.82297 11.9006 2.57037 11.589 2.57037H3.89307C3.50407 2.57037 3.13106 2.72487 2.85595 2.99976C2.58106 3.27491 2.42657 3.6479 2.42657 4.03687V25.7857H1.79102C1.52898 25.786 1.27796 25.8901 1.0928 26.0753C0.907619 26.2605 0.803485 26.5118 0.803223 26.7735V27.9864C0.80401 28.736 1.10224 29.455 1.63238 29.9851C2.16249 30.5152 2.88121 30.8135 3.63113 30.8146H31.8182C32.5682 30.8135 33.2869 30.5153 33.817 29.9851C34.3471 29.455 34.6453 28.736 34.6462 27.9864V26.7735C34.6459 26.5118 34.5418 26.2605 34.3566 26.0753C34.1714 25.8901 33.9204 25.786 33.6584 25.7857L33.6586 25.7857ZM14.0894 26.9139H21.3603V27.3997C21.3603 27.5867 21.2087 27.7383 21.0219 27.7383H14.4266C14.2396 27.7383 14.0883 27.5867 14.0883 27.3997L14.0894 26.9139ZM5.45876 25.0395H29.991V25.7837H5.45876V25.0395ZM33.5183 27.9865C33.5178 28.4371 33.3386 28.8692 33.0199 29.1878C32.7015 29.5065 32.2692 29.686 31.8186 29.6865H3.63144C3.18081 29.686 2.74857 29.5065 2.43008 29.1878C2.11138 28.8692 1.93223 28.4371 1.93171 27.9865V26.9139H12.9616V27.3997C12.9616 27.7887 13.1161 28.1617 13.3912 28.4368C13.6661 28.7117 14.0391 28.8662 14.4281 28.8662H21.0234C21.4124 28.8662 21.7854 28.7117 22.0605 28.4368C22.3354 28.1617 22.4899 27.7887 22.4899 27.3997V26.9139H33.5184L33.5183 27.9865Z" fill="white"/>
<path d="M11.2805 5.60476C11.5921 5.60476 11.8447 5.35242 11.8447 5.04081C11.8447 4.7292 11.5921 4.47687 11.2805 4.47687H4.8938C4.58218 4.47687 4.32959 4.7292 4.32959 5.04081V22.5741C4.32959 22.8857 4.58218 23.138 4.8938 23.138H30.5561C30.8675 23.138 31.12 22.8857 31.12 22.5741V5.04081C31.12 4.7292 30.8675 4.47687 30.5561 4.47687H24.1612C23.8496 4.47687 23.5973 4.7292 23.5973 5.04081C23.5973 5.35242 23.8496 5.60476 24.1612 5.60476H29.9919V22.0099H5.45771V5.60476H11.2805Z" fill="white"/>
<path d="M22.8257 5.10386C22.8243 3.75094 22.2864 2.45356 21.3298 1.49668C20.3732 0.539811 19.0761 0.00154443 17.7229 0C16.37 0.00157384 15.0726 0.539817 14.116 1.49668C13.1591 2.45356 12.6211 3.75087 12.6198 5.10386V12.9858C11.935 13.1786 11.3316 13.5896 10.9015 14.1565C10.4716 14.7233 10.2381 15.415 10.2368 16.1264V20.8974C10.2368 21.2087 10.4894 21.4613 10.801 21.4613H10.8123H17.7179H17.7281H17.7384H24.6339H24.6449C24.9568 21.46 25.2102 21.2092 25.2146 20.8974C25.2136 20.8787 25.2117 20.8606 25.2088 20.8423V16.1264C25.2075 15.415 24.9743 14.7233 24.5442 14.1565C24.114 13.5897 23.5107 13.1787 22.8258 12.9858L22.8257 5.10386ZM13.7478 5.10386H13.7481C13.7491 4.05022 14.1683 3.03983 14.9134 2.29461C15.6586 1.54939 16.6688 1.13025 17.7227 1.12898C18.7766 1.13002 19.787 1.54918 20.5322 2.29435C21.2774 3.03983 21.6965 4.05016 21.6978 5.10386V12.8616H19.7085V11.6505C20.8674 10.882 21.5475 9.56946 21.5066 8.17955V6.93232C21.5068 6.92865 21.5068 6.92524 21.5066 6.92157C21.5066 6.90189 21.5032 6.88406 21.5008 6.86255C21.4984 6.84104 21.4966 6.82504 21.4924 6.80694V6.79566C21.489 6.78202 21.4827 6.77022 21.4785 6.75815H21.4788C21.473 6.73901 21.4662 6.72012 21.4586 6.70176C21.4507 6.68497 21.4421 6.66871 21.4321 6.65323C21.4237 6.63723 21.4142 6.62176 21.404 6.60681C21.393 6.59212 21.3815 6.57795 21.3691 6.56431C21.3573 6.55041 21.3447 6.53704 21.3314 6.52471C21.3188 6.5129 21.3057 6.50215 21.292 6.49192C21.2765 6.47985 21.2616 6.46779 21.2451 6.4573C21.2285 6.4468 21.2173 6.44182 21.2028 6.43448C21.1887 6.42687 21.1672 6.41611 21.1483 6.40851C21.1294 6.4009 21.1163 6.39828 21.1 6.39356L21.1003 6.39329C21.0817 6.38752 21.0628 6.3828 21.0439 6.37913C21.0247 6.37598 21.0056 6.37388 20.9862 6.3731C20.972 6.3731 20.9586 6.3689 20.9439 6.3689H20.9324C20.9143 6.3689 20.8949 6.37231 20.8786 6.37415C20.8624 6.37598 20.8372 6.37861 20.8173 6.38307H20.8075C20.1424 6.5853 19.4289 6.56379 18.7771 6.32142L18.2507 4.96273C18.2488 4.95906 18.2465 4.95565 18.2446 4.95145V4.95172C18.2362 4.93231 18.2265 4.91342 18.216 4.89532C18.2082 4.88142 18.2013 4.86673 18.1924 4.85309C18.1835 4.83945 18.1691 4.82293 18.157 4.80824C18.145 4.79355 18.1353 4.78043 18.1229 4.76811C18.1106 4.75578 18.0967 4.74555 18.0831 4.73427C18.0694 4.72299 18.0537 4.70909 18.0379 4.6986C18.0222 4.6881 18.0109 4.68312 17.997 4.67578L17.9968 4.67551C17.9779 4.66476 17.9585 4.65479 17.9385 4.64587C17.9349 4.64587 17.9317 4.6422 17.928 4.64063C17.917 4.63643 17.9057 4.63486 17.8945 4.63171C17.8743 4.62463 17.8538 4.61886 17.8328 4.6144C17.8152 4.61099 17.7974 4.60941 17.7793 4.60758C17.7615 4.60548 17.7434 4.60417 17.7253 4.60391C17.7048 4.60417 17.6846 4.60548 17.6644 4.60784C17.6489 4.60784 17.6332 4.61072 17.6175 4.61387C17.5946 4.61886 17.5724 4.62489 17.5503 4.6325C17.5406 4.63591 17.5304 4.63696 17.5207 4.64089L17.511 4.64587V4.64561C17.4897 4.65479 17.4693 4.66528 17.4493 4.67709C17.4365 4.68338 17.4239 4.69046 17.4116 4.69833C17.395 4.70988 17.379 4.72247 17.3638 4.73584C17.3515 4.74633 17.3379 4.75656 17.3263 4.76811C17.314 4.78122 17.3022 4.79486 17.2914 4.80902C17.2788 4.82319 17.2673 4.83788 17.2563 4.85309C17.2476 4.86673 17.2405 4.88142 17.2327 4.89532C17.2222 4.91342 17.2125 4.93231 17.2041 4.95172C17.2041 4.95591 17.1999 4.95932 17.1983 4.963L16.6719 6.32041C16.0203 6.56278 15.3069 6.58507 14.6414 6.3831H14.6325C14.6113 6.3789 14.5898 6.37602 14.568 6.37418C14.5515 6.37418 14.5344 6.3692 14.5176 6.36894H14.5056C14.4901 6.36894 14.4759 6.37235 14.4607 6.37339C14.4458 6.37444 14.4232 6.37576 14.4061 6.37864H14.4064C14.387 6.38284 14.3676 6.38782 14.3484 6.39385C14.3327 6.39884 14.3164 6.40251 14.3015 6.40854C14.2831 6.41615 14.265 6.42481 14.2475 6.43425C14.2328 6.44186 14.2181 6.44894 14.2042 6.45759C14.1903 6.46625 14.174 6.4791 14.1593 6.49038C14.1446 6.50166 14.1307 6.51268 14.1171 6.52527H14.1174C14.1055 6.53733 14.0945 6.54992 14.084 6.56304C14.0709 6.57773 14.0583 6.5932 14.0465 6.6092C14.0376 6.62232 14.03 6.63622 14.0221 6.64986C14.0114 6.66743 14.0014 6.6858 13.9925 6.70442C13.9857 6.71989 13.981 6.73589 13.9752 6.75216C13.9694 6.76842 13.9631 6.78153 13.9589 6.79753V6.81065C13.9555 6.8256 13.9545 6.84108 13.9521 6.85655C13.9487 6.87937 13.9463 6.90245 13.9453 6.92553V8.18142C13.9046 9.57134 14.5842 10.8839 15.7431 11.6527V12.8634H13.7472V6.95434L13.7478 5.10386ZM15.0679 7.60697L15.0682 7.60723C15.2505 7.62874 15.4338 7.63976 15.6172 7.64028C16.2541 7.6631 16.8844 7.50677 17.4368 7.18912C17.5323 7.12486 17.6057 7.03305 17.6472 6.92577L17.7224 6.72983L17.7977 6.92577H17.7975C17.8392 7.03279 17.9126 7.12485 18.0078 7.18912C18.56 7.50677 19.1905 7.6631 19.8274 7.64028C20.011 7.63976 20.1944 7.62874 20.3767 7.60723V8.18036C20.3767 9.86828 19.2603 11.0927 17.722 11.0927C16.1836 11.0927 15.0672 9.86828 15.0672 8.18036L15.0679 7.60697ZM16.8655 12.1217L16.8658 12.1219C17.4297 12.2536 18.0165 12.2536 18.5804 12.1219V13.2262C18.3483 13.4444 18.0417 13.5661 17.7229 13.5661C17.4045 13.5661 17.0979 13.4444 16.8657 13.2262L16.8655 12.1217ZM24.0807 16.1265V20.3332H22.915L22.9625 19.9621H22.9622C23.0323 19.4433 23.0522 18.9189 23.0221 18.3964C23.016 18.3198 23.015 18.243 23.0184 18.1661L23.1687 17.998V17.9983C23.2726 17.8871 23.3268 17.7388 23.3198 17.587C23.3127 17.4351 23.2447 17.2927 23.1309 17.1917C23.0173 17.0907 22.8678 17.0398 22.7162 17.0506C22.5646 17.0616 22.4237 17.1329 22.3256 17.2491L22.1116 17.4894H22.1119C21.9133 17.774 21.8362 18.1255 21.897 18.467C21.923 18.9182 21.9054 19.3709 21.8443 19.8187L21.7764 20.3333H13.6695L13.6042 19.8197H13.6039C13.5433 19.372 13.5258 18.9195 13.5515 18.4686C13.6123 18.1271 13.5352 17.7754 13.3369 17.491L13.1226 17.2502C13.0245 17.1343 12.8836 17.0627 12.732 17.0519C12.5804 17.0409 12.4309 17.0918 12.3173 17.1928C12.2038 17.2937 12.1356 17.4362 12.1285 17.588C12.1214 17.7399 12.176 17.8881 12.2796 17.9993L12.4299 18.1675H12.4301C12.4338 18.2443 12.4325 18.3212 12.4267 18.3978C12.3966 18.9203 12.4165 19.4446 12.486 19.9631L12.5335 20.3343H11.3678V16.1265C11.3684 15.5995 11.5635 15.0914 11.9158 14.6993C12.2681 14.3074 12.7525 14.0593 13.2766 14.0024C13.2834 14.0024 13.2905 14.0024 13.2973 14C13.3658 13.9937 13.4351 13.9895 13.5048 13.9895H16.0397C16.4809 14.448 17.09 14.7072 17.7263 14.7072C18.3626 14.7072 18.9717 14.448 19.4131 13.9895H21.9472C22.0175 13.9895 22.0867 13.9937 22.1552 14C22.1615 14 22.1688 14 22.1754 14.0024C22.6987 14.0601 23.1824 14.3085 23.5338 14.7004C23.8856 15.0922 24.0802 15.6 24.0807 16.1265L24.0807 16.1265Z" fill="white"/>
</svg>
