<svg width="16" height="20" viewBox="0 0 16 20" fill="none" xmlns="http://www.w3.org/2000/svg">
<path d="M13.6819 8.65833H2.31793C1.03712 8.65833 0 9.69766 0 10.9764V17.6245C0 18.9055 1.03712 19.9448 2.31793 19.9448H13.6819C14.9627 19.9448 15.9999 18.9055 15.9999 17.6245L16 10.9764C16 9.69781 14.9629 8.65833 13.6821 8.65833H13.6819ZM9.05902 14.695V16.5853C9.05902 17.1682 8.58702 17.6445 7.99978 17.6445C7.41253 17.6445 6.94053 17.1682 6.94053 16.5853V14.695C6.36221 14.3404 5.97884 13.7022 5.97884 12.9775C5.97884 11.8627 6.8852 10.9586 7.99993 10.9586C9.11466 10.9586 10.021 11.8627 10.021 12.9775C10.0209 13.7022 9.63749 14.3404 9.05902 14.695Z" fill="#B5B8DC"/>
<path d="M5.08127 5.23661C5.08127 3.62776 6.39095 2.3203 7.99979 2.3203C9.60864 2.3203 10.9183 3.62776 10.9183 5.23661V7.99344H13.2364V5.23661C13.2364 2.34901 10.8874 0 7.99979 0C5.11216 0 2.76318 2.34898 2.76318 5.23661V7.99344H5.08127V5.23661Z" fill="#B5B8DC"/>
</svg>
