<svg width="15" height="20" viewBox="0 0 15 20" fill="none" xmlns="http://www.w3.org/2000/svg">
<path fill-rule="evenodd" clip-rule="evenodd" d="M4.19609 7.26648H10.7004V4.70609C10.7004 2.94845 9.23421 1.50304 7.44824 1.50304C5.66227 1.50304 4.19609 2.94845 4.19609 4.70609V7.26648ZM7.44824 10.8342C8.33054 10.8342 9.04494 11.5373 9.04494 12.4056C9.04494 12.9931 8.71712 13.5074 8.232 13.7776V15.6639C8.232 16.0888 7.87741 16.4352 7.44824 16.4352C7.01648 16.4352 6.66448 16.089 6.66448 15.6639V13.7776C6.17937 13.5073 5.85153 12.9933 5.85153 12.4056C5.85153 11.5373 6.56594 10.8342 7.44824 10.8342ZM12.2303 7.26648C13.6965 7.26648 14.896 8.44693 14.896 9.88982V17.3767C14.896 18.8195 13.6965 20 12.2303 20H2.6657C1.19952 20 0 18.8195 0 17.3767V9.88982C0 8.44693 1.19952 7.26648 2.6657 7.26648V4.70609C2.6657 2.1168 4.81686 0 7.44776 0C10.0761 0 12.2298 2.11699 12.2298 4.70609L12.2303 7.26648Z" fill="#C0C1DE"/>
</svg>
