<svg width="24" height="24" viewBox="0 0 24 24" fill="none" xmlns="http://www.w3.org/2000/svg">
<g clip-path="url(#clip0)">
<path d="M16.603 11.85L14.122 5.59L12.03 9.25L9.93801 5.59L7.45701 11.852H6.74001V12.793H10.476V11.852H9.92301L10.461 10.297L12.03 12.867L13.599 10.297L14.137 11.852H13.584V12.793H17.335V11.852L16.603 11.85ZM21.938 9.938C21.9387 8.63274 21.6821 7.34015 21.1829 6.13412C20.6837 4.92809 19.9517 3.83227 19.0287 2.90931C18.1057 1.98635 17.0099 1.25435 15.8039 0.755148C14.5979 0.255949 13.3053 -0.000655939 12 1.25918e-06C6.51601 1.25918e-06 2.06201 4.453 2.06201 9.938C2.06201 12.688 3.18301 15.168 4.97601 16.961C5.08829 17.0743 5.23172 17.1516 5.38805 17.1831C5.54439 17.2146 5.70658 17.199 5.85398 17.1381C6.00138 17.0772 6.12735 16.9738 6.21585 16.8412C6.30436 16.7085 6.35141 16.5525 6.35101 16.393C6.35135 16.175 6.26543 15.9658 6.11201 15.811C4.55879 14.2515 3.68835 12.139 3.69201 9.938C3.69201 5.35 7.41201 1.614 12 1.614C16.588 1.614 20.324 5.35 20.324 9.938C20.3265 11.0316 20.1125 12.1149 19.6944 13.1254C19.2763 14.136 18.6624 15.0538 17.888 15.826L10.864 22.849L12 24L19.039 16.961C19.9613 16.0393 20.6922 14.9442 21.1897 13.739C21.6873 12.5337 21.9416 11.2419 21.938 9.938Z" fill="#474D9B"/>
</g>
<defs>
<clipPath id="clip0">
<rect width="24" height="24" fill="white"/>
</clipPath>
</defs>
</svg>
