<svg width="17" height="17" viewBox="0 0 17 17" fill="none" xmlns="http://www.w3.org/2000/svg">
<path d="M15.5827 7.15404C15.6535 6.79988 15.3702 6.37488 15.016 6.37488L10.9785 5.80821L9.13685 2.12488C9.06602 1.98321 8.99518 1.91237 8.85352 1.84154C8.49935 1.62904 8.07435 1.77071 7.86185 2.12488L6.09102 5.80821L2.05352 6.37488C1.84102 6.37488 1.69935 6.44571 1.62852 6.58738C1.34518 6.87071 1.34518 7.29571 1.62852 7.57904L4.53268 10.4124L3.82435 14.4499C3.82435 14.5915 3.82435 14.7332 3.89518 14.8749C4.10768 15.229 4.53268 15.3707 4.88685 15.1582L8.49935 13.2457L12.1118 15.1582C12.1827 15.229 12.3243 15.229 12.466 15.229C12.5368 15.229 12.5368 15.229 12.6077 15.229C12.9618 15.1582 13.2452 14.804 13.1743 14.379L12.466 10.3415L15.3702 7.50821C15.5119 7.43738 15.5827 7.29571 15.5827 7.15404Z" fill="#FAA94A"/>
</svg>
