<svg width="18" height="18" viewBox="0 0 18 18" fill="none" xmlns="http://www.w3.org/2000/svg">
<path d="M8.99998 12.75L9.74998 11.25V7.3935C11.0407 7.05825 12 5.8935 12 4.5C12 2.8455 10.6545 1.5 8.99998 1.5C7.34548 1.5 5.99998 2.8455 5.99998 4.5C5.99998 5.8935 6.95923 7.05825 8.24998 7.3935V11.25L8.99998 12.75ZM7.49998 4.5C7.49998 3.67275 8.17273 3 8.99998 3C9.82723 3 10.5 3.67275 10.5 4.5C10.5 5.32725 9.82723 6 8.99998 6C8.17273 6 7.49998 5.32725 7.49998 4.5Z" fill="#9798A8"/>
<path d="M12.2002 7.92227L11.8005 9.36827C13.7437 9.90527 15 10.938 15 12C15 13.419 12.5362 15 8.99998 15C5.46373 15 2.99998 13.419 2.99998 12C2.99998 10.938 4.25623 9.90527 6.20023 9.36752L5.80048 7.92152C3.14773 8.65502 1.49998 10.2173 1.49998 12C1.49998 14.523 4.79473 16.5 8.99998 16.5C13.2052 16.5 16.5 14.523 16.5 12C16.5 10.2173 14.8522 8.65502 12.2002 7.92227Z" fill="#9798A8"/>
</svg>
