<svg width="14" height="17" viewBox="0 0 14 17" fill="none" xmlns="http://www.w3.org/2000/svg">
<path d="M8.81825 0.382491C8.52284 0.251792 8.21338 0.153437 7.89557 0.089241L7.71794 0.921816C7.97167 0.972887 8.21867 1.05158 8.45425 1.15642L8.81825 0.382491Z" fill="#9798A8"/>
<path d="M9.68101 2.06421L10.3508 1.51809C10.1431 1.27687 9.90829 1.05892 9.65082 0.868263L9.12013 1.54401C9.32615 1.69692 9.51424 1.87137 9.68101 2.06421Z" fill="#9798A8"/>
<path d="M10.8894 2.3018L10.1115 2.69195C10.3002 3.04577 10.4222 3.42948 10.472 3.825H3.53062C3.63873 3.01444 4.04256 2.26844 4.66875 1.72253C5.29493 1.17662 6.10193 0.867031 6.94312 0.85L6.92956 0C5.78293 0.0222961 4.69075 0.479354 3.8864 1.27351C3.08205 2.06766 2.62934 3.13591 2.625 4.25V13.6H5.25V11.9H8.75V13.6H11.375V4.25C11.3745 3.57237 11.208 2.90458 10.8894 2.3018ZM10.5 12.75H9.625V11.05H4.375V12.75H3.5V4.675H10.5V12.75Z" fill="#9798A8"/>
<path d="M9.1875 5.52501H4.8125V8.07501H9.1875V5.52501ZM8.3125 7.22501H5.6875V6.37501H8.3125V7.22501Z" fill="#9798A8"/>
</svg>
