<svg width="14" height="18" viewBox="0 0 14 18" fill="none" xmlns="http://www.w3.org/2000/svg">
<path d="M6.97748 0.28903C6.95145 0.29034 6.9256 0.294138 6.90028 0.300372L3.60616 1.12998C3.42272 1.17612 3.29404 1.34217 3.29412 1.53263V4.02147C3.29412 5.3669 4.0083 6.54585 5.07227 7.20299C2.1474 8.04869 -1.23529e-07 10.7614 0 13.9768C2.27294e-05 14.2059 0.184363 14.3916 0.411765 14.3916H3.29412V17.2952C3.29325 17.5243 3.47687 17.7107 3.70427 17.7117H10.2941C10.5215 17.7107 10.7051 17.5243 10.7043 17.2952V14.3916H13.5882C13.8156 14.3916 14 14.2059 14 13.9768C14 10.7614 11.8526 8.04869 8.92773 7.20299C9.9917 6.54585 10.7059 5.3669 10.7059 4.02147V1.53263C10.706 1.34217 10.5773 1.17612 10.3938 1.12998L7.09972 0.300372C7.05977 0.29046 7.01856 0.286637 6.97748 0.28903V0.28903ZM7 1.13079L9.88235 1.8567V2.36144H4.11765V1.8567L7 1.13079ZM4.5278 3.19105H9.47381L8.85375 4.02066H5.14867L4.5278 3.19105ZM9.88235 4.02147C9.88235 5.63001 8.59676 6.9251 7 6.9251C5.40351 6.9251 4.11808 5.63044 4.11765 4.02228L4.61064 4.68499C4.68878 4.79005 4.81167 4.85165 4.94198 4.85108H9.06043C9.18961 4.85062 9.3111 4.78913 9.38856 4.68499L9.88235 4.02147ZM7 7.75471C10.275 7.75471 12.9195 10.3186 13.1347 13.562H10.7043V10.6592C10.7051 10.4301 10.5215 10.2436 10.2941 10.2427H3.70427C3.47687 10.2436 3.29325 10.4301 3.29412 10.6592V13.562H0.865349C1.08047 10.3186 3.72501 7.75471 7 7.75471ZM4.11765 11.0732H5.76551V12.3192C5.76642 12.547 5.94952 12.7315 6.17567 12.7324H7.82273C8.05044 12.7337 8.23599 12.5486 8.2369 12.3192V11.0732H9.88074V16.8812H4.11765V11.0732ZM6.58904 11.0732H7.41257V11.9028H6.58904V11.0732Z" fill="#9798A8"/>
<path d="M7.93601 15.2226C7.51693 15.2623 7.54708 16.506 7.96616 16.4662H8.59478C9.01387 16.4662 9.01387 15.2226 8.59478 15.2226H7.93601Z" fill="#9798A8"/>
</svg>
