<svg width="65" height="65" viewBox="0 0 65 65" fill="none" xmlns="http://www.w3.org/2000/svg">
<path d="M45.1389 7.22223H19.8611C18.9034 7.22223 17.9849 7.60268 17.3077 8.2799C16.6305 8.95711 16.25 9.87561 16.25 10.8333V54.1667C16.25 55.1244 16.6305 56.0429 17.3077 56.7201C17.9849 57.3973 18.9034 57.7778 19.8611 57.7778H45.1389C46.0966 57.7778 47.0151 57.3973 47.6923 56.7201C48.3695 56.0429 48.75 55.1244 48.75 54.1667V10.8333C48.75 9.87561 48.3695 8.95711 47.6923 8.2799C47.0151 7.60268 46.0966 7.22223 45.1389 7.22223ZM19.8611 10.8333H45.1389V43.3333H19.8611V10.8333ZM19.8611 54.1667V46.9445H45.1389V54.1667H19.8611Z" fill="#878BC8"/>
<path d="M30.6945 48.75H34.3056V52.3611H30.6945V48.75Z" fill="#878BC8"/>
</svg>
