<svg width="61" height="61" viewBox="0 0 61 61" fill="none" xmlns="http://www.w3.org/2000/svg">
<circle cx="30.5" cy="30.5" r="29" stroke="#878BC8" stroke-width="3" stroke-dasharray="4 4"/>
<path d="M34.7354 41.027L29.7674 41C26.4734 41 23.9984 41.108 22.3424 41.324C22.2164 41.108 22.1534 40.856 22.1534 40.568C22.7294 39.974 23.2244 39.389 23.6384 38.813C28.2464 32.603 31.9814 27.203 34.8434 22.613H31.6034C28.7414 22.613 26.5454 22.829 25.0154 23.261C24.8894 23.693 24.7184 24.611 24.5024 26.015C24.3764 26.087 24.2234 26.123 24.0434 26.123C23.8634 26.123 23.6654 26.105 23.4494 26.069C23.3954 24.773 23.2424 23.306 22.9904 21.668C22.9904 21.47 23.1434 21.371 23.4494 21.371C23.4494 21.371 25.9694 21.434 31.0094 21.56H32.6834C34.9694 21.56 37.0034 21.443 38.7854 21.209C38.9294 21.389 39.0014 21.623 39.0014 21.911C38.4254 22.325 36.5984 24.773 33.5204 29.255C30.4424 33.737 28.0574 37.292 26.3654 39.92H29.0654C30.4154 39.92 31.9364 39.803 33.6284 39.569C35.3204 39.335 36.4994 39.101 37.1654 38.867C37.5974 38.291 38.1014 37.409 38.6774 36.221C39.0734 36.221 39.4154 36.293 39.7034 36.437C39.3614 37.805 39.0824 39.182 38.8664 40.568C38.8484 40.784 38.6684 40.919 38.3264 40.973C38.0024 41.009 36.8054 41.027 34.7354 41.027Z" fill="#878BC8"/>
</svg>
