<svg width="64" height="80" viewBox="0 0 64 80" fill="none" xmlns="http://www.w3.org/2000/svg">
<path d="M61.3375 33.056C61.338 32.771 61.2434 32.494 61.0687 32.2688L57.3567 27.52L53.2351 18.88C52.6075 17.573 51.6246 16.4692 50.3987 15.6949C49.1729 14.9207 47.7537 14.5074 46.3039 14.5024H38.7967V12.5184C38.7967 12.1789 38.6618 11.8534 38.4218 11.6133C38.1817 11.3733 37.8562 11.2384 37.5167 11.2384H10.1503C9.81081 11.2384 9.48524 11.3733 9.24519 11.6133C9.00514 11.8534 8.87029 12.1789 8.87029 12.5184C8.87029 12.8579 9.00514 13.1835 9.24519 13.4235C9.48524 13.6635 9.81081 13.7984 10.1503 13.7984H36.2367V28.1216C36.2367 28.4611 36.3715 28.7867 36.6116 29.0267C36.8516 29.2667 37.1772 29.4016 37.5167 29.4016H55.5967L58.7967 33.4912V44.416H53.8687C53.5775 42.7707 52.7162 41.2804 51.4359 40.2068C50.1555 39.1332 48.538 38.5447 46.8671 38.5447C45.1962 38.5447 43.5786 39.1332 42.2983 40.2068C41.018 41.2804 40.1567 42.7707 39.8655 44.416H27.1679C26.8767 42.7707 26.0154 41.2804 24.7351 40.2068C23.4547 39.1332 21.8372 38.5447 20.1663 38.5447C18.4954 38.5447 16.8778 39.1332 15.5975 40.2068C14.3172 41.2804 13.4559 42.7707 13.1647 44.416H9.51029C9.17081 44.416 8.84524 44.5509 8.60519 44.7909C8.36514 45.031 8.23029 45.3565 8.23029 45.696C8.23029 46.0355 8.36514 46.3611 8.60519 46.6011C8.84524 46.8411 9.17081 46.976 9.51029 46.976H13.1775C13.4831 48.6079 14.3496 50.0815 15.627 51.142C16.9045 52.2024 18.5125 52.7828 20.1727 52.7828C21.8329 52.7828 23.4409 52.2024 24.7183 51.142C25.9958 50.0815 26.8623 48.6079 27.1679 46.976H39.8527C40.1583 48.6079 41.0248 50.0815 42.3022 51.142C43.5797 52.2024 45.1877 52.7828 46.8479 52.7828C48.5081 52.7828 50.1161 52.2024 51.3935 51.142C52.671 50.0815 53.5375 48.6079 53.8431 46.976H58.7775C59.4564 46.976 60.1076 46.7063 60.5877 46.2262C61.0678 45.7461 61.3375 45.095 61.3375 44.416V33.056ZM38.7967 17.056H46.3231C47.2903 17.0563 48.2377 17.3306 49.0554 17.8471C49.8732 18.3636 50.528 19.1012 50.9439 19.9744L54.2271 26.8608H38.7967V17.056ZM20.1663 50.2272C19.2632 50.2285 18.3801 49.9618 17.6287 49.4608C16.8773 48.9599 16.2914 48.2473 15.9453 47.4132C15.5991 46.5791 15.5082 45.6611 15.6841 44.7753C15.8599 43.8896 16.2947 43.0759 16.9332 42.4373C17.5718 41.7988 18.3855 41.364 19.2712 41.1882C20.157 41.0123 21.075 41.1032 21.9091 41.4494C22.7432 41.7956 23.4558 42.3814 23.9567 43.1328C24.4576 43.8842 24.7244 44.7673 24.7231 45.6704C24.7214 46.8784 24.2408 48.0365 23.3866 48.8907C22.5324 49.7449 21.3743 50.2255 20.1663 50.2272V50.2272ZM46.8479 50.2272C45.9451 50.2272 45.0626 49.9594 44.312 49.4577C43.5615 48.956 42.9766 48.243 42.6314 47.4088C42.2862 46.5746 42.1962 45.6568 42.3728 44.7714C42.5494 43.8861 42.9847 43.073 43.6235 42.4351C44.2623 41.7972 45.076 41.3631 45.9616 41.1877C46.8472 41.0124 47.7649 41.1036 48.5986 41.45C49.4323 41.7964 50.1445 42.3822 50.6452 43.1335C51.1458 43.8847 51.4124 44.7676 51.4111 45.6704C51.4094 46.8795 50.9279 48.0386 50.0723 48.8929C49.2167 49.7473 48.057 50.2272 46.8479 50.2272V50.2272Z" fill="#E0E4F2"/>
<path d="M15.4623 35.84C15.4623 35.5005 15.3274 35.1749 15.0874 34.9349C14.8474 34.6949 14.5218 34.56 14.1823 34.56H7.1423C6.80283 34.56 6.47725 34.6949 6.23721 34.9349C5.99716 35.1749 5.8623 35.5005 5.8623 35.84C5.8623 36.1795 5.99716 36.505 6.23721 36.7451C6.47725 36.9851 6.80283 37.12 7.1423 37.12H14.1823C14.5218 37.12 14.8474 36.9851 15.0874 36.7451C15.3274 36.505 15.4623 36.1795 15.4623 35.84Z" fill="#E0E4F2"/>
<path d="M3.94235 29.44H18.6624C19.0018 29.44 19.3274 29.3051 19.5675 29.0651C19.8075 28.8251 19.9424 28.4995 19.9424 28.16C19.9424 27.8205 19.8075 27.495 19.5675 27.2549C19.3274 27.0149 19.0018 26.88 18.6624 26.88H3.94235C3.60288 26.88 3.2773 27.0149 3.03726 27.2549C2.79721 27.495 2.66235 27.8205 2.66235 28.16C2.66235 28.4995 2.79721 28.8251 3.03726 29.0651C3.2773 29.3051 3.60288 29.44 3.94235 29.44V29.44Z" fill="#E0E4F2"/>
<path d="M5.8623 20.48C5.8623 20.8195 5.99716 21.1451 6.23721 21.3851C6.47725 21.6252 6.80283 21.76 7.1423 21.76H21.8623C22.2018 21.76 22.5274 21.6252 22.7674 21.3851C23.0074 21.1451 23.1423 20.8195 23.1423 20.48C23.1423 20.1405 23.0074 19.815 22.7674 19.5749C22.5274 19.3349 22.2018 19.2 21.8623 19.2H7.1423C6.80283 19.2 6.47725 19.3349 6.23721 19.5749C5.99716 19.815 5.8623 20.1405 5.8623 20.48Z" fill="#E0E4F2"/>
</svg>
