<svg width="20" height="20" viewBox="0 0 20 20" fill="none" xmlns="http://www.w3.org/2000/svg">
<g clip-path="url(#clip0_802_1471)">
<path d="M19.9699 5.28534C19.9601 5.26266 19.9485 5.24084 19.9351 5.22013C19.9284 5.20771 19.9204 5.19605 19.9112 5.18534C19.8969 5.16578 19.8809 5.14759 19.8633 5.131L19.8286 5.10056L19.8046 5.081L19.7633 5.05926L19.7373 5.04404L13.2155 2.21795C13.161 2.19432 13.1021 2.18213 13.0427 2.18213C12.9832 2.18213 12.9244 2.19432 12.8699 2.21795L6.34813 5.04404L6.32421 5.05926L6.28291 5.081C6.27442 5.08685 6.26642 5.0934 6.259 5.10056C6.24642 5.10953 6.23477 5.11972 6.22421 5.131C6.20659 5.14677 6.19057 5.16424 6.17639 5.18317C6.16697 5.19497 6.15826 5.20731 6.1503 5.22013C6.13684 5.24278 6.12591 5.26683 6.11769 5.29187C6.11769 5.30274 6.10682 5.3136 6.10247 5.32665C6.09109 5.36474 6.08523 5.40428 6.08508 5.44404V10.031H4.16769C4.05238 10.031 3.94179 10.0768 3.86026 10.1583C3.77872 10.2399 3.73291 10.3505 3.73291 10.4658C3.73291 10.5811 3.77872 10.6917 3.86026 10.7732C3.94179 10.8548 4.05238 10.9006 4.16769 10.9006H6.06552V14.5679C6.06581 14.6063 6.07167 14.6444 6.08291 14.681C6.08197 14.6897 6.08197 14.6984 6.08291 14.7071C6.09335 14.74 6.10797 14.7714 6.12639 14.8006C6.14617 14.8314 6.17034 14.8593 6.19813 14.8832L6.21987 14.9006C6.24756 14.9241 6.27826 14.9438 6.31117 14.9593L12.8329 17.7853C12.884 17.8063 12.9386 17.8174 12.9938 17.8179H13.0438C13.1028 17.8178 13.1611 17.806 13.2155 17.7832L19.7373 14.9571C19.7702 14.9417 19.8009 14.9219 19.8286 14.8984C19.8367 14.8938 19.8441 14.8879 19.8503 14.881C19.8788 14.8571 19.9037 14.8293 19.9242 14.7984C19.9429 14.769 19.9582 14.7377 19.9699 14.7049V14.6788C19.9853 14.6435 19.9956 14.6062 20.0003 14.5679V5.43752C19.9999 5.39778 19.994 5.35828 19.9829 5.32013L19.9699 5.28534ZM12.609 16.7419L6.93508 14.2832V10.9006H7.9003C8.01561 10.9006 8.1262 10.8548 8.20774 10.7732C8.28927 10.6917 8.33508 10.5811 8.33508 10.4658C8.33508 10.3505 8.28927 10.2399 8.20774 10.1583C8.1262 10.0768 8.01561 10.031 7.9003 10.031H6.93508V6.10273L12.609 8.57882V16.7419ZM12.9742 7.79839L7.5916 5.43752L13.0438 3.08534L18.4655 5.43752L12.9742 7.79839ZM19.1307 14.2832L13.4786 16.7419V8.52012L19.1307 6.08969V14.2832Z" fill="#FF3541"/>
<path d="M0.434782 8.12884H3.23478C3.35009 8.12884 3.46068 8.08303 3.54222 8.0015C3.62376 7.91996 3.66956 7.80937 3.66956 7.69406C3.66956 7.57875 3.62376 7.46816 3.54222 7.38662C3.46068 7.30508 3.35009 7.25928 3.23478 7.25928H0.434782C0.319471 7.25928 0.208882 7.30508 0.127345 7.38662C0.0458073 7.46816 0 7.57875 0 7.69406C0 7.80937 0.0458073 7.91996 0.127345 8.0015C0.208882 8.08303 0.319471 8.12884 0.434782 8.12884Z" fill="#FF3541"/>
<path d="M3.66956 13.6983C3.66956 13.583 3.62376 13.4724 3.54222 13.3909C3.46068 13.3094 3.35009 13.2635 3.23478 13.2635H0.434782C0.319471 13.2635 0.208882 13.3094 0.127345 13.3909C0.0458073 13.4724 0 13.583 0 13.6983C0 13.8136 0.0458073 13.9242 0.127345 14.0058C0.208882 14.0873 0.319471 14.1331 0.434782 14.1331H3.23478C3.35009 14.1331 3.46068 14.0873 3.54222 14.0058C3.62376 13.9242 3.66956 13.8136 3.66956 13.6983Z" fill="#FF3541"/>
</g>
<defs>
<clipPath id="clip0_802_1471">
<rect width="20" height="20" fill="white"/>
</clipPath>
</defs>
</svg>
