<svg width="13" height="16" viewBox="0 0 13 16" fill="none" xmlns="http://www.w3.org/2000/svg">
<g clip-path="url(#clip0_807_1482)">
<path d="M8.20347 6.52803L5.95447 8.74243L4.79747 7.60323C4.60247 7.41123 4.29047 7.41123 4.09547 7.60323C3.90047 7.79523 3.90047 8.10243 4.09547 8.29443L5.60347 9.77923C5.69447 9.86883 5.82447 9.92003 5.95447 9.92003C6.08447 9.92003 6.21447 9.86883 6.30547 9.77923L8.90547 7.21923C9.10047 7.02723 9.10047 6.72003 8.90547 6.52803C8.71047 6.33603 8.39847 6.33603 8.20347 6.52803Z" fill="#474D9B"/>
<path d="M11.4402 1.38238H9.5942V0.921581C9.5942 0.652781 9.3732 0.435181 9.1002 0.435181C8.8272 0.435181 8.6062 0.652781 8.6062 0.921581V1.38238H4.4072V0.921581C4.4072 0.652781 4.1862 0.435181 3.9132 0.435181C3.6402 0.435181 3.4192 0.652781 3.4192 0.921581V1.38238H1.5602C0.871195 1.38238 0.325195 1.93278 0.325195 2.59838V11.1488C0.325195 11.8272 0.884195 12.3648 1.5602 12.3648H11.4402C12.1292 12.3648 12.6752 11.8144 12.6752 11.1488V2.59838C12.6752 1.93278 12.1162 1.38238 11.4402 1.38238ZM1.5602 2.35518H3.4062V2.81598C3.4062 3.08478 3.6272 3.30238 3.9002 3.30238C4.1732 3.30238 4.3942 3.08478 4.3942 2.81598V2.35518H8.5802V2.81598C8.5802 3.08478 8.8012 3.30238 9.0742 3.30238C9.3472 3.30238 9.5682 3.08478 9.5682 2.81598V2.35518H11.4402C11.5702 2.35518 11.6872 2.47038 11.6872 2.59838V3.94238H1.3132V2.59838C1.3132 2.47038 1.4302 2.35518 1.5602 2.35518ZM11.4402 11.392H1.5602C1.4302 11.392 1.3132 11.2768 1.3132 11.1488V4.91518H11.6742V11.1488C11.6872 11.2768 11.5702 11.392 11.4402 11.392Z" fill="#474D9B"/>
</g>
<defs>
<clipPath id="clip0_807_1482">
<rect width="13" height="16" fill="white"/>
</clipPath>
</defs>
</svg>
