<svg width="28" height="35" viewBox="0 0 28 35" fill="none" xmlns="http://www.w3.org/2000/svg">
<g clip-path="url(#clip0_1195_1675)">
<path d="M14.0004 1.3999C7.05639 1.3999 1.40039 7.0559 1.40039 13.9999C1.40039 20.9439 7.05639 26.5999 14.0004 26.5999C20.9444 26.5999 26.6004 20.9439 26.6004 13.9999C26.6004 7.0559 20.9444 1.3999 14.0004 1.3999ZM15.4004 23.6879V14.8959L17.9484 17.4439L19.9364 15.4559L14.0004 9.5479L8.06439 15.4839L10.0524 17.4719L12.6004 14.9239V23.7159C7.86839 23.0439 4.20039 18.9559 4.20039 14.0279C4.20039 8.6239 8.59639 4.2279 14.0004 4.2279C19.4044 4.2279 23.8004 8.6239 23.8004 14.0279C23.8004 18.9279 20.1324 23.0159 15.4004 23.6879Z" fill="#474D9B"/>
</g>
<defs>
<clipPath id="clip0_1195_1675">
<rect width="28" height="35" fill="white"/>
</clipPath>
</defs>
</svg>
