<svg width="100" height="100" viewBox="0 0 100 100" fill="none" xmlns="http://www.w3.org/2000/svg">
<path d="M89.0244 69.3902H80.2439C79.3902 64.1463 77.8049 58.6585 76.7073 54.878C75.8537 51.9512 73.2927 49.7561 70.2439 49.5122C65.8537 49.1463 61.2195 47.1951 57.3171 43.9024C58.9024 42.1951 60.3658 40 61.5854 37.6829C62.8049 37.6829 65.3658 37.9268 66.0976 35.2439L67.0732 31.7073C67.561 30.1219 66.5854 28.4146 64.7561 28.4146C65 27.0732 65.1219 25.8537 65.1219 24.7561C65.1219 16.5854 58.4146 10 50.2439 10C42.0732 10 35.3659 16.7073 35.3659 24.7561C35.3659 25.8537 35.4878 27.0732 35.7317 28.4146H35.6098C33.9024 28.4146 32.9268 29.878 33.2927 31.7073L34.2683 35.2439C35 37.9268 37.561 37.6829 38.7805 37.6829C39.878 40 41.3415 42.0732 42.9268 43.7805C38.9024 47.1951 34.3902 49.0244 30 49.5122C26.8293 49.878 24.2683 51.9512 23.2927 54.878C22.1951 58.6585 20.6098 64.1463 19.7561 69.3902H10.9756C10.4878 69.3902 10 69.7561 10 70.3658V79.7561C10 80.2439 10.3659 80.7317 10.9756 80.7317H15.3659V89.0244C15.3659 89.5122 15.7317 90 16.3415 90H83.7805C84.2683 90 84.7561 89.6341 84.7561 89.0244V80.6097H89.0244C89.5122 80.6097 90 80.2439 90 79.6341V70.2439C90 69.878 89.5122 69.3902 89.0244 69.3902ZM74.878 55.4878C75.9756 59.1463 77.439 64.3902 78.2927 69.3902H64.6341C65.3658 67.561 65.9756 65.8537 66.3415 64.0244C66.4634 63.6585 66.3415 63.2927 66.0976 63.1707L63.2927 60.6098L66.5854 60.2439C66.9512 60.2439 67.3171 59.878 67.3171 59.5122C67.8049 56.7073 67.9268 53.9024 67.8049 51.0976C68.5366 51.2195 69.2683 51.3415 70 51.4634C72.3171 51.5854 74.2683 53.2927 74.878 55.4878ZM36.5854 64.7561L40.9756 60.6098C41.5854 60.1219 41.2195 59.1463 40.4878 59.0244L35.8537 58.4146C35.7317 55.6098 35.7317 52.6829 35.8537 50C37.561 49.3902 39.2683 48.5366 40.7317 47.561C40.7317 54.7561 42.6829 62.561 45.1219 69.3902H37.561C37.1951 67.9268 36.9512 66.3415 36.5854 64.7561ZM57.9268 46.7073C57.9268 47.439 57.8049 48.4146 57.6829 49.3902C57.1951 50.6098 57.561 49.7561 55.4878 53.6585C54.0244 51.0976 52.439 49.1463 50 49.1463C47.6829 48.7805 45.6098 51.7073 44.5122 53.6585L42.8049 50.4878C42.6829 48.6585 42.6829 47.6829 42.6829 46.2195C43.2927 45.8537 43.7805 45.3658 44.1463 45C45.9756 46.4634 47.9268 47.439 50.1219 47.439C52.1951 47.439 54.1463 46.5854 55.8537 45.1219C56.4634 45.7317 57.439 46.4634 57.9268 46.7073ZM46.3415 54.1463L46.5854 55.3659C46.5854 55.6098 46.8293 55.8537 47.0732 55.9756L46.4634 67.1951C45.1219 63.0488 44.0244 59.1463 43.4146 55.4878L43.7805 56.0976C44.1463 56.8293 45.1219 56.7073 45.3659 56.0976C45.6098 55.3658 45.9756 54.7561 46.3415 54.1463ZM47.9268 52.0732C49.1463 50.6098 49.7561 50.9756 49.7561 50.9756C49.878 50.9756 50.1219 50.9756 50.2439 50.9756C50.9756 50.8537 51.8293 51.7073 52.3171 52.3171L51.9512 54.2683H48.2927L47.9268 52.0732ZM53.7805 54.3902C54.1463 54.878 54.3902 55.4878 54.6341 55.9756C55 56.7073 55.8537 56.7073 56.2195 55.9756L57.0732 54.5122C56.4634 58.7805 55.4878 63.9024 53.9024 68.7805L53.1707 55.8537C53.6585 55.6098 53.6585 55 53.7805 54.3902ZM48.9024 55.9756H51.3415L52.0732 69.3902H48.0488L48.9024 55.9756ZM59.6341 47.9268C61.7073 49.1463 64.1463 50.1219 65.9756 50.6098C66.0976 53.1707 66.0976 55.8537 65.6097 58.4146L61.0976 59.0244C60.3658 59.1463 60 60.1219 60.6098 60.6098L64.3902 64.1463C63.9024 65.8537 63.2927 67.561 62.561 69.3902H55.6097C57.6829 62.6829 59.0244 54.878 59.6341 47.9268ZM65.1219 30.4878C65.2439 30.6098 65.2439 30.9756 65.2439 31.2195L64.2683 34.7561C64.1463 35.3659 63.5366 35.8537 62.9268 35.8537H62.3171C63.1707 34.0244 63.7805 32.0732 64.1463 30.2439C64.5122 30.3659 64.878 30.2439 65.1219 30.4878ZM50.1219 11.9512C57.3171 11.9512 63.1707 17.8049 63.1707 24.878C63.1707 32.0732 57.0732 45.8537 50.1219 45.7317C43.0488 45.6098 37.1951 31.9512 37.1951 24.878C37.1951 17.6829 43.0488 11.9512 50.1219 11.9512ZM37.3171 35.8537C36.8293 35.8537 36.2195 35.3659 35.9756 34.7561L35 31.2195C34.878 30.7317 35 30.2439 35.4878 30.2439H35.9756C36.4634 32.0732 37.0732 33.9024 37.8049 35.8537H37.3171ZM25.122 55.4878C25.8537 53.2927 27.8049 51.5854 30.2439 51.3415C31.5854 51.2195 32.9268 50.8537 34.1463 50.4878C34.0244 53.4146 34.0244 56.3415 34.1463 59.2683C34.1463 59.7561 34.5122 60 35 60.1219L38.4146 60.4878L35.1219 63.6585C34.878 63.9024 34.7561 64.1463 34.878 64.5122C35.1219 66.2195 35.4878 67.8049 35.8537 69.3902H21.5854C22.561 64.3902 24.0244 59.1463 25.122 55.4878ZM82.8049 88.1707H17.1951V80.6097H82.8049V88.1707ZM88.1707 78.7805C80.3659 78.7805 20.3659 78.7805 11.9512 78.7805V71.2195C20.6098 71.2195 78.9024 71.2195 88.1707 71.2195V78.7805Z" fill="#685CA3" fill-opacity="0.2"/>
</svg>
