<svg width="26" height="31" viewBox="0 0 26 31" fill="none" xmlns="http://www.w3.org/2000/svg">
<path d="M9.48594 13.7492C9.48771 15.4065 10.3043 16.957 11.6701 17.896C11.1639 18.7957 10.4291 19.546 9.53973 20.0705L9.48594 20.02C9.05602 19.6408 8.49293 19.4479 7.92063 19.4838C7.3485 19.52 6.8139 19.7817 6.43468 20.2118C6.05546 20.6419 5.86277 21.205 5.89872 21.7771C5.93399 22.3254 6.17629 22.8395 6.57645 23.2156C6.97682 23.592 7.50506 23.8019 8.05427 23.8032H8.19339C8.76507 23.7657 9.29882 23.5033 9.67736 23.0732C10.0559 22.643 10.2486 22.0804 10.2131 21.5085C11.4266 20.818 12.4226 19.8021 13.0891 18.5754C14.66 19.0423 16.3595 18.716 17.6457 17.701C18.9322 16.6857 19.6443 15.1085 19.5552 13.4722C19.4661 11.8361 18.5869 10.3455 17.1979 9.47594C17.1728 6.61359 16.9978 3.75462 16.6732 0.910611C16.6294 0.581673 16.3844 0.315113 16.0601 0.243716C15.5511 0.133263 15.0345 0.0605067 14.5146 0.0256719C13.7531 -0.026579 12.9883 0.000979453 12.2325 0.107905C11.8028 0.175808 11.509 0.578603 11.5753 1.00874C11.9212 3.76747 12.1101 6.54381 12.141 9.32461C11.3418 9.75584 10.6738 10.3943 10.2066 11.1728C9.73945 11.9515 9.49051 12.8415 9.48588 13.7494L9.48594 13.7492ZM8.09521 22.2321H8.09543C7.86195 22.2465 7.64281 22.1197 7.53874 21.9103C7.4349 21.701 7.46643 21.4497 7.61877 21.2724C7.77112 21.0952 8.01495 21.0264 8.23741 21.0978C8.46008 21.1695 8.61816 21.3672 8.63889 21.6C8.653 21.7563 8.60295 21.9118 8.50066 22.0308C8.39836 22.1499 8.25197 22.2224 8.09543 22.2321L8.09521 22.2321ZM13.2504 1.59656C13.6409 1.57208 14.0324 1.57208 14.4229 1.59656C14.6727 1.61243 14.9253 1.64087 15.1782 1.68188C15.4185 3.73313 15.5607 6.53351 15.6081 8.81871C14.9855 8.67717 14.3409 8.66107 13.7118 8.77131C13.658 6.52099 13.5031 3.69521 13.2504 1.59666L13.2504 1.59656ZM14.5146 10.2725C15.4366 10.2725 16.3209 10.6389 16.973 11.2909C17.625 11.943 17.9914 12.8273 17.9914 13.7493C17.9914 14.6713 17.625 15.5556 16.973 16.2078C16.3209 16.8597 15.4366 17.2261 14.5146 17.2261C13.5926 17.2261 12.7083 16.8597 12.0561 16.2078C11.4042 15.5556 11.0378 14.6713 11.0378 13.7493C11.0378 12.8273 11.4042 11.943 12.0561 11.2909C12.7083 10.6389 13.5926 10.2725 14.5146 10.2725ZM0.149476 19.0783C-0.0498252 18.6285 -0.0498252 18.1155 0.149476 17.6655L1.96063 13.604L1.96041 13.6043C2.21991 13.0236 2.35351 12.3943 2.35241 11.7583C2.34535 9.55758 2.95936 7.39942 4.12389 5.53183C5.28864 3.66423 6.95649 2.16349 8.93607 1.20158C9.32784 1.00956 9.80118 1.1716 9.99319 1.5636C10.1852 1.95537 10.0232 2.42871 9.6314 2.62072C7.91901 3.45388 6.47669 4.7533 5.47025 6.3698C4.46381 7.98629 3.93424 9.85384 3.9422 11.7581C3.94286 12.6154 3.76185 13.4632 3.41131 14.2456L1.59377 18.3071C1.57548 18.3487 1.5757 18.3961 1.59444 18.4378C1.61318 18.4793 1.64845 18.511 1.69188 18.5251L3.39236 19.0878C3.71491 19.1951 3.93251 19.4967 3.93273 19.8367V24.0089C3.93273 24.3224 4.05729 24.6229 4.27887 24.8447C4.50066 25.0663 4.80138 25.1908 5.11485 25.1908H9.35954C9.71074 25.1908 10.0198 25.4228 10.1181 25.7599L11 28.8477H10.9998C11.0514 29.0049 11.2154 29.096 11.3759 29.0563L22.7322 25.8262C22.8949 25.7773 22.9899 25.6084 22.9469 25.4437L21.2657 19.5621C21.1949 19.2923 21.2718 19.0052 21.4678 18.8068C22.4454 17.7953 23.2005 16.5906 23.6851 15.2703C24.1694 13.9497 24.3723 12.5426 24.2808 11.1389C24.1639 9.36613 23.5872 7.65442 22.6072 6.17242C21.6275 4.69042 20.2782 3.48932 18.6928 2.68748C18.3037 2.48928 18.1487 2.0133 18.3467 1.62392C18.5449 1.23458 19.0211 1.07981 19.4103 1.27779C21.2373 2.20617 22.7911 3.5938 23.9193 5.30444C25.0476 7.01508 25.7113 8.99003 25.8455 11.0348C25.9481 12.5814 25.741 14.1328 25.2362 15.5981C24.7315 17.0635 23.9393 18.4135 22.906 19.5687L24.4643 25.0304V25.0302C24.5926 25.508 24.5293 26.0168 24.2877 26.4485C24.0463 26.8799 23.6457 27.2003 23.1715 27.3408L11.809 30.5867C11.3284 30.7205 10.8142 30.6597 10.3783 30.417C9.94226 30.1744 9.61928 29.7699 9.47971 29.2908L8.7623 26.7623H5.11797C4.38555 26.7616 3.68338 26.4701 3.16549 25.9522C2.64782 25.4343 2.35636 24.7324 2.35546 24V20.4125L1.19556 20.03V20.0302C0.728172 19.8748 0.348286 19.5293 0.149448 19.0787L0.149476 19.0783Z" fill="white"/>
</svg>
