<svg width="100" height="100" viewBox="0 0 100 100" fill="none" xmlns="http://www.w3.org/2000/svg">
<path d="M90 37.2451C89.9982 36.0306 89.6409 34.7989 88.851 33.7835L82.5122 25.6729C81.4504 24.3248 79.835 23.6385 78.2205 23.6357C77.2597 23.6357 76.2815 23.8821 75.417 24.4212L69.2364 28.2664C68.5864 28.681 67.4719 28.9655 66.3956 28.9582C65.5593 28.9619 64.7511 28.7946 64.2175 28.531L58.1651 25.5993C57.1888 25.1293 56.1006 24.9366 55.0061 24.9348C53.4344 24.942 51.8426 25.3284 50.5636 26.2147L49.8573 26.7101C49.2928 26.4283 48.4301 25.9993 47.4528 25.5129C46.2811 24.9384 44.903 24.7066 43.5112 24.7021C42.254 24.7057 40.9968 24.8993 39.8932 25.3657L35.7706 27.1247C35.0998 27.4156 34.0325 27.6056 32.9726 27.601C31.9126 27.6056 30.8472 27.4156 30.1764 27.1247L26.0502 25.3648C25.2975 25.0439 24.493 24.9066 23.6957 24.9057C22.7776 24.9066 21.8649 25.0875 21.0168 25.4311C20.1695 25.7766 19.3832 26.2865 18.7569 26.9865L11.2445 35.3998C10.4118 36.3297 9.99819 37.5006 10 38.6532C9.99819 40.0277 10.5863 41.4068 11.7208 42.3731L18.7287 48.3519L15.4043 51.8199C14.488 52.7762 14.0316 54.0162 14.0316 55.2425C14.0298 56.547 14.548 57.8642 15.5743 58.8341L16.2488 59.475C16.8842 60.0777 17.6478 60.4613 18.4469 60.6659C18.046 61.4031 17.8269 62.2113 17.8287 63.0212C17.8269 64.3266 18.3451 65.6429 19.3696 66.6138L19.3678 66.6129L20.0441 67.2565C21.0068 68.1692 22.2549 68.6237 23.4848 68.6228C24.1457 68.6237 24.8075 68.491 25.4293 68.231C25.6475 69.1164 26.0984 69.9582 26.8074 70.6309L27.4838 71.2745C28.4464 72.1872 29.6927 72.6417 30.9245 72.6408C31.8872 72.6417 32.8544 72.3581 33.6871 71.8072C33.9307 72.5908 34.348 73.3335 34.9834 73.9371L35.6597 74.5807C36.6206 75.4934 37.8687 75.9479 39.0987 75.947C40.4086 75.9479 41.7313 75.4334 42.7085 74.4134L45.6466 71.3454L49.6382 75.0398C50.5936 75.9261 51.8199 76.367 53.0308 76.3642C54.3607 76.367 55.7025 75.8343 56.6815 74.7861L57.3188 74.1034C57.8687 73.5126 58.2278 72.8135 58.436 72.0835L59.9823 73.5107C60.9395 74.3934 62.164 74.8325 63.373 74.8316C64.7048 74.8325 66.0502 74.2998 67.0301 73.2508L67.6637 72.569C68.3955 71.7872 68.8073 70.819 68.9346 69.83C69.3428 69.9345 69.7564 70.0054 70.1736 70.0054C71.5054 70.0054 72.8471 69.4737 73.828 68.4255L74.4634 67.7437C75.3516 66.792 75.7934 65.5711 75.7916 64.3675C75.7916 63.9939 75.7379 63.6221 75.6552 63.2548C76.7597 63.1085 77.8306 62.6158 78.6451 61.7413L79.2823 61.0586C80.1704 60.1068 80.6104 58.886 80.6104 57.6815C80.6123 56.3561 80.0777 55.0189 79.0232 54.0444L77.8315 52.9435L88.5873 41.0513C89.5527 39.9805 89.9982 38.6023 90 37.2451ZM17.4515 56.876C16.9842 56.4342 16.7533 55.8461 16.7515 55.2425C16.7533 54.6761 16.9561 54.1234 17.3733 53.688L24.1821 46.5829C24.6257 46.1202 25.2175 45.8884 25.8247 45.8875C26.3929 45.8884 26.9483 46.0929 27.3874 46.5065L28.0601 47.1483C28.0601 47.1483 28.7564 48.1783 28.7582 48.7828C28.7564 49.2355 28.6201 49.6764 28.3555 50.0582C28.3328 50.0809 21.0068 57.716 21.0068 57.716C20.6177 57.9914 20.1577 58.1333 19.6896 58.1351C19.1196 58.1333 18.5623 57.9296 18.1269 57.5169L17.4515 56.876ZM23.4867 65.9156C22.9167 65.9147 22.3613 65.7102 21.924 65.2975L21.2477 64.6548L21.2459 64.6539C20.7822 64.2139 20.5495 63.6239 20.5495 63.0203C20.5495 62.454 20.7541 61.9013 21.1695 61.4658C21.1695 61.4658 30.2454 52.0181 30.3218 51.9272C30.7554 51.5099 31.3145 51.2945 31.8917 51.2936C32.4617 51.2945 33.0171 51.4981 33.4544 51.9117L34.1307 52.5553C34.5962 52.9953 34.8271 53.5844 34.8289 54.1889C34.8271 54.7552 34.6225 55.3088 34.2071 55.7443L25.1275 65.222C24.6848 65.6829 24.0939 65.9138 23.4867 65.9156ZM30.9263 69.9336C30.3564 69.9327 29.8009 69.7282 29.3637 69.3146L28.6855 68.6719C28.2201 68.231 27.9874 67.6419 27.9874 67.0383C27.9874 66.5329 28.1592 66.0429 28.4883 65.6347L34.8089 59.0378C35.2352 58.6532 35.7697 58.4505 36.3234 58.4505C36.8933 58.4514 37.4488 58.6551 37.886 59.0687L38.5642 59.7123C39.0278 60.1523 39.2605 60.7413 39.2623 61.3449C39.2605 61.9122 39.0541 62.4658 38.6405 62.9003L32.5662 69.2391C32.1245 69.7009 31.5336 69.9318 30.9263 69.9336ZM40.7404 72.5453C40.2986 73.0071 39.7068 73.238 39.0996 73.2398C38.5296 73.2389 37.9742 73.0344 37.5369 72.6208L36.8606 71.9781C36.397 71.5381 36.1643 70.9481 36.1624 70.3445C36.1643 69.7773 36.3688 69.2237 36.7842 68.79L40.6177 64.7875C41.0613 64.3257 41.6531 64.0939 42.2604 64.093C42.8285 64.0939 43.3858 64.2975 43.823 64.7121L44.5012 65.3547C44.9648 65.7947 45.1957 66.3838 45.1975 66.9874C45.1957 67.5546 44.9911 68.1083 44.5757 68.5428L40.7404 72.5453ZM77.2906 59.2178L76.6552 59.8995C76.2115 60.3741 75.6097 60.6141 74.9934 60.615C74.4343 60.6141 73.8871 60.4177 73.4526 60.0159L62.744 50.1127L60.8922 52.0954L72.3544 62.714C72.8317 63.1558 73.0717 63.7557 73.0753 64.3684C73.0717 64.9266 72.8744 65.4702 72.4717 65.9029L71.8381 66.5847C71.3945 67.0592 70.7927 67.2983 70.1764 67.3001C69.6173 67.2983 69.0682 67.101 68.6373 66.702L57.926 56.7988L56.0761 58.7814L65.582 67.5719C66.0402 68.011 66.2747 68.5955 66.2747 69.1955C66.2747 69.7518 66.0775 70.2963 65.6747 70.7281L65.0393 71.4099C64.5975 71.8845 63.9939 72.1244 63.3758 72.1263C62.8149 72.1244 62.2676 71.9272 61.8349 71.5281L52.3481 62.7694H52.3463L52.3444 62.7676L50.4982 64.7539L50.5 64.7557L50.5354 64.7893L55.287 69.1746C55.7079 69.6073 55.9261 70.1618 55.9279 70.7354C55.9261 71.289 55.7307 71.8308 55.3279 72.2626L54.6925 72.9453C54.2489 73.4198 53.6489 73.658 53.0344 73.6598C52.4753 73.658 51.9281 73.4617 51.4954 73.0608L47.3583 69.23C47.7183 68.5237 47.9192 67.7574 47.9192 66.9883C47.921 65.6838 47.4029 64.3684 46.3784 63.3967L45.7002 62.7531C44.7393 61.8413 43.493 61.3858 42.2631 61.3877C42.1676 61.3877 42.0713 61.4095 41.9776 61.4149C41.9776 61.3922 41.9831 61.3686 41.9831 61.3458C41.9849 60.0414 40.4423 57.7524 40.4423 57.7524L39.7659 57.1106C39.0469 56.4288 38.1696 56.0034 37.2569 55.8325C37.4451 55.2998 37.5515 54.7452 37.5515 54.1898C37.5515 52.8853 37.0351 51.569 36.0106 50.5981L35.3343 49.9545C34.3716 49.0419 33.1253 48.5864 31.8954 48.5873C31.7517 48.5873 31.6099 48.6164 31.4672 48.6292C31.4281 47.3765 30.9236 46.1247 29.9418 45.192V45.1911L29.2673 44.5502C28.3046 43.6366 27.0583 43.1812 25.8284 43.1821C24.5166 43.1812 23.1958 43.6957 22.2185 44.7157L20.6113 46.3929L13.4917 40.3204C12.9799 39.8823 12.7244 39.2768 12.7226 38.6551C12.7244 38.1342 12.9017 37.6242 13.2799 37.2006L20.7922 28.7873C21.0904 28.4528 21.5313 28.1501 22.0476 27.9401C22.564 27.7301 23.1503 27.6147 23.6985 27.6156C24.1757 27.6156 24.6239 27.7019 24.9821 27.8565L29.1064 29.6164C30.2691 30.1064 31.619 30.3073 32.9753 30.3118C34.3334 30.3073 35.6816 30.1064 36.8442 29.6164L40.9668 27.8574C41.6022 27.5801 42.5613 27.4083 43.5148 27.4119C44.5693 27.4056 45.6257 27.6237 46.2384 27.9365C46.6274 28.1301 46.9965 28.3137 47.3392 28.4855L43.1349 31.4408C41.784 32.3908 41.0559 33.9016 41.0577 35.4261C41.0559 36.4352 41.3759 37.4624 42.0267 38.3342L42.0249 38.3323L42.5803 39.0787C43.6348 40.4804 45.2793 41.2013 46.9229 41.2049C47.851 41.2049 48.7964 40.9704 49.6391 40.465L52.1535 38.955C52.6662 38.6414 53.4408 38.4433 54.2416 38.4469C55.1825 38.4414 56.1306 38.7196 56.7006 39.1387L63.6567 44.1257C65.2048 45.2348 67.7265 47.2919 69.1237 48.5864L77.1751 56.0306C77.6524 56.4733 77.8924 57.0706 77.8942 57.6842C77.8933 58.2405 77.6942 58.785 77.2906 59.2178ZM86.5683 39.2414L75.8425 51.1018L70.9727 46.6002C69.4473 45.192 66.932 43.1385 65.2448 41.9267L58.2905 36.9397C57.1115 36.1043 55.6679 35.7434 54.2407 35.7379C53.0262 35.7416 51.8027 36.0061 50.7463 36.6352L48.2337 38.1451C47.8483 38.3769 47.3938 38.4951 46.922 38.496C46.0784 38.4987 45.2339 38.1051 44.763 37.4642L44.2094 36.7188L44.2075 36.717C43.913 36.3197 43.7757 35.8743 43.7739 35.4234C43.7776 34.7416 44.0921 34.0798 44.7012 33.6498L52.1354 28.4264C52.7781 27.961 53.9216 27.6347 55.008 27.6428C55.7625 27.6392 56.4833 27.791 56.977 28.0346L63.0294 30.9663C64.0612 31.4617 65.2257 31.6645 66.3974 31.6672C67.9028 31.6599 69.4246 31.3327 70.6782 30.5627L76.8606 26.7165C77.2551 26.4702 77.7287 26.3429 78.2224 26.3429C79.0569 26.3411 79.8932 26.7192 80.3668 27.3365L86.7056 35.447C87.071 35.9115 87.2829 36.567 87.2829 37.246C87.2838 38.006 87.0156 38.7532 86.5683 39.2414Z" fill="#685CA3" fill-opacity="0.2"/>
</svg>
