<svg width="24" height="20" viewBox="0 0 24 20" fill="none" xmlns="http://www.w3.org/2000/svg">
<path d="M19.9999 0H4.0001C2.93958 0.00133931 1.92286 0.423025 1.17283 1.17302C0.422992 1.92286 0.00112654 2.93953 0 4.0001V15.4286C0.00114799 16.4891 0.423026 17.5058 1.17283 18.2559C1.92281 19.0057 2.93953 19.4276 4.0001 19.4287H19.9999C21.0604 19.4274 22.0771 19.0055 22.827 18.2557C23.5768 17.5058 23.9987 16.4892 24 15.4286V4.0001C23.9987 2.93958 23.5768 1.92305 22.827 1.17322C22.0771 0.423236 21.0605 0.00132246 19.9999 0ZM22.857 8.5715H1.1427V6.2859H22.8575L22.857 8.5715ZM19.9999 18.2862H4.0001C3.24262 18.2852 2.51635 17.9839 1.98065 17.4484C1.44511 16.9126 1.14378 16.1864 1.14285 15.4289V9.71494H22.8576V15.4289C22.8567 16.1864 22.5553 16.9127 22.0198 17.4484C21.4841 17.9839 20.7578 18.2853 20.0004 18.2862H19.9999ZM22.857 5.14339L1.1427 5.1432V4.0004C1.14366 3.24292 1.445 2.51665 1.98051 1.9811C2.51625 1.44536 3.24253 1.14403 3.99995 1.1433H19.9998C20.7572 1.14406 21.4835 1.4454 22.0192 1.9811C22.5547 2.51665 22.8561 3.24292 22.857 4.0004V5.14339Z" fill="white"/>
<path d="M9.71421 12H4.00021C3.68452 12 3.42871 12.256 3.42871 12.5715C3.42871 12.887 3.68452 13.143 4.00021 13.143H9.71421C10.0299 13.143 10.2857 12.887 10.2857 12.5715C10.2857 12.256 10.0299 12 9.71421 12Z" fill="white"/>
<path d="M7.42881 14.8575H4.00021C3.68452 14.8575 3.42871 15.1133 3.42871 15.4288C3.42871 15.7445 3.68452 16.0003 4.00021 16.0003H7.42881C7.74431 16.0003 8.00011 15.7445 8.00011 15.4288C8.00011 15.1133 7.7443 14.8575 7.42881 14.8575Z" fill="white"/>
</svg>
