<svg width="604" height="433" viewBox="0 0 604 433" fill="none" xmlns="http://www.w3.org/2000/svg">
<rect x="166.5" y="81.5" width="437" height="241" rx="9.5" fill="url(#paint0_linear)" stroke="#AFAFAF"/>
<rect x="405" y="122" width="198" height="43" fill="#C4C4C4"/>
<rect x="375" y="202" width="198" height="43" fill="#ECECEC"/>
<path d="M527.695 229H526.242V219.367L523.328 220.438V219.125L527.469 217.57H527.695V229ZM539.383 229H531.93V227.961L535.867 223.586C536.451 222.924 536.852 222.388 537.07 221.977C537.294 221.56 537.406 221.13 537.406 220.688C537.406 220.094 537.227 219.607 536.867 219.227C536.508 218.846 536.029 218.656 535.43 218.656C534.711 218.656 534.151 218.862 533.75 219.273C533.354 219.68 533.156 220.247 533.156 220.977H531.711C531.711 219.93 532.047 219.083 532.719 218.438C533.396 217.792 534.299 217.469 535.43 217.469C536.487 217.469 537.323 217.747 537.938 218.305C538.552 218.857 538.859 219.594 538.859 220.516C538.859 221.635 538.146 222.969 536.719 224.516L533.672 227.82H539.383V229ZM543.016 222.609H544.102C544.784 222.599 545.32 222.419 545.711 222.07C546.102 221.721 546.297 221.25 546.297 220.656C546.297 219.323 545.633 218.656 544.305 218.656C543.68 218.656 543.18 218.836 542.805 219.195C542.435 219.549 542.25 220.021 542.25 220.609H540.805C540.805 219.708 541.133 218.961 541.789 218.367C542.451 217.768 543.289 217.469 544.305 217.469C545.378 217.469 546.219 217.753 546.828 218.32C547.438 218.888 547.742 219.677 547.742 220.688C547.742 221.182 547.581 221.661 547.258 222.125C546.94 222.589 546.505 222.935 545.953 223.164C546.578 223.362 547.06 223.69 547.398 224.148C547.742 224.607 547.914 225.167 547.914 225.828C547.914 226.849 547.581 227.659 546.914 228.258C546.247 228.857 545.38 229.156 544.312 229.156C543.245 229.156 542.375 228.867 541.703 228.289C541.036 227.711 540.703 226.948 540.703 226H542.156C542.156 226.599 542.352 227.078 542.742 227.438C543.133 227.797 543.656 227.977 544.312 227.977C545.01 227.977 545.544 227.794 545.914 227.43C546.284 227.065 546.469 226.542 546.469 225.859C546.469 225.198 546.266 224.69 545.859 224.336C545.453 223.982 544.867 223.799 544.102 223.789H543.016V222.609Z" fill="#9F9FB9"/>
<rect x="385" y="202" width="115" height="43" fill="white"/>
<g filter="url(#filter0_d)">
<rect x="30" y="26" width="438" height="242" rx="10" fill="url(#paint1_linear)"/>
<rect x="30.5" y="26.5" width="437" height="241" rx="9.5" stroke="#AFAFAF"/>
</g>
<path d="M76.9883 81H74.1523V67.3008L69.9688 68.7305V66.3281L76.625 63.8789H76.9883V81ZM99.1906 81H87.718V79.043L93.4016 72.8438C94.2219 71.9297 94.8039 71.168 95.1477 70.5586C95.4992 69.9414 95.675 69.3242 95.675 68.707C95.675 67.8945 95.4445 67.2383 94.9836 66.7383C94.5305 66.2383 93.9172 65.9883 93.1437 65.9883C92.2219 65.9883 91.507 66.2695 90.9992 66.832C90.4914 67.3945 90.2375 68.1641 90.2375 69.1406H87.3898C87.3898 68.1016 87.6242 67.168 88.093 66.3398C88.5695 65.5039 89.2453 64.8555 90.1203 64.3945C91.0031 63.9336 92.0187 63.7031 93.1672 63.7031C94.8234 63.7031 96.1281 64.1211 97.0812 64.957C98.0422 65.7852 98.5227 66.9336 98.5227 68.4023C98.5227 69.2539 98.2805 70.1484 97.7961 71.0859C97.3195 72.0156 96.5344 73.0742 95.4406 74.2617L91.2687 78.7266H99.1906V81ZM109.452 71.168H111.186C112.061 71.1602 112.752 70.9336 113.26 70.4883C113.776 70.043 114.034 69.3984 114.034 68.5547C114.034 67.7422 113.819 67.1133 113.389 66.668C112.967 66.2148 112.319 65.9883 111.444 65.9883C110.678 65.9883 110.049 66.2109 109.557 66.6562C109.065 67.0938 108.819 67.668 108.819 68.3789H105.971C105.971 67.5039 106.202 66.707 106.662 65.9883C107.131 65.2695 107.78 64.7109 108.608 64.3125C109.444 63.9062 110.377 63.7031 111.409 63.7031C113.112 63.7031 114.448 64.1328 115.416 64.9922C116.393 65.8438 116.881 67.0312 116.881 68.5547C116.881 69.3203 116.635 70.043 116.143 70.7227C115.659 71.3945 115.03 71.9023 114.256 72.2461C115.194 72.5664 115.905 73.0703 116.389 73.7578C116.881 74.4453 117.127 75.2656 117.127 76.2188C117.127 77.75 116.6 78.9688 115.545 79.875C114.498 80.7812 113.12 81.2344 111.409 81.2344C109.768 81.2344 108.424 80.7969 107.377 79.9219C106.33 79.0469 105.807 77.8828 105.807 76.4297H108.655C108.655 77.1797 108.905 77.7891 109.405 78.2578C109.912 78.7266 110.592 78.9609 111.444 78.9609C112.327 78.9609 113.022 78.7266 113.53 78.2578C114.037 77.7891 114.291 77.1094 114.291 76.2188C114.291 75.3203 114.026 74.6289 113.495 74.1445C112.963 73.6602 112.174 73.418 111.127 73.418H109.452V71.168ZM134.232 74.918H136.353V77.2031H134.232V81H131.384V77.2031H124.013L123.931 75.4688L131.291 63.9375H134.232V74.918ZM126.92 74.918H131.384V67.793L131.173 68.168L126.92 74.918ZM165.355 72.5391L166.28 63.9375H175.445V66.3984H168.648L168.179 70.4766C168.968 70.0234 169.859 69.7969 170.851 69.7969C172.476 69.7969 173.738 70.3164 174.636 71.3555C175.542 72.3945 175.995 73.793 175.995 75.5508C175.995 77.2852 175.495 78.668 174.495 79.6992C173.495 80.7227 172.124 81.2344 170.382 81.2344C168.82 81.2344 167.523 80.793 166.491 79.9102C165.468 79.0195 164.913 77.8477 164.827 76.3945H167.581C167.691 77.2227 167.988 77.8594 168.472 78.3047C168.956 78.7422 169.589 78.9609 170.37 78.9609C171.245 78.9609 171.925 78.6484 172.409 78.0234C172.902 77.3984 173.148 76.5469 173.148 75.4688C173.148 74.4297 172.878 73.6094 172.339 73.0078C171.8 72.3984 171.058 72.0938 170.113 72.0938C169.597 72.0938 169.159 72.1641 168.8 72.3047C168.441 72.4375 168.05 72.7031 167.628 73.1016L165.355 72.5391ZM191.893 63.8555V66.2109H191.541C189.948 66.2344 188.674 66.6719 187.721 67.5234C186.768 68.375 186.202 69.582 186.022 71.1445C186.936 70.1836 188.104 69.7031 189.526 69.7031C191.034 69.7031 192.221 70.2344 193.088 71.2969C193.963 72.3594 194.401 73.7305 194.401 75.4102C194.401 77.1445 193.889 78.5508 192.866 79.6289C191.85 80.6992 190.514 81.2344 188.858 81.2344C187.155 81.2344 185.772 80.6055 184.709 79.3477C183.655 78.0898 183.127 76.4414 183.127 74.4023V73.4297C183.127 70.4375 183.854 68.0938 185.307 66.3984C186.768 64.7031 188.866 63.8555 191.6 63.8555H191.893ZM188.834 72C188.209 72 187.635 72.1758 187.112 72.5273C186.596 72.8789 186.217 73.3477 185.975 73.9336V74.8008C185.975 76.0664 186.241 77.0742 186.772 77.8242C187.303 78.5664 187.991 78.9375 188.834 78.9375C189.678 78.9375 190.346 78.6211 190.838 77.9883C191.33 77.3555 191.577 76.5234 191.577 75.4922C191.577 74.4609 191.327 73.6211 190.827 72.9727C190.327 72.3242 189.662 72 188.834 72ZM212.83 65.5195L206.009 81H203.021L209.83 66.2227H201.005V63.9375H212.83V65.5195ZM230.661 68.4375C230.661 69.2734 230.446 70.0195 230.016 70.6758C229.587 71.3242 229.001 71.8359 228.259 72.2109C229.149 72.625 229.833 73.1914 230.309 73.9102C230.794 74.6289 231.036 75.4414 231.036 76.3477C231.036 77.8477 230.528 79.0391 229.512 79.9219C228.497 80.7969 227.145 81.2344 225.458 81.2344C223.762 81.2344 222.403 80.793 221.38 79.9102C220.364 79.0273 219.856 77.8398 219.856 76.3477C219.856 75.4336 220.098 74.6133 220.583 73.8867C221.067 73.1602 221.747 72.6016 222.622 72.2109C221.887 71.8359 221.305 71.3242 220.876 70.6758C220.454 70.0195 220.243 69.2734 220.243 68.4375C220.243 66.9844 220.712 65.832 221.649 64.9805C222.587 64.1289 223.852 63.7031 225.446 63.7031C227.048 63.7031 228.317 64.1289 229.255 64.9805C230.192 65.832 230.661 66.9844 230.661 68.4375ZM228.188 76.207C228.188 75.3633 227.934 74.6836 227.427 74.168C226.927 73.6445 226.262 73.3828 225.434 73.3828C224.606 73.3828 223.942 73.6406 223.442 74.1562C222.95 74.6719 222.704 75.3555 222.704 76.207C222.704 77.043 222.946 77.7109 223.43 78.2109C223.923 78.7109 224.598 78.9609 225.458 78.9609C226.317 78.9609 226.985 78.7188 227.462 78.2344C227.946 77.75 228.188 77.0742 228.188 76.207ZM227.825 68.543C227.825 67.8008 227.61 67.1914 227.18 66.7148C226.751 66.2305 226.173 65.9883 225.446 65.9883C224.72 65.9883 224.145 66.2188 223.723 66.6797C223.302 67.1328 223.091 67.7539 223.091 68.543C223.091 69.3242 223.302 69.9453 223.723 70.4062C224.153 70.8672 224.731 71.0977 225.458 71.0977C226.184 71.0977 226.759 70.8672 227.18 70.4062C227.61 69.9453 227.825 69.3242 227.825 68.543ZM267.62 81H264.784V67.3008L260.6 68.7305V66.3281L267.256 63.8789H267.62V81ZM289.822 81H278.349V79.043L284.033 72.8438C284.853 71.9297 285.435 71.168 285.779 70.5586C286.13 69.9414 286.306 69.3242 286.306 68.707C286.306 67.8945 286.076 67.2383 285.615 66.7383C285.162 66.2383 284.548 65.9883 283.775 65.9883C282.853 65.9883 282.138 66.2695 281.63 66.832C281.123 67.3945 280.869 68.1641 280.869 69.1406H278.021C278.021 68.1016 278.255 67.168 278.724 66.3398C279.201 65.5039 279.877 64.8555 280.752 64.3945C281.634 63.9336 282.65 63.7031 283.798 63.7031C285.455 63.7031 286.759 64.1211 287.713 64.957C288.673 65.7852 289.154 66.9336 289.154 68.4023C289.154 69.2539 288.912 70.1484 288.427 71.0859C287.951 72.0156 287.166 73.0742 286.072 74.2617L281.9 78.7266H289.822V81ZM300.083 71.168H301.817C302.692 71.1602 303.384 70.9336 303.891 70.4883C304.407 70.043 304.665 69.3984 304.665 68.5547C304.665 67.7422 304.45 67.1133 304.02 66.668C303.598 66.2148 302.95 65.9883 302.075 65.9883C301.309 65.9883 300.68 66.2109 300.188 66.6562C299.696 67.0938 299.45 67.668 299.45 68.3789H296.602C296.602 67.5039 296.833 66.707 297.294 65.9883C297.762 65.2695 298.411 64.7109 299.239 64.3125C300.075 63.9062 301.009 63.7031 302.04 63.7031C303.743 63.7031 305.079 64.1328 306.048 64.9922C307.024 65.8438 307.512 67.0312 307.512 68.5547C307.512 69.3203 307.266 70.043 306.774 70.7227C306.29 71.3945 305.661 71.9023 304.887 72.2461C305.825 72.5664 306.536 73.0703 307.02 73.7578C307.512 74.4453 307.759 75.2656 307.759 76.2188C307.759 77.75 307.231 78.9688 306.177 79.875C305.13 80.7812 303.751 81.2344 302.04 81.2344C300.399 81.2344 299.055 80.7969 298.009 79.9219C296.962 79.0469 296.438 77.8828 296.438 76.4297H299.286C299.286 77.1797 299.536 77.7891 300.036 78.2578C300.544 78.7266 301.223 78.9609 302.075 78.9609C302.958 78.9609 303.653 78.7266 304.161 78.2578C304.669 77.7891 304.923 77.1094 304.923 76.2188C304.923 75.3203 304.657 74.6289 304.126 74.1445C303.595 73.6602 302.805 73.418 301.759 73.418H300.083V71.168ZM324.863 74.918H326.984V77.2031H324.863V81H322.016V77.2031H314.645L314.562 75.4688L321.922 63.9375H324.863V74.918ZM317.551 74.918H322.016V67.793L321.805 68.168L317.551 74.918ZM355.986 72.5391L356.912 63.9375H366.076V66.3984H359.279L358.81 70.4766C359.599 70.0234 360.49 69.7969 361.482 69.7969C363.107 69.7969 364.369 70.3164 365.267 71.3555C366.173 72.3945 366.627 73.793 366.627 75.5508C366.627 77.2852 366.127 78.668 365.127 79.6992C364.127 80.7227 362.755 81.2344 361.013 81.2344C359.451 81.2344 358.154 80.793 357.123 79.9102C356.099 79.0195 355.545 77.8477 355.459 76.3945H358.212C358.322 77.2227 358.619 77.8594 359.103 78.3047C359.587 78.7422 360.22 78.9609 361.002 78.9609C361.877 78.9609 362.556 78.6484 363.041 78.0234C363.533 77.3984 363.779 76.5469 363.779 75.4688C363.779 74.4297 363.509 73.6094 362.97 73.0078C362.431 72.3984 361.689 72.0938 360.744 72.0938C360.228 72.0938 359.791 72.1641 359.431 72.3047C359.072 72.4375 358.681 72.7031 358.259 73.1016L355.986 72.5391ZM382.524 63.8555V66.2109H382.173C380.579 66.2344 379.305 66.6719 378.352 67.5234C377.399 68.375 376.833 69.582 376.653 71.1445C377.567 70.1836 378.735 69.7031 380.157 69.7031C381.665 69.7031 382.852 70.2344 383.72 71.2969C384.595 72.3594 385.032 73.7305 385.032 75.4102C385.032 77.1445 384.52 78.5508 383.497 79.6289C382.481 80.6992 381.145 81.2344 379.489 81.2344C377.786 81.2344 376.403 80.6055 375.341 79.3477C374.286 78.0898 373.759 76.4414 373.759 74.4023V73.4297C373.759 70.4375 374.485 68.0938 375.938 66.3984C377.399 64.7031 379.497 63.8555 382.231 63.8555H382.524ZM379.466 72C378.841 72 378.266 72.1758 377.743 72.5273C377.227 72.8789 376.848 73.3477 376.606 73.9336V74.8008C376.606 76.0664 376.872 77.0742 377.403 77.8242C377.934 78.5664 378.622 78.9375 379.466 78.9375C380.309 78.9375 380.977 78.6211 381.47 77.9883C381.962 77.3555 382.208 76.5234 382.208 75.4922C382.208 74.4609 381.958 73.6211 381.458 72.9727C380.958 72.3242 380.294 72 379.466 72ZM403.461 65.5195L396.641 81H393.652L400.461 66.2227H391.637V63.9375H403.461V65.5195ZM421.292 68.4375C421.292 69.2734 421.077 70.0195 420.648 70.6758C420.218 71.3242 419.632 71.8359 418.89 72.2109C419.78 72.625 420.464 73.1914 420.941 73.9102C421.425 74.6289 421.667 75.4414 421.667 76.3477C421.667 77.8477 421.159 79.0391 420.144 79.9219C419.128 80.7969 417.777 81.2344 416.089 81.2344C414.394 81.2344 413.034 80.793 412.011 79.9102C410.995 79.0273 410.488 77.8398 410.488 76.3477C410.488 75.4336 410.73 74.6133 411.214 73.8867C411.698 73.1602 412.378 72.6016 413.253 72.2109C412.519 71.8359 411.937 71.3242 411.507 70.6758C411.085 70.0195 410.874 69.2734 410.874 68.4375C410.874 66.9844 411.343 65.832 412.28 64.9805C413.218 64.1289 414.484 63.7031 416.077 63.7031C417.679 63.7031 418.948 64.1289 419.886 64.9805C420.823 65.832 421.292 66.9844 421.292 68.4375ZM418.82 76.207C418.82 75.3633 418.566 74.6836 418.058 74.168C417.558 73.6445 416.894 73.3828 416.066 73.3828C415.238 73.3828 414.573 73.6406 414.073 74.1562C413.581 74.6719 413.335 75.3555 413.335 76.207C413.335 77.043 413.577 77.7109 414.062 78.2109C414.554 78.7109 415.23 78.9609 416.089 78.9609C416.948 78.9609 417.616 78.7188 418.093 78.2344C418.577 77.75 418.82 77.0742 418.82 76.207ZM418.456 68.543C418.456 67.8008 418.241 67.1914 417.812 66.7148C417.382 66.2305 416.804 65.9883 416.077 65.9883C415.351 65.9883 414.777 66.2188 414.355 66.6797C413.933 67.1328 413.722 67.7539 413.722 68.543C413.722 69.3242 413.933 69.9453 414.355 70.4062C414.784 70.8672 415.363 71.0977 416.089 71.0977C416.816 71.0977 417.39 70.8672 417.812 70.4062C418.241 69.9453 418.456 69.3242 418.456 68.543Z" fill="#4D4D67"/>
<path d="M361.49 153H359.127V141.584L355.641 142.775V140.773L361.188 138.732H361.49V153ZM379.699 147.014C379.699 149.058 379.315 150.601 378.547 151.643C377.785 152.678 376.623 153.195 375.061 153.195C373.524 153.195 372.365 152.691 371.584 151.682C370.809 150.666 370.412 149.165 370.393 147.18V144.719C370.393 142.674 370.773 141.141 371.535 140.119C372.303 139.097 373.472 138.586 375.041 138.586C376.597 138.586 377.756 139.084 378.518 140.08C379.286 141.076 379.68 142.567 379.699 144.553V147.014ZM377.326 144.357C377.326 143.023 377.144 142.046 376.779 141.428C376.415 140.803 375.835 140.49 375.041 140.49C374.266 140.49 373.697 140.786 373.332 141.379C372.967 141.965 372.775 142.883 372.756 144.133V147.355C372.756 148.684 372.941 149.673 373.312 150.324C373.684 150.975 374.266 151.301 375.061 151.301C375.822 151.301 376.385 151.001 376.75 150.402C377.115 149.797 377.307 148.853 377.326 147.57V144.357ZM386.619 154.221H384.754L390.35 138.781H392.215L386.619 154.221ZM404.135 153H401.771V141.584L398.285 142.775V140.773L403.832 138.732H404.135V153ZM422.031 142.531C422.031 143.228 421.852 143.85 421.494 144.396C421.136 144.937 420.648 145.363 420.029 145.676C420.771 146.021 421.341 146.493 421.738 147.092C422.142 147.691 422.344 148.368 422.344 149.123C422.344 150.373 421.921 151.366 421.074 152.102C420.228 152.831 419.102 153.195 417.695 153.195C416.283 153.195 415.15 152.827 414.297 152.092C413.451 151.356 413.027 150.367 413.027 149.123C413.027 148.361 413.229 147.678 413.633 147.072C414.036 146.467 414.603 146.001 415.332 145.676C414.72 145.363 414.235 144.937 413.877 144.396C413.525 143.85 413.35 143.228 413.35 142.531C413.35 141.32 413.74 140.36 414.521 139.65C415.303 138.941 416.357 138.586 417.686 138.586C419.02 138.586 420.078 138.941 420.859 139.65C421.641 140.36 422.031 141.32 422.031 142.531ZM419.971 149.006C419.971 148.303 419.759 147.736 419.336 147.307C418.919 146.87 418.366 146.652 417.676 146.652C416.986 146.652 416.432 146.867 416.016 147.297C415.605 147.727 415.4 148.296 415.4 149.006C415.4 149.702 415.602 150.259 416.006 150.676C416.416 151.092 416.979 151.301 417.695 151.301C418.411 151.301 418.968 151.099 419.365 150.695C419.769 150.292 419.971 149.729 419.971 149.006ZM419.668 142.619C419.668 142.001 419.489 141.493 419.131 141.096C418.773 140.692 418.291 140.49 417.686 140.49C417.08 140.49 416.602 140.682 416.25 141.066C415.898 141.444 415.723 141.962 415.723 142.619C415.723 143.27 415.898 143.788 416.25 144.172C416.608 144.556 417.09 144.748 417.695 144.748C418.301 144.748 418.779 144.556 419.131 144.172C419.489 143.788 419.668 143.27 419.668 142.619Z" fill="#4D4D67"/>
<path d="M72.0654 219.834C71.9365 221.199 71.4326 222.266 70.5537 223.033C69.6748 223.795 68.5059 224.176 67.0469 224.176C66.0273 224.176 65.1279 223.936 64.3486 223.455C63.5752 222.969 62.9775 222.28 62.5557 221.39C62.1338 220.499 61.9141 219.465 61.8965 218.287V217.092C61.8965 215.885 62.1104 214.821 62.5381 213.901C62.9658 212.981 63.5781 212.272 64.375 211.774C65.1777 211.276 66.1035 211.027 67.1523 211.027C68.5645 211.027 69.7012 211.411 70.5625 212.179C71.4238 212.946 71.9248 214.03 72.0654 215.431H69.8506C69.7451 214.511 69.4756 213.849 69.042 213.444C68.6143 213.034 67.9844 212.829 67.1523 212.829C66.1855 212.829 65.4414 213.184 64.9199 213.893C64.4043 214.596 64.1406 215.63 64.1289 216.995V218.129C64.1289 219.512 64.375 220.566 64.8672 221.293C65.3652 222.02 66.0918 222.383 67.0469 222.383C67.9199 222.383 68.5762 222.187 69.0156 221.794C69.4551 221.401 69.7334 220.748 69.8506 219.834H72.0654ZM81.2236 221.021H76.2666L75.2295 224H72.918L77.752 211.203H79.7471L84.5898 224H82.2695L81.2236 221.021ZM76.8906 219.228H80.5996L78.7451 213.919L76.8906 219.228ZM90.751 219.069H88.2725V224H86.0488V211.203H90.5488C92.0254 211.203 93.165 211.534 93.9678 212.196C94.7705 212.858 95.1719 213.816 95.1719 215.07C95.1719 215.926 94.9639 216.644 94.5479 217.224C94.1377 217.798 93.5635 218.24 92.8252 218.551L95.6992 223.886V224H93.3174L90.751 219.069ZM88.2725 217.285H90.5576C91.3076 217.285 91.8936 217.098 92.3154 216.723C92.7373 216.342 92.9482 215.823 92.9482 215.167C92.9482 214.481 92.752 213.951 92.3594 213.576C91.9727 213.201 91.3926 213.008 90.6191 212.996H88.2725V217.285ZM97.2812 224V211.203H101.061C102.191 211.203 103.193 211.455 104.066 211.959C104.945 212.463 105.625 213.178 106.105 214.104C106.586 215.029 106.826 216.09 106.826 217.285V217.927C106.826 219.14 106.583 220.206 106.097 221.126C105.616 222.046 104.928 222.755 104.031 223.253C103.141 223.751 102.118 224 100.964 224H97.2812ZM99.5049 212.996V222.225H100.955C102.121 222.225 103.015 221.861 103.636 221.135C104.263 220.402 104.582 219.354 104.594 217.988V217.276C104.594 215.888 104.292 214.827 103.688 214.095C103.085 213.362 102.209 212.996 101.061 212.996H99.5049ZM119.201 224H116.986V218.313H111.265V224H109.041V211.203H111.265V216.529H116.986V211.203H119.201V224ZM132.051 217.936C132.051 219.189 131.834 220.291 131.4 221.24C130.967 222.184 130.346 222.91 129.537 223.42C128.734 223.924 127.809 224.176 126.76 224.176C125.723 224.176 124.797 223.924 123.982 223.42C123.174 222.91 122.547 222.187 122.102 221.249C121.662 220.312 121.439 219.23 121.434 218.006V217.285C121.434 216.037 121.653 214.936 122.093 213.98C122.538 213.025 123.162 212.296 123.965 211.792C124.773 211.282 125.699 211.027 126.742 211.027C127.785 211.027 128.708 211.279 129.511 211.783C130.319 212.281 130.943 213.002 131.383 213.945C131.822 214.883 132.045 215.976 132.051 217.224V217.936ZM129.827 217.268C129.827 215.85 129.558 214.763 129.019 214.007C128.485 213.251 127.727 212.873 126.742 212.873C125.781 212.873 125.028 213.251 124.483 214.007C123.944 214.757 123.669 215.82 123.657 217.197V217.936C123.657 219.342 123.93 220.429 124.475 221.196C125.025 221.964 125.787 222.348 126.76 222.348C127.744 222.348 128.5 221.973 129.027 221.223C129.561 220.473 129.827 219.377 129.827 217.936V217.268ZM136.489 222.225H142.299V224H134.266V211.203H136.489V222.225ZM144.004 224V211.203H147.783C148.914 211.203 149.916 211.455 150.789 211.959C151.668 212.463 152.348 213.178 152.828 214.104C153.309 215.029 153.549 216.09 153.549 217.285V217.927C153.549 219.14 153.306 220.206 152.819 221.126C152.339 222.046 151.65 222.755 150.754 223.253C149.863 223.751 148.841 224 147.687 224H144.004ZM146.228 212.996V222.225H147.678C148.844 222.225 149.737 221.861 150.358 221.135C150.985 220.402 151.305 219.354 151.316 217.988V217.276C151.316 215.888 151.015 214.827 150.411 214.095C149.808 213.362 148.932 212.996 147.783 212.996H146.228ZM163.243 218.287H157.987V222.225H164.131V224H155.764V211.203H164.069V212.996H157.987V216.529H163.243V218.287ZM170.644 219.069H168.165V224H165.941V211.203H170.441C171.918 211.203 173.058 211.534 173.86 212.196C174.663 212.858 175.064 213.816 175.064 215.07C175.064 215.926 174.856 216.644 174.44 217.224C174.03 217.798 173.456 218.24 172.718 218.551L175.592 223.886V224H173.21L170.644 219.069ZM168.165 217.285H170.45C171.2 217.285 171.786 217.098 172.208 216.723C172.63 216.342 172.841 215.823 172.841 215.167C172.841 214.481 172.645 213.951 172.252 213.576C171.865 213.201 171.285 213.008 170.512 212.996H168.165V217.285ZM191.808 224H189.584L183.88 214.921V224H181.656V211.203H183.88L189.602 220.317V211.203H191.808V224ZM201.757 221.021H196.8L195.763 224H193.451L198.285 211.203H200.28L205.123 224H202.803L201.757 221.021ZM197.424 219.228H201.133L199.278 213.919L197.424 219.228ZM209.465 211.203L213.156 221.012L216.839 211.203H219.713V224H217.498V219.781L217.718 214.139L213.938 224H212.348L208.577 214.147L208.797 219.781V224H206.582V211.203H209.465ZM229.829 218.287H224.573V222.225H230.717V224H222.35V211.203H230.655V212.996H224.573V216.529H229.829V218.287Z" fill="#4D4D67"/>
<path d="M319.486 111.336L322.562 119.51L325.631 111.336H328.026V122H326.181V118.484L326.364 113.782L323.214 122H321.889L318.747 113.79L318.93 118.484V122H317.084V111.336H319.486ZM338.734 116.946C338.734 117.991 338.554 118.909 338.192 119.7C337.831 120.486 337.313 121.092 336.64 121.517C335.971 121.937 335.199 122.146 334.325 122.146C333.461 122.146 332.689 121.937 332.011 121.517C331.337 121.092 330.814 120.489 330.443 119.708C330.077 118.926 329.892 118.025 329.887 117.005V116.404C329.887 115.364 330.07 114.446 330.436 113.65C330.807 112.854 331.327 112.247 331.996 111.827C332.67 111.402 333.441 111.189 334.311 111.189C335.18 111.189 335.949 111.399 336.618 111.819C337.292 112.234 337.812 112.835 338.178 113.621C338.544 114.402 338.729 115.313 338.734 116.353V116.946ZM336.881 116.39C336.881 115.208 336.657 114.302 336.208 113.672C335.763 113.042 335.131 112.728 334.311 112.728C333.51 112.728 332.882 113.042 332.428 113.672C331.979 114.297 331.75 115.184 331.74 116.331V116.946C331.74 118.118 331.967 119.024 332.421 119.664C332.88 120.303 333.515 120.623 334.325 120.623C335.146 120.623 335.775 120.311 336.215 119.686C336.659 119.061 336.881 118.147 336.881 116.946V116.39ZM348.38 111.336V118.462C348.38 119.595 348.017 120.494 347.289 121.158C346.566 121.817 345.602 122.146 344.396 122.146C343.175 122.146 342.206 121.822 341.488 121.172C340.771 120.518 340.412 119.612 340.412 118.455V111.336H342.257V118.47C342.257 119.183 342.438 119.727 342.799 120.103C343.161 120.479 343.693 120.667 344.396 120.667C345.822 120.667 346.535 119.915 346.535 118.411V111.336H348.38ZM358.825 122H356.972L352.218 114.434V122H350.365V111.336H352.218L356.986 118.931V111.336H358.825V122ZM368.5 112.83H365.175V122H363.336V112.83H360.041V111.336H368.5V112.83ZM378.373 122H376.527V117.261H371.759V122H369.906V111.336H371.759V115.774H376.527V111.336H378.373V122ZM380.9 122.916H379.501L383.698 111.336H385.097L380.9 122.916ZM389.982 116.39L392.436 111.336H394.486L390.912 118.074V122H389.052V118.074L385.47 111.336H387.528L389.982 116.39ZM401.876 117.239H397.497V120.521H402.616V122H395.644V111.336H402.565V112.83H397.497V115.774H401.876V117.239ZM410.094 119.517H405.963L405.099 122H403.173L407.201 111.336H408.864L412.899 122H410.966L410.094 119.517ZM406.483 118.023H409.574L408.029 113.599L406.483 118.023ZM418.034 117.891H415.968V122H414.115V111.336H417.865C419.096 111.336 420.045 111.612 420.714 112.164C421.383 112.715 421.718 113.514 421.718 114.559C421.718 115.271 421.544 115.87 421.198 116.353C420.856 116.832 420.377 117.2 419.762 117.459L422.157 121.905V122H420.172L418.034 117.891ZM415.968 116.404H417.873C418.498 116.404 418.986 116.248 419.337 115.936C419.689 115.618 419.865 115.186 419.865 114.639C419.865 114.068 419.701 113.626 419.374 113.313C419.052 113.001 418.568 112.84 417.924 112.83H415.968V116.404Z" fill="#9595AA"/>
<path d="M78.4854 389V376.203H82.6689C84.0576 376.203 85.1006 376.49 85.7979 377.064C86.501 377.639 86.8525 378.488 86.8525 379.613C86.8525 380.211 86.6826 380.741 86.3428 381.204C86.0029 381.661 85.54 382.016 84.9541 382.268C85.6455 382.461 86.1904 382.83 86.5889 383.375C86.9932 383.914 87.1953 384.559 87.1953 385.309C87.1953 386.457 86.8232 387.359 86.0791 388.016C85.335 388.672 84.2832 389 82.9238 389H78.4854ZM80.1729 383.015V387.62H82.959C83.7441 387.62 84.3623 387.418 84.8135 387.014C85.2705 386.604 85.499 386.041 85.499 385.326C85.499 383.785 84.6611 383.015 82.9854 383.015H80.1729ZM80.1729 381.661H82.7217C83.46 381.661 84.0488 381.477 84.4883 381.107C84.9336 380.738 85.1562 380.237 85.1562 379.604C85.1562 378.901 84.9512 378.392 84.541 378.075C84.1309 377.753 83.5068 377.592 82.6689 377.592H80.1729V381.661ZM97.2412 379.49V389H95.6064V380.835H92.3721L92.1787 384.395C92.0732 386.029 91.7979 387.198 91.3525 387.901C90.9131 388.604 90.2129 388.971 89.252 389H88.6016V387.567L89.0674 387.532C89.5947 387.474 89.9727 387.169 90.2012 386.618C90.4297 386.067 90.5762 385.048 90.6406 383.56L90.8164 379.49H97.2412ZM105.723 389C105.629 388.812 105.553 388.479 105.494 387.998C104.738 388.783 103.836 389.176 102.787 389.176C101.85 389.176 101.079 388.912 100.476 388.385C99.8779 387.852 99.5791 387.178 99.5791 386.363C99.5791 385.373 99.9541 384.605 100.704 384.061C101.46 383.51 102.521 383.234 103.886 383.234H105.468V382.487C105.468 381.919 105.298 381.468 104.958 381.134C104.618 380.794 104.117 380.624 103.455 380.624C102.875 380.624 102.389 380.771 101.996 381.063C101.604 381.356 101.407 381.711 101.407 382.127H99.7725C99.7725 381.652 99.9395 381.195 100.273 380.756C100.613 380.311 101.07 379.959 101.645 379.701C102.225 379.443 102.86 379.314 103.552 379.314C104.647 379.314 105.506 379.59 106.127 380.141C106.748 380.686 107.07 381.438 107.094 382.399V386.776C107.094 387.649 107.205 388.344 107.428 388.859V389H105.723ZM103.024 387.761C103.534 387.761 104.018 387.629 104.475 387.365C104.932 387.102 105.263 386.759 105.468 386.337V384.386H104.193C102.201 384.386 101.205 384.969 101.205 386.135C101.205 386.645 101.375 387.043 101.715 387.33C102.055 387.617 102.491 387.761 103.024 387.761ZM109.563 387.673L110.126 386.979C110.759 386.158 111.119 384.928 111.207 383.287L111.356 379.49H117.482V387.673H118.704V391.795H117.078V389H110.442V391.795H108.816L108.825 387.673H109.563ZM111.488 387.673H115.856V380.993H112.93L112.833 383.261C112.733 385.153 112.285 386.624 111.488 387.673ZM124.452 389.176C123.163 389.176 122.114 388.754 121.306 387.91C120.497 387.061 120.093 385.927 120.093 384.509V384.21C120.093 383.267 120.271 382.426 120.629 381.688C120.992 380.943 121.496 380.363 122.141 379.947C122.791 379.525 123.494 379.314 124.25 379.314C125.486 379.314 126.447 379.722 127.133 380.536C127.818 381.351 128.161 382.517 128.161 384.034V384.711H121.719C121.742 385.648 122.015 386.407 122.536 386.987C123.063 387.562 123.731 387.849 124.54 387.849C125.114 387.849 125.601 387.731 125.999 387.497C126.397 387.263 126.746 386.952 127.045 386.565L128.038 387.339C127.241 388.563 126.046 389.176 124.452 389.176ZM124.25 380.65C123.594 380.65 123.043 380.891 122.598 381.371C122.152 381.846 121.877 382.514 121.771 383.375H126.535V383.252C126.488 382.426 126.266 381.787 125.867 381.336C125.469 380.879 124.93 380.65 124.25 380.65ZM137.847 379.49V389H136.212V380.835H132.978L132.784 384.395C132.679 386.029 132.403 387.198 131.958 387.901C131.519 388.604 130.818 388.971 129.857 389H129.207V387.567L129.673 387.532C130.2 387.474 130.578 387.169 130.807 386.618C131.035 386.067 131.182 385.048 131.246 383.56L131.422 379.49H137.847ZM144.403 389.176C143.114 389.176 142.065 388.754 141.257 387.91C140.448 387.061 140.044 385.927 140.044 384.509V384.21C140.044 383.267 140.223 382.426 140.58 381.688C140.943 380.943 141.447 380.363 142.092 379.947C142.742 379.525 143.445 379.314 144.201 379.314C145.438 379.314 146.398 379.722 147.084 380.536C147.77 381.351 148.112 382.517 148.112 384.034V384.711H141.67C141.693 385.648 141.966 386.407 142.487 386.987C143.015 387.562 143.683 387.849 144.491 387.849C145.065 387.849 145.552 387.731 145.95 387.497C146.349 387.263 146.697 386.952 146.996 386.565L147.989 387.339C147.192 388.563 145.997 389.176 144.403 389.176ZM144.201 380.65C143.545 380.65 142.994 380.891 142.549 381.371C142.104 381.846 141.828 382.514 141.723 383.375H146.486V383.252C146.439 382.426 146.217 381.787 145.818 381.336C145.42 380.879 144.881 380.65 144.201 380.65ZM150.143 379.49H151.777V387.673H156.154V379.49H157.78V387.673H158.914L158.756 391.821H157.297V389H150.143V379.49ZM168.099 384.948H166.912V389H165.277V379.49H166.912V383.516H167.976L171.175 379.49H173.144L169.382 384.061L173.46 389H171.395L168.099 384.948ZM180.729 389C180.635 388.812 180.559 388.479 180.5 387.998C179.744 388.783 178.842 389.176 177.793 389.176C176.855 389.176 176.085 388.912 175.481 388.385C174.884 387.852 174.585 387.178 174.585 386.363C174.585 385.373 174.96 384.605 175.71 384.061C176.466 383.51 177.526 383.234 178.892 383.234H180.474V382.487C180.474 381.919 180.304 381.468 179.964 381.134C179.624 380.794 179.123 380.624 178.461 380.624C177.881 380.624 177.395 380.771 177.002 381.063C176.609 381.356 176.413 381.711 176.413 382.127H174.778C174.778 381.652 174.945 381.195 175.279 380.756C175.619 380.311 176.076 379.959 176.65 379.701C177.23 379.443 177.866 379.314 178.558 379.314C179.653 379.314 180.512 379.59 181.133 380.141C181.754 380.686 182.076 381.438 182.1 382.399V386.776C182.1 387.649 182.211 388.344 182.434 388.859V389H180.729ZM178.03 387.761C178.54 387.761 179.023 387.629 179.48 387.365C179.938 387.102 180.269 386.759 180.474 386.337V384.386H179.199C177.207 384.386 176.211 384.969 176.211 386.135C176.211 386.645 176.381 387.043 176.721 387.33C177.061 387.617 177.497 387.761 178.03 387.761ZM192.682 384.351C192.682 385.798 192.351 386.964 191.688 387.849C191.026 388.733 190.13 389.176 188.999 389.176C187.845 389.176 186.937 388.81 186.274 388.077V392.656H184.648V379.49H186.134L186.213 380.545C186.875 379.725 187.795 379.314 188.973 379.314C190.115 379.314 191.018 379.745 191.68 380.606C192.348 381.468 192.682 382.666 192.682 384.201V384.351ZM191.056 384.166C191.056 383.094 190.827 382.247 190.37 381.626C189.913 381.005 189.286 380.694 188.489 380.694C187.505 380.694 186.767 381.131 186.274 382.004V386.548C186.761 387.415 187.505 387.849 188.507 387.849C189.286 387.849 189.904 387.541 190.361 386.926C190.824 386.305 191.056 385.385 191.056 384.166ZM201.119 380.809H197.929V389H196.303V380.809H193.174V379.49H201.119V380.809ZM204.477 382.769H206.946C208.024 382.78 208.877 383.062 209.504 383.612C210.131 384.163 210.444 384.91 210.444 385.854C210.444 386.803 210.122 387.564 209.478 388.139C208.833 388.713 207.966 389 206.876 389H202.851V379.49H204.477V382.769ZM213.837 389H212.202V379.49H213.837V389ZM204.477 384.096V387.673H206.894C207.503 387.673 207.975 387.518 208.309 387.207C208.643 386.891 208.81 386.46 208.81 385.915C208.81 385.388 208.646 384.957 208.317 384.623C207.995 384.283 207.541 384.107 206.955 384.096H204.477Z" fill="#7F808C"/>
<path d="M88.3203 429H86.624V423.085H80.1729V429H78.4854V416.203H80.1729V421.705H86.624V416.203H88.3203V429ZM90.6318 424.157C90.6318 423.226 90.8135 422.388 91.1768 421.644C91.5459 420.899 92.0557 420.325 92.7061 419.921C93.3623 419.517 94.1094 419.314 94.9473 419.314C96.2422 419.314 97.2881 419.763 98.085 420.659C98.8877 421.556 99.2891 422.748 99.2891 424.236V424.351C99.2891 425.276 99.1104 426.108 98.7529 426.847C98.4014 427.579 97.8945 428.15 97.2324 428.561C96.5762 428.971 95.8203 429.176 94.9648 429.176C93.6758 429.176 92.6299 428.728 91.8271 427.831C91.0303 426.935 90.6318 425.748 90.6318 424.271V424.157ZM92.2666 424.351C92.2666 425.405 92.5098 426.252 92.9961 426.891C93.4883 427.529 94.1445 427.849 94.9648 427.849C95.791 427.849 96.4473 427.526 96.9336 426.882C97.4199 426.231 97.6631 425.323 97.6631 424.157C97.6631 423.114 97.4141 422.271 96.916 421.626C96.4238 420.976 95.7676 420.65 94.9473 420.65C94.1445 420.65 93.4971 420.97 93.0049 421.608C92.5127 422.247 92.2666 423.161 92.2666 424.351ZM106.804 426.847L110.038 419.49H112.068V429H110.442V422.083L107.366 429H106.241L103.104 421.934V429H101.478V419.49H103.587L106.804 426.847ZM118.634 429.176C117.345 429.176 116.296 428.754 115.487 427.91C114.679 427.061 114.274 425.927 114.274 424.509V424.21C114.274 423.267 114.453 422.426 114.811 421.688C115.174 420.943 115.678 420.363 116.322 419.947C116.973 419.525 117.676 419.314 118.432 419.314C119.668 419.314 120.629 419.722 121.314 420.536C122 421.351 122.343 422.517 122.343 424.034V424.711H115.9C115.924 425.648 116.196 426.407 116.718 426.987C117.245 427.562 117.913 427.849 118.722 427.849C119.296 427.849 119.782 427.731 120.181 427.497C120.579 427.263 120.928 426.952 121.227 426.565L122.22 427.339C121.423 428.563 120.228 429.176 118.634 429.176ZM118.432 420.65C117.775 420.65 117.225 420.891 116.779 421.371C116.334 421.846 116.059 422.514 115.953 423.375H120.717V423.252C120.67 422.426 120.447 421.787 120.049 421.336C119.65 420.879 119.111 420.65 118.432 420.65ZM132.266 424.351C132.266 425.798 131.935 426.964 131.272 427.849C130.61 428.733 129.714 429.176 128.583 429.176C127.429 429.176 126.521 428.81 125.858 428.077V432.656H124.232V419.49H125.718L125.797 420.545C126.459 419.725 127.379 419.314 128.557 419.314C129.699 419.314 130.602 419.745 131.264 420.606C131.932 421.468 132.266 422.666 132.266 424.201V424.351ZM130.64 424.166C130.64 423.094 130.411 422.247 129.954 421.626C129.497 421.005 128.87 420.694 128.073 420.694C127.089 420.694 126.351 421.131 125.858 422.004V426.548C126.345 427.415 127.089 427.849 128.091 427.849C128.87 427.849 129.488 427.541 129.945 426.926C130.408 426.305 130.64 425.385 130.64 424.166ZM141.767 424.948H140.58V429H138.945V419.49H140.58V423.516H141.644L144.843 419.49H146.812L143.05 424.061L147.128 429H145.062L141.767 424.948ZM154.396 429C154.303 428.812 154.227 428.479 154.168 427.998C153.412 428.783 152.51 429.176 151.461 429.176C150.523 429.176 149.753 428.912 149.149 428.385C148.552 427.852 148.253 427.178 148.253 426.363C148.253 425.373 148.628 424.605 149.378 424.061C150.134 423.51 151.194 423.234 152.56 423.234H154.142V422.487C154.142 421.919 153.972 421.468 153.632 421.134C153.292 420.794 152.791 420.624 152.129 420.624C151.549 420.624 151.062 420.771 150.67 421.063C150.277 421.356 150.081 421.711 150.081 422.127H148.446C148.446 421.652 148.613 421.195 148.947 420.756C149.287 420.311 149.744 419.959 150.318 419.701C150.898 419.443 151.534 419.314 152.226 419.314C153.321 419.314 154.18 419.59 154.801 420.141C155.422 420.686 155.744 421.438 155.768 422.399V426.776C155.768 427.649 155.879 428.344 156.102 428.859V429H154.396ZM151.698 427.761C152.208 427.761 152.691 427.629 153.148 427.365C153.605 427.102 153.937 426.759 154.142 426.337V424.386H152.867C150.875 424.386 149.879 424.969 149.879 426.135C149.879 426.645 150.049 427.043 150.389 427.33C150.729 427.617 151.165 427.761 151.698 427.761ZM166.35 424.351C166.35 425.798 166.019 426.964 165.356 427.849C164.694 428.733 163.798 429.176 162.667 429.176C161.513 429.176 160.604 428.81 159.942 428.077V432.656H158.316V419.49H159.802L159.881 420.545C160.543 419.725 161.463 419.314 162.641 419.314C163.783 419.314 164.686 419.745 165.348 420.606C166.016 421.468 166.35 422.666 166.35 424.201V424.351ZM164.724 424.166C164.724 423.094 164.495 422.247 164.038 421.626C163.581 421.005 162.954 420.694 162.157 420.694C161.173 420.694 160.435 421.131 159.942 422.004V426.548C160.429 427.415 161.173 427.849 162.175 427.849C162.954 427.849 163.572 427.541 164.029 426.926C164.492 426.305 164.724 425.385 164.724 424.166ZM174.787 420.809H171.597V429H169.971V420.809H166.842V419.49H174.787V420.809ZM178.145 422.769H180.614C181.692 422.78 182.545 423.062 183.172 423.612C183.799 424.163 184.112 424.91 184.112 425.854C184.112 426.803 183.79 427.564 183.146 428.139C182.501 428.713 181.634 429 180.544 429H176.519V419.49H178.145V422.769ZM187.505 429H185.87V419.49H187.505V429ZM178.145 424.096V427.673H180.562C181.171 427.673 181.643 427.518 181.977 427.207C182.311 426.891 182.478 426.46 182.478 425.915C182.478 425.388 182.313 424.957 181.985 424.623C181.663 424.283 181.209 424.107 180.623 424.096H178.145Z" fill="#7F808C"/>
<path d="M461.197 384.939C461.039 386.293 460.538 387.339 459.694 388.077C458.856 388.81 457.74 389.176 456.346 389.176C454.834 389.176 453.621 388.634 452.707 387.55C451.799 386.466 451.345 385.016 451.345 383.199V381.969C451.345 380.779 451.556 379.733 451.978 378.831C452.405 377.929 453.009 377.237 453.788 376.757C454.567 376.271 455.47 376.027 456.495 376.027C457.854 376.027 458.944 376.408 459.765 377.17C460.585 377.926 461.062 378.975 461.197 380.316H459.501C459.354 379.297 459.035 378.559 458.543 378.102C458.057 377.645 457.374 377.416 456.495 377.416C455.417 377.416 454.57 377.814 453.955 378.611C453.346 379.408 453.041 380.542 453.041 382.013V383.252C453.041 384.641 453.331 385.745 453.911 386.565C454.491 387.386 455.303 387.796 456.346 387.796C457.283 387.796 458.001 387.585 458.499 387.163C459.003 386.735 459.337 385.994 459.501 384.939H461.197ZM471.287 384.351C471.287 385.798 470.956 386.964 470.294 387.849C469.632 388.733 468.735 389.176 467.604 389.176C466.45 389.176 465.542 388.81 464.88 388.077V392.656H463.254V379.49H464.739L464.818 380.545C465.48 379.725 466.4 379.314 467.578 379.314C468.721 379.314 469.623 379.745 470.285 380.606C470.953 381.468 471.287 382.666 471.287 384.201V384.351ZM469.661 384.166C469.661 383.094 469.433 382.247 468.976 381.626C468.519 381.005 467.892 380.694 467.095 380.694C466.11 380.694 465.372 381.131 464.88 382.004V386.548C465.366 387.415 466.11 387.849 467.112 387.849C467.892 387.849 468.51 387.541 468.967 386.926C469.43 386.305 469.661 385.385 469.661 384.166ZM472.931 384.157C472.931 383.226 473.112 382.388 473.476 381.644C473.845 380.899 474.354 380.325 475.005 379.921C475.661 379.517 476.408 379.314 477.246 379.314C478.541 379.314 479.587 379.763 480.384 380.659C481.187 381.556 481.588 382.748 481.588 384.236V384.351C481.588 385.276 481.409 386.108 481.052 386.847C480.7 387.579 480.193 388.15 479.531 388.561C478.875 388.971 478.119 389.176 477.264 389.176C475.975 389.176 474.929 388.728 474.126 387.831C473.329 386.935 472.931 385.748 472.931 384.271V384.157ZM474.565 384.351C474.565 385.405 474.809 386.252 475.295 386.891C475.787 387.529 476.443 387.849 477.264 387.849C478.09 387.849 478.746 387.526 479.232 386.882C479.719 386.231 479.962 385.323 479.962 384.157C479.962 383.114 479.713 382.271 479.215 381.626C478.723 380.976 478.066 380.65 477.246 380.65C476.443 380.65 475.796 380.97 475.304 381.608C474.812 382.247 474.565 383.161 474.565 384.351ZM486.589 384.948H485.402V389H483.768V379.49H485.402V383.516H486.466L489.665 379.49H491.634L487.872 384.061L491.95 389H489.885L486.589 384.948ZM497.733 387.673L498.296 386.979C498.929 386.158 499.289 384.928 499.377 383.287L499.526 379.49H505.652V387.673H506.874V391.795H505.248V389H498.612V391.795H496.986L496.995 387.673H497.733ZM499.658 387.673H504.026V380.993H501.1L501.003 383.261C500.903 385.153 500.455 386.624 499.658 387.673ZM512.622 389.176C511.333 389.176 510.284 388.754 509.476 387.91C508.667 387.061 508.263 385.927 508.263 384.509V384.21C508.263 383.267 508.441 382.426 508.799 381.688C509.162 380.943 509.666 380.363 510.311 379.947C510.961 379.525 511.664 379.314 512.42 379.314C513.656 379.314 514.617 379.722 515.303 380.536C515.988 381.351 516.331 382.517 516.331 384.034V384.711H509.889C509.912 385.648 510.185 386.407 510.706 386.987C511.233 387.562 511.901 387.849 512.71 387.849C513.284 387.849 513.771 387.731 514.169 387.497C514.567 387.263 514.916 386.952 515.215 386.565L516.208 387.339C515.411 388.563 514.216 389.176 512.622 389.176ZM512.42 380.65C511.764 380.65 511.213 380.891 510.768 381.371C510.322 381.846 510.047 382.514 509.941 383.375H514.705V383.252C514.658 382.426 514.436 381.787 514.037 381.336C513.639 380.879 513.1 380.65 512.42 380.65ZM524.373 379.49H525.999V389H524.373V382.065L519.987 389H518.361V379.49H519.987V386.434L524.373 379.49ZM524.812 376.027C524.812 376.736 524.569 377.308 524.083 377.741C523.603 378.169 522.97 378.383 522.185 378.383C521.399 378.383 520.764 378.166 520.277 377.732C519.791 377.299 519.548 376.73 519.548 376.027H520.875C520.875 376.438 520.986 376.76 521.209 376.994C521.432 377.223 521.757 377.337 522.185 377.337C522.595 377.337 522.914 377.223 523.143 376.994C523.377 376.766 523.494 376.443 523.494 376.027H524.812ZM532.424 387.849C533.004 387.849 533.511 387.673 533.944 387.321C534.378 386.97 534.618 386.53 534.665 386.003H536.203C536.174 386.548 535.986 387.066 535.641 387.559C535.295 388.051 534.832 388.443 534.252 388.736C533.678 389.029 533.068 389.176 532.424 389.176C531.129 389.176 530.098 388.745 529.33 387.884C528.568 387.017 528.188 385.833 528.188 384.333V384.061C528.188 383.135 528.357 382.312 528.697 381.591C529.037 380.87 529.523 380.311 530.156 379.912C530.795 379.514 531.548 379.314 532.415 379.314C533.481 379.314 534.366 379.634 535.069 380.272C535.778 380.911 536.156 381.74 536.203 382.76H534.665C534.618 382.145 534.384 381.641 533.962 381.248C533.546 380.85 533.03 380.65 532.415 380.65C531.589 380.65 530.947 380.949 530.49 381.547C530.039 382.139 529.813 382.997 529.813 384.122V384.43C529.813 385.525 530.039 386.369 530.49 386.961C530.941 387.553 531.586 387.849 532.424 387.849ZM545.098 380.809H541.907V389H540.281V380.809H537.152V379.49H545.098V380.809ZM546.829 389V379.49H550.538C551.804 379.49 552.773 379.713 553.447 380.158C554.127 380.598 554.467 381.245 554.467 382.101C554.467 382.54 554.335 382.938 554.071 383.296C553.808 383.647 553.418 383.917 552.902 384.104C553.477 384.239 553.937 384.503 554.282 384.896C554.634 385.288 554.81 385.757 554.81 386.302C554.81 387.175 554.487 387.843 553.843 388.306C553.204 388.769 552.299 389 551.127 389H546.829ZM548.455 384.825V387.69H551.145C551.824 387.69 552.331 387.564 552.665 387.312C553.005 387.061 553.175 386.706 553.175 386.249C553.175 385.3 552.478 384.825 551.083 384.825H548.455ZM548.455 383.524H550.556C552.079 383.524 552.841 383.079 552.841 382.188C552.841 381.298 552.12 380.838 550.679 380.809H548.455V383.524ZM563.115 379.49H564.741V389H563.115V382.065L558.729 389H557.104V379.49H558.729V386.434L563.115 379.49ZM574.62 379.49V389H572.985V385.3H570.533L568.292 389H566.534L568.925 385.054C568.315 384.831 567.847 384.488 567.519 384.025C567.196 383.557 567.035 383.012 567.035 382.391C567.035 381.523 567.36 380.826 568.011 380.299C568.661 379.766 569.531 379.496 570.621 379.49H574.62ZM568.67 382.408C568.67 382.871 568.828 383.246 569.145 383.533C569.461 383.814 569.88 383.958 570.401 383.964H572.985V380.809H570.647C570.044 380.809 569.563 380.958 569.206 381.257C568.849 381.55 568.67 381.934 568.67 382.408Z" fill="#7F808C"/>
<path d="M484.601 423.252H483.045V429H481.357V416.203H483.045V421.846H484.363L488.837 416.203H490.938L486.051 422.408L491.298 429H489.232L484.601 423.252ZM491.913 424.157C491.913 423.226 492.095 422.388 492.458 421.644C492.827 420.899 493.337 420.325 493.987 419.921C494.644 419.517 495.391 419.314 496.229 419.314C497.523 419.314 498.569 419.763 499.366 420.659C500.169 421.556 500.57 422.748 500.57 424.236V424.351C500.57 425.276 500.392 426.108 500.034 426.847C499.683 427.579 499.176 428.15 498.514 428.561C497.857 428.971 497.102 429.176 496.246 429.176C494.957 429.176 493.911 428.728 493.108 427.831C492.312 426.935 491.913 425.748 491.913 424.271V424.157ZM493.548 424.351C493.548 425.405 493.791 426.252 494.277 426.891C494.77 427.529 495.426 427.849 496.246 427.849C497.072 427.849 497.729 427.526 498.215 426.882C498.701 426.231 498.944 425.323 498.944 424.157C498.944 423.114 498.695 422.271 498.197 421.626C497.705 420.976 497.049 420.65 496.229 420.65C495.426 420.65 494.778 420.97 494.286 421.608C493.794 422.247 493.548 423.161 493.548 424.351ZM501.897 427.673L502.46 426.979C503.093 426.158 503.453 424.928 503.541 423.287L503.69 419.49H509.816V427.673H511.038V431.795H509.412V429H502.776V431.795H501.15L501.159 427.673H501.897ZM503.822 427.673H508.19V420.993H505.264L505.167 423.261C505.067 425.153 504.619 426.624 503.822 427.673ZM526.973 424.939C526.814 426.293 526.313 427.339 525.47 428.077C524.632 428.81 523.516 429.176 522.121 429.176C520.609 429.176 519.396 428.634 518.482 427.55C517.574 426.466 517.12 425.016 517.12 423.199V421.969C517.12 420.779 517.331 419.733 517.753 418.831C518.181 417.929 518.784 417.237 519.563 416.757C520.343 416.271 521.245 416.027 522.271 416.027C523.63 416.027 524.72 416.408 525.54 417.17C526.36 417.926 526.838 418.975 526.973 420.316H525.276C525.13 419.297 524.811 418.559 524.318 418.102C523.832 417.645 523.149 417.416 522.271 417.416C521.192 417.416 520.346 417.814 519.73 418.611C519.121 419.408 518.816 420.542 518.816 422.013V423.252C518.816 424.641 519.106 425.745 519.687 426.565C520.267 427.386 521.078 427.796 522.121 427.796C523.059 427.796 523.776 427.585 524.274 427.163C524.778 426.735 525.112 425.994 525.276 424.939H526.973ZM533.521 426.759L537.177 416.203H539.022L534.276 429H532.782L528.045 416.203H529.882L533.521 426.759ZM544.981 426.759L548.638 416.203H550.483L545.737 429H544.243L539.506 416.203H541.343L544.981 426.759ZM565.996 424.588C565.926 426.006 565.574 427.125 564.941 427.945C564.309 428.766 563.462 429.176 562.401 429.176C561.306 429.176 560.603 428.684 560.292 427.699C559.976 428.197 559.612 428.569 559.202 428.815C558.798 429.056 558.379 429.176 557.945 429.176C557.113 429.176 556.483 428.836 556.056 428.156C555.628 427.477 555.47 426.536 555.581 425.335C555.669 424.368 555.889 423.507 556.24 422.751C556.598 421.989 557.055 421.392 557.611 420.958C558.174 420.524 558.763 420.308 559.378 420.308C559.853 420.308 560.277 420.372 560.652 420.501C561.027 420.624 561.449 420.87 561.918 421.239L561.461 426.108C561.35 427.462 561.725 428.139 562.586 428.139C563.248 428.139 563.784 427.811 564.194 427.154C564.604 426.498 564.827 425.643 564.862 424.588C564.974 422.309 564.549 420.571 563.588 419.376C562.633 418.181 561.177 417.583 559.22 417.583C558.042 417.583 556.996 417.876 556.082 418.462C555.168 419.042 554.447 419.883 553.92 420.984C553.393 422.086 553.097 423.357 553.032 424.799C552.962 426.252 553.138 427.515 553.56 428.587C553.981 429.653 554.623 430.468 555.484 431.03C556.352 431.599 557.397 431.883 558.622 431.883C559.149 431.883 559.677 431.818 560.204 431.689C560.737 431.561 561.18 431.394 561.531 431.188L561.856 432.199C561.493 432.428 561.01 432.615 560.406 432.762C559.809 432.908 559.202 432.981 558.587 432.981C557.122 432.981 555.862 432.65 554.808 431.988C553.753 431.332 552.962 430.383 552.435 429.141C551.913 427.904 551.688 426.457 551.758 424.799C551.828 423.188 552.188 421.74 552.839 420.457C553.489 419.168 554.371 418.175 555.484 417.478C556.598 416.774 557.854 416.423 559.255 416.423C560.714 416.423 561.965 416.751 563.008 417.407C564.051 418.063 564.827 419.01 565.337 420.246C565.847 421.482 566.066 422.93 565.996 424.588ZM556.979 425.335C556.896 426.167 556.973 426.806 557.207 427.251C557.447 427.696 557.825 427.919 558.341 427.919C558.692 427.919 559.029 427.77 559.352 427.471C559.68 427.172 559.949 426.744 560.16 426.188L560.169 426.108L560.573 421.688C560.245 421.518 559.894 421.433 559.519 421.433C558.833 421.433 558.265 421.781 557.813 422.479C557.368 423.176 557.09 424.128 556.979 425.335ZM576.341 429H567.956V427.831L572.386 422.909C573.042 422.165 573.493 421.562 573.739 421.099C573.991 420.63 574.117 420.146 574.117 419.648C574.117 418.98 573.915 418.433 573.511 418.005C573.106 417.577 572.567 417.363 571.894 417.363C571.085 417.363 570.455 417.595 570.004 418.058C569.559 418.515 569.336 419.153 569.336 419.974H567.71C567.71 418.796 568.088 417.844 568.844 417.117C569.605 416.391 570.622 416.027 571.894 416.027C573.083 416.027 574.023 416.341 574.715 416.968C575.406 417.589 575.752 418.418 575.752 419.455C575.752 420.715 574.949 422.215 573.344 423.955L569.916 427.673H576.341V429Z" fill="#7F808C"/>
<rect x="497" y="200" width="83" height="47" stroke="#878BC8" stroke-width="2"/>
<rect x="1" y="-1" width="164" height="58" transform="matrix(1 0 0 -1 277 163)" stroke="#878BC8" stroke-width="2"/>
<rect x="1" y="-1" width="391" height="51" transform="matrix(1 0 0 -1 50 97)" stroke="#878BC8" stroke-width="2"/>
<rect x="1" y="-1" width="201" height="51" transform="matrix(1 0 0 -1 52 243)" stroke="#878BC8" stroke-width="2"/>
<line x1="590" y1="420" x2="590" y2="228" stroke="#878BC8" stroke-width="2"/>
<line x1="424" y1="163.996" x2="425" y2="386.996" stroke="#878BC8" stroke-width="2"/>
<line x1="44" y1="215" x2="44" y2="383" stroke="#878BC8" stroke-width="2"/>
<line x1="15" y1="427" x2="15" y2="81" stroke="#878BC8" stroke-width="2"/>
<line x1="425" y1="386" x2="446" y2="386" stroke="#878BC8" stroke-width="2"/>
<line x1="70" y1="384" x2="43" y2="384" stroke="#878BC8" stroke-width="2"/>
<line x1="73" y1="428" x2="14" y2="428" stroke="#878BC8" stroke-width="2"/>
<line x1="48" y1="81" x2="14" y2="81" stroke="#878BC8" stroke-width="2"/>
<line x1="54" y1="216" x2="44" y2="216" stroke="#878BC8" stroke-width="2"/>
<line x1="591" y1="227" x2="581" y2="227" stroke="#878BC8" stroke-width="2"/>
<line x1="591" y1="421" x2="581" y2="421" stroke="#878BC8" stroke-width="2"/>
<defs>
<filter id="filter0_d" x="0" y="0" width="498" height="302" filterUnits="userSpaceOnUse" color-interpolation-filters="sRGB">
<feFlood flood-opacity="0" result="BackgroundImageFix"/>
<feColorMatrix in="SourceAlpha" type="matrix" values="0 0 0 0 0 0 0 0 0 0 0 0 0 0 0 0 0 0 127 0"/>
<feOffset dy="4"/>
<feGaussianBlur stdDeviation="15"/>
<feColorMatrix type="matrix" values="0 0 0 0 0 0 0 0 0 0 0 0 0 0 0 0 0 0 0.17 0"/>
<feBlend mode="normal" in2="BackgroundImageFix" result="effect1_dropShadow"/>
<feBlend mode="normal" in="SourceGraphic" in2="effect1_dropShadow" result="shape"/>
</filter>
<linearGradient id="paint0_linear" x1="385" y1="81" x2="385" y2="323" gradientUnits="userSpaceOnUse">
<stop stop-color="#E3E6F1" stop-opacity="0.26"/>
<stop offset="1" stop-color="#E0E4F2"/>
</linearGradient>
<linearGradient id="paint1_linear" x1="249" y1="26" x2="249" y2="268" gradientUnits="userSpaceOnUse">
<stop stop-color="#F9FAFF"/>
<stop offset="1" stop-color="#ECEFFB"/>
</linearGradient>
</defs>
</svg>
