<svg width="38" height="38" viewBox="0 0 38 38" fill="none" xmlns="http://www.w3.org/2000/svg">
<path d="M31.717 6.02637V31.9732C31.717 32.2882 31.5919 32.5902 31.3692 32.8129C31.1465 33.0356 30.8445 33.1607 30.5295 33.1607H11.957C11.6421 33.1607 11.34 33.0356 11.1173 32.8129C10.8946 32.5902 10.7695 32.2882 10.7695 31.9732V13.7095L17.3008 4.83887H30.5295C30.8445 4.83887 31.1465 4.96398 31.3692 5.18668C31.5919 5.40938 31.717 5.71142 31.717 6.02637Z" fill="#EDEEEF"/>
<path d="M17.3023 4.85107V12.4689C17.3023 12.7838 17.1772 13.0859 16.9545 13.3086C16.7318 13.5313 16.4298 13.6564 16.1148 13.6564H10.8008L17.3023 4.85107Z" fill="#CFD0D1"/>
<path d="M23.69 21.0601H7.46875C6.81291 21.0601 6.28125 21.5917 6.28125 22.2476V28.2088C6.28125 28.8646 6.81291 29.3963 7.46875 29.3963H23.69C24.3458 29.3963 24.8775 28.8646 24.8775 28.2088V22.2476C24.8775 21.5917 24.3458 21.0601 23.69 21.0601Z" fill="#FF3717"/>
<path d="M12.3144 25.7095V26.992H11.2812V23.4711H12.7062C12.9836 23.4561 13.261 23.5007 13.5197 23.6017C13.7038 23.6851 13.8589 23.8215 13.965 23.9936C14.0724 24.1728 14.1279 24.3784 14.1253 24.5873C14.1323 24.7389 14.1061 24.8902 14.0487 25.0307C13.9913 25.1712 13.904 25.2975 13.7928 25.4008C13.5453 25.6161 13.2238 25.7268 12.8962 25.7095H12.3144ZM12.3144 24.9555H12.6587C12.9616 24.9555 13.11 24.8367 13.11 24.6051C13.11 24.3736 12.9734 24.2726 12.6944 24.2726H12.3144V24.9555ZM14.5113 26.992V23.4711H15.8116C16.0485 23.4532 16.2864 23.4912 16.506 23.582C16.7257 23.6727 16.921 23.8137 17.0763 23.9936C17.356 24.3369 17.5053 24.768 17.4978 25.2108C17.5229 25.6811 17.3606 26.1422 17.0466 26.4933C16.8975 26.6586 16.7137 26.789 16.5085 26.8752C16.3032 26.9614 16.0815 27.0013 15.8591 26.992H14.5113ZM15.5444 26.1786H15.8116C15.9004 26.1771 15.9873 26.1521 16.0634 26.1062C16.1395 26.0603 16.2022 25.9952 16.245 25.9173C16.3694 25.7034 16.4292 25.458 16.4172 25.2108C16.4218 24.9797 16.3688 24.7511 16.2628 24.5458C16.2212 24.4622 16.1567 24.3921 16.0768 24.3438C15.9969 24.2954 15.9049 24.2707 15.8116 24.2726H15.5444V26.1786ZM20.0331 25.6739H18.9406V26.992H17.9372V23.4711H20.3656V24.3083H18.9406V24.902H20.0331V25.6739Z" fill="#EDEEEF"/>
</svg>
