<svg width="26" height="25" viewBox="0 0 26 25" fill="none" xmlns="http://www.w3.org/2000/svg">
<path d="M13.041 14.0625C12.2684 14.0625 11.5132 13.8334 10.8708 13.4042C10.2284 12.975 9.72777 12.3649 9.43211 11.6511C9.13646 10.9373 9.0591 10.1519 9.20982 9.39418C9.36055 8.63644 9.73258 7.94042 10.2789 7.39412C10.8252 6.84782 11.5212 6.47578 12.2789 6.32506C13.0367 6.17434 13.8221 6.25169 14.5359 6.54735C15.2496 6.843 15.8597 7.34368 16.2889 7.98606C16.7182 8.62844 16.9473 9.38367 16.9473 10.1563C16.9461 11.1919 16.5342 12.1848 15.8019 12.9171C15.0695 13.6494 14.0767 14.0613 13.041 14.0625ZM13.041 7.8125C12.5775 7.8125 12.1243 7.94996 11.7389 8.2075C11.3535 8.46503 11.0531 8.83107 10.8757 9.25934C10.6983 9.6876 10.6519 10.1589 10.7423 10.6135C10.8327 11.0681 11.056 11.4858 11.3837 11.8135C11.7115 12.1413 12.1291 12.3645 12.5838 12.455C13.0384 12.5454 13.5097 12.499 13.9379 12.3216C14.3662 12.1442 14.7322 11.8438 14.9898 11.4584C15.2473 11.0729 15.3848 10.6198 15.3848 10.1563C15.3841 9.53486 15.1369 8.93911 14.6975 8.49972C14.2582 8.06033 13.6624 7.81318 13.041 7.8125Z" fill="black" fill-opacity="0.34"/>
<path d="M13.041 23.4375L6.45079 15.6651C6.41337 15.6205 6.17876 15.3123 6.17876 15.3123C5.0529 13.8294 4.44464 12.0181 4.44727 10.1562C4.44727 7.87705 5.35268 5.69119 6.96433 4.07955C8.57597 2.46791 10.7618 1.5625 13.041 1.5625C15.3202 1.5625 17.5061 2.46791 19.1177 4.07955C20.7294 5.69119 21.6348 7.87705 21.6348 10.1562C21.6376 12.0174 21.0297 13.828 19.9045 15.3104L19.9033 15.3123C19.9033 15.3123 19.6689 15.6205 19.634 15.6619L13.041 23.4375ZM7.42579 14.3711C7.42657 14.3716 7.60813 14.6119 7.6497 14.6636L13.041 21.0218L18.4395 14.6546C18.4738 14.6115 18.6569 14.3695 18.6573 14.3689C19.577 13.1573 20.0741 11.6774 20.0723 10.1562C20.0723 8.29145 19.3315 6.50302 18.0129 5.18441C16.6943 3.86579 14.9058 3.125 13.041 3.125C11.1762 3.125 9.38779 3.86579 8.06918 5.18441C6.75056 6.50302 6.00977 8.29145 6.00977 10.1562C6.00805 11.6783 6.50546 13.1589 7.42579 14.3711V14.3711Z" fill="black" fill-opacity="0.34"/>
</svg>
