<svg width="28" height="34" viewBox="0 0 28 34" fill="none" xmlns="http://www.w3.org/2000/svg">
<path d="M17.6364 0.764967C17.0456 0.503569 16.4267 0.306858 15.791 0.178467L15.4358 1.84362C15.9433 1.94576 16.4373 2.10315 16.9084 2.31282L17.6364 0.764967Z" fill="#9798A8"/>
<path d="M19.362 4.12847L20.7016 3.03622C20.2861 2.5538 19.8166 2.11788 19.3016 1.73657L18.2402 3.08807C18.6523 3.39389 19.0284 3.74278 19.362 4.12847V4.12847Z" fill="#9798A8"/>
<path d="M21.7787 4.6036L20.223 5.3839C20.6003 6.09154 20.8445 6.85896 20.944 7.65H7.06125C7.27746 6.02888 8.08512 4.53688 9.33749 3.44506C10.5899 2.35325 12.2039 1.73406 13.8862 1.7L13.8591 0C11.5659 0.0445922 9.38149 0.958708 7.7728 2.54701C6.1641 4.13531 5.25868 6.27183 5.25 8.5V27.2H10.5V23.8H17.5V27.2H22.75V8.5C22.749 7.14475 22.4161 5.80917 21.7787 4.6036ZM21 25.5H19.25V22.1H8.75V25.5H7V9.35H21V25.5Z" fill="#9798A8"/>
<path d="M18.375 11.05H9.625V16.15H18.375V11.05ZM16.625 14.45H11.375V12.75H16.625V14.45Z" fill="#9798A8"/>
</svg>
