<svg width="100" height="100" viewBox="0 0 100 100" fill="none" xmlns="http://www.w3.org/2000/svg">
<path d="M88.9864 38.6751H84.1229V34.8629C84.1229 34.6052 84.0233 34.3582 83.8457 34.1727L80.1938 30.3515C81.5554 28.4584 81.4493 25.8417 79.8148 24.064L70.5495 14.1046C70.2471 13.25 69.7602 12.4603 69.1135 11.8153C66.7295 9.43623 62.8452 9.43427 60.4573 11.8153C59.3005 12.9682 58.663 14.5018 58.663 16.1331C58.663 17.7644 59.3005 19.298 60.4573 20.451C61.1126 21.1044 61.9153 21.5927 62.7846 21.8938L72.7685 31.1396C73.7271 32.0153 74.9337 32.4507 76.1394 32.4507C77.0402 32.4507 77.9341 32.1942 78.7281 31.7101L82.1236 35.2642V38.6751H50.9792V34.9836C53.9408 34.5943 56.2361 32.0658 56.2361 29.0066V23.3337C56.2361 20.0068 53.5222 17.2997 50.1865 17.2997C46.8497 17.2997 44.1358 20.0068 44.1358 23.3337V29.0066C44.1358 31.9225 46.2195 34.3612 48.9799 34.9205V38.6751H17.8754V34.8434L22.9346 29.8005L23.1675 30.0326C24.0989 30.962 25.3221 31.4266 26.5462 31.4257C27.7695 31.4257 28.9927 30.9619 29.924 30.0326L39.9957 19.9941C40.8987 19.094 41.3966 17.8962 41.3966 16.6222C41.3966 15.3482 40.8987 14.1504 39.9957 13.2503L38.1321 11.3926C36.2694 9.53581 33.2392 9.53581 31.3746 11.3926L21.3039 21.432C20.4009 22.3321 19.9031 23.5299 19.9031 24.8039C19.9031 26.0779 20.4009 27.2757 21.3039 28.1758L21.5184 28.3895L16.17 33.7208C15.9816 33.9082 15.8761 34.163 15.8761 34.4285V38.6751H11.0136C10.461 38.6751 10.0139 39.1222 10.0139 39.6747V50.4971C10.0139 51.0497 10.461 51.4968 11.0136 51.4968H13.4834V89.0004C13.4834 89.5529 13.9305 90 14.4831 90C15.0356 90 15.4827 89.5529 15.4827 89.0004V51.4968H84.5173V89.0004C84.5173 89.5529 84.9644 90 85.5169 90C86.0695 90 86.5166 89.5529 86.5166 89.0004V51.4968H88.9864C89.539 51.4968 89.9861 51.0497 89.9861 50.4971V39.6747C89.9861 39.1222 89.539 38.6751 88.9864 38.6751ZM60.6623 16.1331C60.6623 15.0368 61.0909 14.0059 61.8689 13.2308C63.4787 11.6269 66.094 11.6288 67.7019 13.2308C68.0424 13.5699 68.3165 13.9681 68.5183 14.3984L63.0685 19.8631C62.6254 19.6601 62.2165 19.3816 61.8689 19.0354C61.0909 18.2603 60.6623 17.2294 60.6623 16.1331ZM74.1225 29.6684L64.7595 20.9986L69.6602 16.0843L78.3466 25.4209C79.44 26.6099 79.3999 28.4335 78.2558 29.5737C77.1195 30.7062 75.3027 30.7452 74.1225 29.6684ZM46.1351 29.0066V23.3337C46.1351 21.1089 47.9529 19.299 50.1865 19.299C52.4201 19.299 54.2368 21.1089 54.2368 23.3337V29.0066C54.2368 31.2314 52.4201 33.0423 50.1865 33.0423C47.9529 33.0423 46.1351 31.2314 46.1351 29.0066ZM22.7156 22.8476L32.7863 12.8091C33.3291 12.2682 34.0407 11.9978 34.7534 11.9978C35.466 11.9978 36.1786 12.2683 36.7204 12.8081L38.5841 14.6659C39.1083 15.1891 39.3973 15.8832 39.3973 16.6222C39.3973 17.3612 39.1083 18.0553 38.5841 18.5786L28.5124 28.617C27.4268 29.6997 25.6608 29.6977 24.5792 28.617L22.7156 26.7603C22.1913 26.237 21.9024 25.5429 21.9024 24.8039C21.9024 24.0649 22.1913 23.3708 22.7156 22.8476ZM87.9868 49.4975H12.0132V40.6744H87.9868V49.4975Z" fill="#685CA3" fill-opacity="0.2"/>
</svg>
