<svg width="55" height="50" viewBox="0 0 55 50" fill="none" xmlns="http://www.w3.org/2000/svg">
<path d="M10.3992 5.60279C10.3992 2.68104 12.6961 0.3125 15.5294 0.3125H39.4706C42.3038 0.3125 44.6008 2.68104 44.6008 5.60279V7.36623H46.3109C51.0331 7.36623 54.8613 11.3138 54.8613 16.1834V33.8177C54.8613 36.7393 52.5643 39.108 49.7311 39.108H44.6008V44.3983C44.6008 47.3199 42.3038 49.6886 39.4706 49.6886H15.5294C12.6961 49.6886 10.3992 47.3199 10.3992 44.3983V39.108H5.26892C2.43555 39.108 0.138672 36.7393 0.138672 33.8177V16.1834C0.138672 11.3138 3.96683 7.36623 8.68909 7.36623H10.3992V5.60279ZM13.8193 7.36623H41.1807V5.60279C41.1807 4.62889 40.4149 3.83936 39.4706 3.83936H15.5294C14.585 3.83936 13.8193 4.62889 13.8193 5.60279V7.36623ZM10.3992 35.5811V30.2908C10.3992 27.3692 12.6961 25.0005 15.5294 25.0005H39.4706C42.3038 25.0005 44.6008 27.3692 44.6008 30.2908V35.5811H49.7311C50.6754 35.5811 51.4412 34.7915 51.4412 33.8177V16.1834C51.4412 13.2616 49.1442 10.8931 46.3109 10.8931H8.68909C5.85572 10.8931 3.55884 13.2616 3.55884 16.1834V33.8177C3.55884 34.7915 4.32448 35.5811 5.26892 35.5811H10.3992ZM15.5294 28.5274C14.585 28.5274 13.8193 29.3171 13.8193 30.2908V44.3983C13.8193 45.3721 14.585 46.1617 15.5294 46.1617H39.4706C40.4149 46.1617 41.1807 45.3721 41.1807 44.3983V30.2908C41.1807 29.3171 40.4149 28.5274 39.4706 28.5274H15.5294Z" fill="white"/>
</svg>
