<svg width="34" height="34" viewBox="0 0 34 34" fill="none" xmlns="http://www.w3.org/2000/svg">
<path d="M30.6 7.93333H27.2V3.4C27.2 1.47333 25.7267 0 23.8 0H10.2C8.27333 0 6.8 1.47333 6.8 3.4V7.93333H3.4C1.47333 7.93333 0 9.40667 0 11.3333V22.6667C0 24.5933 1.47333 26.0667 3.4 26.0667H6.8V32.8667C6.8 33.5467 7.25333 34 7.93333 34H26.0667C26.7467 34 27.2 33.5467 27.2 32.8667V26.0667H30.6C32.5267 26.0667 34 24.5933 34 22.6667V11.3333C34 9.40667 32.5267 7.93333 30.6 7.93333ZM9.06667 3.4C9.06667 2.72 9.52 2.26667 10.2 2.26667H23.8C24.48 2.26667 24.9333 2.72 24.9333 3.4V7.93333H9.06667V3.4ZM24.9333 31.7333H9.06667V20.4H24.9333V31.7333ZM31.7333 22.6667C31.7333 23.3467 31.28 23.8 30.6 23.8H27.2V19.2667C27.2 18.5867 26.7467 18.1333 26.0667 18.1333H7.93333C7.25333 18.1333 6.8 18.5867 6.8 19.2667V23.8H3.4C2.72 23.8 2.26667 23.3467 2.26667 22.6667V11.3333C2.26667 10.6533 2.72 10.2 3.4 10.2H30.6C31.28 10.2 31.7333 10.6533 31.7333 11.3333V22.6667Z" fill="white"/>
</svg>
