<svg width="60" height="60" viewBox="0 0 60 60" fill="none" xmlns="http://www.w3.org/2000/svg">
<path d="M1.19995 23.4005H22.1982C22.8701 23.4005 23.3981 22.8606 23.3981 22.2006V1.20231C23.3981 0.542368 22.8701 0.00244141 22.1982 0.00244141H1.19995C0.540015 0.00244141 0 0.542368 0 1.20231V22.2006C0 22.8606 0.540015 23.4005 1.19995 23.4005ZM4.80449 6.00195C4.80449 5.33927 5.34177 4.80199 6.00444 4.80199H17.4035C18.0662 4.80199 18.6034 5.33927 18.6034 6.00195V17.401C18.6034 18.0637 18.0662 18.6008 17.4035 18.6008H6.00444C5.34177 18.6008 4.80449 18.0637 4.80449 17.401V6.00195Z" fill="#878BC8"/>
<path d="M16.2036 7.20184H7.20432V16.2011H16.2036V7.20184Z" fill="#878BC8"/>
<path d="M16.2036 43.7988H7.20432V52.798H16.2036V43.7988Z" fill="#878BC8"/>
<path d="M1.19995 59.9975H22.1982C22.8701 59.9975 23.3981 59.4576 23.3981 58.7975V37.7993C23.3981 37.1394 22.8701 36.5994 22.1982 36.5994H1.19995C0.540015 36.5994 0 37.1394 0 37.7993V58.7975C0 59.4576 0.540015 59.9975 1.19995 59.9975ZM4.80449 42.599C4.80449 41.9363 5.34177 41.399 6.00444 41.399H17.4035C18.0662 41.399 18.6034 41.9363 18.6034 42.599V53.998C18.6034 54.6606 18.0662 55.1979 17.4035 55.1979H6.00444C5.34177 55.1979 4.80449 54.6606 4.80449 53.998V42.599Z" fill="#878BC8"/>
<path d="M52.8006 43.7988H43.8013V52.798H52.8006V43.7988Z" fill="#878BC8"/>
<path d="M36.597 37.7993V58.7975C36.597 59.4576 37.137 59.9975 37.7969 59.9975H58.7952C59.4671 59.9975 59.9951 59.4576 59.9951 58.7975V37.7993C59.9951 37.1394 59.4671 36.5994 58.7952 36.5994H37.7969C37.137 36.5994 36.597 37.1394 36.597 37.7993ZM41.4015 42.599C41.4015 41.9363 41.9388 41.399 42.6015 41.399H54.0005C54.6632 41.399 55.2004 41.9363 55.2004 42.599V53.998C55.2004 54.6606 54.6632 55.1979 54.0005 55.1979H42.6015C41.9388 55.1979 41.4015 54.6606 41.4015 53.998V42.599Z" fill="#878BC8"/>
<path d="M58.8 0.00244141H37.8018V2.40226H57.6002V22.2006H60V1.20231C60 0.539723 59.4627 0.00244141 58.8 0.00244141Z" fill="#878BC8"/>
<path d="M55.1955 17.401V6.00196C55.1955 5.34202 54.6676 4.802 53.9956 4.802H42.5965C41.9366 4.802 41.3967 5.34202 41.3967 6.00196V17.401C41.3967 18.061 41.9366 18.6009 42.5965 18.6009H53.9956C54.6676 18.6009 55.1955 18.061 55.1955 17.401Z" fill="#878BC8"/>
<path d="M5.78232 30H26.6306V43.4988H29.0305V28.8001C29.0305 28.1374 28.4932 27.6002 27.8305 27.6002H5.78232V30Z" fill="#878BC8"/>
<path d="M29.0305 48.2985H26.6306V52.7981H29.0305V48.2985Z" fill="#878BC8"/>
<path d="M31.7303 33.4497V43.4989H34.13V34.6496H40.5795V32.2498H32.9301C32.2675 32.2498 31.7303 32.7871 31.7303 33.4497Z" fill="#878BC8"/>
<path d="M34.13 47.7987H31.7303V56.4477H34.13V47.7987Z" fill="#878BC8"/>
<path d="M28.4803 5.60181H26.0805V20.9005H28.4803V5.60181Z" fill="#878BC8"/>
<path d="M34.13 12.6014H31.7303V25.1002H34.13V12.6014Z" fill="#878BC8"/>
<path d="M53.1785 21.0007H46.429C45.7664 21.0007 45.2291 21.538 45.2291 22.2006V30.8999H47.629V23.4005H53.1785V21.0007V21.0007Z" fill="#878BC8"/>
<path d="M54.8283 32.2498H49.8037V34.6496H54.8283V32.2498Z" fill="#878BC8"/>
</svg>
