<svg width="38" height="48" viewBox="0 0 38 48" fill="none" xmlns="http://www.w3.org/2000/svg">
<g clip-path="url(#clip0)">
<path d="M29.925 5.51999H25.84V4.13999H21.8619V3.59999C21.8619 2.83299 21.5604 2.09739 21.0237 1.55504C20.487 1.01268 19.7591 0.707993 19 0.707993C18.241 0.707993 17.5131 1.01268 16.9764 1.55504C16.4397 2.09739 16.1382 2.83299 16.1382 3.59999V4.15199H12.16V5.51999H8.07504C7.52704 5.51999 7.00148 5.73998 6.61398 6.13155C6.22648 6.52313 6.00879 7.05422 6.00879 7.60799V35.616C6.00879 36.1698 6.22648 36.7009 6.61398 37.0924C7.00148 37.484 7.52704 37.704 8.07504 37.704H29.925C30.473 37.704 30.9986 37.484 31.3861 37.0924C31.7736 36.7009 31.9913 36.1698 31.9913 35.616V7.60799C31.9913 7.05422 31.7736 6.52313 31.3861 6.13155C30.9986 5.73998 30.473 5.51999 29.925 5.51999ZM25.84 9.92399V9.01199H28.0844C28.3175 9.01199 28.541 9.10555 28.7058 9.27208C28.8706 9.43861 28.9632 9.66448 28.9632 9.89999V33.324C28.9632 33.5595 28.8706 33.7854 28.7058 33.9519C28.541 34.1184 28.3175 34.212 28.0844 34.212H9.91566C9.68261 34.212 9.45909 34.1184 9.29429 33.9519C9.1295 33.7854 9.03691 33.5595 9.03691 33.324V9.89999C9.03691 9.66448 9.1295 9.43861 9.29429 9.27208C9.45909 9.10555 9.68261 9.01199 9.91566 9.01199H12.16V9.92399H25.84ZM13.3475 5.33999H17.3257V3.59999C17.3257 3.15125 17.5021 2.72088 17.8161 2.40357C18.1301 2.08626 18.556 1.90799 19 1.90799C19.4441 1.90799 19.87 2.08626 20.184 2.40357C20.498 2.72088 20.6744 3.15125 20.6744 3.59999V5.33999H24.6525V8.72399H13.3475V5.33999ZM30.8038 35.616C30.8038 35.8515 30.7112 36.0774 30.5464 36.2439C30.3816 36.4104 30.1581 36.504 29.925 36.504H8.07504C7.84198 36.504 7.61847 36.4104 7.45367 36.2439C7.28887 36.0774 7.19629 35.8515 7.19629 35.616V7.60799C7.19936 7.37345 7.29293 7.14938 7.45707 6.98352C7.6212 6.81765 7.84294 6.7231 8.07504 6.71999H12.16V7.81199H9.91566C9.36766 7.81199 8.8421 8.03198 8.4546 8.42355C8.06711 8.81513 7.84941 9.34622 7.84941 9.89999V33.324C7.84941 33.8778 8.06711 34.4089 8.4546 34.8004C8.8421 35.192 9.36766 35.412 9.91566 35.412H28.0844C28.6324 35.412 29.158 35.192 29.5455 34.8004C29.933 34.4089 30.1507 33.8778 30.1507 33.324V9.89999C30.1507 9.34622 29.933 8.81513 29.5455 8.42355C29.158 8.03198 28.6324 7.81199 28.0844 7.81199H25.84V6.71999H29.925C30.1571 6.7231 30.3789 6.81765 30.543 6.98352C30.7071 7.14938 30.8007 7.37345 30.8038 7.60799V35.616Z" fill="#FF3541"/>
<path d="M19.5938 3.588H18.4062V4.74H19.5938V3.588Z" fill="#FF3541"/>
<path d="M19.8075 22.356V24.492C19.8137 25.5795 20.2456 26.6202 21.0088 27.3869C21.772 28.1537 22.8044 28.584 23.8806 28.584H24.3912C25.394 28.4431 26.3106 27.9352 26.9673 27.1565C27.624 26.3779 27.975 25.3828 27.9537 24.36V21.12V18.996C27.9501 18.4131 27.8239 17.8376 27.5837 17.3076C27.3434 16.7777 26.9945 16.3053 26.56 15.9219C26.1256 15.5384 25.6154 15.2526 25.0635 15.0833C24.5115 14.9141 23.9302 14.8652 23.3581 14.94C22.3554 15.0809 21.4387 15.5888 20.782 16.3674C20.1253 17.1461 19.7743 18.1412 19.7956 19.164V22.368L19.8075 22.356ZM24.2606 27.36C23.8534 27.417 23.4387 27.3844 23.0452 27.2642C22.6516 27.1441 22.2885 26.9393 21.9806 26.664C21.6738 26.3928 21.4274 26.0591 21.2575 25.6847C21.0876 25.3103 20.9981 24.9038 20.995 24.492V22.356H26.7543V24.36C26.766 25.0797 26.5201 25.7795 26.062 26.3307C25.6038 26.8818 24.9641 27.2473 24.2606 27.36ZM23.4887 16.128H23.8687C24.5682 16.1232 25.2448 16.3796 25.7687 16.848C26.0755 17.1192 26.3219 17.4529 26.4918 17.8273C26.6617 18.2017 26.7512 18.6082 26.7543 19.02V21.156H20.995V19.2C20.9631 18.4674 21.2 17.7488 21.6602 17.1818C22.1204 16.6149 22.7715 16.2396 23.4887 16.128Z" fill="#FF3541"/>
<path d="M10.8893 19.2V22.404V24.54C10.8909 25.0789 10.9975 25.6123 11.203 26.1096C11.4086 26.6069 11.709 27.0585 12.0872 27.4384C12.4655 27.8184 12.9141 28.1194 13.4074 28.3242C13.9007 28.529 14.4291 28.6336 14.9625 28.632H15.4731C16.4758 28.4911 17.3925 27.9832 18.0492 27.2045C18.7059 26.4259 19.0569 25.4308 19.0356 24.408V21.144V19.008C19.032 18.4251 18.9058 17.8496 18.6656 17.3196C18.4253 16.7897 18.0764 16.3173 17.6419 15.9339C17.2074 15.5504 16.6973 15.2646 16.1453 15.0953C15.5933 14.9261 15.0121 14.8772 14.44 14.952C13.4352 15.096 12.5181 15.6086 11.8633 16.392C11.2085 17.1754 10.8618 18.1749 10.8893 19.2ZM15.3543 27.396C14.9487 27.4487 14.5365 27.4137 14.1453 27.2932C13.754 27.1728 13.3926 26.9697 13.0849 26.6973C12.7772 26.425 12.5303 26.0897 12.3606 25.7136C12.1909 25.3375 12.1023 24.9293 12.1006 24.516V22.368H17.8125V24.36C17.8283 25.0765 17.5888 25.7749 17.1375 26.3278C16.6863 26.8807 16.0534 27.2513 15.3543 27.372V27.396ZM14.5825 16.164H14.9625C15.662 16.1592 16.3386 16.4156 16.8625 16.884C17.1583 17.1543 17.3955 17.4837 17.559 17.8514C17.7225 18.219 17.8088 18.6169 17.8125 19.02V21.156H12.0887V19.2C12.0598 18.4694 12.2981 17.7537 12.758 17.1893C13.218 16.625 13.8674 16.2514 14.5825 16.14V16.164Z" fill="#FF3541"/>
</g>
<defs>
<clipPath id="clip0">
<rect width="38" height="48" fill="white"/>
</clipPath>
</defs>
</svg>
