<svg width="38" height="34" viewBox="0 0 38 34" fill="none" xmlns="http://www.w3.org/2000/svg">
<path d="M21 26H2V2H12V7C12.0005 7.1809 12.05 7.35829 12.1434 7.51326C12.2367 7.66823 12.3703 7.79498 12.53 7.88C12.6864 7.96029 12.8611 7.99795 13.0367 7.98917C13.2123 7.98039 13.3824 7.92549 13.53 7.83L16 6.2L18.45 7.83C18.6004 7.92905 18.7748 7.98565 18.9547 7.99381C19.1346 8.00198 19.3133 7.96142 19.4721 7.87641C19.6308 7.7914 19.7637 7.66509 19.8566 7.51083C19.9495 7.35657 19.9991 7.18008 20 7V2H30V15C30 15.2652 30.1054 15.5196 30.2929 15.7071C30.4804 15.8946 30.7348 16 31 16C31.2652 16 31.5196 15.8946 31.7071 15.7071C31.8946 15.5196 32 15.2652 32 15V1C32 0.734784 31.8946 0.48043 31.7071 0.292893C31.5196 0.105357 31.2652 0 31 0H1C0.734784 0 0.48043 0.105357 0.292893 0.292893C0.105357 0.48043 0 0.734784 0 1V27C0 27.2652 0.105357 27.5196 0.292893 27.7071C0.48043 27.8946 0.734784 28 1 28H21C21.2652 28 21.5196 27.8946 21.7071 27.7071C21.8946 27.5196 22 27.2652 22 27C22 26.7348 21.8946 26.4804 21.7071 26.2929C21.5196 26.1054 21.2652 26 21 26ZM18 5.13L16.55 4.13C16.3867 4.02247 16.1955 3.96516 16 3.96516C15.8045 3.96516 15.6133 4.02247 15.45 4.13L14 5.13V2H18V5.13Z" fill="#ABACBB"/>
<path d="M32 21.9999H27.41L28.71 20.7099C28.8983 20.5216 29.0041 20.2662 29.0041 19.9999C29.0041 19.7336 28.8983 19.4782 28.71 19.2899C28.5217 19.1016 28.2663 18.9958 28 18.9958C27.7337 18.9958 27.4783 19.1016 27.29 19.2899L24.29 22.2899C24.1963 22.3829 24.1219 22.4935 24.0711 22.6154C24.0203 22.7372 23.9942 22.8679 23.9942 22.9999C23.9942 23.132 24.0203 23.2627 24.0711 23.3845C24.1219 23.5064 24.1963 23.617 24.29 23.7099L27.29 26.7099C27.383 26.8037 27.4936 26.8781 27.6154 26.9288C27.7373 26.9796 27.868 27.0057 28 27.0057C28.132 27.0057 28.2627 26.9796 28.3846 26.9288C28.5064 26.8781 28.617 26.8037 28.71 26.7099C28.8037 26.617 28.8781 26.5064 28.9289 26.3845C28.9797 26.2627 29.0058 26.132 29.0058 25.9999C29.0058 25.8679 28.9797 25.7372 28.9289 25.6154C28.8781 25.4935 28.8037 25.3829 28.71 25.2899L27.41 23.9999H32C33.0609 23.9999 34.0783 24.4214 34.8284 25.1715C35.5786 25.9217 36 26.9391 36 27.9999C36 29.0608 35.5786 30.0782 34.8284 30.8284C34.0783 31.5785 33.0609 31.9999 32 31.9999H27C26.7348 31.9999 26.4804 32.1053 26.2929 32.2928C26.1054 32.4804 26 32.7347 26 32.9999C26 33.2652 26.1054 33.5195 26.2929 33.707C26.4804 33.8946 26.7348 33.9999 27 33.9999H32C33.5913 33.9999 35.1174 33.3678 36.2426 32.2426C37.3679 31.1174 38 29.5912 38 27.9999C38 26.4086 37.3679 24.8825 36.2426 23.7573C35.1174 22.6321 33.5913 21.9999 32 21.9999Z" fill="#ABACBB"/>
</svg>
