<svg width="30" height="29" viewBox="0 0 30 29" fill="none" xmlns="http://www.w3.org/2000/svg">
<g clip-path="url(#clip0_1195_1642)">
<path d="M5.83284 23.1998H24.1662C24.3963 23.1998 24.5828 23.011 24.5828 22.778C24.5828 22.545 24.3963 22.3562 24.1662 22.3562H5.83284C5.60273 22.3562 5.41618 22.545 5.41618 22.778C5.41618 23.011 5.60273 23.1998 5.83284 23.1998ZM13.7609 5.38559C13.0695 8.32061 11.4399 10.5866 9.14029 10.9168C6.96618 11.2289 5.36432 10.0868 4.25739 8.03642C4.14703 7.832 3.89386 7.75685 3.69194 7.86857C3.49001 7.9803 3.41578 8.23659 3.52614 8.44102C4.78248 10.7681 6.6812 12.1219 9.2573 11.752C11.979 11.3613 13.8096 8.81588 14.5715 5.58128C14.6249 5.35467 14.4867 5.12716 14.2628 5.07312C14.039 5.01909 13.8143 5.15898 13.7609 5.38559ZM15.4275 5.58128C16.1895 8.81588 18.02 11.3613 20.7417 11.752C23.3101 12.1208 25.2058 10.7758 26.463 8.45935C26.5738 8.25517 26.5001 7.99872 26.2984 7.88654C26.0967 7.77436 25.8434 7.84894 25.7326 8.05312C24.6252 10.0936 23.0264 11.228 20.8587 10.9168C18.5591 10.5866 16.9295 8.32061 16.2381 5.38559C16.1848 5.15898 15.96 5.01909 15.7362 5.07312C15.5124 5.12716 15.3742 5.35467 15.4275 5.58128ZM5.89313 19.8253L2.97985 8.62633C2.92125 8.40105 2.69334 8.26652 2.47081 8.32584C2.24828 8.38517 2.11539 8.6159 2.174 8.84118L5.16905 20.3545C5.21725 20.5398 5.38273 20.6689 5.57198 20.6689H24.4516C24.6408 20.6689 24.8063 20.5398 24.8545 20.3545L27.8404 8.8763C27.899 8.65102 27.7662 8.4203 27.5436 8.36097C27.3211 8.30164 27.0932 8.43617 27.0346 8.66145L24.1304 19.8253H5.89313Z" fill="#474D9B"/>
<path d="M15 0C16.5813 0 17.9167 1.33142 17.9167 2.95273C17.9167 4.59175 16.619 5.90545 15 5.90545C13.381 5.90545 12.0833 4.59175 12.0833 2.95273C12.0833 1.3137 13.381 0 15 0ZM15 0.843636C13.8412 0.843636 12.9167 1.77963 12.9167 2.95273C12.9167 4.12582 13.8412 5.06182 15 5.06182C16.1588 5.06182 17.0833 4.12582 17.0833 2.95273C17.0833 1.80026 16.1239 0.843636 15 0.843636ZM27.5 3.79636C28.8801 3.79636 30 4.9079 30 6.32727C30 7.76543 28.9206 8.85818 27.5 8.85818C26.098 8.85818 25 7.72441 25 6.32727C25 4.9079 26.1199 3.79636 27.5 3.79636ZM27.5 4.64C26.5765 4.64 25.8333 5.37761 25.8333 6.32727C25.8333 7.26218 26.5619 8.01455 27.5 8.01455C28.4604 8.01455 29.1667 7.2995 29.1667 6.32727C29.1667 5.37761 28.4235 4.64 27.5 4.64ZM2.5 3.79636C3.88008 3.79636 5 4.9079 5 6.32727C5 7.74664 3.88008 8.85818 2.5 8.85818C1.09796 8.85818 0 7.72441 0 6.32727C0 4.9079 1.11992 3.79636 2.5 3.79636ZM2.5 4.64C1.57651 4.64 0.833333 5.37761 0.833333 6.32727C0.833333 7.26218 1.56193 8.01455 2.5 8.01455C3.42349 8.01455 4.16667 7.27694 4.16667 6.32727C4.16667 5.37761 3.42349 4.64 2.5 4.64Z" fill="#474D9B"/>
</g>
<defs>
<clipPath id="clip0_1195_1642">
<rect width="30" height="29" fill="white"/>
</clipPath>
</defs>
</svg>
