<svg width="31" height="28" viewBox="0 0 31 28" fill="none" xmlns="http://www.w3.org/2000/svg">
<path d="M12.0036 25.1797C9.01106 23.8684 6.69113 21.4474 5.51423 18.3876C4.90895 16.8409 4.64002 15.1934 4.67374 13.5795L7.66626 14.2855L5.85064 6.58594L0 12.5038L3.42963 13.3108C3.32867 15.1937 3.63132 17.0765 4.33755 18.8587C5.64886 22.2211 8.20428 24.911 11.4995 26.3567C13.2479 27.1299 15.1308 27.4998 16.9464 27.4998C20.5777 27.4998 24.1417 26.0541 26.7643 23.3305L25.8564 22.4563C22.2924 26.1548 16.7111 27.2644 12.0035 25.1799L12.0036 25.1797Z" fill="#474D9B"/>
<path d="M16.4085 0.5C15.6015 0.533722 14.7611 0.634459 13.9875 0.83615L14.223 1.87853C14.9627 1.71035 15.7025 1.60961 16.4757 1.57589L16.4085 0.5Z" fill="#474D9B"/>
<path d="M23.671 2.28208C23.2676 2.04667 22.8305 1.84498 22.3934 1.64331C22.0907 1.50885 21.7546 1.37439 21.4182 1.27344L21.0483 2.28211C21.351 2.38306 21.6536 2.51752 21.9225 2.65198C22.3259 2.82016 22.7295 3.02185 23.0994 3.25726L23.671 2.28208Z" fill="#474D9B"/>
<path d="M20.1742 0.869872C19.3672 0.668181 18.5602 0.567227 17.7532 0.5L17.686 1.5761C18.4257 1.60982 19.199 1.74428 19.9052 1.91225L20.1742 0.869872Z" fill="#474D9B"/>
<path d="M26.9323 21.3446L27.7728 21.9834C28.2437 21.3109 28.6808 20.6049 29.0504 19.8989L28.1092 19.3945C27.773 20.0671 27.3694 20.7396 26.9323 21.3446V21.3446Z" fill="#474D9B"/>
<path d="M12.4746 1.2741C11.7685 1.50951 11.096 1.81216 10.4572 2.18202L10.9616 3.12343C11.5331 2.78728 12.1719 2.51815 12.8109 2.28294C12.8782 2.24921 12.9454 2.2157 13.0464 2.2157L12.7102 1.20703C12.609 1.20682 12.5418 1.24033 12.4746 1.27405L12.4746 1.2741Z" fill="#474D9B"/>
<path d="M29.1178 11.4265L30.1602 11.2248C29.992 10.4178 29.7568 9.64455 29.4542 8.87109L28.4455 9.24097C28.7144 9.94722 28.9499 10.687 29.1178 11.4265V11.4265Z" fill="#474D9B"/>
<path d="M29.2861 12.6384C29.3199 13.0755 29.3534 13.5126 29.3534 13.9497C29.3534 14.2524 29.3534 14.5885 29.3196 14.8911L30.362 14.9584C30.3957 14.6222 30.3957 14.2858 30.3957 13.9497C30.3957 13.4789 30.362 12.9745 30.3285 12.5039L29.2861 12.6384Z" fill="#474D9B"/>
<path d="M26.6974 6.25064C27.1682 6.85592 27.5716 7.49474 27.9415 8.13352L28.8829 7.62918C28.513 6.88944 28.0424 6.2169 27.5379 5.57812L26.6974 6.25064Z" fill="#474D9B"/>
<path d="M28.5802 18.2871L29.5889 18.6569C29.8915 17.8837 30.0932 17.0767 30.2276 16.3033L29.1853 16.1016C29.0508 16.8413 28.8491 17.5811 28.5802 18.2871V18.2871Z" fill="#474D9B"/>
<path d="M26.6635 4.60223C26.092 3.99695 25.4532 3.4591 24.8141 2.98828L24.2089 3.86249C24.8141 4.29959 25.3857 4.8039 25.9236 5.34198L26.6635 4.60223Z" fill="#474D9B"/>
<path d="M22.1242 5.47683C21.8215 5.30865 21.4181 5.37588 21.25 5.67852L20.9138 6.25009C20.7456 6.55274 20.8129 6.95612 21.1155 7.1243C21.2165 7.19153 21.3172 7.22525 21.4517 7.22525C21.6533 7.22525 21.8888 7.1243 21.9897 6.92261L22.3259 6.35104C22.5278 6.0484 22.4268 5.6785 22.1242 5.47683Z" fill="#474D9B"/>
<path d="M17.1816 4.0625C16.8117 4.0625 16.5428 4.33142 16.5428 4.70127V5.37381C16.5428 5.70996 16.8118 6.01259 17.1816 6.01259C17.5178 6.01259 17.8204 5.74366 17.8204 5.37381V4.70127C17.8206 4.3314 17.518 4.0625 17.1816 4.0625Z" fill="#474D9B"/>
<path d="M12.1719 5.27642C11.8692 5.4446 11.7685 5.84798 11.9364 6.15062L12.2726 6.72219C12.3736 6.92388 12.6087 7.05834 12.8442 7.05834C12.9451 7.05834 13.0459 7.02462 13.1468 6.99111C13.4495 6.82293 13.5502 6.41954 13.3822 6.1169L13.0461 5.54533C12.8779 5.24269 12.4745 5.10823 12.1719 5.27641L12.1719 5.27642Z" fill="#474D9B"/>
<path d="M9.11216 17.6495L8.50688 17.9856C8.20423 18.1538 8.06978 18.5572 8.27147 18.8598C8.37242 19.0615 8.60762 19.196 8.84304 19.196C8.94399 19.196 9.04473 19.1622 9.14568 19.1287L9.75096 18.7926C10.0536 18.6244 10.1881 18.221 9.98637 17.9184C9.81819 17.5822 9.41481 17.4478 9.11217 17.6495L9.11216 17.6495Z" fill="#474D9B"/>
<path d="M11.8359 22.5227C11.9368 22.59 12.0375 22.6237 12.172 22.6237C12.3737 22.6237 12.6091 22.5227 12.7101 22.321L13.0462 21.7495C13.2144 21.4468 13.1472 21.0434 12.8445 20.8753C12.5419 20.7071 12.1385 20.7743 11.9703 21.077L11.6339 21.6485C11.4323 21.9512 11.5332 22.3546 11.8359 22.5227Z" fill="#474D9B"/>
<path d="M16.8117 22.0195C16.4756 22.0195 16.173 22.2885 16.173 22.6583V23.3308C16.173 23.667 16.4419 23.9696 16.8117 23.9696C17.1479 23.9696 17.4505 23.7007 17.4505 23.3308V22.6583C17.4507 22.3222 17.1816 22.0195 16.8117 22.0195C16.8455 22.0195 16.8117 22.0195 16.8117 22.0195Z" fill="#474D9B"/>
<path d="M20.9478 22.4893C21.0488 22.691 21.284 22.8254 21.5194 22.8254C21.6203 22.8254 21.7211 22.7917 21.822 22.7582C22.1247 22.59 22.2254 22.1866 22.0574 21.884L21.7213 21.3124C21.5531 21.0098 21.1497 20.909 20.8471 21.077C20.5444 21.2452 20.4437 21.6486 20.6117 21.9512L20.9478 22.4893Z" fill="#474D9B"/>
<path d="M23.8393 18.1504C23.6711 18.453 23.7383 18.8564 24.041 19.0246L24.6125 19.3608C24.7135 19.428 24.8142 19.4617 24.9487 19.4617C25.1504 19.4617 25.3858 19.3608 25.4867 19.1591C25.6549 18.8564 25.5877 18.453 25.285 18.2849L24.7135 17.9487C24.4108 17.747 24.0409 17.8478 23.8393 18.1504Z" fill="#474D9B"/>
<path d="M26.2936 14.8244C26.6635 14.8244 26.9324 14.5555 26.9324 14.1856C26.9324 13.8495 26.6635 13.5469 26.2936 13.5469H25.6211C25.2849 13.5469 24.9823 13.8158 24.9823 14.1856C24.9823 14.5218 25.2512 14.8244 25.6211 14.8244H26.2936Z" fill="#474D9B"/>
<path d="M24.0076 10.1484C24.1085 10.3501 24.3437 10.4845 24.5791 10.4845C24.6801 10.4845 24.7808 10.4508 24.8818 10.4173L25.4533 10.0812C25.756 9.91298 25.8567 9.50959 25.6887 9.20695C25.5206 8.90431 25.1172 8.80357 24.8145 8.97154L24.243 9.30769C23.9403 9.44236 23.8394 9.81224 24.0076 10.1484L24.0076 10.1484Z" fill="#474D9B"/>
<path d="M21.1156 8.67188L17.1481 13.1101L13.1132 9.54608L11.701 11.1263L15.7021 14.6904C15.7693 14.8921 15.8703 15.0937 16.072 15.2619C16.3074 15.4636 16.61 15.5646 16.9125 15.5646C17.2486 15.5646 17.585 15.4301 17.8539 15.1612C18.0893 14.9258 18.19 14.5896 18.1565 14.2533C18.1565 14.1523 18.1228 14.0516 18.0893 13.9506L22.0569 9.51255L21.1156 8.67188ZM16.879 14.3542L16.9127 14.3205C16.9127 14.3207 16.9127 14.3207 16.879 14.3542C16.9127 14.3542 16.9127 14.3207 16.879 14.3542C16.9127 14.3542 16.879 14.3542 16.879 14.3542Z" fill="#474D9B"/>
</svg>
