<svg width="15" height="21" viewBox="0 0 15 21" fill="none" xmlns="http://www.w3.org/2000/svg">
<path d="M0.30234 20.9499C0.373354 20.9832 0.449522 20.9996 0.524989 20.9996C0.64522 20.9996 0.76475 20.9581 0.860844 20.8782L3.9695 18.2921L7.07815 20.8782C7.27455 21.0418 7.55978 21.0406 7.7541 20.8747L10.8583 18.2333L13.9625 20.8747C14.1184 21.0075 14.3373 21.0371 14.5229 20.9515C14.7088 20.8653 14.8276 20.6792 14.8276 20.4748V0.525257C14.8276 0.321825 14.7099 0.136201 14.5252 0.0499529C14.3413 -0.0367632 14.1233 -0.00910836 13.9667 0.12167L10.8581 2.70773L7.74943 0.12167C7.55326 -0.0414549 7.26803 -0.0402789 7.07348 0.125185L3.96927 2.76651L0.865056 0.125185C0.709197 -0.00769995 0.490298 -0.0372316 0.30468 0.0483146C0.118822 0.134563 0 0.320655 0 0.525023V20.4746C0.000234355 20.678 0.117886 20.8636 0.30234 20.9499V20.9499ZM1.05022 1.66091L3.62945 3.85578C3.82538 4.02289 4.11389 4.02289 4.30983 3.85578L7.41807 1.21092L10.523 3.79392C10.7178 3.95587 10.9997 3.95587 11.1947 3.79392L13.7783 1.64477V19.3384L11.1991 17.1435C11.0032 16.9764 10.7147 16.9764 10.5187 17.1435L7.41051 19.7884L4.30557 17.2054C4.20807 17.1243 4.08901 17.084 3.96972 17.084C3.85042 17.084 3.73136 17.1245 3.63386 17.2054L1.0502 19.3545L1.05022 1.66091Z" fill="white"/>
<path d="M6.67636 6.92351H12.0575C12.3474 6.92351 12.5825 6.68867 12.5825 6.39852C12.5825 6.10838 12.3474 5.87354 12.0575 5.87354H6.67636C6.38644 5.87354 6.15137 6.10838 6.15137 6.39852C6.15137 6.68867 6.38644 6.92351 6.67636 6.92351Z" fill="white"/>
<path d="M2.62948 5.87354C2.33957 5.87354 2.10449 6.10838 2.10449 6.39852C2.10449 6.68867 2.33957 6.92351 2.62948 6.92351H4.62024C4.91015 6.92351 5.14523 6.68867 5.14523 6.39852C5.14523 6.10838 4.91015 5.87354 4.62024 5.87354H2.62948Z" fill="white"/>
<path d="M12.0567 12.9675C12.3466 12.9675 12.5817 12.7326 12.5817 12.4425C12.5817 12.1523 12.3466 11.9175 12.0567 11.9175H2.6285C2.33859 11.9175 2.10352 12.1523 2.10352 12.4425C2.10352 12.7326 2.33859 12.9675 2.6285 12.9675H12.0567Z" fill="white"/>
<path d="M12.3194 14.6014C12.3194 14.4563 12.202 14.3389 12.0569 14.3389H2.62871C2.48363 14.3389 2.36621 14.4563 2.36621 14.6014C2.36621 14.7464 2.48363 14.8639 2.62871 14.8639H12.0569C12.202 14.8639 12.3194 14.7464 12.3194 14.6014Z" fill="white"/>
<path d="M12.1989 7.97314H2.6285C2.33859 7.97314 2.10352 8.20799 2.10352 8.49813V10.2479C2.10352 10.5381 2.33859 10.7729 2.6285 10.7729H12.1989C12.4888 10.7729 12.7239 10.5381 12.7239 10.2479V8.49813C12.7239 8.20799 12.4888 7.97314 12.1989 7.97314ZM11.6739 9.72295H3.15349V9.02312H11.6739V9.72295Z" fill="white"/>
<path d="M3.92022 5.2786C3.98162 5.2786 4.04303 5.25704 4.09248 5.21392L4.62544 4.75033C4.73489 4.65541 4.74637 4.48948 4.65122 4.38026C4.55583 4.27058 4.38966 4.25933 4.28091 4.35471L3.92022 4.66807L2.31759 3.27406C2.20861 3.17867 2.04244 3.19039 1.94728 3.29961C1.85213 3.40882 1.86362 3.57499 1.97307 3.66968L3.74795 5.21392C3.7974 5.25728 3.85881 5.27861 3.92021 5.27861L3.92022 5.2786Z" fill="white"/>
<path d="M10.1621 16.0114L9.76902 16.3499C9.65911 16.4448 9.64668 16.6102 9.74137 16.7199C9.7934 16.7804 9.86675 16.8111 9.94035 16.8111C10.001 16.8111 10.0622 16.79 10.1117 16.7476L10.5047 16.4092C10.6146 16.3142 10.6271 16.1488 10.5324 16.0391C10.4372 15.9285 10.271 15.9172 10.1621 16.0114V16.0114Z" fill="white"/>
<path d="M8.92262 17.079L7.24266 18.5262C7.13274 18.6211 7.12031 18.7866 7.215 18.8963C7.2668 18.957 7.34015 18.9877 7.41375 18.9877C7.47445 18.9877 7.53562 18.9666 7.58507 18.9242L9.26504 17.4769C9.37495 17.382 9.38738 17.2165 9.29269 17.1069C9.19731 16.9958 9.0316 16.9845 8.92262 17.079V17.079Z" fill="white"/>
</svg>
