<svg width="41" height="50" viewBox="0 0 41 50" fill="none" xmlns="http://www.w3.org/2000/svg">
<path d="M18.2866 34.3037C17.8607 34.3031 17.4425 34.4143 17.0758 34.6256C16.6362 33.8311 15.7313 33.3193 14.7079 33.3193C14.3676 33.3233 14.0328 33.4035 13.7293 33.5537C13.7445 33.4327 13.7519 33.3108 13.7518 33.1889C13.7518 31.6193 12.5073 30.342 10.9771 30.342C10.5161 30.343 10.0632 30.4601 9.66217 30.6818C9.03035 29.3381 7.72428 28.46 6.30609 28.46C4.23447 28.46 2.54883 30.2717 2.54883 32.499C2.54883 34.7646 4.26891 36.6764 6.30609 36.6764H19.6071C19.7417 36.6763 19.8742 36.6438 19.9929 36.5817C20.1115 36.5196 20.2126 36.4298 20.2871 36.3204C20.3616 36.211 20.4072 36.0853 20.4199 35.9546C20.4326 35.8238 20.4119 35.692 20.3598 35.5709C20.0203 34.8014 19.2083 34.3037 18.2866 34.3037ZM19.6575 35.9107C19.6522 35.919 19.6447 35.9258 19.6359 35.9305C19.627 35.9351 19.6171 35.9375 19.6071 35.9373H6.30609C4.67971 35.9373 3.30637 34.3631 3.30637 32.4998C3.30637 30.6803 4.65168 29.1998 6.30609 29.1998C7.5449 29.1998 8.63957 30.0193 9.09602 31.2857L9.12645 31.3732C9.14667 31.4299 9.18076 31.481 9.22575 31.522C9.27075 31.5629 9.3253 31.5926 9.38468 31.6083C9.44406 31.6241 9.50649 31.6255 9.56656 31.6125C9.62663 31.5994 9.68253 31.5723 9.72943 31.5334C10.0766 31.2422 10.5193 31.0823 10.9771 31.0826C12.0893 31.0826 12.9942 32.0279 12.9942 33.192C12.9956 33.6234 12.8673 34.0458 12.6251 34.4068L12.597 34.4521C12.5486 34.5314 12.5322 34.6254 12.5511 34.7157C12.5699 34.8061 12.6227 34.8864 12.699 34.9408C12.7753 34.9952 12.8697 35.0199 12.9637 35.01C13.0577 35.0001 13.1446 34.9564 13.2072 34.8873C13.4266 34.6365 14.0144 34.0623 14.7079 34.0623C15.5391 34.0623 16.283 34.5396 16.5105 35.2014L16.5417 35.317C16.5588 35.3801 16.5928 35.4376 16.6401 35.4838C16.6874 35.5299 16.7464 35.563 16.8111 35.5796C16.8758 35.5963 16.9438 35.596 17.0083 35.5787C17.0728 35.5613 17.1315 35.5277 17.1783 35.4811C17.4741 35.1986 17.8727 35.0424 18.2866 35.0467C18.8952 35.0467 19.4477 35.3756 19.6623 35.8654C19.6655 35.8728 19.6667 35.8808 19.6658 35.8887C19.665 35.8966 19.6621 35.9042 19.6575 35.9107Z" fill="#474D9B"/>
<path d="M35.2215 27.5987C34.5792 27.5811 33.9452 27.7438 33.3949 28.0674C33.1844 27.3541 32.7298 26.7325 32.1069 26.3062C31.4839 25.8798 30.7301 25.6744 29.9709 25.7241C29.2117 25.7737 28.4928 26.0755 27.9337 26.5792C27.3747 27.0828 27.0093 27.758 26.8982 28.4924C26.8391 28.8985 26.8576 29.3117 26.9527 29.7112C26.1101 29.7257 25.3043 30.0506 24.6971 30.6207C24.0899 31.1907 23.7263 31.9638 23.6791 32.7846C23.6713 32.9341 23.674 33.0839 23.6871 33.2331C23.4009 33.1291 23.0941 33.0902 22.7902 33.1192C22.4862 33.1482 22.193 33.2443 21.9328 33.4003C21.6726 33.5564 21.4523 33.7682 21.2885 34.0197C21.1248 34.2711 21.0219 34.5557 20.9876 34.8518C20.9632 35.0795 20.988 35.3097 21.0606 35.5275C21.1331 35.7453 21.2518 35.9457 21.4089 36.1159C21.5715 36.2925 21.7704 36.4338 21.9926 36.5306C22.2149 36.6274 22.4555 36.6775 22.6989 36.6776H33.0122C34.4546 36.6761 35.8374 36.1164 36.8573 35.1213C37.8771 34.1262 38.4506 32.777 38.4519 31.3698V30.9268C38.4519 29.1409 37.0025 27.6503 35.2215 27.5987ZM37.6943 31.3698C37.6929 32.5808 37.1991 33.7419 36.3213 34.5982C35.4436 35.4546 34.2535 35.9363 33.0122 35.9378H22.6989C22.5623 35.9383 22.427 35.9107 22.302 35.8569C22.177 35.8031 22.0651 35.7241 21.9734 35.6253C21.8847 35.5301 21.8183 35.4174 21.7786 35.2948C21.7389 35.1722 21.727 35.0426 21.7436 34.9151C21.7798 34.6482 21.905 34.4003 22.1 34.2097C22.2949 34.0191 22.5487 33.8963 22.8222 33.8604C23.0302 33.8342 23.2415 33.8589 23.4372 33.9323C23.6329 34.0057 23.8069 34.1254 23.9433 34.2807L24.0322 34.4112C24.0847 34.4905 24.1663 34.5473 24.2603 34.5698C24.3544 34.5922 24.4536 34.5787 24.5378 34.5321C24.6219 34.4854 24.6845 34.409 24.7128 34.3187C24.741 34.2284 24.7327 34.1309 24.6897 34.0463C24.5029 33.6656 24.4173 33.2452 24.4406 32.8237C24.5095 31.5346 25.6418 30.4706 26.9671 30.4503C27.1259 30.4476 27.2846 30.4593 27.4411 30.4854C27.5151 30.4974 27.591 30.4877 27.6593 30.4576C27.7276 30.4275 27.7853 30.3784 27.825 30.3164C27.8648 30.2544 27.8848 30.1823 27.8826 30.1093C27.8804 30.0362 27.8561 29.9653 27.8127 29.9057C27.6422 29.4906 27.587 29.039 27.6525 28.5963C27.7444 27.9967 28.0555 27.4496 28.5285 27.0563C29.0015 26.663 29.6044 26.45 30.2259 26.4565C30.8474 26.4631 31.4454 26.6889 31.9096 27.0921C32.3737 27.4953 32.6726 28.0488 32.7511 28.6503V28.7284C32.7516 28.7999 32.7734 28.8698 32.8138 28.9295C32.8542 28.9891 32.9115 29.0361 32.9788 29.0646C33.046 29.0932 33.1203 29.1021 33.1926 29.0902C33.2649 29.0784 33.3321 29.0463 33.3861 28.9979C33.6292 28.7764 33.9149 28.6042 34.2266 28.4912C34.5384 28.3781 34.87 28.3265 35.2023 28.3393C36.5781 28.3784 37.6975 29.5393 37.6975 30.9276L37.6943 31.3698Z" fill="#474D9B"/>
<path d="M17.0922 28.5528V33.1013C17.0967 33.1965 17.1386 33.2863 17.2092 33.3521C17.2798 33.4179 17.3737 33.4546 17.4714 33.4546C17.569 33.4546 17.6629 33.4179 17.7335 33.3521C17.8041 33.2863 17.8461 33.1965 17.8505 33.1013V28.5528C17.8529 28.5028 17.8448 28.4529 17.8268 28.406C17.8088 28.3591 17.7813 28.3163 17.7459 28.2801C17.7104 28.2439 17.6678 28.2151 17.6206 28.1954C17.5735 28.1757 17.5227 28.1655 17.4714 28.1655C17.4201 28.1655 17.3693 28.1757 17.3221 28.1954C17.2749 28.2151 17.2323 28.2439 17.1969 28.2801C17.1614 28.3163 17.1339 28.3591 17.1159 28.406C17.0979 28.4529 17.0898 28.5028 17.0922 28.5528Z" fill="#474D9B"/>
<path d="M14.8145 28.8069V31.3546C14.8189 31.4497 14.8608 31.5396 14.9315 31.6054C15.0021 31.6712 15.096 31.7079 15.1936 31.7079C15.2913 31.7079 15.3852 31.6712 15.4558 31.6054C15.5264 31.5396 15.5683 31.4497 15.5728 31.3546V28.8069C15.5683 28.7118 15.5264 28.6219 15.4558 28.5561C15.3852 28.4903 15.2913 28.4536 15.1936 28.4536C15.096 28.4536 15.0021 28.4903 14.9315 28.5561C14.8608 28.6219 14.8189 28.7118 14.8145 28.8069Z" fill="#474D9B"/>
<path d="M19.0312 28.807V31.3547C19.0312 31.4527 19.0712 31.5467 19.1422 31.616C19.2132 31.6853 19.3096 31.7242 19.41 31.7242C19.5105 31.7242 19.6068 31.6853 19.6779 31.616C19.7489 31.5467 19.7888 31.4527 19.7888 31.3547V28.807C19.7888 28.709 19.7489 28.615 19.6779 28.5457C19.6068 28.4764 19.5105 28.4375 19.41 28.4375C19.3096 28.4375 19.2132 28.4764 19.1422 28.5457C19.0712 28.615 19.0313 28.709 19.0312 28.807Z" fill="#474D9B"/>
<path d="M17.3038 20.1712C17.838 20.1713 18.3603 20.0169 18.8046 19.7275C19.2489 19.438 19.5952 19.0265 19.7998 18.545C20.0043 18.0635 20.0579 17.5336 19.9538 17.0224C19.8497 16.5112 19.5925 16.0416 19.2148 15.673C18.837 15.3044 18.3558 15.0533 17.8318 14.9516C17.3078 14.8498 16.7647 14.902 16.2711 15.1014C15.7775 15.3008 15.3556 15.6386 15.0588 16.0719C14.7619 16.5053 14.6035 17.0148 14.6035 17.536C14.6042 18.2346 14.8888 18.9044 15.395 19.3984C15.9013 19.8924 16.5877 20.1704 17.3038 20.1712ZM17.3038 15.6399C17.688 15.6399 18.0636 15.7511 18.3831 15.9594C18.7025 16.1676 18.9515 16.4636 19.0986 16.81C19.2456 17.1563 19.2841 17.5374 19.2091 17.905C19.1342 18.2727 18.9491 18.6104 18.6774 18.8754C18.4058 19.1405 18.0596 19.321 17.6828 19.3942C17.3059 19.4673 16.9153 19.4297 16.5603 19.2863C16.2053 19.1428 15.9019 18.8999 15.6885 18.5882C15.475 18.2766 15.3611 17.9101 15.3611 17.5353C15.3617 17.0328 15.5666 16.5512 15.9308 16.196C16.295 15.8408 16.7888 15.6411 17.3038 15.6407V15.6399Z" fill="#474D9B"/>
<path d="M17.3037 21.2603C16.9439 21.2603 16.5922 21.3644 16.293 21.5594C15.9938 21.7544 15.7606 22.0316 15.6229 22.356C15.4852 22.6803 15.4491 23.0372 15.5193 23.3815C15.5895 23.7258 15.7628 24.0421 16.0173 24.2904C16.2717 24.5386 16.5959 24.7077 16.9488 24.7761C17.3017 24.8446 17.6675 24.8095 18 24.6751C18.3324 24.5408 18.6166 24.3133 18.8165 24.0214C19.0164 23.7295 19.1231 23.3863 19.1231 23.0353C19.1227 22.5646 18.9309 22.1134 18.5898 21.7806C18.2487 21.4478 17.7861 21.2607 17.3037 21.2603ZM17.3037 24.0727C17.0937 24.0727 16.8884 24.012 16.7138 23.8982C16.5392 23.7843 16.4031 23.6225 16.3227 23.4332C16.2424 23.244 16.2213 23.0357 16.2623 22.8347C16.3033 22.6338 16.4044 22.4492 16.5529 22.3043C16.7014 22.1594 16.8906 22.0608 17.0966 22.0208C17.3026 21.9808 17.5161 22.0013 17.7101 22.0797C17.9041 22.1581 18.07 22.2909 18.1866 22.4613C18.3033 22.6316 18.3656 22.8319 18.3656 23.0368C18.3647 23.3112 18.2525 23.574 18.0535 23.7679C17.8546 23.9617 17.585 24.0708 17.3037 24.0712V24.0727Z" fill="#474D9B"/>
<path d="M10.1312 28.1813C10.1993 28.2347 10.284 28.2639 10.3714 28.2641C10.3967 28.2641 10.4219 28.2617 10.4467 28.257L13.2943 27.6914H21.3205L24.1633 28.257C24.1883 28.2617 24.2138 28.2641 24.2393 28.2641C24.2891 28.2642 24.3384 28.2547 24.3844 28.2362C24.4304 28.2176 24.4722 28.1904 24.5074 28.1561C24.5426 28.1217 24.5705 28.081 24.5895 28.0361C24.6085 27.9912 24.6182 27.9431 24.6181 27.8945V24.4406C24.6179 24.3817 24.6032 24.3236 24.5754 24.2713C24.5475 24.219 24.5073 24.1739 24.458 24.1399L22.2494 22.593C23.1439 9.18048 17.8275 3.68126 17.576 3.43048C17.5034 3.36171 17.4062 3.32324 17.305 3.32324C17.2038 3.32324 17.1065 3.36171 17.0339 3.43048C16.7825 3.68126 11.4693 9.18048 12.3589 22.593L10.1504 24.1406C10.1011 24.1748 10.0609 24.2198 10.0331 24.2722C10.0052 24.3245 9.99053 24.3825 9.99023 24.4414V27.8953C9.9906 27.9502 10.0034 28.0043 10.0278 28.0537C10.0522 28.1032 10.0875 28.1467 10.1312 28.1813ZM21.0074 26.9531H13.6034C12.6993 21.0438 12.9675 16.4063 13.6778 12.8836H20.9321C21.6432 16.4016 21.9115 21.0422 21.0074 26.9531ZM23.8646 24.6297V27.4422L21.7657 27.025C21.9547 25.7802 22.0964 24.5912 22.1909 23.4578L23.8646 24.6297ZM17.3054 4.26095C17.9764 5.09298 19.7317 7.60158 20.7736 12.143H13.8372C14.879 7.60158 16.6335 5.09298 17.3054 4.26095ZM10.7502 24.6297L12.4238 23.4578C12.5199 24.5914 12.6592 25.7805 12.849 27.0242L10.7502 27.4422V24.6297Z" fill="#474D9B"/>
</svg>
