<svg width="199" height="379" viewBox="0 0 199 379" fill="none" xmlns="http://www.w3.org/2000/svg">
<path d="M172.388 188.288C178.484 120.696 154.873 51.7932 105.337 2.25691C102.327 -0.752303 97.0035 -0.752303 93.9943 2.25691C44.458 51.7932 20.8472 120.619 26.9428 188.288C9.81346 206.729 0.400024 230.494 0.400024 255.802C0.400024 281.342 10.1221 305.647 27.7916 324.166C32.1125 328.718 43.1463 326.635 41.3716 316.604C40.4457 311.357 39.2883 306.265 39.2883 301.249C39.2883 288.749 43.0691 276.867 50.0906 266.836C51.248 267.453 52.5597 267.839 53.9486 267.839H145.382C146.771 267.839 148.083 267.453 149.24 266.836C156.262 276.867 160.043 288.749 160.043 301.249C160.043 306.265 158.731 311.28 157.959 316.604C156.339 327.715 167.913 328.101 171.539 324.166C189.132 305.57 198.931 281.342 198.931 255.802C198.854 230.494 189.518 206.652 172.388 188.288V188.288ZM99.6269 19.5406C113.979 34.9725 125.707 52.3333 134.812 70.7744H64.5194C73.5471 52.2562 85.2753 34.9725 99.6269 19.5406ZM24.0108 290.37C19.0726 279.645 16.5263 267.916 16.5263 255.802C16.5263 239.445 21.233 223.781 30.0292 210.356C30.1064 210.973 38.5167 243.148 41.7574 251.404C32.1125 262.515 26.0169 275.941 24.0108 290.37ZM140.058 251.713H59.1954C36.5106 198.473 36.7421 138.983 57.3436 86.7464H141.91C162.512 138.983 162.743 198.473 140.058 251.713ZM157.574 251.404C162.049 239.908 169.225 210.819 169.302 210.356C178.098 223.704 182.805 239.368 182.805 255.802C182.805 267.916 180.181 279.645 175.32 290.37C173.237 275.941 167.141 262.515 157.574 251.404Z" fill="#474D9B"/>
<path d="M67.1428 281.265C62.6675 281.265 59.1182 284.892 59.1182 289.29V329.644C59.1182 334.119 62.7447 337.669 67.1428 337.669C71.5409 337.669 75.1674 334.042 75.1674 329.644V289.29C75.1674 284.814 71.5409 281.265 67.1428 281.265Z" fill="#474D9B"/>
<path d="M99.6269 281.265C97.3893 281.265 95.3831 282.191 93.9171 283.657C93.9171 283.657 93.9171 283.657 93.8399 283.734C92.914 284.66 92.2196 285.895 91.8338 287.284C91.6795 287.978 91.5251 288.672 91.5251 289.444V370.076C91.5251 370.693 91.6023 371.31 91.7566 371.927C92.6054 375.477 95.7689 378.1 99.5497 378.1C103.331 378.1 106.494 375.477 107.343 371.927C107.497 371.31 107.574 370.693 107.574 370.076V289.29C107.574 288.518 107.497 287.824 107.266 287.129C106.417 283.734 103.331 281.265 99.6269 281.265V281.265Z" fill="#474D9B"/>
<path d="M132.111 281.265C127.636 281.265 124.086 284.892 124.086 289.29V329.644C124.086 334.119 127.713 337.669 132.111 337.669C136.509 337.669 140.136 334.042 140.136 329.644V289.29C140.213 284.814 136.586 281.265 132.111 281.265Z" fill="#474D9B"/>
</svg>
