<svg width="35" height="33" viewBox="0 0 35 33" fill="none" xmlns="http://www.w3.org/2000/svg">
<path d="M2.90047 1.57001C2.43943 2.0174 2.29018 2.7479 2.52761 3.39592L7.23344 16.6781C7.27967 16.7919 7.26172 16.992 7.20492 17.1574L1.36954 29.8988C1.10353 30.523 1.16695 31.2301 1.6103 31.7759L1.80533 31.9527C2.23429 32.3416 2.77666 32.4006 3.29786 32.2241L33.4107 19.8544C33.9958 19.5914 34.3399 19.0379 34.386 18.3584C34.4322 17.6788 34.0919 17.082 33.5284 16.7874L4.56326 1.34686C4.03172 1.00887 3.39361 1.0792 2.90047 1.57001ZM3.61662 2.36316C3.68053 2.2767 3.87907 2.09597 4.18402 2.30048L33.1491 17.741C33.4149 17.91 33.4361 18.1456 33.4116 18.2673C33.4187 18.3456 33.376 18.6677 33.0994 18.7776L2.94753 31.112C2.67091 31.222 2.43698 31.0099 2.39781 30.9744C2.31975 30.9036 2.18862 30.6403 2.34121 30.346L8.17659 17.6046C8.20843 17.5615 8.2405 17.5181 8.2016 17.4828L15.2184 17.8577L15.2613 16.7424L8.24452 16.3676C8.20562 16.3323 8.23747 16.2893 8.1983 16.2537L3.4606 3.01468C3.35425 2.62998 3.55272 2.44962 3.61662 2.36316Z" fill="#1E47A1" stroke="#1E47A1" stroke-width="0.7"/>
</svg>
