<svg width="20" height="19" viewBox="0 0 20 19" fill="none" xmlns="http://www.w3.org/2000/svg">
<path d="M10.0311 5.7022C9.27675 5.7022 8.53933 5.92494 7.91209 6.34225C7.28486 6.75955 6.79599 7.35269 6.50731 8.04665C6.21863 8.7406 6.14309 9.50421 6.29026 10.2409C6.43743 10.9776 6.80069 11.6543 7.33411 12.1854C7.86753 12.7166 8.54714 13.0783 9.28702 13.2248C10.0269 13.3714 10.7938 13.2962 11.4907 13.0087C12.1877 12.7213 12.7834 12.2345 13.2025 11.6099C13.6216 10.9854 13.8453 10.2511 13.8453 9.5C13.8453 8.49276 13.4434 7.52678 12.7281 6.81455C12.0128 6.10233 11.0427 5.7022 10.0311 5.7022ZM10.0311 11.3989C9.65393 11.3989 9.28522 11.2875 8.97161 11.0789C8.65799 10.8702 8.41356 10.5737 8.26921 10.2267C8.12487 9.8797 8.08711 9.49789 8.16069 9.12954C8.23428 8.76119 8.41591 8.42284 8.68262 8.15728C8.94932 7.89171 9.28913 7.71086 9.65907 7.63759C10.029 7.56432 10.4124 7.60192 10.7609 7.74565C11.1094 7.88937 11.4072 8.13276 11.6168 8.44503C11.8263 8.7573 11.9382 9.12443 11.9382 9.5C11.9382 10.0036 11.7373 10.4866 11.3796 10.8427C11.022 11.1988 10.5369 11.3989 10.0311 11.3989ZM19.2899 8.82589L17.0491 6.65165V3.4615C17.0491 3.20969 16.9487 2.9682 16.7699 2.79014C16.591 2.61208 16.3485 2.51205 16.0956 2.51205H12.9394L10.7081 0.280846C10.6195 0.191855 10.514 0.121222 10.3978 0.0730192C10.2816 0.0248169 10.157 0 10.0311 0C9.90524 0 9.78061 0.0248169 9.66441 0.0730192C9.54821 0.121222 9.44275 0.191855 9.35411 0.280846L7.17051 2.51205H3.96663C3.71374 2.51205 3.4712 2.61208 3.29238 2.79014C3.11356 2.9682 3.0131 3.20969 3.0131 3.4615V6.65165L0.772289 8.82589C0.682915 8.91415 0.611978 9.01917 0.563568 9.13486C0.515158 9.25056 0.490234 9.37466 0.490234 9.5C0.490234 9.62534 0.515158 9.74944 0.563568 9.86514C0.611978 9.98084 0.682915 10.0858 0.772289 10.1741L3.0131 12.3958V15.5385C3.0131 15.7903 3.11356 16.0318 3.29238 16.2099C3.4712 16.3879 3.71374 16.4879 3.96663 16.4879H7.17051L9.40178 18.7192C9.49043 18.8081 9.59589 18.8788 9.71209 18.927C9.82828 18.9752 9.95292 19 10.0788 19C10.2047 19 10.3293 18.9752 10.4455 18.927C10.5617 18.8788 10.6672 18.8081 10.7558 18.7192L12.9871 16.4879H16.1433C16.3962 16.4879 16.6387 16.3879 16.8175 16.2099C16.9964 16.0318 17.0968 15.7903 17.0968 15.5385V12.3958L19.3376 10.1741C19.4239 10.0827 19.4912 9.97526 19.5356 9.85786C19.58 9.74046 19.6005 9.61546 19.5961 9.4901C19.5917 9.36474 19.5623 9.2415 19.5098 9.12749C19.4572 9.01349 19.3825 8.91098 19.2899 8.82589ZM15.4281 11.3324C15.338 11.4204 15.2664 11.5252 15.2172 11.6409C15.1681 11.7567 15.1426 11.8809 15.1421 12.0065V14.5891H12.5485C12.4223 14.5896 12.2975 14.615 12.1813 14.6639C12.0651 14.7128 11.9598 14.7842 11.8714 14.8739L10.0311 16.7063L8.19079 14.8739C8.10248 14.7842 7.99717 14.7128 7.88096 14.6639C7.76475 14.615 7.63994 14.5896 7.51378 14.5891H4.92017V12.0065C4.91964 11.8809 4.89409 11.7567 4.84499 11.6409C4.79588 11.5252 4.72421 11.4204 4.63411 11.3324L2.79378 9.5L4.63411 7.66756C4.72421 7.57963 4.79588 7.47477 4.84499 7.35905C4.89409 7.24334 4.91964 7.11907 4.92017 6.99345V4.41095H7.51378C7.63994 4.41043 7.76475 4.38498 7.88096 4.33609C7.99717 4.2872 8.10248 4.21583 8.19079 4.12612L10.0311 2.29368L11.8714 4.12612C11.9598 4.21583 12.0651 4.2872 12.1813 4.33609C12.2975 4.38498 12.4223 4.41043 12.5485 4.41095H15.1421V6.99345C15.1426 7.11907 15.1681 7.24334 15.2172 7.35905C15.2664 7.47477 15.338 7.57963 15.4281 7.66756L17.2685 9.5L15.4281 11.3324Z" fill="#5E6C7C"/>
</svg>
