<svg width="36" height="39" viewBox="0 0 36 39" fill="none" xmlns="http://www.w3.org/2000/svg">
<path d="M33.5401 23.9282L32.2731 21.7493L28.1086 24.135L20.5411 19.8L28.1086 15.465L32.2686 17.8477L33.5346 15.6693L30.6461 14.0152L35.0551 11.486L33.7891 9.31009L29.3696 11.8392V8.51451H26.8371V13.29L19.2571 17.632V8.95L23.4316 6.55977L22.1656 4.38233L19.2571 6.04641V0.990189H16.7211V6.03996L13.8301 4.38332L12.5631 6.56176L16.7211 8.94504V17.6131L9.15407 13.2776V8.51451H6.61807V11.8278L2.21107 9.30265L0.945068 11.4801L5.35707 14.0077L2.45807 15.6683L3.72407 17.8458L7.89157 15.46L15.4691 19.8L7.89157 24.1425L3.72207 21.7523L2.45257 23.9317L5.35707 25.5938L0.947068 28.1199L2.21657 30.2959L6.61807 27.7732V31.086H9.15407V26.3224L16.7211 21.9869V30.6574L12.5661 33.0358L13.8346 35.2142L16.7211 33.56V38.6098H19.2571V33.5546L22.1601 35.2177L23.4271 33.0382L19.2571 30.651V21.97L26.8371 26.31V31.086H29.3696V27.7623L33.7836 30.2899L35.0531 28.1125L30.6461 25.5873L33.5401 23.9282Z" fill="#878BC8"/>
</svg>
