<svg width="37" height="42" viewBox="0 0 37 42" fill="none" xmlns="http://www.w3.org/2000/svg">
<path d="M30.8333 29.2916C29.2711 29.2916 27.8733 29.8994 26.8044 30.8516L12.1483 22.4438C12.2511 21.9778 12.3333 21.5118 12.3333 21.0256C12.3333 20.5393 12.2511 20.0734 12.1483 19.6074L26.64 11.2805C27.75 12.2935 29.2094 12.9216 30.8333 12.9216C34.2456 12.9216 37 10.2068 37 6.84361C37 3.48046 34.2456 0.765625 30.8333 0.765625C27.4211 0.765625 24.6667 3.48046 24.6667 6.84361C24.6667 7.32985 24.7489 7.79583 24.8517 8.2618L10.36 16.5886C9.25 15.5756 7.79056 14.9476 6.16667 14.9476C2.75444 14.9476 0 17.6624 0 21.0256C0 24.3887 2.75444 27.1036 6.16667 27.1036C7.79056 27.1036 9.25 26.4755 10.36 25.4625L24.9956 33.8906C24.8928 34.3161 24.8311 34.7618 24.8311 35.2075C24.8311 38.4694 27.5239 41.1234 30.8333 41.1234C34.1428 41.1234 36.8356 38.4694 36.8356 35.2075C36.8356 31.9457 34.1428 29.2916 30.8333 29.2916Z" fill="white"/>
</svg>
