<svg width="13" height="13" viewBox="0 0 13 13" fill="none" xmlns="http://www.w3.org/2000/svg">
<g opacity="0.65">
<path d="M1.03002 5.38496C0.908233 5.52776 0.671963 5.56415 0.496821 5.4671C0.321519 5.37017 0.270889 5.17493 0.382335 5.02657L3.49611 1.14437C3.59129 1.02583 3.76857 0.972883 3.93263 1.01421C4.09668 1.05541 4.20904 1.18102 4.20919 1.32357V11.6761C4.20919 11.8548 4.03495 11.9996 3.81997 11.9996C3.60498 11.9996 3.43074 11.8548 3.43074 11.6761V2.39182L1.03002 5.38496ZM8.87986 10.6084L11.2806 7.61528C11.3364 7.54109 11.4258 7.48878 11.5286 7.47033C11.6315 7.45187 11.7388 7.46881 11.8264 7.51734C11.914 7.56574 11.9743 7.64169 11.9935 7.72762C12.0127 7.81355 11.9891 7.90239 11.9283 7.97367L8.81449 11.8559C8.71931 11.9745 8.54188 12.0275 8.37766 11.986C8.21345 11.9446 8.10125 11.8187 8.10141 11.676V1.32352C8.10141 1.14483 8.27565 1 8.49063 1C8.70561 1 8.87985 1.14483 8.87985 1.32352L8.87986 10.6084Z" fill="#3A4E66" stroke="#3A4E66" stroke-width="0.6"/>
</g>
</svg>
