<svg width="16" height="16" viewBox="0 0 16 16" fill="none" xmlns="http://www.w3.org/2000/svg">
<path d="M15.9724 6.0509C15.9052 5.83393 15.7263 5.67558 15.5112 5.64278L10.6752 4.90526L8.51276 0.306988C8.32028 -0.102329 7.68023 -0.102329 7.4876 0.306988L5.32519 4.90526L0.489209 5.64268C0.274029 5.67548 0.0952118 5.83383 0.0279783 6.0508C-0.0392422 6.26804 0.0168815 6.50617 0.172496 6.66572L3.67164 10.2449L2.84548 15.2989C2.80887 15.5238 2.89714 15.7513 3.0729 15.8855C3.24931 16.0196 3.48248 16.0374 3.67471 15.9311L7.99999 13.5447L12.3253 15.9311C12.5174 16.0368 12.7505 16.0198 12.9271 15.8855C13.1028 15.7513 13.191 15.5238 13.1545 15.2989L12.3283 10.2449L15.8275 6.66572C15.9832 6.50617 16.0392 6.26815 15.972 6.05094L15.9724 6.0509Z" fill="#C0CBD8"/>
</svg>
