<svg width="134" height="113" viewBox="0 0 134 113" fill="none" xmlns="http://www.w3.org/2000/svg">
<path d="M29.9494 49.0522L50.4003 29.8137C52.0635 28.2695 53.6319 27.1605 55.1582 26.365C60.4576 23.6033 73.07 23.552 78.4152 26.1361C80.0844 26.943 81.7986 28.1149 83.6282 29.8137C90.5298 36.0679 97.2903 42.6658 104.079 49.0522C105.261 50.1348 106.052 51.1549 106.486 52.1145C107.857 55.1462 105.599 57.2078 102.817 58.5018C99.3381 60.1201 94.2454 61.114 88.8002 61.7234C76.5905 63.09 60.941 63.0651 48.6402 61.9341C37.2852 60.89 25.4735 58.3912 27.4919 52.414C27.8459 51.3655 28.6468 50.2455 29.9494 49.0522V49.0522ZM48.2335 70.4346C48.2335 69.9505 49.0375 69.9505 49.0375 70.4346V86.1192C49.0375 86.6033 48.2335 86.6033 48.2335 86.1192V70.4346V70.4346ZM85.1987 70.4346C85.1987 69.9505 86.0027 69.9505 86.0027 70.4346V86.1192C86.0027 86.3225 85.8227 86.4873 85.6007 86.4873C85.3787 86.4873 85.1987 86.3225 85.1987 86.1192V70.4346V70.4346ZM40.2037 44.3161C40.5714 43.97 41.1461 44.4818 40.7784 44.8279L35.017 50.2477C34.0296 51.1511 32.7975 52.5741 33.6222 53.8939C34.9617 56.0374 40.7699 56.9601 43.1465 57.2891C43.669 57.3609 43.5498 58.0884 43.0271 58.0165C40.3151 57.6411 34.4477 56.6958 32.9249 54.259C31.8857 52.596 33.1697 50.9014 34.447 49.7316L40.2037 44.3161V44.3161ZM93.0747 44.9506C92.707 44.6045 93.2818 44.0927 93.6495 44.4388L99.4062 49.8542C100.683 51.0241 101.967 52.7187 100.928 54.3817C99.4055 56.8185 93.5381 57.7638 90.826 58.1392C90.3033 58.2111 90.1841 57.4836 90.7066 57.4118C93.0832 57.0828 98.8915 56.1601 100.231 54.0166C101.056 52.6968 99.8235 51.2737 98.8361 50.3704L93.0747 44.9506V44.9506ZM114.572 74.7257L114.61 79.2147C114.592 79.6085 115.984 79.6312 115.973 79.2248L115.876 74.7066C115.867 74.254 115.972 74.2914 115.553 74.3278C115.413 74.34 115.27 74.3459 115.127 74.3456C114.517 74.3444 114.567 74.1649 114.572 74.7257V74.7257ZM113.263 77.7803L113.234 74.3493C113.228 73.6678 113.246 74.0077 112.867 73.546C112.571 73.1853 112.589 72.8921 112.585 72.4921L112.553 69.5254C112.541 68.4006 112.601 68.688 111.307 68.9486C109.502 69.3123 107.852 69.5472 106.327 69.6015C102.047 69.7537 99.5655 68.6577 96.511 66.1023C95.8638 65.5602 96.7641 64.6592 97.4113 65.2014C100.193 67.5282 102.38 68.5181 106.279 68.3794C108.224 68.3103 110.436 67.9165 112.968 67.3246C114.613 66.9401 116.318 66.4979 118.131 66.0274C119.99 65.5452 123.714 64.8988 124.959 63.6428C125.568 63.0277 125.929 62.1796 126.132 60.9964C127.289 54.2433 128.268 47.4003 129.566 40.6822C130.055 38.1564 130.396 36.3894 129.047 35.0918C128.237 34.313 128.477 34.6125 128.655 35.232C128.949 36.2538 128.871 37.5211 128.581 38.9928L124.11 61.7114C123.928 62.6357 123.789 62.6833 122.773 62.9334L111.068 65.8137C107.885 66.6426 103.398 67.0135 100.767 64.828C100.377 64.5032 100.918 63.9597 101.308 64.2846C103.707 66.2778 107.958 65.8588 110.848 65.1064L121.574 62.4671C122.652 62.2019 122.628 62.3203 121.636 61.8526L108.648 55.7701C108.179 55.5489 108.546 54.8961 109.015 55.1173L122.232 61.3076C123.378 61.848 123.231 62.0441 123.445 60.9563L127.793 38.8634C128.063 37.4917 128.14 36.3261 127.879 35.419C127.479 34.0291 126.542 33.7172 125.215 33.3577C122.14 32.5242 117.762 31.7908 114.944 31.8839C112.766 31.9559 112.491 32.6716 111.916 34.4337L107.287 48.4239C107.036 49.196 105.753 48.8462 106.005 48.074L110.632 34.0864C111.359 31.863 112.034 30.7565 114.897 30.6619C118.222 30.552 124.55 31.6382 127.599 32.81C132.113 34.5452 131.653 36.9248 130.885 40.8931C129.589 47.6006 128.606 54.4393 127.451 61.1834C127.206 62.6128 126.744 63.6635 125.948 64.4671C124.38 66.0494 120.763 66.6173 118.493 67.2063C117.449 67.4769 117.71 67.3937 117.715 68.4611L117.732 72.4536C117.734 72.8164 117.754 73.0509 117.523 73.4039C117.15 73.9759 117.188 73.6022 117.205 74.3947L117.277 77.7581C117.289 78.3431 117.185 78.3024 117.753 78.0547C118.984 77.518 120.96 76.5464 122.281 76.268C122.951 76.1269 123.617 76.0873 124.135 76.2398C126.381 76.9008 126.032 79.4911 123.515 79.6431C122.776 79.6877 122.958 79.5767 122.235 79.8935L120.948 80.4566C119.942 80.8975 119.91 80.7651 120.945 81.1409C122.08 81.5529 123.232 81.9532 124.36 82.378C127.919 83.7191 124.842 87.813 121.718 85.4346C121.019 84.9024 120.994 84.778 120.068 84.4258L115.693 82.8568C114.886 82.5675 115.105 82.5831 114.323 82.9394L110.219 84.8086C109.565 85.1065 109.77 85.0585 109.327 85.5916C107.268 88.0642 102.345 84.3512 106.263 82.4676L109.24 81.0363C110.137 80.6053 110.204 80.7283 109.275 80.3815L108.707 80.1694C108.046 79.9228 108.367 80.0551 107.767 80.2614C106.953 80.5414 105.931 80.2324 105.414 79.6041C104.115 77.3502 107.093 75.8925 109.867 77.0258L112.771 78.1496C113.392 78.39 113.269 78.4202 113.263 77.7803V77.7803ZM116.437 72.4395L116.381 68.7855C116.376 67.6946 116.631 67.69 115.578 67.9559C115.211 68.0486 114.85 68.1388 114.495 68.2257C113.667 68.429 113.86 68.3575 113.869 69.2074L113.904 72.4603C113.912 73.1529 116.437 73.2782 116.437 72.4395V72.4395ZM104.888 21.6657C104.917 21.9334 104.922 22.2182 104.907 22.5192C104.885 23.0014 104.084 22.9698 104.107 22.4876C104.138 21.8555 104.072 21.3221 103.856 20.9051C103.523 20.2589 103.074 20.19 102.389 19.9943C100.143 19.3529 96.7567 18.805 94.7697 18.8706C93.4175 18.9153 93.3347 19.1477 92.8554 20.2676L89.274 31.3562C89.1699 31.6804 88.7984 31.8661 88.4443 31.7708C88.0902 31.6755 87.8875 31.3354 87.9915 31.0112L91.5828 19.8921L91.6012 19.8418C92.282 18.2471 92.7783 17.7128 94.7226 17.6486C97.1537 17.5683 101.763 18.3588 103.992 19.2156C105.067 19.629 105.768 20.118 106.21 20.7039C106.666 21.3076 106.827 21.9796 106.823 22.7517C106.819 23.5554 105.484 23.5506 105.488 22.7469C105.49 22.3178 105.426 21.9437 105.252 21.6195C104.885 20.9329 104.803 20.8999 104.888 21.6657ZM116.936 28.3411C117.046 28.8212 117.04 29.3619 116.991 29.9501C116.952 30.4323 116.151 30.3778 116.19 29.8955C116.258 29.0732 116.201 28.3787 115.949 27.8363C115.573 27.0282 115.042 26.8722 114.217 26.6354C111.593 25.883 107.628 25.2195 105.214 25.2992C103.379 25.3598 103.268 25.9559 102.752 27.3135L98.0379 39.7258C97.9165 40.0447 97.5357 40.2131 97.1873 40.102C96.839 39.9908 96.655 39.6422 96.7764 39.3232L101.506 26.8709C102.225 24.978 102.765 24.1565 105.167 24.0772C107.996 23.9837 113.369 24.9057 115.962 25.9026C117.93 26.659 119.156 27.738 119.203 29.7743C119.22 30.5781 117.886 30.6019 117.868 29.7983C117.854 29.198 117.719 28.6878 117.374 28.2555C116.9 27.7228 116.778 27.646 116.936 28.3411V28.3411ZM123.267 78.4295C124.318 78.474 124.721 77.6969 123.727 77.4043C123.463 77.3266 123.04 77.3643 122.58 77.4612C121.29 77.7329 118.959 78.8869 117.807 79.3892C117.241 79.6359 117.457 79.6099 117.073 79.9319C116.269 80.6057 114.381 80.6946 113.494 80.0855C112.989 79.7393 113.342 79.6971 112.567 79.3973L109.363 78.1574C108.631 77.8741 108.08 77.5329 107.221 77.8227C105.68 78.3424 106.735 79.5167 107.372 79.077C107.592 78.9255 107.862 78.8474 108.129 78.8256C108.409 78.8028 108.699 78.8433 108.918 78.9251L112.058 80.0971C113.478 80.6271 113.354 80.4411 111.981 81.1012L106.886 83.5506C104.86 84.5249 107.743 85.9311 108.416 84.61C108.653 84.1441 109.089 83.9542 109.554 83.7425L114.179 81.636C115.069 81.2305 114.814 81.2274 115.736 81.5565C117.35 82.1329 118.969 82.705 120.577 83.2932C121.694 83.7179 121.74 83.8625 122.571 84.4953C124.041 85.6146 125.563 84.1324 123.893 83.5261L117.91 81.3536C116.514 80.8473 116.556 81.0256 117.912 80.4319L121.957 78.6605C122.761 78.3087 122.71 78.4059 123.267 78.4295V78.4295ZM20.77 73.8673L20.737 77.7444C20.7309 78.4628 20.6161 78.3868 21.342 78.1058L24.3706 76.9337L24.3701 76.9326C25.5924 76.4112 26.7433 76.2278 27.9366 77.0086C28.5104 77.3839 28.9063 77.9446 28.9181 78.6743L28.9183 78.6926C28.9419 79.6579 27.9055 80.3448 26.9225 80.3647C26.6692 80.3699 26.4169 80.3318 26.1822 80.243C25.5745 80.0131 25.9501 79.9353 25.2079 80.2123L24.8594 80.3424C23.7679 80.7498 23.8751 80.6076 24.9308 81.1185L27.7368 82.4676C28.8062 82.9817 29.2083 83.6574 29.1897 84.3177C29.1576 85.4551 27.889 86.2844 26.7343 86.3815C25.9829 86.4448 25.2225 86.2348 24.6919 85.6134C23.968 84.7658 24.4357 85.1068 23.2989 84.5891L19.7897 82.9908C18.8567 82.5658 19.1227 82.5644 18.1559 82.9111L13.9319 84.4258C13.0057 84.778 12.9814 84.9024 12.2824 85.4346C9.10941 87.8504 5.98458 83.5887 9.81312 82.3169L9.81331 82.3173L13.0618 81.1384C14.0821 80.7681 14.0618 80.899 13.0706 80.465L11.6953 79.8628C11.023 79.5684 11.1754 79.6838 10.4876 79.6435C7.98662 79.497 7.60273 76.9058 9.86487 76.2398C10.9974 75.9064 12.8252 76.4989 13.8288 77.0008L13.8291 77.0002L16.1367 78.0066C16.8144 78.3021 16.71 78.3778 16.7245 77.699L16.7998 74.1705C16.8127 73.5705 16.7863 73.8619 16.4885 73.4216C16.3954 73.2839 16.3286 73.1304 16.2938 72.9608C16.2487 72.822 16.2673 72.5116 16.268 72.3723L16.2872 68.0812C16.2909 67.253 16.3994 67.4376 15.5076 67.2063C14.2642 66.8838 12.9677 66.5474 11.4604 66.1721C8.42155 65.4153 7.03892 64.0404 6.54944 61.1834C5.39396 54.4393 4.41099 47.6006 3.11459 40.8931C2.34752 36.9248 1.88753 34.5452 6.40116 32.81C9.44971 31.6382 15.7782 30.552 19.1032 30.6619C21.6832 30.7471 22.2849 31.4291 23.1881 33.5445L23.2064 33.5924L27.9067 47.9816C28.158 48.7538 26.8756 49.1037 26.6243 48.3315L21.931 33.9637C21.2299 32.3256 21.0406 31.9495 19.0561 31.8839C16.2214 31.7902 11.8095 32.5327 8.73128 33.3722C7.42312 33.729 6.51404 34.0527 6.12088 35.419C5.85982 36.3261 5.93722 37.4917 6.20718 38.8634L10.5788 61.0764C10.7469 61.9307 10.5759 61.87 11.4082 61.4773L23.9781 55.3121C24.447 55.0909 24.8144 55.7436 24.3456 55.9648L12.5111 61.7831C11.4029 62.3059 11.2795 62.185 12.4923 62.4834L23.1516 65.1064C26.767 66.0475 30.0499 66.3931 32.9916 63.949C33.3816 63.6242 33.9216 64.1677 33.5318 64.4925C30.3737 67.1162 26.8256 66.8274 22.9318 65.8137L11.1346 62.9105C10.0322 62.6393 10.051 62.5298 9.85077 61.5122L5.41888 38.9928C5.12926 37.5211 5.05108 36.2538 5.34513 35.232C5.72464 34.3942 5.61613 34.3723 4.83188 35.2148C3.63116 36.5048 3.96064 38.2354 4.43363 40.6822C5.73209 47.4003 6.71142 54.2433 7.86848 60.9964C8.27483 63.3683 9.29135 64.3609 11.8111 64.9884C13.1165 65.3134 14.5212 65.6779 15.8687 66.0275C17.6823 66.4979 19.3866 66.9401 21.0322 67.3246C23.5643 67.9165 25.7757 68.3103 27.7206 68.3794C31.6201 68.5181 33.8152 67.5227 36.5965 65.1959C37.2437 64.6538 38.144 65.5547 37.4968 66.0968C34.4423 68.6522 31.953 69.7537 27.6735 69.6015C25.9801 69.5412 24.1344 69.2585 22.0923 68.8241C21.3546 68.6673 21.4573 68.5554 21.45 69.2367L21.4121 72.7695L21.4119 72.7741C21.4102 73.2443 21.1616 73.6083 20.77 73.8673ZM19.39 78.9372L19.4269 74.8459C19.4312 74.3407 19.4272 74.3085 19.1102 74.315C18.9037 74.3191 18.7024 74.3493 18.4972 74.324C18.1123 74.2763 18.134 74.2236 18.1222 74.7744L18.0347 78.924C18.0347 79.4998 19.3855 79.4724 19.39 78.9372ZM18.0783 73.0315C18.5494 73.1468 19.2602 73.1339 19.6951 73.0223C20.1824 72.8973 20.0776 72.7309 20.0817 72.3528L20.1171 69.0616C20.1252 68.306 20.2854 68.4172 19.5258 68.2309C19.1136 68.1298 18.6923 68.0244 18.2627 67.9156C17.5075 67.7244 17.624 67.6292 17.6208 68.3409L17.6039 72.1062C17.6018 72.5912 17.4552 72.8789 18.0783 73.0315ZM30.0404 20.5857C29.8252 21.0027 29.7587 21.5361 29.7904 22.1682C29.8131 22.6504 29.0123 22.682 28.9895 22.1998C28.9702 21.8139 28.9841 21.4548 29.0401 21.1241C29.1124 20.697 29.1706 20.5701 28.7858 21.0794C28.5048 21.4513 28.406 21.8975 28.409 22.4275C28.4125 23.2312 27.0777 23.236 27.0743 22.4323C27.0699 21.6603 27.2305 20.9882 27.6866 20.3845C28.5294 19.269 30.1157 18.7665 31.4882 18.4114C33.7311 17.8311 36.8822 17.2535 39.1743 17.3292C41.1186 17.3935 41.6148 17.9277 42.2957 19.5224L42.3141 19.5727L46.0085 31.0112C46.2564 31.7834 44.974 32.1284 44.7261 31.3562L41.0415 19.9482C40.5622 18.8283 40.4795 18.596 39.1272 18.5513C36.9746 18.4801 33.9043 19.0502 31.7965 19.6033C31.0307 19.8042 30.407 19.8754 30.0404 20.5857V20.5857ZM18.0512 27.5425C17.7989 28.0849 17.7422 28.7794 17.8096 29.6016C17.8488 30.0839 17.048 30.1384 17.0088 29.6563C16.9638 29.1086 16.9704 28.6047 17.0458 28.1479C17.149 27.522 17.39 27.0025 16.6256 27.9616C16.281 28.3939 16.1457 28.9041 16.1317 29.5044C16.1145 30.3081 14.7798 30.2842 14.7969 29.4805C14.8166 28.6375 15.0219 27.902 15.5473 27.2428C16.0564 26.6041 16.8459 26.0668 18.0376 25.6087C20.6308 24.6118 26.0045 23.6899 28.8328 23.7834C31.0601 23.857 31.6027 24.4566 32.3825 26.283L32.393 26.3094L37.2263 39.328C37.3448 39.6483 37.1573 39.9959 36.8075 40.1044C36.4577 40.2129 36.078 40.0413 35.9595 39.721L31.1315 26.7164C30.5527 25.3625 30.4251 25.0596 28.7857 25.0054C26.2995 24.9232 22.1661 25.6299 19.5495 26.4099C18.816 26.6286 18.3801 26.8354 18.0512 27.5425ZM16.1194 79.3572C14.9581 78.8507 13.5906 78.166 12.3862 77.7341C11.6517 77.4707 10.763 77.2729 10.1772 77.4515C9.31408 77.7146 9.63581 78.6113 11.1658 78.3946C11.4331 78.3568 11.6658 78.4955 11.8972 78.5968L15.6822 80.2542C17.5178 81.0579 17.5709 80.8163 15.6826 81.5016L10.2868 83.4599L10.2685 83.467C8.37015 84.0977 9.91362 85.6492 11.4292 84.4953C12.2602 83.8625 12.3058 83.718 13.4232 83.2932C14.8528 82.7702 16.291 82.2599 17.7272 81.748C19.2465 81.2065 18.827 81.183 20.2863 81.8477L24.5725 83.7999L24.5718 83.8012C24.9932 83.9786 25.3814 84.2111 25.5845 84.61C26.2571 85.9311 29.1406 84.5249 27.1139 83.5506L22.1719 81.1746C20.8523 80.5596 20.9653 80.4951 22.1854 80.0061L25.0817 78.9251C25.5584 78.7472 26.2107 78.7892 26.6277 79.077C27.1439 79.4334 28.1403 78.6454 27.1619 78.0054C26.2923 77.4365 25.7415 77.7836 24.904 78.054L21.47 79.383C20.6876 79.6858 21.0678 79.6419 20.5844 80.0232C19.7685 80.6667 17.8857 80.6301 17.0178 80.0209C16.5571 79.6976 16.807 79.657 16.1194 79.3572V79.3572ZM88.3664 68.3498C88.3664 67.5429 89.7064 67.5429 89.7064 68.3498V88.844C89.7064 90.9614 83.8877 92.2231 76.39 92.7144C70.4637 93.1027 64.2945 93.0907 58.3681 92.7049C50.6237 92.2008 44.5327 90.918 44.5327 88.844V68.3295C44.5327 67.5226 45.8727 67.5226 45.8727 68.3295V88.4514C45.8727 89.726 51.4153 91.0241 58.4623 91.4829C64.3383 91.8654 70.4198 91.8774 76.2958 91.4924C83.0921 91.047 88.3664 89.8124 88.3664 88.5005V68.3498V68.3498ZM105.456 58.0242C105.69 57.2489 106.978 57.5746 106.743 58.3501C105.917 61.0741 101.649 62.9875 95.0923 64.2224C93.2003 64.5787 91.1107 64.8823 88.8531 65.1361C76.2698 66.5508 61.1726 66.5763 48.5249 65.4049C45.2283 65.0996 42.1869 64.6971 39.505 64.1896C33.0021 62.9591 28.5382 61.0705 27.5086 58.3954C27.2159 57.6358 28.4775 57.2285 28.7701 57.9881C29.6236 60.2058 33.7286 61.848 39.7719 62.9915C42.3928 63.4875 45.3648 63.8819 48.5876 64.1823C61.1963 65.3577 76.3473 65.3343 88.8865 63.9008C91.0324 63.6555 93.0209 63.3641 94.8254 63.0243C100.88 61.884 104.782 60.2446 105.456 58.0242V58.0242ZM51.3555 30.6691L30.8994 49.9124C29.7531 50.9612 29.0596 51.9129 28.769 52.7734C27.1658 57.5214 37.9898 59.6782 48.6154 60.6557C61.049 61.7994 76.3841 61.888 88.7357 60.4971C94.0059 59.9037 98.9081 58.9475 102.215 57.4091C104.322 56.4292 106.322 54.9481 105.251 52.5794C104.884 51.7679 104.187 50.8802 103.129 49.9124C96.2389 43.6041 89.4749 37.0678 82.673 30.6691C80.9484 29.0682 79.3446 27.9695 77.7923 27.2191C72.8571 24.8332 60.7171 24.8758 55.8177 27.4289C54.3962 28.1698 52.9261 29.2112 51.3555 30.6691V30.6691Z" fill="#685CA3" fill-opacity="0.2"/>
</svg>
