<svg width="26" height="20" viewBox="0 0 26 20" fill="none" xmlns="http://www.w3.org/2000/svg">
<path d="M24.9793 0H1.0221C0.823546 9.85975e-06 0.633126 0.0810565 0.492726 0.225313C0.352327 0.36957 0.273447 0.565221 0.273438 0.769231V18.2051C0.273957 18.681 0.458169 19.1372 0.78566 19.4737C1.11315 19.8102 1.55718 19.9995 2.02032 20H23.9811C24.4442 19.9995 24.8883 19.8102 25.2158 19.4737C25.5433 19.1372 25.7275 18.681 25.728 18.2051V0.769231C25.728 0.565221 25.6491 0.36957 25.5087 0.225313C25.3683 0.0810565 25.1779 9.85975e-06 24.9793 0ZM1.77076 7.69231H7.26096V12.3077H1.77076V7.69231ZM8.75829 7.69231H24.2307V12.3077H8.75829V7.69231ZM24.2307 1.53846V6.15385H1.77076V1.53846H24.2307ZM1.77076 18.2051V13.8462H7.26096V18.4615H2.02032C1.95415 18.4615 1.89072 18.4344 1.84393 18.3864C1.79714 18.3383 1.77083 18.2731 1.77076 18.2051ZM23.9811 18.4615H8.75829V13.8462H24.2307V18.2051C24.2306 18.2731 24.2043 18.3383 24.1575 18.3864C24.1107 18.4344 24.0473 18.4615 23.9811 18.4615Z" fill="#474D9B"/>
</svg>
