<svg width="62" height="78" viewBox="0 0 62 78" fill="none" xmlns="http://www.w3.org/2000/svg">
<g clip-path="url(#clip0)">
<path d="M12.5938 1.94238C11.0005 1.94238 9.68182 3.26958 9.68182 4.87316V12.675C9.68182 14.2786 11.0005 15.5962 12.5938 15.5962H14.5313C15.7942 15.5667 15.7942 13.6747 14.5313 13.6462H12.5938C12.0403 13.6462 11.6212 13.232 11.6212 12.675V4.87316C11.6212 4.31621 12.0403 3.89432 12.5938 3.89432H49.4081C49.9616 3.89432 50.3731 4.31621 50.3731 4.87316V12.675C50.3731 13.232 49.9616 13.6462 49.4081 13.6462H47.4706C46.2077 13.6756 46.2077 15.5677 47.4706 15.5962H49.4081C51.0014 15.5962 52.3106 14.2786 52.3106 12.675V4.87316C52.3106 3.26958 51.0014 1.94238 49.4081 1.94238H12.5938ZM14.5313 7.79438C13.2383 7.79438 13.2383 9.74621 14.5313 9.74621H42.6212V40.9462C42.6212 41.5033 42.2098 41.9251 41.6563 41.9251H38.7443V35.0944C38.7443 32.4105 36.571 30.2212 33.9044 30.2212C31.2377 30.2212 29.0625 32.4105 29.0625 35.0944V44.8462C29.0625 48.1641 30.632 50.971 31.842 52.6481H30.0275C29.4947 52.6501 29.0636 53.085 29.0625 53.6212V59.4712C29.0644 60.0067 29.4954 60.4402 30.0275 60.4424H51.3381C51.3714 60.4443 51.4049 60.4443 51.4384 60.4424C51.9339 60.3923 52.3111 59.9725 52.3106 59.4712V53.6212C52.3096 53.082 51.8738 52.646 51.3381 52.6481H49.6163L52.2917 39.1867C52.8094 36.5813 52.4506 34.6335 50.1801 31.5867L48.2426 28.9873C48.0688 28.7459 47.7949 28.598 47.499 28.5855C46.676 28.5523 46.1889 29.5009 46.693 30.1565L48.6286 32.7558C50.7175 35.5589 50.7605 36.9518 50.392 38.8058L47.6409 52.6481H34.3471C33.7286 51.9602 31 48.7293 31 44.8462V35.0944C31 33.457 32.2775 32.1712 33.9044 32.1712C35.5312 32.1712 36.8068 33.457 36.8068 35.0944V42.8962C36.8088 43.4346 37.2444 43.8695 37.7794 43.8675H41.6563C43.2496 43.8675 44.5587 42.5499 44.5587 40.9462V9.74621H47.4706C48.7636 9.74621 48.7636 7.79438 47.4706 7.79438H14.5313ZM18.393 11.6809C17.8542 11.6846 17.4232 12.1328 17.4337 12.675V40.9462C17.4337 42.5499 18.7523 43.8675 20.3456 43.8675H26.1525C27.5598 43.9946 27.5598 41.7978 26.1525 41.9251H20.3456C19.7922 41.9251 19.3731 41.5033 19.3731 40.9462V12.675C19.3837 12.1246 18.9399 11.6744 18.393 11.6809ZM31.9536 11.6847C31.8264 11.6871 31.7009 11.7149 31.5843 11.7662C31.4677 11.8175 31.3623 11.8914 31.2741 11.9837C31.1859 12.076 31.1167 12.1848 31.0703 12.3041C31.0239 12.4233 31.0013 12.5506 31.0038 12.6787V16.5711C31.0038 18.1746 32.313 19.5019 33.9063 19.5019H37.7831C39.3764 19.5019 40.6856 18.1746 40.6856 16.5711V12.6787C40.6885 12.5488 40.6655 12.4197 40.6181 12.2989C40.5707 12.1781 40.4998 12.068 40.4096 11.9751C40.3194 11.8823 40.2116 11.8086 40.0926 11.7582C39.9737 11.7078 39.8459 11.6818 39.7169 11.6818C39.5878 11.6818 39.4601 11.7078 39.3411 11.7582C39.2221 11.8086 39.1144 11.8823 39.0241 11.9751C38.9339 12.068 38.863 12.1781 38.8156 12.2989C38.7682 12.4197 38.7453 12.5488 38.7481 12.6787V16.5711C38.7481 17.128 38.3366 17.5499 37.7831 17.5499H36.8106V14.6211C36.8096 14.3638 36.7076 14.1173 36.5269 13.9354C36.3461 13.7535 36.1013 13.6509 35.8456 13.6499H32.9337V12.6787C32.9362 12.5481 32.9127 12.4182 32.8644 12.297C32.8162 12.1757 32.7442 12.0655 32.6528 11.9728C32.5613 11.8801 32.4524 11.8068 32.3323 11.7573C32.2122 11.7078 32.0834 11.683 31.9536 11.6845V11.6847ZM24.2017 13.6347C23.9461 13.6397 23.7029 13.7462 23.5249 13.931C23.347 14.1158 23.2489 14.3638 23.2519 14.6211V19.5019C23.249 19.6317 23.272 19.7608 23.3193 19.8816C23.3667 20.0025 23.4376 20.1125 23.5279 20.2054C23.6181 20.2983 23.7259 20.3721 23.8449 20.4225C23.9638 20.4728 24.0916 20.4988 24.2206 20.4988C24.3497 20.4988 24.4775 20.4728 24.5964 20.4225C24.7154 20.3721 24.8232 20.2983 24.9134 20.2054C25.0036 20.1125 25.0745 20.0025 25.1219 19.8816C25.1693 19.7608 25.1923 19.6317 25.1894 19.5019V14.6211C25.1909 14.4905 25.1663 14.3609 25.1171 14.2401C25.0679 14.1192 24.9951 14.0096 24.903 13.9176C24.8108 13.8257 24.7013 13.7532 24.5808 13.7046C24.4604 13.6561 24.3315 13.6324 24.2017 13.6349V13.6347ZM32.9337 15.5998H34.8712V17.5498H33.9063C33.3528 17.5498 32.9337 17.1279 32.9337 16.571V15.5998ZM24.2017 23.3884C23.9461 23.3935 23.7029 23.4999 23.5249 23.6847C23.347 23.8694 23.2489 24.1175 23.2519 24.3748V29.1736C23.249 29.3035 23.272 29.4326 23.3193 29.5534C23.3667 29.6742 23.4376 29.7843 23.5279 29.8772C23.6181 29.97 23.7259 30.0438 23.8449 30.0942C23.9638 30.1446 24.0916 30.1706 24.2206 30.1706C24.3497 30.1706 24.4775 30.1446 24.5964 30.0942C24.7154 30.0438 24.8232 29.97 24.9134 29.8772C25.0036 29.7843 25.0745 29.6742 25.1219 29.5534C25.1693 29.4326 25.1923 29.3035 25.1894 29.1736V24.3748C25.1909 24.2442 25.1664 24.1146 25.1172 23.9937C25.068 23.8728 24.9952 23.7632 24.903 23.6712C24.8109 23.5792 24.7014 23.5067 24.5809 23.4582C24.4604 23.4096 24.3315 23.3859 24.2017 23.3884ZM24.2017 33.1326C24.0745 33.1351 23.949 33.1629 23.8324 33.2142C23.7158 33.2655 23.6104 33.3393 23.5222 33.4317C23.434 33.524 23.3648 33.6329 23.3184 33.7522C23.272 33.8714 23.2494 33.9987 23.2519 34.1268V38.9998C23.249 39.1297 23.272 39.2588 23.3193 39.3796C23.3667 39.5004 23.4376 39.6105 23.5279 39.7034C23.6181 39.7962 23.7259 39.87 23.8449 39.9204C23.9638 39.9708 24.0916 39.9968 24.2206 39.9968C24.3497 39.9968 24.4775 39.9708 24.5964 39.9204C24.7154 39.87 24.8232 39.7962 24.9134 39.7034C25.0036 39.6105 25.0745 39.5004 25.1219 39.3796C25.1693 39.2588 25.1923 39.1297 25.1894 38.9998V34.1268C25.192 33.9955 25.1682 33.865 25.1194 33.7433C25.0707 33.6215 24.998 33.5109 24.9058 33.418C24.8136 33.3252 24.7037 33.2522 24.5827 33.2031C24.4617 33.1541 24.3321 33.1301 24.2017 33.1326ZM31 54.5998H50.3731V58.4922H31V54.5998Z" fill="#878BC8"/>
</g>
<defs>
<clipPath id="clip0">
<rect width="62" height="78" fill="white"/>
</clipPath>
</defs>
</svg>
