<svg width="97" height="98" viewBox="0 0 97 98" fill="none" xmlns="http://www.w3.org/2000/svg">
<path d="M0 42.9375C0 66.3387 19.0362 85.375 42.4374 85.375C43.5529 85.375 44.4582 84.4696 44.4582 83.3541C44.4582 82.2386 43.5529 81.3333 42.4374 81.3333C21.2672 81.3333 4.04166 64.1077 4.04166 42.9375C4.04166 21.7673 21.2672 4.54178 42.4374 4.54178C63.6076 4.54178 80.8332 21.7673 80.8332 42.9375C80.8332 44.053 81.7385 44.9584 82.854 44.9584C83.9695 44.9584 84.8748 44.053 84.8748 42.9375C84.8748 19.5363 65.8386 0.500122 42.4374 0.500122C19.0362 0.500122 0 19.5363 0 42.9375Z" fill="#474D9B"/>
<path d="M42.4373 13.1949C41.3218 13.1949 40.4165 14.1003 40.4165 15.2158V42.9375C40.4165 44.053 41.3218 44.9583 42.4373 44.9583H61.5463C62.6618 44.9583 63.5671 44.053 63.5671 42.9375C63.5671 41.822 62.6618 40.9167 61.5463 40.9167H44.4582V15.2158C44.4582 14.0962 43.5528 13.1949 42.4373 13.1949Z" fill="#474D9B"/>
<path d="M92.3038 65.8174H88.7148V62.9438C88.7148 57.4835 84.269 53.0417 78.8087 53.0417C73.3484 53.0417 68.9026 57.4875 68.9026 62.9438V65.8174H65.3136C62.7229 65.8174 60.6172 67.9716 60.6172 70.6189V92.6904C60.6253 95.3457 62.731 97.4999 65.3217 97.4999H92.3078C94.8945 97.4999 97.0002 95.3457 97.0002 92.6944V70.6229C97.0002 67.9716 94.8945 65.8174 92.3038 65.8174ZM72.9483 62.9438C72.9483 59.7104 75.5794 57.0833 78.8127 57.0833C82.0461 57.0833 84.6772 59.7104 84.6772 62.9438V65.8174H72.9523L72.9483 62.9438ZM92.9585 92.6944C92.9585 93.1147 92.6675 93.4583 92.3038 93.4583H65.3176C64.9579 93.4583 64.6669 93.1147 64.6669 92.6944V70.6229C64.6669 70.2026 64.9579 69.8631 65.3217 69.8631H92.3078C92.6675 69.8631 92.9626 70.2066 92.9626 70.6229L92.9585 92.6944Z" fill="#474D9B"/>
</svg>
