<svg width="27" height="34" viewBox="0 0 27 34" fill="none" xmlns="http://www.w3.org/2000/svg">
<g clip-path="url(#clip0)">
<path d="M5.56835 4.53445C5.28047 4.56345 5.06136 4.8077 5.06177 5.09916V7.93529C5.06287 8.24834 5.31573 8.5012 5.62648 8.5H17.4855V7.36639H6.18704V5.66806H16.9166V4.53445H5.62648C5.60711 4.53344 5.58772 4.53344 5.56835 4.53445H5.56835Z" fill="#6D6D6D"/>
<path d="M5.62649 22.0991C5.31411 22.0979 5.06057 22.3533 5.06177 22.668C5.06177 22.668 5.0626 25.5 5.06177 25.5C5.06287 25.813 5.31573 26.0659 5.62649 26.0647H20.2509C20.5601 26.0636 20.8104 25.8114 20.8115 25.5V22.668C20.8127 22.355 20.5617 22.1002 20.2509 22.0991H5.62649ZM6.18705 23.2327H19.6862V24.9352H6.18705V23.2327Z" fill="#6D6D6D"/>
<path d="M5.62647 7.9353V11.332C5.6257 11.527 5.72452 11.7087 5.88807 11.813L10.1234 14.4818V16.1174L5.88807 18.7862C5.72452 18.8905 5.6257 19.0722 5.62647 19.2672V22.6681H6.75175V19.581L10.9871 16.9122C11.1494 16.8086 11.248 16.6288 11.2487 16.4353V14.1681C11.2495 13.9731 11.1507 13.7914 10.9871 13.687L6.75175 11.0182V7.9353H5.62647Z" fill="#6D6D6D"/>
<path d="M19.1256 9.86365V11.0182L14.8903 13.687C14.7251 13.7903 14.6246 13.9722 14.6245 14.168V16.4353C14.6261 16.6296 14.7264 16.8096 14.8903 16.9121L19.1256 19.5809V22.668H20.2509V19.2672C20.2508 19.0714 20.1503 18.8895 19.9851 18.7861L15.7498 16.1173V14.4818L19.9851 11.813C20.1503 11.7096 20.2508 11.5277 20.2509 11.3319V9.86365H19.1256Z" fill="#6D6D6D"/>
<path d="M21.3761 0.564697C18.5868 0.564697 16.3145 2.8581 16.3145 5.66804C16.3145 8.47798 18.5868 10.7672 21.3761 10.7672C24.1654 10.7672 26.4378 8.47798 26.4378 5.66804C26.4378 2.8581 24.1654 0.564698 21.3761 0.564697V0.564697ZM21.3761 1.69831C23.5574 1.69831 25.3125 3.4706 25.3125 5.66804C25.3125 7.86548 23.5574 9.63359 21.3761 9.63359C19.1948 9.63359 17.4356 7.86549 17.4356 5.66804C17.4356 3.4706 19.1948 1.69831 21.3761 1.69831V1.69831Z" fill="#6D6D6D"/>
<path d="M21.368 2.82352C21.0556 2.82691 20.8058 3.0861 20.8116 3.40079V5.66801C20.8129 5.81735 20.8725 5.96016 20.9777 6.0654L22.103 7.19902C22.6299 7.82116 23.5137 6.93089 22.8961 6.40005L21.9369 5.43376V3.40079C21.9428 3.08118 21.6853 2.81988 21.368 2.82352Z" fill="#6D6D6D"/>
</g>
<defs>
<clipPath id="clip0">
<rect width="27" height="34" fill="white"/>
</clipPath>
</defs>
</svg>
