<svg width="100" height="100" viewBox="0 0 100 100" fill="none" xmlns="http://www.w3.org/2000/svg">
<path d="M71.6513 71.4612H62.3459V73.9612H71.6513V71.4612Z" fill="#685CA3" fill-opacity="0.2"/>
<path d="M71.5378 58.6658L59.7354 55.6519C59.547 54.7115 59.2227 53.0432 58.9561 51.4362C60.5952 50.099 61.8926 48.429 62.7915 46.5564H63.3023C67.3374 46.5564 70.6752 43.5511 71.217 39.6629C72.9029 39.2195 74.1556 37.6967 74.1556 35.874V30.7141C74.1556 28.6839 72.6031 27.0278 70.6256 26.8229C70.021 16.7136 61.8967 10 49.993 10C38.0893 10 29.965 16.7137 29.3604 26.823C27.3832 27.028 25.831 28.6842 25.831 30.7141V35.874C25.831 38.042 27.5949 39.8059 29.7635 39.8059H30.1041C32.272 39.8059 34.0359 38.042 34.0359 35.874V30.7141C34.0359 29.1745 33.138 27.8524 31.8459 27.2074C32.3117 17.0676 41.1781 12.5 49.993 12.5C58.808 12.5 67.6745 17.0677 68.14 27.2077C66.8483 27.8529 65.9506 29.1748 65.9506 30.7141V35.874C65.9506 37.6262 67.1104 39.0968 68.6969 39.6032C68.2332 41.9953 66.2126 43.8143 63.7376 44.0124C63.9832 43.0803 64.1431 42.1196 64.1971 41.1389L64.8605 23.0542C64.9564 21.2708 63.895 19.6326 62.222 18.9795C54.2789 15.8521 46.0446 15.8606 37.8104 18.999C36.1093 19.6362 35.0308 21.2817 35.1248 23.0737L35.7907 41.1597C36.0004 45.0428 37.7463 48.7342 41.0406 51.4471C40.7672 53.0532 40.4405 54.7173 40.2515 55.6543L28.4616 58.6658C22.0139 60.3088 17.5107 66.1047 17.5107 72.7576V84.762C17.5107 87.6501 19.8605 90 22.7487 90H46.6763H53.3231C53.3316 90 53.3389 89.9988 53.3481 90H77.2513C80.1395 90 82.4893 87.6501 82.4893 84.762V72.7576C82.4893 66.1047 77.9861 60.3088 71.5378 58.6658ZM31.5359 35.874C31.5359 36.6638 30.8939 37.3059 30.1041 37.3059H29.7635C28.9737 37.3059 28.331 36.6638 28.331 35.874V30.7141C28.331 29.9243 28.9737 29.2822 29.7635 29.2822H30.1041C30.8939 29.2822 31.5359 29.9243 31.5359 30.7141V35.874ZM68.4506 30.7141C68.4506 29.9243 69.0927 29.2822 69.8825 29.2822H70.2231C71.0129 29.2822 71.6556 29.9243 71.6556 30.7141V35.874C71.6556 36.6638 71.0129 37.3059 70.2231 37.3059H69.8825C69.0927 37.3059 68.4506 36.6638 68.4506 35.874V30.7141ZM58.9243 58.0249C58.1729 60.2979 56.5652 62.2107 54.4815 63.3521L55.2005 59.6387C55.3354 59.5813 56.8109 59.176 58.8724 58.0115L58.9243 58.0249ZM56.6789 52.9477C56.8953 54.1682 57.114 55.2927 57.2632 56.0387C52.276 58.6449 47.5516 58.4538 42.7312 56.0033C42.8813 55.2549 43.1007 54.1358 43.3149 52.9498C47.5634 55.2186 52.5636 55.1545 56.6789 52.9477ZM41.1524 58.0059C42.6367 58.8005 44.4757 59.4933 44.7818 59.563L45.5173 63.3521C43.4341 62.2095 41.8265 60.2966 41.0757 58.0249L41.1524 58.0059ZM48.285 64.4885L47.4551 60.2136C48.0701 60.3108 48.2795 60.3124 48.411 60.3313L48.4109 60.332C48.536 60.336 50.1858 60.6198 52.5345 60.2552L51.7148 64.4885H48.285ZM38.6935 21.3379C42.5418 19.8718 46.398 19.1284 50.1553 19.1284C53.8846 19.1284 57.6364 19.8608 61.3095 21.3074C61.9681 21.5637 62.4014 22.2278 62.363 22.9407L62.2591 25.7735C58.1488 23.8666 54.8401 25.4652 54.5883 25.5969C53.2693 26.4258 50.0986 25.9766 48.3279 25.4846C44.0225 23.3493 40.0209 24.7878 37.7364 26.0596L37.6224 22.9614C37.5851 22.2559 38.0228 21.5894 38.6935 21.3379ZM38.2883 41.0461L37.8424 28.9365C39.1393 28.0045 43.0999 25.6254 47.305 27.7686L47.5241 27.8552C48.096 28.0212 53.1894 29.425 55.8127 27.7734C55.8429 27.7583 58.6686 26.3993 62.1568 28.5606L61.6995 41.0242C61.6421 42.0678 61.4317 43.0826 61.1111 44.0564H53.8538C53.3958 42.8423 52.2311 41.9727 50.8585 41.9727H50.6094C48.84 41.9727 47.4002 43.4119 47.4002 45.1819V45.4309C47.4002 47.2009 48.84 48.6401 50.6094 48.6401H50.8585C52.2311 48.6401 53.3958 47.7705 53.8538 46.5564H59.9512C57.7116 50.189 53.8918 52.1265 49.9863 52.1265C43.7246 52.1265 38.6217 47.207 38.2883 41.0461ZM51.5683 45.1819V45.4309C51.5683 45.8215 51.2497 46.1401 50.8585 46.1401H50.6094C50.2182 46.1401 49.9002 45.8215 49.9002 45.4309V45.1819C49.9002 44.7913 50.2182 44.4727 50.6094 44.4727H50.8585C51.2497 44.4727 51.5683 44.7913 51.5683 45.1819ZM20.0107 84.762V72.7576C20.0107 67.2485 23.7399 62.4487 29.0793 61.0876L38.6681 58.6394C39.7975 62.2256 42.6022 65.108 46.173 66.3316C46.308 66.5793 46.5191 66.7699 46.7762 66.8796L45.5013 87.5H22.7487C21.2387 87.5 20.0107 86.272 20.0107 84.762ZM48.0063 87.5L49.274 66.9885H50.726L51.9937 87.5H48.0063ZM79.9893 84.762C79.9893 86.272 78.7613 87.5 77.2513 87.5H54.4981L53.2238 66.8796C53.4811 66.7698 53.6922 66.5792 53.8271 66.3315C57.3981 65.107 60.2025 62.2246 61.3318 58.6395L70.9201 61.0876C76.2601 62.4487 79.9893 67.2485 79.9893 72.7576V84.762Z" fill="#685CA3" fill-opacity="0.2"/>
</svg>
