<svg width="25" height="25" viewBox="0 0 25 25" fill="none" xmlns="http://www.w3.org/2000/svg">
<path fill-rule="evenodd" clip-rule="evenodd" d="M12.4994 2.17383C6.80051 2.17383 2.17334 6.801 2.17334 12.4999C2.17334 18.1988 6.80051 22.826 12.4994 22.826C18.1983 22.826 22.8255 18.1988 22.8255 12.4999C22.8255 6.801 18.1983 2.17383 12.4994 2.17383ZM12.4994 3.26078C17.5989 3.26078 21.7386 7.40046 21.7386 12.4999C21.7386 17.5994 17.5989 21.739 12.4994 21.739C7.39997 21.739 3.2603 17.5994 3.2603 12.4999C3.2603 7.40046 7.39997 3.26078 12.4994 3.26078Z" fill="#474D9B"/>
<path fill-rule="evenodd" clip-rule="evenodd" d="M2.17391 2.71739V5.62717C2.17391 5.86413 2.32717 6.07391 2.55326 6.14565C2.77935 6.21685 3.02554 6.13424 3.16196 5.94022C5.22826 3.00598 8.64185 1.08696 12.5 1.08696C18.7989 1.08696 23.913 6.20109 23.913 12.5C23.913 18.7989 18.7989 23.913 12.5 23.913C6.20109 23.913 1.08696 18.7989 1.08696 12.5C1.08696 12.2 0.843478 11.9565 0.543478 11.9565C0.243478 11.9565 0 12.2 0 12.5C0 19.3989 5.60109 25 12.5 25C19.3989 25 25 19.3989 25 12.5C25 5.60109 19.3989 0 12.5 0C8.8413 0 5.54783 1.575 3.26087 4.0837V2.71739C3.26087 2.41739 3.01739 2.17391 2.71739 2.17391C2.41739 2.17391 2.17391 2.41739 2.17391 2.71739Z" fill="#474D9B"/>
<path fill-rule="evenodd" clip-rule="evenodd" d="M11.9565 5.97805V12.4998C11.9565 12.6438 12.0136 12.7824 12.1158 12.884L16.4636 17.2319C16.6756 17.4438 17.0201 17.4438 17.2321 17.2319C17.444 17.0199 17.444 16.6753 17.2321 16.4634L13.0435 12.2748V5.97805C13.0435 5.67805 12.8 5.43457 12.5 5.43457C12.2 5.43457 11.9565 5.67805 11.9565 5.97805Z" fill="#474D9B"/>
</svg>
