<svg width="54" height="52" viewBox="0 0 54 52" fill="none" xmlns="http://www.w3.org/2000/svg">
<g clip-path="url(#clip0_21_163)">
<path d="M11.75 24.6875H21.3125V27.875H11.75V24.6875Z" fill="#B0B1BA"/>
<path d="M11.75 31.0625H27.6875V34.25H11.75V31.0625Z" fill="#B0B1BA"/>
<path d="M8.56283 2.875H40.4372C41.1497 2.87597 41.8328 3.15946 42.3367 3.66332C42.8406 4.16724 43.1241 4.85046 43.125 5.56312V37.4369C43.1241 38.1495 42.8406 38.8328 42.3367 39.3367C41.8328 39.8406 41.1495 40.1241 40.4369 40.125H8.56312C7.85046 40.1241 7.16724 39.8406 6.66332 39.3367C6.15946 38.8328 5.87597 38.1497 5.875 37.4372V5.56283C5.87597 4.85027 6.15946 4.16717 6.66332 3.66332C7.16717 3.15946 7.85027 2.87597 8.56283 2.875ZM28.1875 5.5625V5.0625H27.6875H21.3125H20.8125V5.5625V11.9375V12.4375H21.3125H27.6875H28.1875V11.9375V5.5625ZM8.0625 37.4375V37.9375H8.5625H40.4394H40.9394L40.9394 37.4375L40.9375 5.56247L40.9375 5.0625H40.4375H30.875H30.375V5.5625V14.625H18.625V5.5625V5.0625H18.125H8.5625H8.0625V5.5625V37.4375Z" fill="#B0B1BA" stroke="#FBFBFD"/>
<path d="M50.8875 50.1125L46.6375 45.875C48.0087 44.1281 48.7528 41.9708 48.75 39.75C48.75 37.7722 48.1635 35.8388 47.0647 34.1943C45.9659 32.5498 44.4041 31.2681 42.5768 30.5112C40.7496 29.7543 38.7389 29.5563 36.7991 29.9422C34.8593 30.328 33.0775 31.2804 31.6789 32.6789C30.2804 34.0775 29.328 35.8593 28.9422 37.7991C28.5563 39.7389 28.7543 41.7496 29.5112 43.5768C30.2681 45.4041 31.5498 46.9659 33.1943 48.0647C34.8388 49.1635 36.7722 49.75 38.75 49.75C40.9708 49.7528 43.1281 49.0087 44.875 47.6375L49.1125 51.8875C49.2287 52.0047 49.367 52.0977 49.5193 52.1611C49.6716 52.2246 49.835 52.2573 50 52.2573C50.165 52.2573 50.3284 52.2246 50.4807 52.1611C50.633 52.0977 50.7713 52.0047 50.8875 51.8875C51.0047 51.7713 51.0977 51.633 51.1611 51.4807C51.2246 51.3284 51.2573 51.165 51.2573 51C51.2573 50.835 51.2246 50.6716 51.1611 50.5193C51.0977 50.367 51.0047 50.2287 50.8875 50.1125V50.1125ZM31.25 39.75C31.25 38.2666 31.6899 36.8166 32.514 35.5832C33.3381 34.3499 34.5094 33.3886 35.8799 32.8209C37.2503 32.2533 38.7583 32.1047 40.2132 32.3941C41.668 32.6835 43.0044 33.3978 44.0533 34.4467C45.1022 35.4956 45.8165 36.832 46.1059 38.2868C46.3953 39.7417 46.2468 41.2497 45.6791 42.6201C45.1114 43.9906 44.1502 45.1619 42.9168 45.986C41.6834 46.8101 40.2334 47.25 38.75 47.25C36.7609 47.25 34.8532 46.4598 33.4467 45.0533C32.0402 43.6468 31.25 41.7391 31.25 39.75Z" fill="#B0B1BA"/>
</g>
<defs>
<clipPath id="clip0_21_163">
<rect width="54" height="52" fill="white"/>
</clipPath>
</defs>
</svg>
