<svg width="54" height="52" viewBox="0 0 54 52" fill="none" xmlns="http://www.w3.org/2000/svg">
<path d="M46.0312 24.6875H38.1562V6.96872C38.1562 6.44665 37.9488 5.94564 37.5796 5.57656C37.2105 5.20749 36.7095 5 36.1875 5H17.8124C17.2904 5 16.7894 5.20742 16.4203 5.57656C16.0512 5.94571 15.8437 6.44672 15.8437 6.96872V24.6875H7.96872C7.44665 24.6875 6.94564 24.8949 6.57656 25.2641C6.20749 25.6332 6 26.1342 6 26.6562V45.0313C6 45.5533 6.20742 46.0543 6.57656 46.4234C6.94571 46.7925 7.44671 47 7.96872 47H46.0313C46.5534 47 47.0544 46.7926 47.4234 46.4234C47.7925 46.0543 48 45.5533 48 45.0313V26.6562C48 26.1342 47.7926 25.6331 47.4234 25.2641C47.0543 24.895 46.5533 24.6875 46.0313 24.6875H46.0312ZM38.8124 26V28.625H34.8749V26H38.8124ZM38.8124 29.9375V31.25H34.8749V29.9375H38.8124ZM25.0312 6.31247H28.9687V8.93747H25.0312V6.31247ZM25.0312 10.25H28.9687V11.5625H25.0312V10.25ZM17.1562 9.59372H21.7499V8.28122H17.1562V6.96872C17.1562 6.60632 17.45 6.31247 17.8124 6.31247H23.7187V12.2187C23.7187 12.3927 23.7878 12.5597 23.9109 12.6828C24.0339 12.8058 24.2009 12.875 24.3749 12.875H29.6249C29.799 12.875 29.9659 12.8058 30.089 12.6828C30.212 12.5597 30.2812 12.3927 30.2812 12.2187V6.31247H36.1874C36.3615 6.31247 36.5285 6.38161 36.6515 6.50465C36.7746 6.6277 36.8437 6.79469 36.8437 6.96872V8.28122H32.2499V9.59372H36.8437V24.6875H17.1562V9.59372ZM15.1874 26H19.1249V28.625H15.1874V26ZM15.1874 29.9375H19.1249V31.25H15.1874V29.9375ZM26.9999 27.9688H22.4062V29.2813H26.9999V45.0313C26.9999 45.2053 26.9308 45.3723 26.8077 45.4954C26.6847 45.6184 26.5177 45.6875 26.3437 45.6875H7.96864C7.60624 45.6875 7.31239 45.3937 7.31239 45.0313V29.2813H11.9061V27.9688H7.31239V26.6563C7.31239 26.2939 7.60624 26 7.96864 26H13.8749V31.9063C13.8749 32.0803 13.944 32.2473 14.0671 32.3703C14.1901 32.4934 14.3571 32.5625 14.5312 32.5625H19.7812C19.9552 32.5625 20.1222 32.4934 20.2452 32.3703C20.3683 32.2473 20.4374 32.0803 20.4374 31.9063V26H26.3437C26.5177 26 26.6847 26.0691 26.8077 26.1922C26.9308 26.3152 26.9999 26.4822 26.9999 26.6563V27.9688ZM46.6875 27.9688H42.0937V29.2813H46.6875V45.0313C46.6875 45.2053 46.6183 45.3723 46.4953 45.4954C46.3722 45.6184 46.2052 45.6875 46.0312 45.6875H28.1947C28.2711 45.4772 28.311 45.2551 28.3127 45.0313V29.2813H31.594V27.9688H28.3127V26.6563C28.311 26.4324 28.2711 26.2104 28.1947 26H33.5627V31.9063C33.5627 32.0803 33.6319 32.2473 33.7549 32.3703C33.878 32.4934 34.045 32.5625 34.219 32.5625H39.469C39.643 32.5625 39.81 32.4934 39.9331 32.3703C40.0561 32.2473 40.1253 32.0803 40.1253 31.9063V26H46.0315C46.2055 26 46.3725 26.0691 46.4956 26.1922C46.6186 26.3152 46.6878 26.4822 46.6878 26.6563L46.6875 27.9688Z" fill="#B0B1BA"/>
<path d="M22.4063 22.7188C22.5803 22.7188 22.7473 22.6496 22.8703 22.5266C22.9934 22.4035 23.0625 22.2365 23.0625 22.0625V19.4375C23.0625 19.2635 22.9934 19.0965 22.8703 18.9734C22.7473 18.8504 22.5803 18.7812 22.4063 18.7812H19.7813C19.4189 18.7812 19.125 19.0751 19.125 19.4375V22.0625C19.125 22.2365 19.1941 22.4035 19.3172 22.5266C19.4402 22.6496 19.6072 22.7188 19.7813 22.7188H22.4063ZM20.4375 20.0938H21.75V21.4063H20.4375V20.0938Z" fill="#B0B1BA"/>
<path d="M24.375 18.7812H30.9375V20.0938H24.375V18.7812Z" fill="#B0B1BA"/>
<path d="M24.375 21.4062H28.3125V22.7188H24.375V21.4062Z" fill="#B0B1BA"/>
<path d="M12.5625 39.7812H9.9375C9.5751 39.7812 9.28125 40.0751 9.28125 40.4375V43.0625C9.28125 43.2365 9.35039 43.4035 9.47344 43.5266C9.59648 43.6496 9.76348 43.7188 9.9375 43.7188H12.5625C12.7365 43.7188 12.9035 43.6496 13.0266 43.5266C13.1496 43.4035 13.2188 43.2365 13.2188 43.0625V40.4375C13.2188 40.2635 13.1496 40.0965 13.0266 39.9734C12.9035 39.8504 12.7365 39.7812 12.5625 39.7812ZM11.9063 42.4063H10.5938V41.0938H11.9063V42.4063Z" fill="#B0B1BA"/>
<path d="M14.5312 39.7812H21.0938V41.0938H14.5312V39.7812Z" fill="#B0B1BA"/>
<path d="M14.5312 42.4062H18.4688V43.7188H14.5312V42.4062Z" fill="#B0B1BA"/>
<path d="M33.5625 39.7812H30.9375C30.5751 39.7812 30.2812 40.0751 30.2812 40.4375V43.0625C30.2812 43.2365 30.3504 43.4035 30.4734 43.5266C30.5965 43.6496 30.7635 43.7188 30.9375 43.7188H33.5625C33.7365 43.7188 33.9035 43.6496 34.0266 43.5266C34.1496 43.4035 34.2188 43.2365 34.2188 43.0625V40.4375C34.2188 40.2635 34.1496 40.0965 34.0266 39.9734C33.9035 39.8504 33.7365 39.7812 33.5625 39.7812ZM32.9063 42.4063H31.5938V41.0938H32.9063V42.4063Z" fill="#B0B1BA"/>
<path d="M35.5312 39.7812H42.0938V41.0938H35.5312V39.7812Z" fill="#B0B1BA"/>
<path d="M35.5312 42.4062H39.4688V43.7188H35.5312V42.4062Z" fill="#B0B1BA"/>
</svg>
