<svg width="54" height="52" viewBox="0 0 54 52" fill="none" xmlns="http://www.w3.org/2000/svg">
<path d="M7.15 17.2105V16.3605H6.3H4.85V3.85H49.15V16.3605H47.7H46.85V17.2105V43.2632C46.85 45.4345 45.1487 47.15 43.1 47.15H10.9C8.85126 47.15 7.15 45.4345 7.15 43.2632V17.2105ZM8.6 6.88684H7.75V7.73684V12.4737V13.3237H8.6H45.4H46.25V12.4737V7.73684V6.88684H45.4H8.6ZM43.1 44.1132H43.95V43.2632V17.2105V16.3605H43.1H10.9H10.05V17.2105V43.2632V44.1132H10.9H43.1ZM29.9086 32.417L35.2558 26.932L37.3152 29.0526L27 39.6746L16.6828 29.0505L18.7452 26.9118L24.0902 32.4159L25.55 33.9191V31.8237V20.4289H28.45V31.8237V33.9133L29.9086 32.417Z" fill="#B0B1BA" stroke="#FBFBFD" stroke-width="1.7"/>
</svg>
