<svg width="54" height="52" viewBox="0 0 54 52" fill="none" xmlns="http://www.w3.org/2000/svg">
<g clip-path="url(#clip0_21_163)">
<path d="M12.75 28.6875H22.3125V31.875H12.75V28.6875Z" fill="#B0B1BA"/>
<path d="M12.75 35.0625H28.6875V38.25H12.75V35.0625Z" fill="#B0B1BA"/>
<path d="M9.56283 6.875H41.4372C42.1497 6.87597 42.8328 7.15946 43.3367 7.66332C43.8406 8.16724 44.1241 8.85046 44.125 9.56312V41.4369C44.1241 42.1495 43.8406 42.8328 43.3367 43.3367C42.8328 43.8406 42.1495 44.1241 41.4369 44.125H9.56312C8.85046 44.1241 8.16724 43.8406 7.66332 43.3367C7.15946 42.8328 6.87597 42.1497 6.875 41.4372V9.56283C6.87597 8.85027 7.15946 8.16717 7.66332 7.66332C8.16717 7.15946 8.85027 6.87597 9.56283 6.875ZM29.1875 9.5625V9.0625H28.6875H22.3125H21.8125V9.5625V15.9375V16.4375H22.3125H28.6875H29.1875V15.9375V9.5625ZM9.0625 41.4375V41.9375H9.5625H41.4394H41.9394L41.9394 41.4375L41.9375 9.56247L41.9375 9.0625H41.4375H31.875H31.375V9.5625V18.625H19.625V9.5625V9.0625H19.125H9.5625H9.0625V9.5625V41.4375Z" fill="#B0B1BA" stroke="#FBFBFD"/>
<rect x="27.5" y="25.5" width="26" height="26" rx="13" fill="#FBFBFD"/>
<path d="M45.8174 37.6104V39.4795H35.0967V37.6104H45.8174ZM41.4561 33.0449V44.4316H39.4688V33.0449H41.4561Z" fill="#B0B1BA"/>
<rect x="27.5" y="25.5" width="26" height="26" rx="13" stroke="#B0B1BA"/>
</g>
<defs>
<clipPath id="clip0_21_163">
<rect width="54" height="52" fill="white"/>
</clipPath>
</defs>
</svg>
