<svg width="39" height="39" viewBox="0 0 39 39" fill="none" xmlns="http://www.w3.org/2000/svg">
<path d="M21 28H2V4H12V9C12.0005 9.1809 12.05 9.35829 12.1434 9.51326C12.2367 9.66823 12.3703 9.79498 12.53 9.88C12.6864 9.96029 12.8611 9.99795 13.0367 9.98917C13.2123 9.98039 13.3824 9.92549 13.53 9.83L16 8.2L18.45 9.83C18.6004 9.92905 18.7748 9.98565 18.9547 9.99381C19.1346 10.002 19.3133 9.96142 19.4721 9.87641C19.6308 9.7914 19.7637 9.66509 19.8566 9.51083C19.9495 9.35657 19.9991 9.18008 20 9V4H30V17C30 17.2652 30.1054 17.5196 30.2929 17.7071C30.4804 17.8946 30.7348 18 31 18C31.2652 18 31.5196 17.8946 31.7071 17.7071C31.8946 17.5196 32 17.2652 32 17V3C32 2.73478 31.8946 2.48043 31.7071 2.29289C31.5196 2.10536 31.2652 2 31 2H1C0.734784 2 0.48043 2.10536 0.292893 2.29289C0.105357 2.48043 0 2.73478 0 3V29C0 29.2652 0.105357 29.5196 0.292893 29.7071C0.48043 29.8946 0.734784 30 1 30H21C21.2652 30 21.5196 29.8946 21.7071 29.7071C21.8946 29.5196 22 29.2652 22 29C22 28.7348 21.8946 28.4804 21.7071 28.2929C21.5196 28.1054 21.2652 28 21 28ZM18 7.13L16.55 6.13C16.3867 6.02247 16.1955 5.96516 16 5.96516C15.8045 5.96516 15.6133 6.02247 15.45 6.13L14 7.13V4H18V7.13Z" fill="#ABACBB"/>
<path d="M32 23.9999H27.41L28.71 22.7099C28.8983 22.5216 29.0041 22.2662 29.0041 21.9999C29.0041 21.7336 28.8983 21.4782 28.71 21.2899C28.5217 21.1016 28.2663 20.9958 28 20.9958C27.7337 20.9958 27.4783 21.1016 27.29 21.2899L24.29 24.2899C24.1963 24.3829 24.1219 24.4935 24.0711 24.6154C24.0203 24.7372 23.9942 24.8679 23.9942 24.9999C23.9942 25.132 24.0203 25.2627 24.0711 25.3845C24.1219 25.5064 24.1963 25.617 24.29 25.7099L27.29 28.7099C27.383 28.8037 27.4936 28.8781 27.6154 28.9288C27.7373 28.9796 27.868 29.0057 28 29.0057C28.132 29.0057 28.2627 28.9796 28.3846 28.9288C28.5064 28.8781 28.617 28.8037 28.71 28.7099C28.8037 28.617 28.8781 28.5064 28.9289 28.3845C28.9797 28.2627 29.0058 28.132 29.0058 27.9999C29.0058 27.8679 28.9797 27.7372 28.9289 27.6154C28.8781 27.4935 28.8037 27.3829 28.71 27.2899L27.41 25.9999H32C33.0609 25.9999 34.0783 26.4214 34.8284 27.1715C35.5786 27.9217 36 28.9391 36 29.9999C36 31.0608 35.5786 32.0782 34.8284 32.8284C34.0783 33.5785 33.0609 33.9999 32 33.9999H27C26.7348 33.9999 26.4804 34.1053 26.2929 34.2928C26.1054 34.4804 26 34.7347 26 34.9999C26 35.2652 26.1054 35.5195 26.2929 35.707C26.4804 35.8946 26.7348 35.9999 27 35.9999H32C33.5913 35.9999 35.1174 35.3678 36.2426 34.2426C37.3679 33.1174 38 31.5912 38 29.9999C38 28.4086 37.3679 26.8825 36.2426 25.7573C35.1174 24.6321 33.5913 23.9999 32 23.9999Z" fill="#ABACBB"/>
<path d="M36.18 0.499999L0.36 36.32C0.116661 36.5988 -0.0117128 36.9597 0.000841028 37.3295C0.0133948 37.6994 0.16594 38.0507 0.427626 38.3124C0.689311 38.5741 1.04061 38.7266 1.41047 38.7392C1.78034 38.7517 2.14117 38.6233 2.42 38.38L38.24 2.56C38.3907 2.42845 38.5128 2.26732 38.5987 2.08661C38.6846 1.9059 38.7324 1.70948 38.7392 1.50953C38.7459 1.30957 38.7116 1.11036 38.6381 0.924243C38.5647 0.738131 38.4538 0.569093 38.3124 0.427623C38.1709 0.286152 38.0019 0.175268 37.8158 0.101852C37.6296 0.0284349 37.4304 -0.00594642 37.2305 0.000840317C37.0305 0.00762705 36.8341 0.055438 36.6534 0.141305C36.4727 0.227172 36.3115 0.349262 36.18 0.499999V0.499999Z" fill="#FF3541"/>
</svg>
