<svg width="31" height="30" viewBox="0 0 31 30" fill="none" xmlns="http://www.w3.org/2000/svg">
<g clip-path="url(#clip0)">
<path d="M15.6 0C7.32901 0 0.599976 6.67751 0.599976 14.8851C0.599976 23.0922 7.32901 29.7703 15.6 29.7703C23.8703 29.7703 30.6 23.0922 30.6 14.8851C30.6 6.67751 23.8715 0 15.6 0ZM22.2915 11.4783C22.2982 11.6258 22.3018 11.7745 22.3018 11.9232C22.3018 16.4506 18.8301 21.6694 12.478 21.6694C10.5283 21.6694 8.71324 21.104 7.18581 20.1314C7.45589 20.1632 7.73081 20.1794 8.00934 20.1794C9.62741 20.1794 11.1156 19.6314 12.2974 18.7128C10.7869 18.6853 9.5114 17.6948 9.07214 16.3331C9.2824 16.3727 9.49931 16.3949 9.72106 16.3949C10.0358 16.3949 10.3416 16.3541 10.631 16.2756C9.0516 15.9614 7.86192 14.577 7.86192 12.9161C7.86192 12.9017 7.86192 12.8867 7.86252 12.8729C8.32776 13.129 8.86007 13.2837 9.4256 13.301C8.49996 12.6877 7.89032 11.6384 7.89032 10.4501C7.89032 9.8217 8.0601 9.23291 8.35737 8.72686C10.0594 10.8002 12.6043 12.1636 15.4731 12.3075C15.4139 12.0563 15.3843 11.7955 15.3843 11.5263C15.3843 9.63463 16.9298 8.10031 18.8361 8.10031C19.8294 8.10031 20.7254 8.51641 21.3562 9.18194C22.1435 9.02845 22.8806 8.74425 23.5495 8.35033C23.2897 9.15077 22.7441 9.8217 22.0293 10.2462C22.7284 10.1635 23.3954 9.97998 24.0123 9.70718C23.5519 10.3931 22.9664 10.9969 22.2915 11.4783Z" fill="#E8E8E8"/>
</g>
<defs>
<clipPath id="clip0">
<rect width="30" height="29.7703" fill="white" transform="translate(0.599976)"/>
</clipPath>
</defs>
</svg>
