<svg width="14" height="15" viewBox="0 0 14 15" fill="none" xmlns="http://www.w3.org/2000/svg">
<path d="M8.76171 4.83861C8.76171 4.96653 8.81171 5.0892 8.90072 5.17966C8.98973 5.27011 9.11046 5.32092 9.23633 5.32092H14V0.484525C14 0.356021 13.9498 0.23278 13.8603 0.141914C13.7709 0.051048 13.6497 0 13.5232 0C13.3967 0 13.2755 0.051048 13.186 0.141914C13.0966 0.23278 13.0464 0.356021 13.0464 0.484525V3.64389C12.1535 2.3152 10.8517 1.32549 9.34527 0.830172C7.83887 0.334855 6.21324 0.361989 4.72366 0.907312C3.23408 1.45263 1.96492 2.48526 1.11546 3.84303C0.26601 5.20081 -0.115618 6.80683 0.0305046 8.4089C0.176628 10.011 0.842226 11.5184 1.92278 12.6943C3.00333 13.8703 4.43764 14.6483 6.00048 14.9062C7.56331 15.164 9.16615 14.887 10.5573 14.1188C11.9485 13.3506 13.0491 12.1346 13.6865 10.6618C13.7337 10.5423 13.7333 10.4089 13.6854 10.2898C13.6375 10.1706 13.5459 10.0751 13.43 10.0233C13.314 9.97159 13.1828 9.96772 13.064 10.0125C12.9453 10.0574 12.8484 10.1474 12.7938 10.2635C12.2407 11.5437 11.2827 12.5994 10.0718 13.2632C8.86091 13.927 7.46655 14.1608 6.11001 13.9275C4.75347 13.6942 3.51247 13.0071 2.58396 11.9754C1.65546 10.9437 1.09264 9.62639 0.984845 8.23257C0.877046 6.83875 1.23044 5.44828 1.98894 4.28182C2.74744 3.11537 3.86759 2.23976 5.17161 1.79397C6.47563 1.34818 7.88881 1.35775 9.18687 1.82115C10.4849 2.28456 11.5935 3.17525 12.3366 4.35187H9.24069C9.17763 4.35128 9.11508 4.36347 9.05671 4.38772C8.99833 4.41197 8.9453 4.4478 8.9007 4.49312C8.85611 4.53843 8.82085 4.59233 8.79699 4.65165C8.77312 4.71097 8.76113 4.77453 8.76171 4.83861Z" fill="#8E8E8E"/>
</svg>
