<svg width="21" height="22" viewBox="0 0 21 22" fill="none" xmlns="http://www.w3.org/2000/svg">
<path d="M10.2555 5.62891C9.62163 5.62891 9.00203 5.81686 8.47501 6.169C7.948 6.52114 7.53724 7.02165 7.29468 7.60724C7.05212 8.19283 6.98866 8.83719 7.11231 9.45885C7.23597 10.0805 7.54119 10.6515 7.98938 11.0997C8.43757 11.5479 9.0086 11.8531 9.63025 11.9768C10.2519 12.1004 10.8963 12.037 11.4819 11.7944C12.0675 11.5519 12.568 11.1411 12.9201 10.6141C13.2722 10.0871 13.4602 9.46747 13.4602 8.83364C13.4602 7.98369 13.1226 7.16855 12.5216 6.56755C11.9205 5.96655 11.1054 5.62891 10.2555 5.62891Z" fill="#A8A8A8"/>
<path d="M10.2554 1.78125C8.48069 1.78125 6.7458 2.30752 5.27016 3.29351C3.79452 4.27951 2.6444 5.68094 1.96523 7.32058C1.28607 8.96023 1.10837 10.7644 1.4546 12.5051C1.80084 14.2457 2.65546 15.8446 3.91039 17.0995C5.16532 18.3545 6.7642 19.2091 8.50484 19.5553C10.2455 19.9016 12.0497 19.7239 13.6893 19.0447C15.329 18.3655 16.7304 17.2154 17.7164 15.7398C18.7024 14.2641 19.2287 12.5292 19.2287 10.7545C19.226 8.37546 18.2797 6.09464 16.5975 4.41241C14.9153 2.73018 12.6345 1.78393 10.2554 1.78125ZM15.3782 16.4754C15.3654 15.6347 15.0229 14.8326 14.4243 14.242C13.8258 13.6515 13.0191 13.3197 12.1783 13.3183H8.33259C7.49173 13.3197 6.6851 13.6515 6.08654 14.242C5.48798 14.8326 5.14541 15.6347 5.13267 16.4754C3.97035 15.4376 3.15069 14.0712 2.78221 12.5571C2.41374 11.0431 2.51383 9.45282 3.06923 7.99693C3.62464 6.54103 4.60915 5.28816 5.89243 4.40424C7.1757 3.52031 8.69719 3.04701 10.2554 3.04701C11.8137 3.04701 13.3352 3.52031 14.6184 4.40424C15.9017 5.28816 16.8862 6.54103 17.4416 7.99693C17.997 9.45282 18.0971 11.0431 17.7286 12.5571C17.3602 14.0712 16.5405 15.4376 15.3782 16.4754Z" fill="#A8A8A8"/>
</svg>
