<svg width="34" height="31" viewBox="0 0 34 31" fill="none" xmlns="http://www.w3.org/2000/svg">
<path d="M10.793 20.3057V27.8612C10.793 28.0044 10.8498 28.1416 10.951 28.2428C11.0522 28.344 11.1895 28.4009 11.3327 28.4009H22.1263C22.2694 28.4009 22.4067 28.344 22.5079 28.2428C22.6091 28.1416 22.666 28.0044 22.666 27.8612V20.3057H21.5866V27.3215H11.8723V20.3057H10.793Z" fill="#474D9B"/>
<path d="M22.6672 13.8294V8.9723C22.6672 8.82917 22.6103 8.6919 22.5091 8.59069C22.4079 8.48948 22.2706 8.43262 22.1275 8.43262H19.9688V9.51198H21.5878V13.8294H22.6672Z" fill="#474D9B"/>
<path d="M11.8723 9.51198H13.4914V8.43262H11.3327C11.1895 8.43262 11.0522 8.48948 10.951 8.59069C10.8498 8.6919 10.793 8.82917 10.793 8.9723V13.8294H11.8723V9.51198Z" fill="#474D9B"/>
<path d="M24.4669 6.30583L20.1494 4.76342L19.7868 5.77964L23.7459 7.19415V29.4803H9.71413V7.19415L14.2129 5.58751L13.8503 4.57129L8.99311 6.30583C8.88832 6.34321 8.79764 6.41207 8.73349 6.50298C8.66934 6.59389 8.63486 6.70241 8.63477 6.81367V30.02C8.63477 30.1632 8.69162 30.3004 8.79283 30.4016C8.89404 30.5028 9.03132 30.5597 9.17445 30.5597H24.2856C24.4287 30.5597 24.566 30.5028 24.6672 30.4016C24.7684 30.3004 24.8252 30.1632 24.8252 30.02V6.81367C24.8251 6.70241 24.7907 6.59389 24.7265 6.50298C24.6624 6.41207 24.5717 6.34321 24.4669 6.30583Z" fill="#474D9B"/>
<path d="M17.2708 6.81348H16.1914V7.89284H17.2708V6.81348Z" fill="#474D9B"/>
<path d="M7.01587 15.9881C6.30047 15.9872 5.61462 15.7027 5.10875 15.1968C4.60289 14.6909 4.31832 14.0051 4.31746 13.2897C4.31746 13.1465 4.2606 13.0093 4.15939 12.9081C4.05818 12.8069 3.92091 12.75 3.77778 12.75C3.63464 12.75 3.49737 12.8069 3.39616 12.9081C3.29495 13.0093 3.2381 13.1465 3.2381 13.2897C3.23724 14.0051 2.95267 14.6909 2.4468 15.1968C1.94094 15.7027 1.25508 15.9872 0.539683 15.9881C0.39655 15.9881 0.259279 16.045 0.158069 16.1462C0.0568592 16.2474 0 16.3846 0 16.5278C0 16.6709 0.0568592 16.8082 0.158069 16.9094C0.259279 17.0106 0.39655 17.0675 0.539683 17.0675C1.25508 17.0683 1.94094 17.3529 2.4468 17.8588C2.95267 18.3646 3.23724 19.0505 3.2381 19.7659C3.2381 19.909 3.29495 20.0463 3.39616 20.1475C3.49737 20.2487 3.63464 20.3056 3.77778 20.3056C3.92091 20.3056 4.05818 20.2487 4.15939 20.1475C4.2606 20.0463 4.31746 19.909 4.31746 19.7659C4.31832 19.0505 4.60289 18.3646 5.10875 17.8588C5.61462 17.3529 6.30047 17.0683 7.01587 17.0675C7.15901 17.0675 7.29628 17.0106 7.39749 16.9094C7.4987 16.8082 7.55556 16.6709 7.55556 16.5278C7.55556 16.3846 7.4987 16.2474 7.39749 16.1462C7.29628 16.045 7.15901 15.9881 7.01587 15.9881ZM3.77778 17.823C3.45768 17.2924 3.01311 16.8479 2.48254 16.5278C3.01311 16.2077 3.45768 15.7631 3.77778 15.2325C4.09788 15.7631 4.54245 16.2077 5.07302 16.5278C4.54245 16.8479 4.09788 17.2924 3.77778 17.823Z" fill="#474D9B"/>
<path d="M33.4612 15.9881C32.7458 15.9872 32.0599 15.7027 31.5541 15.1968C31.0482 14.6909 30.7636 14.0051 30.7628 13.2897C30.7628 13.1465 30.7059 13.0093 30.6047 12.9081C30.5035 12.8069 30.3662 12.75 30.2231 12.75C30.08 12.75 29.9427 12.8069 29.8415 12.9081C29.7403 13.0093 29.6834 13.1465 29.6834 13.2897C29.6826 14.0051 29.398 14.6909 28.8921 15.1968C28.3862 15.7027 27.7004 15.9872 26.985 15.9881C26.8419 15.9881 26.7046 16.045 26.6034 16.1462C26.5022 16.2474 26.4453 16.3846 26.4453 16.5278C26.4453 16.6709 26.5022 16.8082 26.6034 16.9094C26.7046 17.0106 26.8419 17.0675 26.985 17.0675C27.7004 17.0683 28.3862 17.3529 28.8921 17.8588C29.398 18.3646 29.6826 19.0505 29.6834 19.7659C29.6834 19.909 29.7403 20.0463 29.8415 20.1475C29.9427 20.2487 30.08 20.3056 30.2231 20.3056C30.3662 20.3056 30.5035 20.2487 30.6047 20.1475C30.7059 20.0463 30.7628 19.909 30.7628 19.7659C30.7636 19.0505 31.0482 18.3646 31.5541 17.8588C32.0599 17.3529 32.7458 17.0683 33.4612 17.0675C33.6043 17.0675 33.7416 17.0106 33.8428 16.9094C33.944 16.8082 34.0009 16.6709 34.0009 16.5278C34.0009 16.3846 33.944 16.2474 33.8428 16.1462C33.7416 16.045 33.6043 15.9881 33.4612 15.9881ZM30.2231 17.823C29.903 17.2924 29.4584 16.8479 28.9279 16.5278C29.4584 16.2077 29.903 15.7631 30.2231 15.2325C30.5432 15.7631 30.9878 16.2077 31.5183 16.5278C30.9878 16.8479 30.5432 17.2924 30.2231 17.823Z" fill="#474D9B"/>
<path d="M13.4917 3.5754H14.5711V8.97222C14.5711 9.11535 14.6279 9.25263 14.7291 9.35384C14.8304 9.45505 14.9676 9.5119 15.1108 9.5119H18.3489C18.492 9.5119 18.6293 9.45505 18.7305 9.35384C18.8317 9.25263 18.8885 9.11535 18.8885 8.97222V3.5754H19.9679C20.0488 3.57543 20.1287 3.55725 20.2017 3.52222C20.2747 3.48719 20.3388 3.4362 20.3894 3.37302L22.5481 0.674603L21.7051 0L19.7089 2.49603H18.8885V0.876984C18.8885 0.733851 18.8317 0.596581 18.7305 0.495371C18.6293 0.394161 18.492 0.337302 18.3489 0.337302H15.1108C14.9676 0.337302 14.8304 0.394161 14.7291 0.495371C14.6279 0.596581 14.5711 0.733851 14.5711 0.876984V2.49603H13.7972L12.3352 0.0593651L11.4102 0.615238L13.0292 3.31365C13.0772 3.39348 13.145 3.45953 13.226 3.5054C13.3071 3.55126 13.3986 3.57538 13.4917 3.5754ZM15.6504 4.65476H17.8092V5.19444H15.6504V4.65476ZM15.6504 8.43254V6.27381H17.8092V8.43254H15.6504ZM17.8092 1.41667V3.5754H15.6504V1.41667H17.8092Z" fill="#474D9B"/>
<path d="M17.1526 11.3766C17.1063 11.2879 17.0365 11.2135 16.9508 11.1618C16.8652 11.11 16.7669 11.0827 16.6669 11.083C16.5662 11.0846 16.4679 11.1142 16.3833 11.1687C16.2986 11.2231 16.2308 11.3002 16.1876 11.3912L14.772 14.3729L11.514 14.8969C11.4147 14.913 11.3218 14.9565 11.2459 15.0226C11.17 15.0886 11.1141 15.1746 11.0845 15.2707C11.0549 15.3669 11.0527 15.4694 11.0782 15.5667C11.1038 15.664 11.156 15.7522 11.229 15.8214L13.6268 18.0881L13.113 21.3499C13.101 21.4269 13.1059 21.5056 13.1271 21.5805C13.1484 21.6554 13.1857 21.7249 13.2363 21.784C13.287 21.8432 13.3499 21.8907 13.4206 21.9233C13.4914 21.9559 13.5684 21.9727 13.6462 21.9727C13.7366 21.9729 13.8255 21.9503 13.9048 21.9069L16.8023 20.3267L19.7511 21.8168C19.8409 21.8622 19.9416 21.8817 20.0419 21.873C20.1422 21.8642 20.238 21.8276 20.3186 21.7672C20.3991 21.7069 20.4612 21.6252 20.4978 21.5315C20.5344 21.4377 20.544 21.3356 20.5256 21.2366L19.9184 17.9926L22.2461 15.653C22.3176 15.5817 22.3676 15.4918 22.3906 15.3934C22.4135 15.2951 22.4083 15.1923 22.3757 15.0967C22.3431 15.0011 22.2844 14.9166 22.2061 14.8528C22.1278 14.7889 22.0333 14.7483 21.9331 14.7356L18.6577 14.3152L17.1526 11.3766ZM18.9503 17.4335C18.8887 17.4954 18.843 17.5714 18.8173 17.6549C18.7915 17.7383 18.7864 17.8268 18.8024 17.9127L19.2606 20.3612L17.0392 19.236C16.9612 19.1963 16.8747 19.1762 16.7871 19.1775C16.6996 19.1787 16.6137 19.2012 16.5368 19.243L14.3505 20.4357L14.7343 17.9753C14.7477 17.8886 14.7397 17.7999 14.7111 17.717C14.6825 17.634 14.6342 17.5593 14.5702 17.4993L12.7622 15.7885L15.221 15.3929C15.3074 15.379 15.389 15.3443 15.4589 15.2919C15.5289 15.2394 15.585 15.1707 15.6226 15.0918L16.6906 12.8424L17.8266 15.0583C17.8665 15.1362 17.9247 15.2033 17.9963 15.2536C18.0678 15.304 18.1505 15.3363 18.2373 15.3476L20.7069 15.6676L18.9503 17.4335Z" fill="#474D9B"/>
</svg>
