<svg width="30" height="30" viewBox="0 0 30 30" fill="none" xmlns="http://www.w3.org/2000/svg">
<g clip-path="url(#clip0)">
<path d="M15 0C6.71601 0 0 6.66428 0 14.8851C0 23.106 6.71601 29.7703 15 29.7703C23.284 29.7703 30 23.106 30 14.8851C30 6.66428 23.284 0 15 0ZM22.6088 16.495C23.3079 17.1726 24.0476 17.8104 24.6752 18.5581C24.9532 18.8888 25.2153 19.2308 25.4148 19.6155C25.6996 20.164 25.4425 20.7655 24.9477 20.7981L21.8747 20.7975C21.081 20.8626 20.4494 20.545 19.9169 20.0065C19.4919 19.5774 19.0975 19.1191 18.6881 18.6753C18.5208 18.4932 18.3447 18.3217 18.1347 18.1868C17.7158 17.9164 17.3518 17.9992 17.1118 18.4335C16.8672 18.8754 16.8114 19.3651 16.788 19.857C16.7546 20.5761 16.5361 20.764 15.809 20.7978C14.2554 20.87 12.7814 20.6361 11.4114 19.8588C10.2028 19.1733 9.26731 18.2057 8.45217 17.1102C6.86486 14.9747 5.64921 12.6308 4.55693 10.2197C4.3111 9.67663 4.49095 9.38609 5.09463 9.37482C6.0976 9.35563 7.10056 9.35807 8.10353 9.3739C8.51171 9.3803 8.78179 9.61207 8.93862 9.99428C9.48061 11.3176 10.1451 12.5766 10.9777 13.7443C11.1996 14.0552 11.4261 14.3653 11.7486 14.5848C12.1047 14.8273 12.376 14.7472 12.5438 14.3528C12.6513 14.1021 12.6976 13.8341 12.7209 13.5655C12.8007 12.6454 12.8102 11.7257 12.6721 10.8093C12.5862 10.2358 12.2612 9.86546 11.6851 9.75704C11.3917 9.70191 11.4347 9.5941 11.5774 9.42781C11.8251 9.14031 12.0571 8.96245 12.5208 8.96245L15.9928 8.96184C16.5401 9.06844 16.6628 9.31208 16.7371 9.85906L16.7402 13.6879C16.7337 13.8996 16.8473 14.527 17.2303 14.6656C17.5372 14.7661 17.7397 14.5218 17.9233 14.329C18.7559 13.4522 19.3492 12.4173 19.8804 11.3462C20.1149 10.8738 20.3171 10.385 20.5136 9.8953C20.6596 9.53319 20.8868 9.35502 21.2986 9.36111L24.642 9.36507C24.7406 9.36507 24.8406 9.36599 24.9382 9.38274C25.5017 9.47837 25.6561 9.71897 25.4817 10.2644C25.2074 11.1214 24.6743 11.8353 24.1531 12.551C23.5946 13.3173 22.9989 14.0567 22.4458 14.8264C21.9376 15.5299 21.9778 15.8841 22.6088 16.495Z" fill="#E8E8E8"/>
</g>
<defs>
<clipPath id="clip0">
<rect width="30" height="29.7703" fill="white"/>
</clipPath>
</defs>
</svg>
