<svg width="30" height="28" viewBox="0 0 30 28" fill="none" xmlns="http://www.w3.org/2000/svg">
<path d="M4.64046 22.9556H6.57428L11.1496 28L11.7515 27.2913C11.7715 27.2677 13.7326 24.9604 15.616 22.9556H25.3592C27.9179 22.9556 29.9996 20.8897 29.9996 18.3512L30 4.60446C30 2.06595 27.9179 0 25.3596 0H4.64043C2.0817 0 5.15228e-08 2.06595 5.15228e-08 4.60446V18.3512C-0.00037821 20.8901 2.08208 22.9556 4.64043 22.9556H4.64046ZM13.2502 17.4623C12.9135 17.147 12.7448 16.7751 12.7448 16.3464C12.7448 15.905 12.9135 15.536 13.2502 15.2395C13.5869 14.9429 14.0098 14.7951 14.5182 14.7951C15.0206 14.7951 15.4363 14.9429 15.7673 15.2395C16.0976 15.5296 16.2629 15.8986 16.2629 16.3464C16.2629 16.8006 16.1006 17.1756 15.7764 17.4721C15.4461 17.7687 15.0262 17.9166 14.5182 17.9166C14.0102 17.9166 13.5869 17.7653 13.2502 17.4624L13.2502 17.4623ZM18.6559 8.37611C18.567 8.68803 18.4369 8.98306 18.2647 9.26082C18.0934 9.53858 17.8804 9.80471 17.6258 10.0599C17.3716 10.3156 17.0792 10.5787 16.7489 10.8501C16.5265 11.0329 16.3309 11.2029 16.1626 11.3605C15.9939 11.5182 15.8547 11.6743 15.7435 11.8286C15.6322 11.9829 15.5483 12.1473 15.4908 12.3203C15.4333 12.4937 15.4049 12.6912 15.4049 12.9119C15.4049 13.0631 15.4253 13.2174 15.4665 13.3751C15.5078 13.5327 15.5638 13.6652 15.6337 13.7722H13.1264C13.0629 13.6082 13.0137 13.4235 12.9789 13.2189C12.9441 13.014 12.9263 12.8203 12.9263 12.6371C12.9263 12.347 12.9551 12.0823 13.0122 11.8425C13.0693 11.6026 13.1552 11.3774 13.2698 11.1661C13.3841 10.9548 13.5274 10.7528 13.6988 10.5607C13.8702 10.3685 14.0706 10.1774 14.2995 9.98825C14.5409 9.78631 14.7523 9.59863 14.9335 9.42522C15.1147 9.2518 15.2687 9.07802 15.3962 8.90497C15.5229 8.73156 15.6186 8.55214 15.6821 8.36596C15.7457 8.17979 15.7775 7.97297 15.7775 7.74663C15.7775 7.55145 15.7427 7.36978 15.6727 7.20274C15.6027 7.03533 15.5028 6.89232 15.3723 6.77221C15.2422 6.65209 15.0833 6.55788 14.8957 6.48844C14.708 6.419 14.4996 6.38447 14.2715 6.38447C13.776 6.38447 13.2611 6.48657 12.727 6.69188C12.1932 6.89683 11.6879 7.20725 11.2112 7.62389V4.77682C11.7004 4.48668 12.2345 4.26935 12.8125 4.12408C13.3905 3.97881 13.9882 3.90675 14.6048 3.90675C15.1961 3.90675 15.7457 3.97131 16.2541 4.10043C16.7629 4.22956 17.2059 4.43299 17.5838 4.71076C17.9617 4.98852 18.2575 5.34285 18.4705 5.77525C18.6834 6.20728 18.7897 6.72602 18.7897 7.33143C18.7894 7.7158 18.7447 8.06413 18.6558 8.37603L18.6559 8.37611Z" fill="white"/>
</svg>
