<svg width="35" height="31" viewBox="0 0 35 31" fill="none" xmlns="http://www.w3.org/2000/svg">
<path d="M17.4244 0.5C16.4324 0.5 15.515 0.992319 15.005 1.84576L0.383071 26.372C-0.126981 27.2279 -0.128399 28.284 0.383071 29.1391C0.829901 29.8863 1.67259 30.5024 2.66634 30.5H32.1824C33.176 30.5 34.0188 29.8863 34.4657 29.1391C34.9771 28.284 34.9757 27.2279 34.4657 26.372L19.8437 1.84576C19.3338 0.992319 18.4163 0.5 17.4244 0.5ZM17.4244 2.43548C17.7093 2.43548 18.0508 2.62684 18.1804 2.84375L32.8024 27.3548C32.8072 27.3597 32.8024 27.3655 32.8024 27.3698C32.9245 27.5879 32.9298 27.928 32.8024 28.141C32.608 28.4662 32.4685 28.5651 32.1824 28.5644H2.66634C2.38052 28.5649 2.24083 28.4662 2.04638 28.141C1.91894 27.928 1.92421 27.5879 2.04638 27.3698C2.0488 27.365 2.04396 27.3587 2.04638 27.3548L16.6683 2.84375C16.7979 2.62684 17.1394 2.43548 17.4244 2.43548ZM17.4244 9.20967C16.8899 9.20967 16.4566 9.64292 16.4566 10.1774V20.8226C16.4566 21.357 16.8899 21.7903 17.4244 21.7903C17.9589 21.7903 18.3921 21.357 18.3921 20.8226V10.1774C18.3921 9.64292 17.9589 9.20967 17.4244 9.20967ZM17.4244 23.7258C16.6227 23.7258 15.9728 24.3757 15.9728 25.1774C15.9728 25.9791 16.6227 26.629 17.4244 26.629C18.2261 26.629 18.876 25.9791 18.876 25.1774C18.876 24.3757 18.2261 23.7258 17.4244 23.7258Z" fill="#FF3541"/>
</svg>
