<svg width="67" height="67" viewBox="0 0 67 67" fill="none" xmlns="http://www.w3.org/2000/svg">
<path d="M43.4389 4.00048C43.1914 4.00821 42.9532 4.09537 42.7604 4.24877C42.7604 4.24877 26.4565 17.1725 21.6131 20.794C18.5987 23.0477 16.9432 24.6817 16.0143 26.2674C15.0855 27.8531 15.0022 29.3351 15.0022 30.7981L15 52.3751C15 55.4682 17.5631 58 20.6944 58H54.8611C55.1632 58 55.4528 57.8814 55.6664 57.6705C55.88 57.4595 56 57.1734 56 56.875V26.5003C56 26.2019 55.88 25.9158 55.6664 25.7048C55.4528 25.4939 55.1632 25.3753 54.8611 25.3753H49.1667H44.6111V5.12547C44.6112 4.97492 44.5806 4.8259 44.5213 4.68722C44.462 4.54855 44.3751 4.42304 44.2658 4.31813C44.1565 4.21323 44.027 4.13106 43.8849 4.0765C43.7429 4.02193 43.5912 3.99608 43.4389 4.00048V4.00048ZM42.3333 7.45016V26.5003V38.2731L22.3405 51.439C22.113 51.5887 21.9476 51.8143 21.8745 52.0744C21.8014 52.3346 21.8255 52.6121 21.9423 52.8562C22.0591 53.1003 22.2609 53.2948 22.5108 53.4041C22.7608 53.5134 23.0422 53.5303 23.3037 53.4517L49.4981 45.5768C49.7318 45.5065 49.9364 45.364 50.0818 45.1701C50.2272 44.9763 50.3056 44.7414 50.3056 44.5001V27.6253H53.7222V55.75H20.6944C18.7942 55.75 17.2778 54.2521 17.2778 52.3751L17.28 30.7981C17.28 29.3969 17.3141 28.54 17.9851 27.3946C18.6561 26.2491 20.0812 24.7601 22.9878 22.587C27.5149 19.2019 39.9369 9.34894 42.3333 7.45016ZM35.6891 23.1385C35.4368 23.1586 35.1862 23.2036 34.9439 23.2681C33.9749 23.5263 33.0541 24.0994 32.3013 24.9292C31.5486 25.7591 31.0807 26.715 30.9689 27.689C30.8571 28.663 31.159 29.7389 32.0055 30.396C32.852 31.0532 33.948 31.1154 34.9172 30.8574C35.8864 30.5994 36.807 30.0262 37.5598 29.1963C38.3126 28.3664 38.7804 27.4107 38.8922 26.4366C39.004 25.4624 38.7024 24.3869 37.8556 23.7296H37.8534C37.4301 23.4014 36.9458 23.2216 36.4454 23.1561C36.1951 23.1233 35.9413 23.1184 35.6891 23.1385ZM35.8626 25.3797C36.1537 25.3535 36.3447 25.4186 36.4476 25.4983C36.5849 25.6049 36.6773 25.769 36.63 26.1817C36.5826 26.5943 36.3364 27.1733 35.8626 27.6956C35.3888 28.2179 34.8025 28.5568 34.3233 28.6843C33.8441 28.8119 33.551 28.7339 33.4135 28.6272C33.276 28.5205 33.1838 28.3561 33.2311 27.9439C33.2785 27.5316 33.5247 26.9524 33.9985 26.43C34.4723 25.9076 35.0585 25.5667 35.5378 25.439C35.6577 25.4071 35.7655 25.3884 35.8626 25.3797ZM44.6111 27.6253H48.0278V43.6674L30.0347 49.0748L44.1039 39.8112C44.2599 39.7085 44.3879 39.5693 44.4763 39.406C44.5648 39.2427 44.6111 39.0604 44.6111 38.8752V27.6253Z" fill="#878BC8" stroke="white" stroke-width="0.7"/>
</svg>
