<svg width="67" height="67" viewBox="0 0 67 67" fill="none" xmlns="http://www.w3.org/2000/svg">
<g clip-path="url(#clip0)">
<path d="M42.8407 2.19374e-05C42.5496 0.00922831 42.2694 0.113049 42.0425 0.295764C42.0425 0.295764 22.8596 15.6895 17.1609 20.0032C13.6141 22.6876 11.6663 24.6338 10.5734 26.5226C9.48054 28.4114 9.38261 30.1766 9.38261 31.9192L9.38 57.62C9.38 61.3044 12.3956 64.32 16.08 64.32H56.28C56.6354 64.32 56.9762 64.1788 57.2275 63.9275C57.4788 63.6762 57.62 63.3354 57.62 62.98V26.8C57.62 26.4446 57.4788 26.1038 57.2275 25.8525C56.9762 25.6012 56.6354 25.4601 56.28 25.46H49.58H44.22V1.34002C44.2201 1.1607 44.1841 0.983196 44.1143 0.818016C44.0446 0.652835 43.9423 0.50334 43.8137 0.378386C43.6851 0.253432 43.5327 0.155561 43.3656 0.090569C43.1985 0.0255772 43.02 -0.00521312 42.8407 2.19374e-05ZM41.54 4.10901V26.8V40.8229L18.0167 56.5051C17.7491 56.6834 17.5545 56.952 17.4685 57.2619C17.3824 57.5718 17.4107 57.9023 17.5482 58.1931C17.6856 58.4839 17.9231 58.7155 18.2171 58.8457C18.5112 58.976 18.8423 58.9961 19.15 58.9024L49.97 49.5224C50.2449 49.4388 50.4856 49.269 50.6567 49.0381C50.8278 48.8072 50.9201 48.5274 50.92 48.24V28.14H54.94V61.64H16.08C13.8442 61.64 12.06 59.8558 12.06 57.62L12.0626 31.9192C12.0626 30.2503 12.1028 29.2296 12.8923 27.8652C13.6817 26.5008 15.3584 24.7273 18.7783 22.1388C24.1048 18.1068 38.7204 6.37069 41.54 4.10901ZM33.7225 22.7957C33.4257 22.8196 33.1307 22.8733 32.8457 22.9501C31.7056 23.2576 30.6222 23.9402 29.7365 24.9287C28.8509 25.9171 28.3004 27.0558 28.1688 28.2159C28.0372 29.3761 28.3924 30.6576 29.3884 31.4403C30.3845 32.2231 31.674 32.2972 32.8143 31.9899C33.9546 31.6826 35.0378 30.9998 35.9235 30.0113C36.8093 29.0228 37.3597 27.8845 37.4912 26.7241C37.6228 25.5637 37.2678 24.2827 36.2716 23.4998H36.269C35.7709 23.1088 35.2011 22.8947 34.6123 22.8167C34.3179 22.7777 34.0192 22.7718 33.7225 22.7957ZM33.9266 25.4653C34.2691 25.434 34.4938 25.5116 34.6149 25.6066C34.7764 25.7335 34.8852 25.929 34.8295 26.4205C34.7738 26.912 34.484 27.6016 33.9266 28.2238C33.3691 28.846 32.6793 29.2496 32.1155 29.4015C31.5517 29.5535 31.2068 29.4605 31.0451 29.3335C30.8833 29.2063 30.7748 29.0106 30.8305 28.5195C30.8862 28.0285 31.1758 27.3385 31.7334 26.7163C32.2909 26.0941 32.9805 25.688 33.5445 25.5359C33.6855 25.4979 33.8124 25.4757 33.9266 25.4653ZM44.22 28.14H48.24V47.2481L27.0696 53.689L43.6233 42.6549C43.8068 42.5326 43.9573 42.3668 44.0614 42.1723C44.1655 41.9778 44.22 41.7606 44.22 41.54V28.14Z" fill="#878BC8"/>
</g>
<defs>
<clipPath id="clip0">
<rect width="67" height="67" fill="white"/>
</clipPath>
</defs>
</svg>
