<svg width="31" height="27" viewBox="0 0 31 27" fill="none" xmlns="http://www.w3.org/2000/svg">
<path d="M27.526 5.0625H10.4578C10.3292 5.0625 10.224 5.15742 10.224 5.27344V6.75C10.224 6.86602 10.3292 6.96094 10.4578 6.96094H27.526C27.6546 6.96094 27.7598 6.86602 27.7598 6.75V5.27344C27.7598 5.15742 27.6546 5.0625 27.526 5.0625ZM27.526 12.5508H10.4578C10.3292 12.5508 10.224 12.6457 10.224 12.7617V14.2383C10.224 14.3543 10.3292 14.4492 10.4578 14.4492H27.526C27.6546 14.4492 27.7598 14.3543 27.7598 14.2383V12.7617C27.7598 12.6457 27.6546 12.5508 27.526 12.5508ZM27.526 20.0391H10.4578C10.3292 20.0391 10.224 20.134 10.224 20.25V21.7266C10.224 21.8426 10.3292 21.9375 10.4578 21.9375H27.526C27.6546 21.9375 27.7598 21.8426 27.7598 21.7266V20.25C27.7598 20.134 27.6546 20.0391 27.526 20.0391ZM3.91113 6.01172C3.91113 6.20562 3.95347 6.39763 4.03572 6.57677C4.11797 6.75592 4.23852 6.91869 4.3905 7.05581C4.54248 7.19292 4.72291 7.30168 4.92148 7.37588C5.12005 7.45009 5.33287 7.48828 5.5478 7.48828C5.76274 7.48828 5.97556 7.45009 6.17413 7.37588C6.3727 7.30168 6.55313 7.19292 6.70511 7.05581C6.85709 6.91869 6.97764 6.75592 7.05989 6.57677C7.14214 6.39763 7.18448 6.20562 7.18448 6.01172C7.18448 5.81781 7.14214 5.62581 7.05989 5.44666C6.97764 5.26752 6.85709 5.10474 6.70511 4.96763C6.55313 4.83052 6.3727 4.72176 6.17413 4.64755C5.97556 4.57335 5.76274 4.53516 5.5478 4.53516C5.33287 4.53516 5.12005 4.57335 4.92148 4.64755C4.72291 4.72176 4.54248 4.83052 4.3905 4.96763C4.23852 5.10474 4.11797 5.26752 4.03572 5.44666C3.95347 5.62581 3.91113 5.81781 3.91113 6.01172ZM3.91113 13.5C3.91113 13.6939 3.95347 13.8859 4.03572 14.0651C4.11797 14.2442 4.23852 14.407 4.3905 14.5441C4.54248 14.6812 4.72291 14.79 4.92148 14.8642C5.12005 14.9384 5.33287 14.9766 5.5478 14.9766C5.76274 14.9766 5.97556 14.9384 6.17413 14.8642C6.3727 14.79 6.55313 14.6812 6.70511 14.5441C6.85709 14.407 6.97764 14.2442 7.05989 14.0651C7.14214 13.8859 7.18448 13.6939 7.18448 13.5C7.18448 13.3061 7.14214 13.1141 7.05989 12.9349C6.97764 12.7558 6.85709 12.593 6.70511 12.4559C6.55313 12.3188 6.3727 12.21 6.17413 12.1358C5.97556 12.0616 5.76274 12.0234 5.5478 12.0234C5.33287 12.0234 5.12005 12.0616 4.92148 12.1358C4.72291 12.21 4.54248 12.3188 4.3905 12.4559C4.23852 12.593 4.11797 12.7558 4.03572 12.9349C3.95347 13.1141 3.91113 13.3061 3.91113 13.5ZM3.91113 20.9883C3.91113 21.1822 3.95347 21.3742 4.03572 21.5533C4.11797 21.7325 4.23852 21.8953 4.3905 22.0324C4.54248 22.1695 4.72291 22.2782 4.92148 22.3524C5.12005 22.4267 5.33287 22.4648 5.5478 22.4648C5.76274 22.4648 5.97556 22.4267 6.17413 22.3524C6.3727 22.2782 6.55313 22.1695 6.70511 22.0324C6.85709 21.8953 6.97764 21.7325 7.05989 21.5533C7.14214 21.3742 7.18448 21.1822 7.18448 20.9883C7.18448 20.7944 7.14214 20.6024 7.05989 20.4232C6.97764 20.2441 6.85709 20.0813 6.70511 19.9442C6.55313 19.8071 6.3727 19.6983 6.17413 19.6241C5.97556 19.5499 5.76274 19.5117 5.5478 19.5117C5.33287 19.5117 5.12005 19.5499 4.92148 19.6241C4.72291 19.6983 4.54248 19.8071 4.3905 19.9442C4.23852 20.0813 4.11797 20.2441 4.03572 20.4232C3.95347 20.6024 3.91113 20.7944 3.91113 20.9883Z" fill="#474D9B"/>
</svg>
