<svg width="32" height="32" viewBox="0 0 32 32" fill="none" xmlns="http://www.w3.org/2000/svg">
<path d="M29.5937 8.49997H30.9999V7.56247H29.5937V2.40622C29.5937 2.03332 29.4455 1.67546 29.1819 1.41183C28.9182 1.14821 28.5603 1 28.1875 1H3.81247C3.43957 1 3.08171 1.14816 2.81808 1.41183C2.55446 1.6755 2.40625 2.03337 2.40625 2.40622V7.56247H1V8.49997H2.40625V30.0625H1V31H31V30.0625H29.5938L29.5937 8.49997ZM16.4687 1.93747H20.2187V6.15622H21.1562V1.93747H24.9062V7.56247H16.4687V1.93747ZM7.0937 1.93747H10.8437V6.15622H11.7812V1.93747H15.5312V7.56247H7.0937V1.93747ZM3.3437 2.40622C3.3437 2.14737 3.55359 1.93747 3.81245 1.93747H6.1562V7.56247H3.3437V2.40622ZM15.5312 30.0625H8.9687V24.4375H15.5312V30.0625ZM15.5312 20.2187V23.5H10.8437V18.8125H11.7812V21.1562C11.7812 21.2805 11.8306 21.3998 11.9185 21.4877C12.0064 21.5756 12.1256 21.625 12.2499 21.625H14.1249C14.2492 21.625 14.3685 21.5756 14.4564 21.4877C14.5443 21.3998 14.5937 21.2805 14.5937 21.1562V18.8125H15.5312V20.2187ZM12.7187 20.6875V18.8125H13.6562V20.6875H12.7187ZM23.0312 30.0625H16.4687V20.6875H18.3437V23.9687C18.3437 24.093 18.3931 24.2123 18.481 24.3002C18.5689 24.3881 18.6881 24.4375 18.8124 24.4375H20.6874C20.8117 24.4375 20.931 24.3881 21.0189 24.3002C21.1068 24.2123 21.1562 24.093 21.1562 23.9687V20.6875H23.0312V30.0625ZM19.2812 23.5V20.6875H20.2187V23.5H19.2812ZM25.3749 30.0625H23.9687V20.2187C23.9687 20.0944 23.9193 19.9751 23.8314 19.8873C23.7435 19.7994 23.6242 19.75 23.4999 19.75H16.4687V18.3437C16.4687 18.2194 16.4193 18.1001 16.3314 18.0123C16.2435 17.9244 16.1242 17.875 15.9999 17.875H10.3749C10.1161 17.875 9.9062 18.0849 9.9062 18.3437V23.5H8.49995C8.24109 23.5 8.0312 23.7099 8.0312 23.9687V30.0625H6.62495V16H25.3749V30.0625ZM28.6562 12.25H23.0312V13.1875H28.6562V30.0625H26.3124V16H27.7187V15.0625H4.2812V16H5.68745V30.0625H3.3437V13.1875H8.9687V12.25H3.3437V10.375H28.6562V12.25ZM28.6562 9.43747H3.3437V8.49997H28.6562V9.43747ZM28.6562 7.56247H25.8437V1.93747H28.1874C28.3117 1.93747 28.431 1.98686 28.5189 2.07475C28.6068 2.16264 28.6562 2.28192 28.6562 2.40622V7.56247Z" fill="#474D9B"/>
<path d="M10.375 14.125H21.625C21.7493 14.125 21.8686 14.0756 21.9565 13.9877C22.0444 13.8998 22.0938 13.7806 22.0938 13.6562V11.7812C22.0938 11.6569 22.0444 11.5377 21.9565 11.4498C21.8686 11.3619 21.7493 11.3125 21.625 11.3125H10.375C10.1161 11.3125 9.90625 11.5224 9.90625 11.7812V13.6562C9.90625 13.7806 9.95564 13.8998 10.0435 13.9877C10.1314 14.0756 10.2507 14.125 10.375 14.125ZM10.8438 12.25H21.1562V13.1875H10.8438V12.25Z" fill="#474D9B"/>
<path d="M9.90625 25.8438V27.7188C9.90625 27.8431 9.95564 27.9623 10.0435 28.0502C10.1314 28.1381 10.2507 28.1875 10.375 28.1875H14.125C14.2493 28.1875 14.3686 28.1381 14.4565 28.0502C14.5444 27.9623 14.5938 27.8431 14.5938 27.7188V25.8438C14.5938 25.7194 14.5444 25.6002 14.4565 25.5123C14.3686 25.4244 14.2493 25.375 14.125 25.375H10.375C10.1161 25.375 9.90625 25.5849 9.90625 25.8438ZM10.8438 26.3125H13.6562V27.25H10.8438V26.3125Z" fill="#474D9B"/>
<path d="M19.2812 25.8438H20.2188V26.7812H19.2812V25.8438Z" fill="#474D9B"/>
<path d="M21.1562 25.8438H22.0938V26.7812H21.1562V25.8438Z" fill="#474D9B"/>
<path d="M17.4062 27.7188H22.0938V28.6562H17.4062V27.7188Z" fill="#474D9B"/>
</svg>
