<svg width="23" height="23" viewBox="0 0 23 23" fill="none" xmlns="http://www.w3.org/2000/svg">
<path d="M11.5002 5.11133C12.0295 5.11133 12.4586 5.54039 12.4586 6.06966V10.5419H16.9308C17.46 10.5419 17.8891 10.971 17.8891 11.5002C17.8891 12.0295 17.46 12.4586 16.9308 12.4586H12.4586V16.9308C12.4586 17.46 12.0295 17.8891 11.5002 17.8891C10.971 17.8891 10.5419 17.46 10.5419 16.9308V12.4586H6.06966C5.54039 12.4586 5.11133 12.0295 5.11133 11.5002C5.11133 10.971 5.54039 10.5419 6.06966 10.5419H10.5419V6.06966C10.5419 5.54039 10.971 5.11133 11.5002 5.11133Z" fill="white"/>
<path d="M0 4.15278C0 1.85926 1.85926 0 4.15278 0H18.8472C21.1407 0 23 1.85926 23 4.15278V18.8472C23 21.1407 21.1407 23 18.8472 23H4.15278C1.85926 23 0 21.1407 0 18.8472V4.15278ZM4.15278 1.91667C2.91781 1.91667 1.91667 2.91781 1.91667 4.15278V18.8472C1.91667 20.0822 2.91781 21.0833 4.15278 21.0833H18.8472C20.0822 21.0833 21.0833 20.0822 21.0833 18.8472V4.15278C21.0833 2.91781 20.0822 1.91667 18.8472 1.91667H4.15278Z" fill="white"/>
</svg>
