<svg width="28" height="24" viewBox="0 0 28 24" fill="none" xmlns="http://www.w3.org/2000/svg">
<path d="M14.2693 18L9.2065 11.55C8.37782 10.6673 7.84416 9.59037 7.66768 8.44462C7.4912 7.29887 7.67916 6.13147 8.20967 5.07837C8.74018 4.02527 9.5914 3.12981 10.6642 2.49629C11.737 1.86277 12.9872 1.51726 14.2693 1.5C16.0464 1.51584 17.7442 2.16645 18.9907 3.30931C20.2373 4.45218 20.931 5.99415 20.9199 7.5975C20.9206 8.9962 20.3927 10.3533 19.4235 11.445L14.2693 18ZM14.2693 3C12.9324 3.01385 11.6562 3.50578 10.721 4.36778C9.78582 5.22977 9.26802 6.39137 9.28132 7.5975C9.28689 8.69837 9.7259 9.76163 10.52 10.5975L14.2693 15.39L18.1183 10.5C18.85 9.67608 19.2513 8.6532 19.2572 7.5975C19.2705 6.39137 18.7527 5.22977 17.8175 4.36778C16.8823 3.50578 15.6062 3.01385 14.2693 3Z" fill="#474D9B"/>
<path d="M14.2692 8.25C15.1875 8.25 15.9319 7.57843 15.9319 6.75C15.9319 5.92157 15.1875 5.25 14.2692 5.25C13.351 5.25 12.6066 5.92157 12.6066 6.75C12.6066 7.57843 13.351 8.25 14.2692 8.25Z" fill="#474D9B"/>
<path d="M24.2451 9H22.5824V10.5H24.2451V21H4.29327V10.5H5.95592V9H4.29327C3.8523 9 3.4294 9.15804 3.11759 9.43934C2.80579 9.72064 2.63062 10.1022 2.63062 10.5V21C2.63062 21.3978 2.80579 21.7794 3.11759 22.0607C3.4294 22.342 3.8523 22.5 4.29327 22.5H24.2451C24.686 22.5 25.1089 22.342 25.4207 22.0607C25.7326 21.7794 25.9077 21.3978 25.9077 21V10.5C25.9077 10.1022 25.7326 9.72064 25.4207 9.43934C25.1089 9.15804 24.686 9 24.2451 9Z" fill="#474D9B"/>
</svg>
