<svg width="25" height="25" viewBox="0 0 25 25" fill="none" xmlns="http://www.w3.org/2000/svg">
<path fill-rule="evenodd" clip-rule="evenodd" d="M12.5 22.5C18.0228 22.5 22.5 18.0228 22.5 12.5C22.5 6.97715 18.0228 2.5 12.5 2.5C6.97715 2.5 2.5 6.97715 2.5 12.5C2.5 18.0228 6.97715 22.5 12.5 22.5ZM7.59436 18.8199L18.8199 7.59436C19.8729 8.94904 20.5 10.6513 20.5 12.5C20.5 16.9183 16.9183 20.5 12.5 20.5C10.6513 20.5 8.94904 19.8729 7.59436 18.8199ZM6.18014 17.4056C5.12708 16.051 4.5 14.3487 4.5 12.5C4.5 8.08172 8.08172 4.5 12.5 4.5C14.3487 4.5 16.051 5.12708 17.4056 6.18014L6.18014 17.4056Z" fill="#FF3541"/>
</svg>
