<svg width="25" height="25" viewBox="0 0 25 25" fill="none" xmlns="http://www.w3.org/2000/svg">
<path d="M5.83366 5.97542L5.83317 16.6667C5.83317 18.8758 7.5524 20.6834 9.72588 20.8245L9.99984 20.8333L17.3572 20.8345C17.0136 21.8049 16.0879 22.5 14.9998 22.5H9.1665C6.40508 22.5 4.1665 20.2614 4.1665 17.5V8.33333C4.1665 7.24464 4.86241 6.31848 5.83366 5.97542ZM18.3332 2.5C19.7139 2.5 20.8332 3.61929 20.8332 5V16.6667C20.8332 18.0474 19.7139 19.1667 18.3332 19.1667H9.99984C8.61913 19.1667 7.49984 18.0474 7.49984 16.6667V5C7.49984 3.61929 8.61913 2.5 9.99984 2.5H18.3332ZM18.3332 4.16667H9.99984C9.5396 4.16667 9.1665 4.53976 9.1665 5V16.6667C9.1665 17.1269 9.5396 17.5 9.99984 17.5H18.3332C18.7934 17.5 19.1665 17.1269 19.1665 16.6667V5C19.1665 4.53976 18.7934 4.16667 18.3332 4.16667Z" fill="#474D9B"/>
</svg>
