<svg width="20" height="17" viewBox="0 0 20 17" fill="none" xmlns="http://www.w3.org/2000/svg">
<path d="M5.57341 3.19993C5.57341 3.04083 5.64443 2.88814 5.77081 2.77565C5.8972 2.66315 6.06872 2.59993 6.24747 2.59993H14.3362C14.5771 2.59993 14.7996 2.71431 14.92 2.89993C15.0403 3.08556 15.0403 3.31431 14.92 3.49993C14.7996 3.68555 14.5771 3.79993 14.3362 3.79993H6.24747C6.06872 3.79993 5.8972 3.73672 5.77081 3.62422C5.64443 3.51172 5.57341 3.35904 5.57341 3.19993ZM16.3584 7.99993C16.3584 7.84082 16.2874 7.68814 16.161 7.57564C16.0346 7.46315 15.8631 7.39993 15.6843 7.39993H4.89935C4.65846 7.39993 4.43594 7.5143 4.31557 7.69993C4.1952 7.88556 4.1952 8.11431 4.31557 8.29993C4.43594 8.48555 4.65847 8.59993 4.89935 8.59993H15.6843C15.8631 8.59993 16.0346 8.53671 16.161 8.42422C16.2874 8.31172 16.3584 8.15904 16.3584 7.99993ZM5.57341 6.19993H15.0103C15.2511 6.19993 15.4737 6.08556 15.594 5.89993C15.7144 5.7143 15.7144 5.48555 15.594 5.29993C15.4737 5.11431 15.2511 4.99993 15.0103 4.99993H5.57341C5.33252 4.99993 5.11 5.11431 4.98963 5.29993C4.86926 5.48556 4.86926 5.71431 4.98963 5.89993C5.11 6.08555 5.33253 6.19993 5.57341 6.19993ZM12.9881 13.9999H7.59559C7.3547 13.9999 7.13218 14.1143 7.01181 14.2999C6.89145 14.4856 6.89145 14.7143 7.01181 14.8999C7.13218 15.0856 7.35471 15.1999 7.59559 15.1999H12.9881C13.229 15.1999 13.4515 15.0856 13.5719 14.8999C13.6922 14.7143 13.6922 14.4856 13.5719 14.2999C13.4515 14.1143 13.229 13.9999 12.9881 13.9999ZM19.7287 10.9999V16.3999C19.7287 16.559 19.6577 16.7117 19.5313 16.8242C19.4049 16.9367 19.2334 16.9999 19.0546 16.9999H1.52904C1.3503 16.9999 1.17877 16.9367 1.05238 16.8242C0.926 16.7117 0.85498 16.559 0.85498 16.3999V10.9999V10.9339V10.8618L3.55122 0.66185V0.661984C3.58673 0.527652 3.67325 0.408458 3.79602 0.324348C3.9188 0.240108 4.07046 0.196178 4.2253 0.199929H16.3584C16.5132 0.196179 16.6649 0.240108 16.7877 0.324348C16.9105 0.408455 16.997 0.527652 17.0325 0.661984L19.7287 10.862V10.934V10.9999H19.7287ZM2.37836 10.3999H7.59559C7.77434 10.3999 7.94586 10.4631 8.07225 10.5756C8.19863 10.6881 8.26965 10.8408 8.26965 10.9999C8.26965 11.9479 9.61777 12.1999 10.2918 12.1999C10.9659 12.1999 12.314 11.9479 12.314 10.9999C12.314 10.8408 12.385 10.6881 12.5114 10.5756C12.6378 10.4631 12.8093 10.3999 12.9881 10.3999H18.2053L15.826 1.39993H4.75787L2.37836 10.3999ZM18.3806 11.5999H13.5747C12.8332 13.9999 7.75082 13.9999 7.00935 11.5999H2.20349V15.7999H18.381L18.3806 11.5999Z" fill="#7E7C7C"/>
</svg>
