<svg width="161" height="107" viewBox="0 0 161 107" fill="none" xmlns="http://www.w3.org/2000/svg">
<path d="M107.868 99.5282H6.58301V53.2931C6.58301 27.7589 27.282 7.05945 52.8162 7.05945H107.869C133.403 7.05945 154.104 27.7589 154.104 53.2931V53.295C154.104 78.8293 133.403 99.5282 107.869 99.5282H107.868Z" stroke="white" stroke-width="12.95" stroke-linecap="round" stroke-linejoin="round"/>
<path d="M47.9639 46.1149C52.2494 46.1149 55.7285 49.594 55.7285 53.8796C55.7285 58.1651 52.2494 61.6442 47.9639 61.6442C43.6783 61.6442 40.1992 58.1651 40.1992 53.8796C40.1992 49.594 43.6783 46.1149 47.9639 46.1149Z" fill="white"/>
<path d="M79.8271 46.1149C84.1122 46.1149 87.5913 49.594 87.5913 53.8796C87.5913 58.1651 84.1122 61.6442 79.8271 61.6442C75.5415 61.6442 72.062 58.1651 72.062 53.8796C72.062 49.594 75.5415 46.1149 79.8266 46.1149H79.8271Z" fill="white"/>
<path d="M111.039 46.1149C115.324 46.1149 118.803 49.594 118.803 53.8796C118.803 58.1651 115.324 61.6442 111.039 61.6442C106.753 61.6442 103.274 58.1651 103.274 53.8796C103.274 49.594 106.753 46.1149 111.039 46.1149Z" fill="white"/>
</svg>
