<svg width="12" height="12" viewBox="0 0 12 12" fill="none" xmlns="http://www.w3.org/2000/svg">
<path d="M6.91304 6L11.7826 1.1087C12.0435 0.847826 12.0435 0.434783 11.7826 0.195652C11.5217 -0.0652174 11.1087 -0.0652174 10.8696 0.195652L6 5.08696L1.1087 0.195652C0.847826 -0.0652174 0.434783 -0.0652174 0.195652 0.195652C-0.0652174 0.456522 -0.0652174 0.869565 0.195652 1.1087L5.06522 6L0.195652 10.8913C-0.0652174 11.1522 -0.0652174 11.5652 0.195652 11.8043C0.326087 11.9348 0.5 12 0.652174 12C0.804348 12 0.978261 11.9348 1.1087 11.8043L6 6.91304L10.8913 11.8043C11.0217 11.9348 11.1957 12 11.3478 12C11.5 12 11.6739 11.9348 11.8043 11.8043C12.0652 11.5435 12.0652 11.1304 11.8043 10.8913L6.91304 6Z" fill="white"/>
</svg>
