<svg width="32" height="32" viewBox="0 0 32 32" fill="none" xmlns="http://www.w3.org/2000/svg">
<path d="M20.6858 21.6787C20.5865 22.2417 20.279 23.098 19.3138 23.098H14.1095V24.0442H19.3138C21.2062 24.0442 21.6793 22.1896 21.6793 21.2055C21.6793 21.0801 21.6295 20.9597 21.5408 20.871C21.4521 20.7823 21.3317 20.7324 21.2062 20.7324H9.37841C9.25274 20.7318 9.13172 20.781 9.04259 20.8697L3.36523 26.5471L4.03224 27.2141L9.57226 21.6784L20.6858 21.6787Z" fill="#474D9B"/>
<path d="M26.5496 17.5596L22.2915 21.8177L22.9586 22.4847L26.8427 18.6005C27.1515 19.0098 27.2926 19.5216 27.2373 20.0315C27.1819 20.5413 26.9342 21.0108 26.5447 21.3445L21.0139 26.8846H11.2726C11.1469 26.8839 11.0259 26.9331 10.9368 27.0219L7.625 30.3336L8.29201 31.0006L11.4665 27.8308H21.2078C21.3334 27.8314 21.4545 27.7822 21.5436 27.6935L27.2209 22.0162C28.981 20.2561 27.9921 18.3305 27.2209 17.5642C27.1329 17.4741 27.0123 17.4227 26.8862 17.4219C26.7599 17.421 26.6386 17.4705 26.5493 17.5596L26.5496 17.5596Z" fill="#474D9B"/>
<path d="M12.2168 23.0996H13.163V24.0458H12.2168V23.0996Z" fill="#474D9B"/>
<path d="M12.6898 16.0027C12.8152 16.0027 12.9356 15.9529 13.0243 15.8642C13.113 15.7755 13.1629 15.6551 13.1629 15.5296V13.6372C13.1629 13.5117 13.113 13.3913 13.0243 13.3026C12.9356 13.2139 12.8152 13.1641 12.6898 13.1641H10.7973C10.5361 13.1641 10.3242 13.3759 10.3242 13.6372V15.5296C10.3242 15.6551 10.3741 15.7755 10.4628 15.8642C10.5515 15.9529 10.6719 16.0027 10.7973 16.0027H12.6898ZM11.2704 14.1103H12.2167V15.0565H11.2704V14.1103Z" fill="#474D9B"/>
<path d="M14.1094 13.1641H18.8405V14.1103H14.1094V13.1641Z" fill="#474D9B"/>
<path d="M14.1094 15.0566H16.9481V16.0029H14.1094V15.0566Z" fill="#474D9B"/>
<path d="M29.1096 2.41934L27.6902 1L27.0186 1.67166L27.6336 2.28205H9.37634C8.99997 2.28205 8.63877 2.43159 8.37269 2.69772C8.10662 2.96385 7.95703 3.32504 7.95703 3.70137V16.0023H8.90326V5.59382H12.215V4.64759H8.90326V3.70137C8.90326 3.4401 9.1151 3.22825 9.37637 3.22825H13.6344V7.48627C13.6344 7.61173 13.6842 7.73212 13.7729 7.82083C13.8616 7.90953 13.982 7.95938 14.1075 7.95938H17.8924C18.0179 7.95938 18.1383 7.90953 18.227 7.82083C18.3157 7.73212 18.3655 7.61173 18.3655 7.48627V3.22825H27.6337L27.0186 3.83865L27.6856 4.50566L29.105 3.08632C29.2898 2.90299 29.2919 2.60497 29.1096 2.41931L29.1096 2.41934ZM17.4191 7.01318H14.5804V6.06696H17.4191V7.01318ZM17.4191 5.12073H14.5804V3.22828H17.4191V5.12073Z" fill="#474D9B"/>
<path d="M4.98259 18.9791L4.36754 18.3687H22.6248C23.0012 18.3687 23.3624 18.2191 23.6285 17.953C23.8945 17.6869 24.0441 17.3257 24.0441 16.9494V4.64844H19.7861V5.59466H23.0979V16.9494C23.0979 17.0748 23.0481 17.1952 22.9594 17.2839C22.8706 17.3726 22.7503 17.4225 22.6248 17.4225H4.36751L4.97791 16.8121L4.3109 16.1404L2.89156 17.5598C2.70802 17.7442 2.70802 18.0422 2.89156 18.2268L4.3109 19.6461L4.98259 18.9791Z" fill="#474D9B"/>
</svg>
