<svg width="32" height="32" viewBox="0 0 32 32" fill="none" xmlns="http://www.w3.org/2000/svg">
<path d="M9.4375 18.3438H16C16.1243 18.3438 16.2436 18.2944 16.3315 18.2065C16.4194 18.1186 16.4688 17.9993 16.4688 17.875V16C16.4688 15.8757 16.4194 15.7564 16.3315 15.6685C16.2436 15.5806 16.1243 15.5312 16 15.5312H9.4375C9.17864 15.5312 8.96875 15.7411 8.96875 16V17.875C8.96875 17.9993 9.01814 18.1186 9.10603 18.2065C9.19392 18.2944 9.3132 18.3438 9.4375 18.3438ZM9.90625 16.4688H15.5312V17.4062H9.90625V16.4688Z" fill="#474D9B"/>
<path d="M14.5938 26.7812H18.8125V27.7188H14.5938V28.6562H19.2813C19.4056 28.6562 19.5248 28.6069 19.6127 28.519C19.7006 28.4311 19.75 28.3118 19.75 28.1875V26.3125C19.75 26.1882 19.7006 26.0689 19.6127 25.981C19.5248 25.8931 19.4056 25.8438 19.2813 25.8438H14.5938V26.7812Z" fill="#474D9B"/>
<path d="M5.6875 25.8438H3.8125C3.55364 25.8438 3.34375 26.0536 3.34375 26.3125V28.1875C3.34375 28.3118 3.39314 28.4311 3.48103 28.519C3.56892 28.6069 3.6882 28.6562 3.8125 28.6562H5.6875C5.8118 28.6562 5.93108 28.6069 6.01897 28.519C6.10686 28.4311 6.15625 28.3118 6.15625 28.1875V26.3125C6.15625 26.1882 6.10686 26.0689 6.01897 25.981C5.93108 25.8931 5.8118 25.8438 5.6875 25.8438ZM5.21875 27.7188H4.28125V26.7812H5.21875V27.7188Z" fill="#474D9B"/>
<path d="M7.09375 25.8438H8.03125V26.7812H7.09375V25.8438Z" fill="#474D9B"/>
<path d="M8.96875 25.8438H9.90625V26.7812H8.96875V25.8438Z" fill="#474D9B"/>
<path d="M7.09375 27.7188H10.8438V28.6562H7.09375V27.7188Z" fill="#474D9B"/>
<path d="M28.6559 30.0625V28.6562C28.6559 28.5319 28.6065 28.4127 28.5186 28.3248C28.4307 28.2369 28.3114 28.1875 28.1871 28.1875H27.7184V3.8125H28.1871C28.3114 3.8125 28.4307 3.76311 28.5186 3.67522C28.6065 3.58733 28.6559 3.46805 28.6559 3.34375V1.46875C28.6559 1.34445 28.6065 1.22517 28.5186 1.13728C28.4307 1.04939 28.3114 1 28.1871 1H8.49965C8.24079 1 8.0309 1.20989 8.0309 1.46875V3.34375C8.0309 3.46805 8.08028 3.58733 8.16817 3.67522C8.25606 3.76311 8.37535 3.8125 8.49965 3.8125H8.9684V8.03125H9.9059V3.8125H26.7809V5.21875H11.3121V6.15625H26.7809V26.3125H24.4371V27.25H26.7809V28.1875H23.4996V29.125H27.7184V30.0625H22.0093C22.0639 29.9122 22.0924 29.7536 22.0936 29.5938V21.1562C22.0936 20.7833 21.9455 20.4255 21.6818 20.1619C21.4181 19.8982 21.0603 19.75 20.6874 19.75H18.7281C18.7827 19.5998 18.8112 19.4412 18.8124 19.2813V10.8438C18.8124 10.4709 18.6643 10.113 18.4006 9.84938C18.1369 9.58576 17.779 9.43755 17.4062 9.43755H8.03119C7.65828 9.43755 7.30042 9.58571 7.03679 9.84938C6.77317 10.1131 6.62496 10.4709 6.62496 10.8438V19.2813C6.62622 19.4412 6.65468 19.5998 6.70929 19.75H2.40622C2.03332 19.75 1.67546 19.8982 1.41183 20.1619C1.14821 20.4255 1 20.7834 1 21.1562V29.5938C1.00126 29.7536 1.02972 29.9122 1.08433 30.0625H1V31H31V30.0625H28.6559ZM11.7809 10.375H13.6559V13.1875H11.7809V10.375ZM7.56215 12.25H9.9059V11.3125H7.56215V10.8438C7.56215 10.5849 7.77204 10.375 8.0309 10.375H10.8434V13.6562C10.8434 13.7806 10.8928 13.8998 10.9807 13.9877C11.0686 14.0756 11.1878 14.125 11.3121 14.125H14.1246C14.2489 14.125 14.3682 14.0756 14.4561 13.9877C14.544 13.8998 14.5934 13.7806 14.5934 13.6562V10.375H17.4059C17.5302 10.375 17.6495 10.4244 17.7374 10.5123C17.8253 10.6002 17.8746 10.7194 17.8746 10.8438V11.3125H15.5309V12.25H17.8746V19.2812C17.8746 19.4056 17.8253 19.5248 17.7374 19.6127C17.6495 19.7006 17.5302 19.75 17.4059 19.75H8.0309C7.77204 19.75 7.56215 19.5401 7.56215 19.2812V12.25ZM16.9371 20.6875V23.5H15.0621V20.6875H16.9371ZM6.1559 20.6875H8.0309V23.5H6.1559V20.6875ZM12.2496 21.625H9.9059V22.5625H12.2496V29.5938C12.2496 29.7181 12.2003 29.8373 12.1124 29.9252C12.0245 30.0131 11.9052 30.0625 11.7809 30.0625H2.4059C2.14704 30.0625 1.93715 29.8526 1.93715 29.5938V22.5625H4.2809V21.625H1.93715V21.1562C1.93715 20.8974 2.14704 20.6875 2.4059 20.6875H5.2184V23.9688C5.2184 24.0931 5.26778 24.2123 5.35567 24.3002C5.44356 24.3881 5.56284 24.4375 5.68715 24.4375H8.49965C8.62395 24.4375 8.74323 24.3881 8.83112 24.3002C8.91901 24.2123 8.9684 24.0931 8.9684 23.9688V20.6875H11.7809C11.9052 20.6875 12.0245 20.7369 12.1124 20.8248C12.2003 20.9127 12.2496 21.0319 12.2496 21.1562V21.625ZM21.1559 21.625H18.8121V22.5625H21.1559V29.5938C21.1559 29.7181 21.1065 29.8373 21.0186 29.9252C20.9307 30.0131 20.8114 30.0625 20.6871 30.0625H13.103C13.1577 29.9122 13.1861 29.7536 13.1874 29.5938V21.1562C13.1861 20.9964 13.1577 20.8378 13.103 20.6875H14.1249V23.9688C14.1249 24.0931 14.1742 24.2123 14.2621 24.3002C14.35 24.3881 14.4693 24.4375 14.5936 24.4375H17.4061C17.5304 24.4375 17.6497 24.3881 17.7376 24.3002C17.8255 24.2123 17.8749 24.0931 17.8749 23.9688V20.6875H20.6874C20.8117 20.6875 20.9309 20.7369 21.0188 20.8248C21.1067 20.9127 21.1561 21.0319 21.1561 21.1562L21.1559 21.625ZM8.9684 2.875V1.9375H27.7184V2.875H8.9684Z" fill="#474D9B"/>
<path d="M25.3749 17.875C25.3749 17.5021 25.2268 17.1442 24.9631 16.8806C24.6994 16.617 24.3416 16.4688 23.9687 16.4688C23.5959 16.4688 23.238 16.6169 22.9743 16.8806C22.7107 17.1443 22.5625 17.5021 22.5625 17.875C22.5625 18.2478 22.7107 18.6057 22.9743 18.8694C23.238 19.133 23.5959 19.2812 23.9687 19.2812C24.3416 19.2812 24.6995 19.133 24.9631 18.8694C25.2267 18.6057 25.3749 18.2478 25.3749 17.875ZM23.4999 17.875C23.4999 17.6854 23.6142 17.5144 23.7894 17.442C23.9645 17.3694 24.166 17.4094 24.3002 17.5435C24.4343 17.6776 24.4743 17.8792 24.4017 18.0543C24.3293 18.2295 24.1583 18.3437 23.9687 18.3437C23.7098 18.3437 23.4999 18.1338 23.4999 17.875Z" fill="#474D9B"/>
</svg>
