<svg width="32" height="32" viewBox="0 0 32 32" fill="none" xmlns="http://www.w3.org/2000/svg">
<path d="M30.8638 12.3957L28.0513 9.58324C27.963 9.49535 27.8431 9.44659 27.7186 9.44722H22.5623V5.2285C22.5623 5.1042 22.513 4.98492 22.4251 4.89703C22.3372 4.80914 22.2179 4.75975 22.0936 4.75975H16.4686V3.35351C16.4686 3.22921 16.4193 3.10993 16.3314 3.02204C16.2435 2.93415 16.1242 2.88477 15.9999 2.88477H7.56245C7.3036 2.88477 7.09371 3.09466 7.09371 3.35351V4.75975H1.46875C1.20989 4.75975 1 4.96964 1 5.2285V21.1659C1.00084 21.4559 1.09145 21.7388 1.25927 21.9755C1.4271 22.2122 1.66399 22.3911 1.93748 22.4878V24.9158C1.93748 25.0401 1.98687 25.1594 2.07476 25.2473C2.16265 25.3352 2.28193 25.3846 2.40623 25.3846H5.24673C5.40723 26.767 6.23902 27.9813 7.47035 28.6302C8.70142 29.2791 10.1734 29.2791 11.4045 28.6302C12.6358 27.9813 13.4676 26.767 13.6281 25.3846H19.3093C19.4698 26.767 20.3016 27.9813 21.533 28.6302C22.764 29.2791 24.236 29.2791 25.4671 28.6302C26.6984 27.9813 27.5303 26.767 27.6907 25.3846H30.0625C30.2389 25.384 30.4002 25.2843 30.4798 25.1268L30.9485 24.1893C30.9818 24.124 30.9996 24.0518 31 23.9783V12.7284C31.0006 12.6039 30.9519 12.484 30.864 12.3957L30.8638 12.3957ZM22.5624 10.3847H23.9686V16.0097H22.5624V10.3847ZM8.03125 3.82226H15.5312V4.75976H8.03125V3.82226ZM1.93754 21.1659V8.50973H4.28128V7.57224H1.93754V5.69725H21.6249V7.57224H19.2812V8.50973H21.6249V21.1423C21.3516 21.2781 21.0938 21.443 20.8561 21.6345H12.0811C11.3313 21.0308 10.3976 20.7014 9.43497 20.7014C8.47235 20.7014 7.53866 21.0308 6.78883 21.6345H2.40607C2.14722 21.6345 1.93733 21.4246 1.93733 21.1658L1.93754 21.1659ZM5.24679 24.4471H2.87503V22.5721H5.93132C5.55548 23.133 5.32071 23.7762 5.24684 24.4471H5.24679ZM9.43749 28.1971C8.56717 28.1971 7.73264 27.8514 7.11738 27.236C6.50196 26.6208 6.15626 25.7862 6.15626 24.9159C6.15626 24.0455 6.50196 23.211 7.11738 22.5958C7.73259 21.9803 8.56712 21.6346 9.43749 21.6346C10.3079 21.6346 11.1423 21.9803 11.7576 22.5958C12.373 23.211 12.7187 24.0455 12.7187 24.9159C12.7187 25.7862 12.373 26.6207 11.7576 27.236C11.1424 27.8514 10.3079 28.1971 9.43749 28.1971ZM19.309 24.4471H13.6278C13.5539 23.7762 13.3192 23.133 12.9433 22.5721H19.9745C19.6054 23.1346 19.3771 23.7777 19.3089 24.4471H19.309ZM23.4997 28.1971C22.6294 28.1971 21.7949 27.8514 21.1796 27.236C20.5642 26.6208 20.2185 25.7862 20.2185 24.9159C20.2185 24.0455 20.5642 23.211 21.1796 22.5958C21.7948 21.9803 22.6294 21.6346 23.4997 21.6346C24.3701 21.6346 25.2046 21.9803 25.8198 22.5958C26.4353 23.211 26.781 24.0455 26.781 24.9159C26.781 25.7862 26.4353 26.6207 25.8198 27.236C25.2046 27.8514 24.3701 28.1971 23.4997 28.1971ZM30.0622 18.8222H26.781V19.7597H30.0622V23.8658L29.7715 24.4471H27.6904C27.556 23.2539 26.9199 22.1743 25.941 21.4792C24.9619 20.7838 23.733 20.5385 22.5622 20.8049V16.9472H30.0622L30.0622 18.8222ZM30.0622 16.0097H24.906V10.3847H27.5263L30.0622 12.9206V16.0097Z" fill="#474D9B"/>
<path d="M24.9062 18.8223H25.8437V19.7598H24.9062V18.8223Z" fill="#474D9B"/>
<path d="M9.43749 23.041C8.94028 23.041 8.46335 23.2386 8.1116 23.5901C7.76004 23.9419 7.5625 24.4188 7.5625 24.916C7.5625 25.4132 7.76004 25.8901 8.1116 26.2419C8.46337 26.5934 8.94029 26.791 9.43749 26.791C9.93468 26.791 10.4116 26.5934 10.7634 26.2419C11.1149 25.8901 11.3125 25.4132 11.3125 24.916C11.3125 24.4188 11.1149 23.9419 10.7634 23.5901C10.4116 23.2386 9.93468 23.041 9.43749 23.041ZM9.43749 25.8535C9.18888 25.8535 8.95032 25.7547 8.77454 25.5789C8.59877 25.4032 8.49999 25.1646 8.49999 24.916C8.49999 24.6674 8.59877 24.4288 8.77454 24.2531C8.95032 24.0773 9.18888 23.9785 9.43749 23.9785C9.68609 23.9785 9.92465 24.0773 10.1004 24.2531C10.2762 24.4288 10.375 24.6674 10.375 24.916C10.375 25.1646 10.2762 25.4032 10.1004 25.5789C9.92465 25.7547 9.68609 25.8535 9.43749 25.8535Z" fill="#474D9B"/>
<path d="M23.5 23.041C23.0028 23.041 22.5259 23.2386 22.1741 23.5901C21.8225 23.9419 21.625 24.4188 21.625 24.916C21.625 25.4132 21.8225 25.8901 22.1741 26.2419C22.5259 26.5934 23.0028 26.791 23.5 26.791C23.9972 26.791 24.4741 26.5934 24.8259 26.2419C25.1774 25.8901 25.375 25.4132 25.375 24.916C25.375 24.4188 25.1774 23.9419 24.8259 23.5901C24.4741 23.2386 23.9972 23.041 23.5 23.041ZM23.5 25.8535C23.2514 25.8535 23.0128 25.7547 22.837 25.5789C22.6613 25.4032 22.5625 25.1646 22.5625 24.916C22.5625 24.6674 22.6613 24.4288 22.837 24.2531C23.0128 24.0773 23.2514 23.9785 23.5 23.9785C23.7486 23.9785 23.9872 24.0773 24.1629 24.2531C24.3387 24.4288 24.4375 24.6674 24.4375 24.916C24.4375 25.1646 24.3387 25.4032 24.1629 25.5789C23.9872 25.7547 23.7486 25.8535 23.5 25.8535Z" fill="#474D9B"/>
<path d="M16.4686 18.8221C16.8415 18.8221 17.1994 18.674 17.463 18.4103C17.7267 18.1466 17.8749 17.7888 17.8749 17.4159V8.97848C17.8749 8.60558 17.7267 8.24772 17.463 7.98409C17.1994 7.72047 16.8415 7.57227 16.4686 7.57227H7.09371C6.72081 7.57227 6.36295 7.72042 6.09933 7.98409C5.8357 8.24776 5.6875 8.60562 5.6875 8.97848V17.4159C5.6875 17.7888 5.83566 18.1467 6.09933 18.4103C6.363 18.6739 6.72086 18.8221 7.09371 18.8221H16.4686ZM10.8437 8.50971H12.7187V11.3222H10.8437V8.50971ZM6.62497 17.4159V10.3847H8.9687V9.4472H6.62497V8.97845C6.62497 8.7196 6.83486 8.50971 7.09371 8.50971H9.90619V11.7909C9.90619 11.9152 9.95558 12.0345 10.0435 12.1224C10.1314 12.2103 10.2506 12.2597 10.3749 12.2597H13.1874C13.3117 12.2597 13.431 12.2103 13.5189 12.1224C13.6068 12.0345 13.6562 11.9152 13.6562 11.7909V8.50971H16.4686C16.5929 8.50971 16.7122 8.55909 16.8001 8.64698C16.888 8.73487 16.9374 8.85415 16.9374 8.97845V9.4472H14.5937V10.3847H16.9374V17.4159C16.9374 17.5402 16.888 17.6595 16.8001 17.7474C16.7122 17.8353 16.5929 17.8846 16.4686 17.8846H7.09371C6.83486 17.8846 6.62497 17.6747 6.62497 17.4159Z" fill="#474D9B"/>
<path d="M7.5625 15.541H8.49999V16.4785H7.5625V15.541Z" fill="#474D9B"/>
<path d="M9.4375 15.541H13.1875V16.4785H9.4375V15.541Z" fill="#474D9B"/>
<path d="M7.5625 13.666H13.1875V14.6035H7.5625V13.666Z" fill="#474D9B"/>
</svg>
