<svg width="24" height="24" viewBox="0 0 24 24" fill="none" xmlns="http://www.w3.org/2000/svg">
<path d="M19.6551 22C20.9481 22 22 20.9403 22 19.6378V16.4882C22 16.1494 21.7839 15.8487 21.4636 15.7414L16.7627 14.1666C16.5325 14.0895 16.28 14.1234 16.0782 14.2582L14.0791 15.5944C11.9336 14.5738 9.39785 12.0539 8.38927 9.941L9.72152 7.93738C9.85602 7.73507 9.88979 7.48173 9.81293 7.25108L8.24225 2.53785C8.13518 2.21659 7.83524 2 7.49738 2H4.35602C3.05691 2 2 3.05465 2 4.35102C2 8.70152 3.97298 13.1666 7.41309 16.6013C10.8494 20.0322 15.3115 22 19.6551 22Z" stroke="#585858" stroke-width="2" stroke-linejoin="round"/>
</svg>
