<svg width="14" height="19" viewBox="0 0 14 19" fill="none" xmlns="http://www.w3.org/2000/svg">
<path d="M7.129 0.43457C10.5457 0.43457 13.3278 2.88936 13.3278 5.93058C13.3278 8.73293 8.76387 15.1848 7.129 17.9655C5.51824 15.1848 0.95459 8.73297 0.95459 5.93058C0.95459 2.88926 3.73675 0.43457 7.129 0.43457ZM7.129 0.955914C4.05398 0.955914 1.54003 3.19342 1.54003 5.93081C1.54003 8.3856 5.59121 14.2509 7.129 16.8361C8.69086 14.251 12.718 8.38557 12.718 5.93081C12.718 3.19365 10.2286 0.955914 7.129 0.955914ZM7.129 3.75827C8.47126 3.75827 9.56957 4.7359 9.56957 5.93068C9.56957 7.12546 8.47126 8.1031 7.129 8.1031C5.78674 8.1031 4.68844 7.12546 4.68844 5.93068C4.68844 4.7359 5.78674 3.75827 7.129 3.75827ZM7.129 4.3013C6.12833 4.3013 5.29864 5.01811 5.29864 5.93055C5.29864 6.84299 6.12844 7.58149 7.129 7.58149C8.15407 7.58149 8.98372 6.84286 8.98372 5.93055C8.98372 5.01811 8.15392 4.3013 7.129 4.3013Z" fill="#7E7C7C" stroke="#7E7C7C"/>
</svg>
