<svg width="21" height="25" viewBox="0 0 21 25" fill="none" xmlns="http://www.w3.org/2000/svg">
<path d="M15.1114 0.403634C15.0714 0.364051 15.0258 0.333135 14.9745 0.310484C14.9232 0.287837 14.8633 0.276611 14.8034 0.276611H3.98102C2.85173 0.276611 1.93631 1.18563 1.93631 2.30085V11.3603H1.50007C0.673167 11.3603 0 12.0265 0 12.8454V16.7866C0 17.6052 0.672964 18.2716 1.50007 18.2716H1.93631V22.2524C1.93631 23.3704 2.85453 24.2766 3.98102 24.2766H18.9553C20.0846 24.2766 21 23.3676 21 22.2524V6.4142C21 6.29565 20.9515 6.18832 20.8717 6.10935L15.1114 0.403634ZM1.49984 17.4079C1.15192 17.4079 0.869648 17.1284 0.869648 16.784L0.869449 12.8456C0.869449 12.5012 1.15172 12.2217 1.49964 12.2217H11.0902C11.4381 12.2217 11.7204 12.5012 11.7204 12.8456V16.7868C11.7204 17.1312 11.4381 17.4107 11.0902 17.4107H1.50015L1.49984 17.4079ZM20.1305 22.2496C20.1305 22.8904 19.6029 23.4127 18.9556 23.4127L3.98086 23.4129C3.33357 23.4129 2.80604 22.8906 2.80604 22.2498V18.2691H11.0904C11.9173 18.2691 12.5905 17.6028 12.5905 16.784L12.5903 12.8456C12.5903 12.027 11.9173 11.3605 11.0902 11.3605H2.8033V2.30107C2.8033 1.66026 3.33082 1.13802 3.97812 1.13802H14.3672V4.8167C14.3672 5.93469 15.2854 6.84094 16.4119 6.84094H20.1278V22.2496L20.1305 22.2496Z" fill="#3A4E66"/>
<path d="M3.90574 13.8207C3.79496 13.7903 3.56001 13.7766 3.20072 13.7766H2.25V16.7766H2.84423V15.6461H3.23047C3.49783 15.6461 3.70319 15.6322 3.84641 15.602C3.95173 15.5799 4.05441 15.5303 4.15427 15.4588C4.25413 15.387 4.33797 15.2878 4.40278 15.1637C4.4676 15.037 4.5 14.8825 4.5 14.7006C4.5 14.4607 4.44329 14.2676 4.32987 14.1161C4.21362 13.964 4.07305 13.8647 3.90574 13.8207ZM3.81926 14.94C3.77329 15.0062 3.71394 15.0558 3.63292 15.0862C3.55454 15.1166 3.39798 15.1331 3.16303 15.1331H2.83896L2.83877 14.2838H3.12515C3.33862 14.2838 3.48163 14.2893 3.55191 14.303C3.64912 14.3195 3.7275 14.3665 3.78968 14.4353C3.85186 14.5071 3.88426 14.5952 3.88426 14.7056C3.88671 14.794 3.86524 14.8738 3.81926 14.94Z" fill="#3A4E66"/>
<path d="M7.15888 14.1103C7.04522 13.978 6.91156 13.887 6.75341 13.8345C6.63716 13.7958 6.46659 13.7766 6.24151 13.7766H5.25V16.7766H6.27118C6.47142 16.7766 6.63216 16.7545 6.7508 16.7131C6.91154 16.6552 7.03761 16.5752 7.13161 16.4733C7.25527 16.3383 7.35168 16.1617 7.41842 15.9438C7.47275 15.7646 7.5 15.5522 7.5 15.3068C7.5 15.0256 7.47034 14.7885 7.41101 14.5982C7.35668 14.4026 7.27253 14.2426 7.15888 14.1103ZM6.88689 15.8253C6.84981 15.9603 6.8029 16.0569 6.74357 16.1148C6.68666 16.1727 6.6125 16.214 6.5235 16.2388C6.45676 16.2581 6.34793 16.2663 6.19461 16.2663H5.78914V14.2811H6.03387C6.25636 14.2811 6.40467 14.2894 6.47883 14.3086C6.58024 14.3334 6.66423 14.3804 6.73098 14.4492C6.79772 14.5181 6.84722 14.6146 6.8843 14.7387C6.92138 14.8627 6.93863 15.042 6.93863 15.2735C6.94122 15.5084 6.92398 15.693 6.88689 15.8253Z" fill="#3A4E66"/>
<path d="M8.25 16.7766H8.91352V15.5016H10.2827V14.9937H8.91352V14.2843H10.5V13.7766H8.25V16.7766Z" fill="#3A4E66"/>
</svg>
