<svg width="22" height="22" viewBox="0 0 22 22" fill="none" xmlns="http://www.w3.org/2000/svg">
<path d="M4.11884 2.35001C4.11884 1.05213 5.04087 0 6.17826 0H15.7889C16.9262 0 17.8483 1.05213 17.8483 2.35001V3.13334H18.5348C20.4304 3.13334 21.9672 4.8869 21.9672 7.05002V14.8834C21.9672 16.1812 21.0451 17.2334 19.9077 17.2334H17.8483V19.5834C17.8483 20.8812 16.9262 21.9334 15.7889 21.9334H6.17826C5.04087 21.9334 4.11884 20.8812 4.11884 19.5834V17.2334H2.05942C0.92203 17.2334 0 16.1812 0 14.8834V7.05002C0 4.8869 1.53673 3.13334 3.43237 3.13334H4.11884V2.35001ZM5.49179 3.13334H16.4754V2.35001C16.4754 1.91739 16.168 1.56667 15.7889 1.56667H6.17826C5.79914 1.56667 5.49179 1.91739 5.49179 2.35001V3.13334ZM4.11884 15.6667V13.3167C4.11884 12.0189 5.04087 10.9667 6.17826 10.9667H15.7889C16.9262 10.9667 17.8483 12.0189 17.8483 13.3167V15.6667H19.9077C20.2868 15.6667 20.5942 15.3159 20.5942 14.8834V7.05002C20.5942 5.75215 19.6721 4.70002 18.5348 4.70002H3.43237C2.29498 4.70002 1.37295 5.75215 1.37295 7.05002V14.8834C1.37295 15.3159 1.6803 15.6667 2.05942 15.6667H4.11884ZM6.17826 12.5334C5.79914 12.5334 5.49179 12.8842 5.49179 13.3167V19.5834C5.49179 20.016 5.79914 20.3667 6.17826 20.3667H15.7889C16.168 20.3667 16.4754 20.016 16.4754 19.5834V13.3167C16.4754 12.8842 16.168 12.5334 15.7889 12.5334H6.17826Z" fill="#474D9B"/>
</svg>
