<svg width="16" height="16" viewBox="0 0 16 16" fill="none" xmlns="http://www.w3.org/2000/svg">
<path d="M7.27062 8.72938V16H0V8.72938H7.27062ZM13.0941 14.547V16H11.6353V14.547H13.0941ZM15.9884 14.547V16H14.547V14.547H15.9884ZM13.0941 8.75832V10.2113H14.547V8.72938H16V13.0941H11.6353V11.6353H10.1823V16H8.72938V8.72938L13.0941 8.75832ZM5.81766 10.1823H1.45297V14.5355H5.81766V10.1823ZM4.36469 11.6353V13.0941H2.90593V11.6353H4.36469ZM7.25904 0V7.27062H0V0H7.25904ZM15.9884 0V7.27062H8.72938V0H15.9884ZM5.81766 1.45297H1.45297V5.81766H5.81766V1.45297ZM14.547 1.45297H10.1823V5.81766H14.547V1.45297ZM4.36469 2.90593V4.36469H2.90593V2.90593H4.36469ZM13.0941 2.90593V4.36469H11.6353V2.90593H13.0941Z" fill="#474D9B"/>
</svg>
