<svg width="32" height="32" viewBox="0 0 32 32" fill="none" xmlns="http://www.w3.org/2000/svg">
<path d="M16.4688 14.5938H18.3438C18.4681 14.5938 18.5873 14.5444 18.6752 14.4565C18.7631 14.3686 18.8125 14.2493 18.8125 14.125V12.25C18.8125 12.1257 18.7631 12.0064 18.6752 11.9185C18.5873 11.8306 18.4681 11.7812 18.3438 11.7812H16.4688C16.2099 11.7812 16 11.9911 16 12.25V14.125C16 14.2493 16.0494 14.3686 16.1373 14.4565C16.2252 14.5444 16.3444 14.5938 16.4688 14.5938ZM16.9375 12.7188H17.875V13.6563H16.9375V12.7188Z" fill="#474D9B"/>
<path d="M19.75 11.7812H24.4375V12.7188H19.75V11.7812Z" fill="#474D9B"/>
<path d="M19.75 13.6562H22.5625V14.5938H19.75V13.6562Z" fill="#474D9B"/>
<path d="M10.375 29.125H21.625C21.7493 29.125 21.8686 29.0756 21.9565 28.9877C22.0444 28.8998 22.0938 28.7806 22.0938 28.6563V26.7813C22.0938 26.6569 22.0444 26.5377 21.9565 26.4498C21.8686 26.3619 21.7493 26.3125 21.625 26.3125H10.375C10.1161 26.3125 9.90625 26.5224 9.90625 26.7813V28.6563C9.90625 28.7806 9.95564 28.8998 10.0435 28.9877C10.1314 29.0756 10.2507 29.125 10.375 29.125ZM10.8438 27.25H21.1563V28.1875H10.8438V27.25Z" fill="#474D9B"/>
<path d="M5.21875 14.5938H11.7813C11.9056 14.5938 12.0248 14.5444 12.1127 14.4565C12.2006 14.3686 12.25 14.2493 12.25 14.125V12.25C12.25 12.1257 12.2006 12.0064 12.1127 11.9185C12.0248 11.8306 11.9056 11.7812 11.7813 11.7812H5.21875C4.95989 11.7812 4.75 11.9911 4.75 12.25V14.125C4.75 14.2493 4.79939 14.3686 4.88728 14.4565C4.97517 14.5444 5.09445 14.5938 5.21875 14.5938ZM5.6875 12.7188H11.3125V13.6563H5.6875V12.7188Z" fill="#474D9B"/>
<path d="M8.5 20.6875C8.5 21.2052 8.08022 21.625 7.5625 21.625C7.04478 21.625 6.625 21.2052 6.625 20.6875C6.625 20.1698 7.04478 19.75 7.5625 19.75C8.08022 19.75 8.5 20.1698 8.5 20.6875Z" fill="#474D9B"/>
<path d="M16.9375 20.6875C16.9375 21.2052 16.5177 21.625 16 21.625C15.4823 21.625 15.0625 21.2052 15.0625 20.6875C15.0625 20.1698 15.4823 19.75 16 19.75C16.5177 19.75 16.9375 20.1698 16.9375 20.6875Z" fill="#474D9B"/>
<path d="M25.375 20.6875C25.375 21.2052 24.9552 21.625 24.4375 21.625C23.9198 21.625 23.5 21.2052 23.5 20.6875C23.5 20.1698 23.9198 19.75 24.4375 19.75C24.9552 19.75 25.375 20.1698 25.375 20.6875Z" fill="#474D9B"/>
<path d="M31 16.9375V16H29.5094C29.564 15.8497 29.5925 15.6911 29.5937 15.5312V2.40623C29.5937 2.03332 29.4456 1.67546 29.1819 1.41183C28.9182 1.14821 28.5603 1 28.1875 1H15.0625C14.6896 1 14.3317 1.14816 14.0681 1.41183C13.8044 1.6755 13.6562 2.03337 13.6562 2.40623V5.7718C13.506 5.71719 13.3474 5.68872 13.1875 5.68747H3.81247C3.43956 5.68747 3.0817 5.83563 2.81807 6.0993C2.55445 6.36298 2.40624 6.72084 2.40624 7.0937V15.5312C2.4075 15.6911 2.43596 15.8497 2.49057 16H1V16.9375H1.9375V17.875H1.46875C1.20989 17.875 1 18.0849 1 18.3437V22.0937C1 22.4666 1.14816 22.8245 1.41183 23.0881C1.6755 23.3517 2.03337 23.4999 2.40623 23.4999H2.87498V24.4375H1.93748V25.375H2.87498V30.0625C2.87498 30.3111 2.97375 30.5496 3.14953 30.7254C3.32531 30.9012 3.56387 31 3.81248 31H28.1875C28.4361 31 28.6747 30.9012 28.8505 30.7254C29.0262 30.5496 29.125 30.3111 29.125 30.0625V25.375H30.0625V24.4375H29.125V23.4999H29.5938C29.9667 23.4999 30.3245 23.3518 30.5882 23.0881C30.8518 22.8244 31 22.4666 31 22.0937V18.3437C31 18.2194 30.9506 18.1001 30.8627 18.0122C30.7748 17.9244 30.6556 17.875 30.5312 17.875H30.0625V16.9375L31 16.9375ZM20.2187 1.93747H23.0312V3.81248H20.2187V1.93747ZM20.2187 4.74998H23.0312V5.68748H20.2187V4.74998ZM14.5937 7.09373V4.28123H17.8749V3.34373H14.5937V2.40623C14.5937 2.14737 14.8036 1.93747 15.0624 1.93747H19.2812V6.15623C19.2812 6.28053 19.3306 6.39982 19.4185 6.48771C19.5063 6.5756 19.6256 6.62498 19.7499 6.62498H23.4999C23.6242 6.62498 23.7435 6.5756 23.8314 6.48771C23.9193 6.39982 23.9687 6.28053 23.9687 6.15623V1.93747H28.1874C28.3117 1.93747 28.431 1.98686 28.5189 2.07475C28.6068 2.16264 28.6562 2.28192 28.6562 2.40623V3.34373H25.3749V4.28123H28.6562V15.5312C28.6562 15.6556 28.6068 15.7748 28.5189 15.8627C28.431 15.9506 28.3117 16 28.1874 16H15.0624C14.8036 16 14.5937 15.7901 14.5937 15.5312V7.09373ZM7.56241 6.62498H9.43741V9.43749H7.56241V6.62498ZM3.34365 8.49999H5.68741V7.56248H3.34365V7.09373C3.34365 6.83488 3.55355 6.62498 3.8124 6.62498H6.62491V9.90624C6.62491 10.0305 6.67429 10.1498 6.76219 10.2377C6.85008 10.3256 6.96936 10.375 7.09366 10.375H9.90616C10.0305 10.375 10.1497 10.3256 10.2376 10.2377C10.3255 10.1498 10.3749 10.0305 10.3749 9.90624V6.62498H13.1874C13.3117 6.62498 13.431 6.67437 13.5189 6.76226C13.6068 6.85015 13.6562 6.96943 13.6562 7.09373V7.56248H11.3124V8.49999H13.6562V15.5312C13.6562 15.6556 13.6068 15.7748 13.5189 15.8627C13.431 15.9506 13.3117 16 13.1874 16H3.8124C3.55355 16 3.34365 15.7901 3.34365 15.5312V8.49999ZM2.8749 16.9375H29.1249V17.875H2.8749V16.9375ZM26.3124 20.6875C26.3124 21.1847 26.1149 21.6617 25.7633 22.0134C25.4116 22.365 24.9346 22.5625 24.4374 22.5625C23.9402 22.5625 23.4633 22.365 23.1115 22.0134C22.76 21.6616 22.5624 21.1847 22.5624 20.6875C22.5624 20.1903 22.76 19.7134 23.1115 19.3616C23.4633 19.01 23.9402 18.8125 24.4374 18.8125C24.9346 18.8125 25.4116 19.01 25.7633 19.3616C26.1149 19.7134 26.3124 20.1903 26.3124 20.6875ZM22.3469 22.5625H18.0905C18.5517 22.0469 18.8068 21.3793 18.8068 20.6875C18.8068 19.9957 18.5517 19.3281 18.0905 18.8125H22.3469C21.8857 19.3281 21.6306 19.9957 21.6306 20.6875C21.6306 21.3793 21.8857 22.0469 22.3469 22.5625ZM17.8749 20.6875C17.8749 21.1847 17.6774 21.6617 17.3258 22.0134C16.974 22.365 16.4971 22.5625 15.9999 22.5625C15.5027 22.5625 15.0258 22.365 14.674 22.0134C14.3225 21.6616 14.1249 21.1847 14.1249 20.6875C14.1249 20.1903 14.3225 19.7134 14.674 19.3616C15.0258 19.01 15.5027 18.8125 15.9999 18.8125C16.4971 18.8125 16.9741 19.01 17.3258 19.3616C17.6774 19.7134 17.8749 20.1903 17.8749 20.6875ZM13.9094 22.5625H9.65298C10.1142 22.0469 10.3693 21.3793 10.3693 20.6875C10.3693 19.9957 10.1142 19.3281 9.65298 18.8125H13.9094C13.4482 19.3281 13.1931 19.9957 13.1931 20.6875C13.1931 21.3793 13.4482 22.0469 13.9094 22.5625ZM9.43741 20.6875C9.43741 21.1847 9.23987 21.6617 8.88831 22.0134C8.53653 22.365 8.05961 22.5625 7.56241 22.5625C7.06521 22.5625 6.58826 22.365 6.23651 22.0134C5.88495 21.6616 5.68741 21.1847 5.68741 20.6875C5.68741 20.1903 5.88495 19.7134 6.23651 19.3616C6.58829 19.01 7.06521 18.8125 7.56241 18.8125C8.05961 18.8125 8.53655 19.01 8.88831 19.3616C9.23987 19.7134 9.43741 20.1903 9.43741 20.6875ZM3.34365 22.5625H2.40615C2.14729 22.5625 1.9374 22.3526 1.9374 22.0938V18.8125H5.47189C5.01067 19.3281 4.75558 19.9957 4.75558 20.6875C4.75558 21.3793 5.01067 22.0469 5.47189 22.5625H3.34365ZM28.1874 27.25H23.9687V28.1875H28.1874V30.0625H3.8124V28.1875H8.03116V27.25H3.8124V25.375H28.1874V27.25ZM28.1874 24.4375H3.8124V23.5H28.1874V24.4375ZM30.0624 22.0938C30.0624 22.2181 30.0131 22.3373 29.9252 22.4252C29.8373 22.5131 29.718 22.5625 29.5937 22.5625H26.528C26.9892 22.0469 27.2443 21.3793 27.2443 20.6875C27.2443 19.9957 26.9892 19.3281 26.528 18.8125H30.0624V22.0938Z" fill="#474D9B"/>
</svg>
