<svg width="27" height="24" viewBox="0 0 27 24" fill="none" xmlns="http://www.w3.org/2000/svg">
<g clip-path="url(#clip0_1310_2117)">
<path d="M18.7208 11.85L15.9707 5.59L13.6519 9.25L11.3331 5.59L8.58303 11.852H7.78828V12.793H11.9294V11.852H11.3164L11.9128 10.297L13.6519 12.867L15.391 10.297L15.9874 11.852H15.3744V12.793H19.5321V11.852L18.7208 11.85ZM24.6343 9.938C24.635 8.63274 24.3506 7.34015 23.7972 6.13412C23.2439 4.92809 22.4325 3.83227 21.4095 2.90931C20.3864 1.98635 19.1718 1.25435 17.835 0.755148C16.4982 0.255949 15.0654 -0.000655939 13.6186 1.25918e-06C7.53999 1.25918e-06 2.60303 4.453 2.60303 9.938C2.60303 12.688 3.84558 15.168 5.833 16.961C5.95746 17.0743 6.11644 17.1516 6.28973 17.1831C6.46302 17.2146 6.64278 17.199 6.80617 17.1381C6.96956 17.0772 7.10918 16.9738 7.20728 16.8412C7.30539 16.7085 7.35754 16.5525 7.3571 16.393C7.35748 16.175 7.26224 15.9658 7.09218 15.811C5.37054 14.2515 4.40572 12.139 4.40977 9.938C4.40977 5.35 8.53315 1.614 13.6186 1.614C18.7041 1.614 22.8452 5.35 22.8452 9.938C22.848 11.0316 22.6108 12.1149 22.1474 13.1254C21.6839 14.136 21.0035 15.0538 20.1451 15.826L12.3595 22.849L13.6186 24L21.4209 16.961C22.4432 16.0393 23.2534 14.9442 23.8049 13.739C24.3563 12.5337 24.6382 11.2419 24.6343 9.938Z" fill="#474D9B"/>
</g>
<defs>
<clipPath id="clip0_1310_2117">
<rect width="26.6024" height="24" fill="white" transform="translate(0.317383)"/>
</clipPath>
</defs>
</svg>
