<svg width="28" height="28" viewBox="0 0 28 28" fill="none" xmlns="http://www.w3.org/2000/svg">
<path d="M14 0C11.2311 0 8.52431 0.821086 6.22202 2.35943C3.91973 3.89776 2.12532 6.08426 1.06569 8.64243C0.00606594 11.2006 -0.271181 14.0155 0.269012 16.7313C0.809205 19.447 2.14258 21.9416 4.10051 23.8995C6.05844 25.8574 8.55301 27.1908 11.2687 27.731C13.9845 28.2712 16.7994 27.9939 19.3576 26.9343C21.9157 25.8747 24.1022 24.0803 25.6406 21.778C27.1789 19.4757 28 16.7689 28 14C27.9909 10.2898 26.513 6.7341 23.8894 4.11056C21.2659 1.48702 17.7102 0.0091049 14 0ZM14 26.6552C11.5053 26.6552 9.06663 25.9158 6.99192 24.5306C4.91721 23.1453 3.29958 21.1763 2.34334 18.8721C1.38711 16.568 1.13517 14.0322 1.61936 11.585C2.10354 9.13773 3.30212 6.88889 5.06371 5.12249C6.8253 3.35609 9.07086 2.15137 11.5168 1.66051C13.9627 1.16966 16.4992 1.41467 18.8059 2.36462C21.1126 3.31456 23.0861 4.92682 24.477 6.99774C25.8679 9.06866 26.6139 11.5053 26.6207 14C26.6116 17.3444 25.279 20.5492 22.9141 22.9141C20.5493 25.279 17.3444 26.6116 14 26.6207V26.6552Z" fill="#474D9B"/>
<path d="M14.0003 4.51709C11.4854 4.51709 9.07337 5.51616 7.29501 7.29452C5.51665 9.07289 4.51758 11.4849 4.51758 13.9998H5.89689C5.88968 12.4546 6.32633 10.9397 7.15495 9.63541C7.98357 8.33108 9.16929 7.29211 10.5712 6.64201C11.9731 5.99192 13.5321 5.75804 15.0631 5.96818C16.594 6.17832 18.0324 6.82364 19.2072 7.82743L15.2762 11.7585C14.7322 11.4483 14.0941 11.346 13.4804 11.4706C12.8667 11.5953 12.319 11.9383 11.9391 12.4362C11.5592 12.934 11.3729 13.5528 11.4147 14.1777C11.4565 14.8025 11.7236 15.391 12.1664 15.8338C12.6092 16.2766 13.1977 16.5437 13.8225 16.5855C14.4473 16.6273 15.0661 16.441 15.564 16.0611C16.0618 15.6812 16.4049 15.1335 16.5296 14.5198C16.6542 13.9061 16.5519 13.268 16.2417 12.724L20.1727 8.79295C21.4149 10.2439 22.0995 12.0899 22.1038 13.9998H23.4831C23.4831 11.4849 22.484 9.07289 20.7057 7.29452C18.9273 5.51616 16.5153 4.51709 14.0003 4.51709ZM14.0003 15.1723C13.7602 15.1722 13.5255 15.1004 13.3264 14.9662C13.1272 14.832 12.9726 14.6414 12.8824 14.4189C12.7921 14.1964 12.7703 13.9519 12.8198 13.7169C12.8692 13.4819 12.9876 13.267 13.1599 13.0997C13.3321 12.9323 13.5504 12.8202 13.7867 12.7776C14.0231 12.735 14.2667 12.7639 14.4866 12.8605C14.7064 12.9572 14.8924 13.1172 15.0208 13.3202C15.1492 13.5232 15.2141 13.7598 15.2072 13.9998C15.2072 14.3199 15.0801 14.6269 14.8537 14.8533C14.6274 15.0796 14.3204 15.2067 14.0003 15.2067V15.1723Z" fill="#474D9B"/>
</svg>
